<?xml version="1.0" standalone="no"?>
<!DOCTYPE svg PUBLIC "-//W3C//DTD SVG 1.1//EN" "http://www.w3.org/Graphics/SVG/1.1/DTD/svg11.dtd" >
<svg xmlns="http://www.w3.org/2000/svg" xmlns:xlink="http://www.w3.org/1999/xlink" version="1.1">
<metadata>
Created by FontForge 20170731 at Wed Sep  1 20:26:44 2021
 By Aleksey,,,
Copyright 2018 The Signika Project Authors (https://github.com/googlefonts/Signika).
</metadata>
<defs>
<font id="SignikaNegative-SemiBold" horiz-adv-x="1936" >
  <font-face 
    font-family="Signika Negative SemiBold"
    font-weight="600"
    font-stretch="normal"
    units-per-em="2000"
    panose-1="0 0 0 0 0 0 0 0 0 0"
    ascent="1600"
    descent="-400"
    x-height="992"
    cap-height="1375"
    bbox="-469 -555 2527 2228"
    underline-thickness="50"
    underline-position="-175"
    unicode-range="U+000D-FB04"
  />
<missing-glyph horiz-adv-x="1258" 
d="M266 0q-96 0 -96 96v1178q0 96 96 96h727q96 0 96 -96v-1178q0 -96 -96 -96h-727zM279 17l-72 232l88 -20q15 36 30 67.5t41.5 78t75.5 126t132 211.5l50 56l357 575l82 -216l-87 20q-15 -36 -30.5 -67.5t-42 -78t-75.5 -126t-132 -211.5l-50 -56zM980 28l-386 610
q-91 144 -144.5 229t-82 133t-44 79.5t-30.5 67.5l-97 -20l91 219l386 -610q91 -144 144.5 -229t82 -133t43.5 -79.5t30 -67.5l98 20zM274 108q63 7 139.5 9.5t218.5 2.5q143 0 221.5 -2.5t141.5 -9.5q-8 74 -13 130t-7.5 113.5t-3.5 134.5t-1 194q0 115 1 193.5t3.5 139
t7.5 118.5t13 131q-62 -4 -141 -8t-222 -4q-142 0 -218.5 4t-139.5 8q8 -72 13 -130t7.5 -118.5t3.5 -139.5t1 -194q0 -117 -1 -194.5t-3.5 -135t-7.5 -113t-13 -129.5z" />
    <glyph glyph-name="f_f" unicode="ff" horiz-adv-x="1297" 
d="M311 990l318 3h35l258 -3l380 4q10 -46 10 -89q0 -49 -10 -92l-381 6l-257 -4h-35l-319 4l-291 -6q-4 24 -6.5 46t-2.5 46q0 41 9 89zM802 886q-6 70 -14.5 136.5t-8.5 130.5q0 92 39.5 166t112.5 117t173 43q78 0 152.5 -16t122.5 -34q1 -43 -14.5 -91t-40.5 -75
q-35 10 -79 19.5t-86 9.5q-67 0 -105 -39.5t-38 -116.5q0 -57 10.5 -123t18.5 -129v-884q-58 -9 -122 -9q-62 0 -121 9v886zM191 886q-6 65 -18.5 134t-12.5 133q0 92 39.5 166t112.5 117t173 43q57 0 112 -9t98 -20q2 -27 -4 -61t-17 -64t-25 -47q-22 6 -50 10t-58 4
q-68 0 -105.5 -39.5t-37.5 -116.5q0 -57 14 -122.5t22 -129.5v-884q-34 -4 -63 -6t-58 -2q-28 0 -58 2t-64 6v886z" />
    <glyph glyph-name="f_i" unicode="fi" horiz-adv-x="1180" 
d="M1041 0q-32 -4 -63 -6t-62 -2q-30 0 -60.5 2t-62.5 6v705q0 52 -19.5 81t-71.5 29h-144q-62 0 -123.5 1t-124.5 3l-290 -6q-10 47 -10 92q0 44 10 89l292 -4q141 2 267 5t248 3h33q86 0 133.5 -55.5t47.5 -146.5v-796zM191 886q-6 65 -19 134t-13 133q0 92 39.5 166
t112.5 117t173 43q46 0 94 -6.5t85 -16.5q3 -27 -2.5 -60.5t-16.5 -64.5t-25 -48q-24 5 -44 7t-38 2q-66 0 -103.5 -39.5t-37.5 -116.5q0 -57 15 -122.5t23 -129.5v-884q-34 -4 -63 -6t-58 -2q-28 0 -58 2t-64 6v886zM753 1261q0 25 5 52t15 48q21 12 55 19.5t67 7.5
q31 0 67 -7.5t55 -19.5q9 -21 13.5 -48.5t4.5 -51.5q0 -55 -18 -100q-18 -12 -54.5 -19.5t-67.5 -7.5q-33 0 -68 7.5t-54 19.5q-10 22 -15 49t-5 51z" />
    <glyph glyph-name="f_l" unicode="fl" horiz-adv-x="1259" 
d="M1186 184q20 -56 20 -122q0 -13 -1 -27.5t-4 -27.5q-38 -6 -89.5 -11t-98.5 -5q-112 0 -165 57.5t-53 176.5v1126l243 71v-1147q0 -91 82 -91h66zM311 990l347 4q10 -45 10 -89q0 -22 -2.5 -45.5t-7.5 -46.5l-348 6l-291 -6q-9 45 -9 92q0 43 9 89zM191 886
q-6 70 -14.5 136.5t-8.5 130.5q0 149 101.5 237.5t288.5 88.5q66 0 149.5 -8t169.5 -20.5t161 -28.5l-88 -175q-53 11 -117.5 21.5t-126.5 17t-110 6.5q-90 0 -140.5 -36t-50.5 -120q0 -57 10.5 -123t18.5 -129v-884q-58 -9 -122 -9q-62 0 -121 9v886z" />
    <glyph glyph-name="f_f_i" unicode="ffi" horiz-adv-x="1791" 
d="M191 886q-6 65 -18.5 134t-12.5 133q0 92 39.5 166t112.5 117t173 43q57 0 112 -9t98 -20q2 -27 -4 -61t-17 -64t-25 -47q-22 6 -50 10t-58 4q-68 0 -105.5 -39.5t-37.5 -116.5q0 -57 14 -122.5t22 -129.5v-884q-34 -4 -63 -6t-58 -2q-28 0 -58 2t-64 6v886zM802 886
q-6 65 -19 134t-13 133q0 92 39.5 166t112.5 117t173 43q46 0 94.5 -6.5t85.5 -16.5q2 -27 -3.5 -60.5t-16 -64.5t-25.5 -48q-24 5 -44 7t-39 2q-64 0 -102 -39.5t-38 -116.5q0 -57 15 -122.5t23 -129.5v-884q-35 -4 -63.5 -6t-57.5 -2q-27 0 -58 2t-64 6v886zM1653 0
q-33 -4 -64 -6t-62 -2q-30 0 -60.5 2t-63.5 6v705q0 48 -19 79t-70 31h-145q-63 0 -124.5 1.5t-123.5 2.5l-257 -4h-35l-319 4l-291 -6q-4 24 -6.5 46t-2.5 46q0 41 9 89l292 -4l318 3h35l258 -3q129 2 257.5 4.5t257.5 3.5h34q85 0 133.5 -55.5t48.5 -146.5v-796z
M1365 1257q0 24 5 51t13 48q21 12 55.5 20t66.5 8q33 0 68.5 -8t54.5 -20q9 -21 14 -48.5t5 -50.5q0 -25 -5 -51.5t-14 -48.5q-18 -12 -54 -20t-69 -8q-32 0 -67 8t-55 20q-8 22 -13 48.5t-5 51.5z" />
    <glyph glyph-name="f_f_l" unicode="ffl" horiz-adv-x="1869" 
d="M311 990l318 3h35l258 -3l347 4q5 -22 7 -44.5t2 -44.5q0 -24 -2 -47.5t-7 -44.5l-348 6l-257 -4h-35l-319 4l-291 -6q-4 24 -6.5 46t-2.5 46q0 41 9 89zM1797 184q9 -26 14.5 -58t5.5 -64q0 -13 -1 -27.5t-5 -27.5q-38 -6 -89 -11t-99 -5q-112 0 -165 57.5t-53 176.5
v1126l244 71v-1147q0 -91 81 -91h67zM802 886q-6 70 -15 136.5t-9 130.5q0 149 101.5 237.5t288.5 88.5q67 0 150 -8t169 -20.5t162 -28.5l-89 -175q-52 11 -116.5 21.5t-126.5 17t-110 6.5q-91 0 -141.5 -36t-50.5 -120q0 -57 10.5 -123t19.5 -129v-884q-59 -9 -123 -9
q-62 0 -120 9v886zM191 886q-6 65 -18.5 134t-12.5 133q0 92 39.5 166t112.5 117t173 43q57 0 112 -9t98 -20q2 -27 -4 -61t-17 -64t-25 -47q-22 6 -50 10t-58 4q-68 0 -105.5 -39.5t-37.5 -116.5q0 -57 14 -122.5t22 -129.5v-884q-34 -4 -63 -6t-58 -2q-28 0 -58 2t-64 6
v886z" />
    <glyph glyph-name="f_f_j" unicode="ffj" horiz-adv-x="1795" 
d="M922 990q104 0 190.5 2t167 4t163.5 2h33q84 0 132 -54t48 -147v-752q0 -103 -10.5 -182.5t-43.5 -138t-98 -98.5t-175 -65q-25 22 -45.5 64.5t-23.5 87.5q85 40 118 90t33 156v746q0 52 -19.5 81t-70.5 29h-152l-248 4l-257 -4h-35l-319 4l-291 -6q-4 24 -6.5 46
t-2.5 46q0 41 9 89l292 -4l318 3h35zM191 886q-6 65 -18.5 134t-12.5 133q0 92 39.5 166t112.5 117t173 43q57 0 112 -9t98 -20q2 -27 -4 -61t-17 -64t-25 -47q-22 6 -50 10t-58 4q-68 0 -105.5 -39.5t-37.5 -116.5q0 -57 14 -122.5t22 -129.5v-884q-34 -4 -63 -6t-58 -2
q-28 0 -58 2t-64 6v886zM802 886q-6 65 -19 134t-13 133q0 92 39.5 166t112.5 117t173 43q46 0 94.5 -6.5t85.5 -16.5q2 -27 -3.5 -60.5t-16 -64.5t-25.5 -48q-24 5 -44 7t-39 2q-64 0 -102 -39.5t-38 -116.5q0 -57 15 -122.5t23 -129.5v-884q-35 -4 -63.5 -6t-57.5 -2
q-27 0 -58 2t-64 6v886zM1368 1261q0 55 19 100q21 12 55.5 19.5t66.5 7.5t68 -7.5t54 -19.5q20 -45 20 -100q0 -53 -20 -100q-17 -12 -53.5 -19.5t-68.5 -7.5t-67 7.5t-55 19.5q-19 47 -19 100z" />
    <glyph glyph-name="f_f_t" unicode="fft" horiz-adv-x="1947" 
d="M1216 815l-296 4l-256 -4h-35l-319 4l-291 -6q-4 24 -6.5 46t-2.5 46q0 41 9 89l292 -4l318 3h35l258 -3l294 3h55l279 -5l341 6q6 -24 8 -45.5t2 -43.5q0 -24 -2 -46.5t-8 -45.5l-346 6l-273 -4h-56zM1404 1142q0 83 29.5 118.5t104.5 35.5h96l13 -13v-1010
q0 -41 19.5 -65t65.5 -24h127q20 -56 20 -122q0 -13 -1 -27.5t-4 -27.5q-52 -6 -115 -11t-122 -5q-116 0 -174.5 57.5t-58.5 176.5v917zM802 886q-6 70 -14.5 136.5t-8.5 130.5q0 92 39.5 166t112.5 117t173 43q62 0 121.5 -10.5t102.5 -24.5q3 -44 -11.5 -92.5t-39.5 -75.5
q-28 6 -57.5 11t-60.5 5q-67 0 -105 -39.5t-38 -116.5q0 -57 10.5 -123t18.5 -129v-884q-58 -9 -122 -9q-62 0 -121 9v886zM191 886q-6 65 -18.5 134t-12.5 133q0 92 39.5 166t112.5 117t173 43q57 0 112 -9t98 -20q2 -27 -4 -61t-17 -64t-25 -47q-22 6 -50 10t-58 4
q-68 0 -105.5 -39.5t-37.5 -116.5q0 -57 14 -122.5t22 -129.5v-884q-34 -4 -63 -6t-58 -2q-28 0 -58 2t-64 6v886z" />
    <glyph glyph-name="f_j" unicode="fj" horiz-adv-x="1184" 
d="M311 990q156 1 285 4.5t235 3.5h33q84 0 132.5 -54t48.5 -147v-752q0 -103 -10.5 -182.5t-43 -138t-98 -98.5t-175.5 -65q-25 22 -45 64.5t-25 87.5q86 40 118.5 90t32.5 156v746q0 52 -19 81t-70 29h-152q-62 0 -124 1.5t-124 2.5l-291 -6q-4 24 -6.5 46t-2.5 46
q0 41 9 89zM191 886q-6 65 -19 134t-13 133q0 92 39.5 166t112.5 117t173 43q46 0 94 -6.5t85 -16.5q3 -27 -2.5 -60.5t-16.5 -64.5t-25 -48q-24 5 -44 7t-38 2q-66 0 -103.5 -39.5t-37.5 -116.5q0 -57 15 -122.5t23 -129.5v-884q-34 -4 -63 -6t-58 -2q-28 0 -58 2t-64 6
v886zM748 1261q0 25 5 52t15 48q21 12 56.5 19.5t69.5 7.5q32 0 69 -7.5t56 -19.5q10 -21 15 -48.5t5 -51.5t-5 -51t-15 -49q-18 -12 -55.5 -19.5t-69.5 -7.5q-34 0 -70 7.5t-56 19.5q-10 22 -15 49t-5 51z" />
    <glyph glyph-name="f_t" unicode="ft" horiz-adv-x="1336" 
d="M793 1142q0 83 29.5 118.5t105.5 35.5h95l13 -13v-1010q0 -41 19.5 -65t65.5 -24h127q20 -57 20 -122q0 -13 -0.5 -27.5t-4.5 -27.5q-52 -6 -115 -11t-123 -5q-115 0 -173.5 57.5t-58.5 176.5v917zM302 990l291 3h65l278 -5l345 6q9 -46 9 -89q0 -49 -9 -92l-350 6
l-273 -4h-65l-292 4l-282 -6q-4 24 -6.5 46t-2.5 46q0 41 9 89zM793 1142q0 83 29.5 118.5t105.5 35.5h95l13 -13v-1010q0 -41 19.5 -65t65.5 -24h127q20 -57 20 -122q0 -13 -0.5 -27.5t-4.5 -27.5q-52 -6 -115 -11t-123 -5q-115 0 -173.5 57.5t-58.5 176.5v917zM191 886
q-6 70 -14.5 136.5t-8.5 130.5q0 92 39.5 166t112 117t172.5 43q63 0 122.5 -10.5t101.5 -24.5q3 -44 -11 -92.5t-38 -75.5q-29 6 -58.5 11t-61.5 5q-66 0 -104 -39.5t-38 -116.5q0 -57 10.5 -123t18.5 -129v-884q-58 -9 -122 -9q-62 0 -121 9v886z" />
    <glyph glyph-name="v_i" unicode="vi" horiz-adv-x="1459" 
d="M1320 0q-52 -9 -124 -9q-68 0 -124 9v705q0 52 -19.5 81t-70.5 29h-104l-250 -815q-43 -6 -92 -8.5t-95 -2.5q-72 0 -111.5 24.5t-64.5 104.5l-262 854q37 17 73.5 26.5t67.5 9.5q56 0 89.5 -24.5t49.5 -87.5l116 -413q13 -45 25.5 -96.5t23 -98t16.5 -77.5q2 -16 19 -16
l208 787q24 7 59.5 10.5t63.5 3.5h325q83 0 132 -53.5t49 -145.5v-797zM1011 1264q0 55 20 100q22 12 57 19.5t69 7.5q32 0 69 -7.5t56 -19.5q10 -21 15 -48.5t5 -51.5t-5 -51t-15 -49q-18 -12 -55.5 -19.5t-69.5 -7.5q-34 0 -70 7.5t-56 19.5q-20 47 -20 100z" />
    <glyph glyph-name="v_j" unicode="vj" horiz-adv-x="1468" 
d="M1019 1265q0 54 19 100q22 11 57 18.5t69 7.5q33 0 70 -7.5t56 -18.5q9 -21 14 -49t5 -51q0 -24 -5 -51.5t-14 -48.5q-19 -12 -56 -19.5t-70 -7.5q-34 0 -70 7.5t-56 19.5q-19 46 -19 100zM1148 996q84 0 132 -53t48 -146v-798q0 -133 -28 -219.5t-98.5 -138.5
t-199.5 -80q-26 22 -46 64.5t-24 87.5q85 40 118 90t33 156v746q0 52 -20 81t-70 29h-115l-250 -815q-43 -6 -92 -8.5t-95 -2.5q-72 0 -111.5 24.5t-64.5 104.5l-262 854q37 17 73.5 26.5t67.5 9.5q56 0 90 -24.5t49 -87.5l116 -413q13 -45 25.5 -96.5t23 -98t16.5 -77.5
q2 -16 19 -16l208 787q24 7 59.5 10.5t63.5 3.5h334z" />
    <glyph glyph-name=".notdef" horiz-adv-x="1258" 
d="M266 0q-96 0 -96 96v1178q0 96 96 96h727q96 0 96 -96v-1178q0 -96 -96 -96h-727zM279 17l-72 232l88 -20q15 36 30 67.5t41.5 78t75.5 126t132 211.5l50 56l357 575l82 -216l-87 20q-15 -36 -30.5 -67.5t-42 -78t-75.5 -126t-132 -211.5l-50 -56zM980 28l-386 610
q-91 144 -144.5 229t-82 133t-44 79.5t-30.5 67.5l-97 -20l91 219l386 -610q91 -144 144.5 -229t82 -133t43.5 -79.5t30 -67.5l98 20zM274 108q63 7 139.5 9.5t218.5 2.5q143 0 221.5 -2.5t141.5 -9.5q-8 74 -13 130t-7.5 113.5t-3.5 134.5t-1 194q0 115 1 193.5t3.5 139
t7.5 118.5t13 131q-62 -4 -141 -8t-222 -4q-142 0 -218.5 4t-139.5 8q8 -72 13 -130t7.5 -118.5t3.5 -139.5t1 -194q0 -117 -1 -194.5t-3.5 -135t-7.5 -113t-13 -129.5z" />
    <glyph glyph-name=".null" horiz-adv-x="0" 
 />
    <glyph glyph-name="nonmarkingreturn" horiz-adv-x="666" 
 />
    <glyph glyph-name="CR" unicode="&#xd;" horiz-adv-x="0" 
 />
    <glyph glyph-name="space" unicode=" " horiz-adv-x="440" 
 />
    <glyph glyph-name="exclam" unicode="!" horiz-adv-x="592" 
d="M195 400q-14 197 -29 393t-15 394v178q35 9 87.5 12.5t104.5 0t87 -13.5v-179q0 -196 -16.5 -392t-28.5 -393q-24 -6 -49 -8.5t-45 -2.5q-19 0 -46 2.5t-50 8.5zM291 243q34 0 68.5 -7.5t56.5 -21.5q10 -15 15 -47.5t5 -55.5q0 -24 -5 -55.5t-15 -47.5
q-22 -13 -56.5 -20.5t-68.5 -7.5q-78 0 -128 28q-8 16 -13.5 47.5t-5.5 55.5q0 23 5.5 55.5t13.5 47.5q51 29 128 29z" />
    <glyph glyph-name="quotedbl" unicode="&#x22;" horiz-adv-x="828" 
d="M483 1418q0 28 3 54t9 52q25 14 53 21.5t61 7.5t62 -7.5t52 -21.5q6 -26 9.5 -52t3.5 -54q0 -18 -9.5 -85t-24 -160t-31.5 -190q-21 -13 -61 -13t-62 13q-16 98 -31 191t-24.5 159.5t-9.5 84.5zM92 1418q0 28 3 54t9 52q25 14 53 21.5t61 7.5t62 -7.5t52 -21.5
q6 -26 9.5 -52t3.5 -54q0 -18 -9.5 -85t-24 -160t-31.5 -190q-21 -13 -61 -13t-62 13q-16 98 -31 191t-24.5 159.5t-9.5 84.5z" />
    <glyph glyph-name="numbersign" unicode="#" horiz-adv-x="1348" 
d="M196 26q19 -9 48.5 -13.5t61.5 -4.5q31 0 61 4.5t50 13.5l282 1262q-40 17 -108 17q-31 0 -61 -4.5t-51 -12.5zM663 26q18 -9 47.5 -13.5t61.5 -4.5t61.5 4.5t49.5 13.5l283 1262q-40 17 -109 17q-31 0 -61 -4.5t-50 -12.5zM1198 292q15 42 15 100t-15 100h-1141
q-7 -21 -10.5 -47t-3.5 -53t3.5 -53t10.5 -47h1141zM1297 821q16 43 16 101q0 57 -16 100h-1140q-8 -21 -11.5 -47t-3.5 -53t3.5 -53t11.5 -48h1140z" />
    <glyph glyph-name="dollar" unicode="$" horiz-adv-x="1080" 
d="M516 49q-85 0 -167.5 19t-150 48t-108.5 57q1 33 14 71t34 70.5t46 48.5q69 -45 158 -77.5t169 -33.5q74 -1 120.5 31t46.5 90q1 44 -27 81.5t-97 61.5l-184 67q-107 39 -177 112.5t-70 187.5q0 101 50 177.5t137 120t197 43.5q123 0 221.5 -26.5t174.5 -66.5
q0 -51 -24.5 -104t-62.5 -86q-72 37 -145 58t-140 21q-71 0 -111.5 -30t-40.5 -80t33.5 -76t90.5 -47l176 -65q117 -43 187.5 -126t70.5 -213q0 -99 -52.5 -174t-147 -117.5t-221.5 -42.5zM504 -126q-26 0 -51.5 2.5t-43.5 7.5v242h189v-242q-17 -5 -42 -7.5t-52 -2.5z
M429 1143v246q19 5 44.5 7t49.5 2q25 0 50.5 -2t43.5 -7v-246h-188z" />
    <glyph glyph-name="percent" unicode="%" horiz-adv-x="1881" 
d="M1787 395q0 -188 -75 -304t-252 -116q-119 0 -190.5 53t-103.5 148t-32 219q0 188 74.5 303.5t251.5 115.5q118 0 190 -53t104.5 -147t32.5 -219zM1341 395q0 -70 8.5 -130t34.5 -96t77 -36t76.5 36t34 96t8.5 130t-8.5 129.5t-34 95.5t-76.5 36t-77 -36t-34.5 -95.5
t-8.5 -129.5zM747 874q0 -188 -75 -304t-252 -116q-120 0 -191.5 53.5t-103 148.5t-31.5 218q0 188 74.5 303.5t251.5 115.5t252 -116.5t75 -302.5zM300 874q0 -70 9 -130t35 -96t77 -36t77 36t34 96t8 130q0 71 -8 130t-34 95t-77 36t-77 -36t-35 -95t-9 -130zM1179 1283
q32 9 81 11.5t94 -1t66 -10.5l-708 -1283q-32 -8 -81 -10.5t-94.5 0.5t-66.5 10z" />
    <glyph glyph-name="ampersand" unicode="&#x26;" horiz-adv-x="1272" 
d="M1017 827q55 0 108 8.5t90 26.5q17 -20 25.5 -52.5t8.5 -65.5q0 -70 -45.5 -99.5t-120.5 -29.5h-464q-92 0 -150.5 -32t-86.5 -86t-28 -120q0 -102 53 -154.5t136 -52.5q77 0 140 27t101 60v233q0 47 1.5 114.5t5.5 125.5h231q5 -58 6.5 -125.5t1.5 -113.5v-182
q0 -68 3.5 -154t9.5 -155q-45 -14 -116 -14q-68 0 -114 12l-18 83q-62 -48 -144.5 -78t-172.5 -30q-126 0 -212 51.5t-130 139t-44 195.5q0 113 51.5 199.5t131 136t164.5 50.5v-30q-80 2 -145.5 45t-104.5 114.5t-39 158.5q0 104 51 185.5t146.5 128t228.5 46.5
q108 0 211.5 -17.5t177.5 -44.5q2 -48 -15.5 -102t-49.5 -89q-67 21 -139.5 37t-151.5 16q-96 0 -146 -50.5t-50 -127.5q0 -89 55 -138.5t173 -49.5h376z" />
    <glyph glyph-name="quotesingle" unicode="'" horiz-adv-x="446" 
d="M88 1418q0 28 3 54t9 52q25 14 53 21.5t61 7.5t62 -7.5t52 -21.5q6 -26 9.5 -52t3.5 -54q0 -18 -9.5 -85t-24 -160t-31.5 -190q-21 -13 -61 -13t-62 13q-16 98 -31 191t-24.5 159.5t-9.5 84.5z" />
    <glyph glyph-name="parenleft" unicode="(" horiz-adv-x="698" 
d="M385 547q0 -151 29.5 -307t91.5 -304.5t157 -277.5q-24 -51 -63 -84.5t-83 -48.5q-129 126 -217.5 297.5t-133 360t-44.5 364.5q0 177 44.5 365.5t133 360t217.5 296.5q44 -14 83 -47t63 -85q-95 -129 -157 -277.5t-91.5 -305t-29.5 -307.5z" />
    <glyph glyph-name="parenright" unicode=")" horiz-adv-x="698" 
d="M313 547q0 -151 -30 -307t-91.5 -304.5t-157.5 -277.5q24 -51 63.5 -84.5t82.5 -48.5q131 126 219 297.5t132.5 360t44.5 364.5q0 177 -44.5 365.5t-132.5 360t-219 296.5q-43 -14 -82.5 -47t-63.5 -85q96 -129 157.5 -277.5t91.5 -305t30 -307.5z" />
    <glyph glyph-name="asterisk" unicode="*" horiz-adv-x="1022" 
d="M406 1461q25 10 64.5 13.5t79.5 0t64 -13.5l-4 -119q-1 -68 -21 -140t-37 -136q-19 -22 -41 -22q-24 0 -43 22q-17 64 -36 136t-22 140zM83 1074q-3 26 6 65t24.5 76t33.5 58l111 -40q64 -23 126.5 -64.5t118.5 -77.5q15 -24 8 -47q-4 -11 -12.5 -19t-22.5 -13
q-66 3 -140.5 6.5t-139.5 23.5zM350 648q-26 6 -60 26t-64 46t-45 50l73 92q41 55 100 101.5t108 87.5q30 8 49 -7q9 -6 14.5 -17t5.5 -25q-23 -62 -49.5 -131t-66.5 -125zM837 769q-13 -23 -42.5 -49t-63 -46.5t-61.5 -27.5l-66 98q-38 57 -64.5 127t-50.5 131q2 28 22 42
q9 8 21 9.5t25 -2.5q53 -41 110 -88.5t99 -101.5zM874 1271q16 -19 32 -55.5t25.5 -75.5t7.5 -66l-115 -34q-64 -18 -139 -21t-140 -7q-27 9 -34 32q-8 21 7 47q56 37 118 77t127 62z" />
    <glyph glyph-name="plus" unicode="+" horiz-adv-x="1080" 
d="M120 735q-11 -48 -11 -103q0 -59 11 -104h200q31 0 60.5 1t60.5 1h198q31 0 61 -1t60 -1h200q11 47 11 104q0 28 -2.5 52t-8.5 51h-200q-30 0 -60 -1t-61 -1h-198q-31 0 -60.5 1t-60.5 1h-200zM431 847q0 -31 1 -61t1 -60v-188q0 -30 -1 -59t-1 -60v-217q26 -6 54 -8
t57 -2q28 0 54.5 2t52.5 8v217q0 31 -1 60t-1 59v188q0 30 1 60t1 61v215q-26 6 -53.5 8t-55.5 2q-29 0 -56 -2t-53 -8v-215z" />
    <glyph glyph-name="comma" unicode="," horiz-adv-x="559" 
d="M416 227q12 -32 17.5 -68t5.5 -75q0 -88 -35.5 -171.5t-106 -149.5t-177.5 -100q-33 16 -49 50.5t-13 68.5q69 28 118 81t56 120q-22 4 -46 11.5t-37 18.5q-9 16 -15 46.5t-6 57.5t6 60.5t15 49.5q22 12 61 21t73 9t73 -8.5t60 -21.5z" />
    <glyph glyph-name="hyphen" unicode="-" horiz-adv-x="721" 
d="M99 432q-6 25 -8.5 54t-2.5 49q0 21 2.5 49.5t8.5 54.5h522q7 -26 9 -54.5t2 -49.5q0 -20 -2 -49t-9 -54h-522z" />
    <glyph glyph-name="period" unicode="." horiz-adv-x="545" 
d="M115 120q0 18 5 52.5t16 55.5q25 14 63.5 22.5t72.5 8.5t74 -8.5t63 -22.5q10 -21 15 -55.5t5 -52.5t-5 -52.5t-15 -55.5q-23 -14 -63 -22.5t-74 -8.5t-72.5 8.5t-63.5 22.5q-11 21 -16 55.5t-5 52.5z" />
    <glyph glyph-name="slash" unicode="/" horiz-adv-x="867" 
d="M639 1428q54 -5 111 -25.5t103 -55.5l-630 -1676q-55 6 -111 25.5t-103 56.5z" />
    <glyph glyph-name="zero" unicode="0" horiz-adv-x="1080" 
d="M90 633q0 175 26 309t117 233q55 53 126 85.5t182 32.5q112 0 181.5 -32.5t124.5 -85.5q91 -99 117 -233t26 -309q0 -173 -26 -308t-117 -234q-55 -53 -125 -85.5t-182 -32.5q-110 0 -181 32.5t-126 85.5q-91 99 -117 234t-26 308zM347 633q0 -154 14 -250.5t47 -146.5
q21 -36 55.5 -53.5t76.5 -17.5q44 0 78 17t54 54q32 50 46.5 146.5t14.5 250.5q0 155 -14.5 251t-46.5 146q-21 36 -54.5 53.5t-77.5 17.5q-42 0 -76.5 -17.5t-55.5 -53.5q-32 -50 -46.5 -146t-14.5 -251z" />
    <glyph glyph-name="one" unicode="1" horiz-adv-x="1080" 
d="M720 344q0 -40 -1 -79t-1 -81v-85h-240v85q0 42 -1 81t-1 79v349q0 36 4 97t7.5 123.5t2.5 103.5l-6 249q33 6 63 8t56 2q27 0 55.5 -2t61.5 -8v-922zM359 206q21 0 61.5 -1t61.5 -1h232q21 0 64.5 1t64.5 1h125q12 -49 12 -103q0 -53 -12 -103h-785q-11 52 -11 103
q0 54 11 103h176zM103 874q148 91 242 191t139 201l89 -195q-28 -76 -87 -142.5t-132.5 -117.5t-145.5 -83q-38 19 -67 59t-38 87z" />
    <glyph glyph-name="two" unicode="2" horiz-adv-x="1080" 
d="M119 984q27 84 84.5 154t141.5 112.5t190 42.5q123 0 213 -48t140 -134t50 -200q0 -91 -34.5 -161t-90.5 -127.5t-121 -112.5l-150 -121q-47 -40 -90.5 -81t-70.5 -76t-28 -59l-7 -174h-149q-35 39 -64 77.5t-29 86.5q0 57 34 116.5t89.5 119.5t118.5 115l204 174
q60 51 96.5 104.5t36.5 123.5q0 78 -47 125.5t-125 47.5q-79 0 -133 -55t-81 -130q-45 2 -99.5 22t-78.5 58zM970 214q0 -124 -37 -169.5t-125 -45.5h-595l-70 155q67 22 159 35t183 19t155 6h330z" />
    <glyph glyph-name="three" unicode="3" horiz-adv-x="1080" 
d="M716 404q0 95 -57.5 147t-148.5 52q-31 0 -64 -8t-61 -22q-34 19 -61.5 57.5t-35.5 76.5q59 25 127.5 41.5t163.5 16.5q109 0 198.5 -41t142.5 -123t53 -206q0 -104 -38.5 -183t-104.5 -132t-149.5 -80t-172.5 -27q-132 0 -237.5 39.5t-172.5 97.5q9 44 38.5 89t68.5 75
q56 -42 123.5 -71t147.5 -29q70 0 123.5 27t85 78t31.5 125zM686 820q-37 -38 -85 -70t-94.5 -56.5t-79.5 -39.5l-139 53l225 229q16 18 41.5 42.5t51.5 48.5t43 38l-8 10q-34 -9 -95.5 -15t-120.5 -6h-267q-10 28 -12.5 52t-2.5 41q0 26 4 57t17 62h708q28 -53 39.5 -89.5
t11.5 -62.5q0 -27 -11 -53t-38 -54z" />
    <glyph glyph-name="four" unicode="4" horiz-adv-x="1080" 
d="M127 255q-24 37 -39 77.5t-15 74.5q0 28 12 61.5t26 65.5l336 745q36 8 81.5 4t86.5 -17.5t62 -34.5l-193 -425q-20 -47 -50.5 -112t-63 -128.5t-60.5 -105.5l5 -8q39 4 88.5 6.5t92.5 3.5t63 1h262q30 0 50.5 1t50.5 1h85q4 -23 5.5 -46.5t1.5 -45.5q0 -24 -3.5 -55.5
t-12.5 -60.5h-76q-30 0 -50.5 0.5t-50.5 0.5h-238q-29 0 -60.5 -1.5t-62.5 -1.5h-333zM581 136q0 31 1 61.5t1 60.5v174q0 12 -1 42t-1 43v121q0 90 45 142t124 52h62l11 -11v-236q0 -31 -1 -61.5t-1 -60.5v-205q0 -30 1 -60.5t1 -61.5v-136q-32 -6 -62.5 -7.5t-59.5 -1.5
q-28 0 -58.5 1.5t-61.5 7.5v136z" />
    <glyph glyph-name="five" unicode="5" horiz-adv-x="1080" 
d="M407 863q-3 -42 -10.5 -83.5t-21.5 -80.5q-47 -17 -104 -27t-117 -13l32 593l219 -37q5 -30 8 -76.5t3.5 -92t-1.5 -71.5zM107 104q7 37 36.5 87.5t66.5 77.5q60 -42 123.5 -68t139.5 -26q63 0 116.5 27t86.5 82t33 138q0 85 -33.5 135t-86 71.5t-108.5 21.5
q-54 0 -105.5 -19.5t-98.5 -57.5q-33 7 -69 32t-54 54q41 40 99.5 83t134 72.5t162.5 29.5q192 0 304 -111t112 -298q0 -159 -69 -261.5t-177.5 -151.5t-227.5 -49q-117 0 -217 36t-168 95zM898 1266q11 -29 13.5 -56t2.5 -46q0 -107 -107 -107h-339q-49 0 -104.5 1.5
t-101.5 4.5t-67 6l-9 183l14 14h698z" />
    <glyph glyph-name="six" unicode="6" horiz-adv-x="1080" 
d="M553 -27q-95 0 -159.5 24.5t-103.5 57t-58 55.5q-13 17 -36 49t-46 89.5t-39 149.5t-16 229q0 206 61.5 355t179 230t287.5 81q93 0 170.5 -17.5t134.5 -47.5q-4 -48 -26 -97t-59 -77q-39 17 -89.5 29.5t-112.5 12.5q-103 0 -166 -50t-91.5 -137.5t-28.5 -197.5v-186
q0 -57 7.5 -114t23.5 -104.5t40 -80.5q22 -27 54 -46.5t76 -19.5q93 0 139 69t46 178q0 88 -22.5 139.5t-62.5 74.5t-93 23q-50 0 -100 -20.5t-94.5 -58.5t-78.5 -90l-46 130q30 63 86 118.5t131 90t166 34.5q163 0 263.5 -102.5t100.5 -323.5q0 -138 -58 -239
t-157.5 -155.5t-222.5 -54.5z" />
    <glyph glyph-name="seven" unicode="7" horiz-adv-x="1080" 
d="M943 1266q17 -34 31.5 -78t14.5 -75q0 -21 -10 -48t-30 -55q-97 -129 -165.5 -241.5t-114 -220t-72 -221t-38.5 -247.5l-7 -80q-24 -5 -57 -7.5t-69 -2.5q-34 0 -67 2.5t-62 7.5l8 88q17 179 76 357.5t154 338t219 282.5l-8 9q-22 -5 -62.5 -9t-86.5 -7t-85 -4t-59 -1
h-324q-11 40 -11 86q0 33 6 66t16 60h803z" />
    <glyph glyph-name="eight" unicode="8" horiz-adv-x="1080" 
d="M83 320q0 93 47.5 169t121.5 129t154 79l172 -70q-125 -45 -183.5 -125t-58.5 -165q0 -87 57 -137.5t145 -50.5q60 0 105.5 23.5t71 66.5t25.5 98q0 56 -28.5 99t-77.5 74.5t-110 52.5l-41 15q-110 38 -192.5 88.5t-128 120.5t-45.5 167t55.5 174t151 121t215.5 44
q127 0 221.5 -42t146.5 -117t52 -173q0 -81 -41 -144.5t-105.5 -107t-136.5 -64.5l-166 72q99 32 153 94.5t54 139.5q0 74 -50.5 118.5t-128.5 44.5q-74 0 -124.5 -44t-50.5 -114q0 -71 55.5 -116t150.5 -74l40 -15q109 -35 196.5 -90.5t138.5 -135t51 -190.5
q0 -113 -63 -194.5t-169.5 -124.5t-233.5 -43q-201 0 -323.5 91t-122.5 256z" />
    <glyph glyph-name="nine" unicode="9" horiz-adv-x="1080" 
d="M527 1293q95 0 159.5 -24.5t104 -56.5t57.5 -56q13 -17 36 -49t46 -89.5t39 -149.5t16 -229q0 -205 -61 -354.5t-179 -230.5t-288 -81q-93 0 -170.5 17.5t-134.5 47.5q5 48 26.5 97t58.5 77q39 -16 89.5 -29t112.5 -13q103 0 166 50t91.5 137.5t28.5 197.5v186
q0 58 -7 114.5t-22.5 104.5t-41.5 80q-22 28 -53.5 47t-76.5 19q-93 0 -139 -69t-46 -178q0 -88 22.5 -139.5t63 -74.5t92.5 -23q51 0 100.5 20.5t94.5 58.5t78 90l46 -130q-30 -63 -85.5 -118.5t-131 -90t-166.5 -34.5q-162 0 -263 102.5t-101 323.5q0 138 58 239
t157.5 155.5t222.5 54.5z" />
    <glyph glyph-name="colon" unicode=":" horiz-adv-x="558" 
d="M121 120q0 18 5 52.5t16 55.5q25 14 63.5 22.5t72.5 8.5t74 -8.5t63 -22.5q10 -21 15 -55.5t5 -52.5t-5 -52.5t-15 -55.5q-23 -14 -63 -22.5t-74 -8.5t-72.5 8.5t-63.5 22.5q-11 21 -16 55.5t-5 52.5zM121 762q0 18 5 52.5t16 55.5q25 14 63.5 22.5t72.5 8.5t74 -8.5
t63 -22.5q10 -21 15 -55.5t5 -52.5t-5 -52.5t-15 -55.5q-23 -14 -63 -22.5t-74 -8.5t-72.5 8.5t-63.5 22.5q-11 21 -16 55.5t-5 52.5z" />
    <glyph glyph-name="semicolon" unicode=";" horiz-adv-x="566" 
d="M414 227q12 -32 17.5 -68t5.5 -75q0 -88 -35.5 -171.5t-106 -149.5t-177.5 -100q-33 16 -49 50.5t-13 68.5q69 28 118 81t56 120q-22 4 -46 11.5t-37 18.5q-9 16 -15 46.5t-6 57.5t6 60.5t15 49.5q22 12 61 21t73 9t73 -8.5t60 -21.5zM125 762q0 18 5 52.5t16 55.5
q25 14 63.5 22.5t72.5 8.5t74 -8.5t63 -22.5q10 -21 15 -55.5t5 -52.5t-5 -52.5t-15 -55.5q-23 -14 -63 -22.5t-74 -8.5t-72.5 8.5t-63.5 22.5q-11 21 -16 55.5t-5 52.5z" />
    <glyph glyph-name="less" unicode="&#x3c;" horiz-adv-x="1080" 
d="M843 1126q46 -26 78 -79.5t36 -114.5l-433 -225q-28 -15 -78 -36.5t-78 -32.5v-14q28 -10 78 -32t78 -38l433 -225q-5 -60 -38 -115.5t-77 -80.5l-727 401q-10 43 -11.5 95.5t11.5 97.5z" />
    <glyph glyph-name="equal" unicode="=" horiz-adv-x="1080" 
d="M120 324q-7 25 -9 53.5t-2 48.5q0 21 2 50t9 54h840q7 -25 9 -54t2 -50q0 -20 -2 -48.5t-9 -53.5h-840zM120 738q-7 25 -9 53.5t-2 48.5q0 21 2 50t9 54h840q7 -25 9 -54t2 -50q0 -20 -2 -48.5t-9 -53.5h-840z" />
    <glyph glyph-name="greater" unicode="&#x3e;" horiz-adv-x="1072" 
d="M233 136q-45 27 -77.5 80.5t-36.5 113.5l432 225q30 15 79.5 37t76.5 32v15q-27 11 -76.5 32.5t-79.5 37.5l-432 225q6 60 39 115t76 80l726 -400q12 -42 12.5 -95.5t-12.5 -97.5z" />
    <glyph glyph-name="question" unicode="?" horiz-adv-x="811" 
d="M14 1287q82 47 183 77t211 30q184 0 286 -97t102 -254q0 -143 -75.5 -236.5t-185.5 -154.5l-124 -67l-17 -183q-22 -8 -45 -10.5t-46 -2.5q-24 0 -49.5 2.5t-48.5 10.5l-14 298l20 25l103 50q97 47 158 105t61 138q0 72 -47 115.5t-134 43.5q-65 0 -128 -21t-119 -51
q-34 27 -61 80t-30 102zM301 239q35 0 70 -7.5t57 -20.5q10 -16 15 -48t5 -56q0 -23 -5 -55t-15 -47q-22 -14 -57 -21t-70 -7q-34 0 -68.5 7t-58.5 21q-9 15 -13.5 47t-4.5 55q0 24 4.5 56t13.5 48q51 28 127 28z" />
    <glyph glyph-name="at" unicode="@" horiz-adv-x="1922" 
d="M1350 320q0 -67 19 -95.5t59 -28.5q44 0 84 37t65 123.5t25 235.5q0 179 -75.5 310.5t-212 203t-320.5 71.5q-149 0 -269.5 -54t-206.5 -152.5t-132.5 -231.5t-46.5 -291q0 -215 72.5 -358t203.5 -215t307 -72q106 0 206.5 19t193.5 55q30 -32 47 -80.5t17 -91.5
q-68 -27 -148.5 -48.5t-166 -33t-167.5 -11.5q-236 0 -419.5 91.5t-288 277.5t-104.5 467q0 198 66.5 364.5t187.5 290t286 191t362 67.5q184 0 340 -53t271 -153.5t178.5 -244t63.5 -325.5q0 -195 -62.5 -322t-159.5 -189.5t-201 -62.5q-93 0 -162 38t-106.5 103t-37.5 147
v441q-23 22 -56.5 36t-73.5 14q-65 0 -104 -44.5t-56.5 -119t-17.5 -164.5q0 -127 31 -197.5t107 -70.5q41 0 85 25.5t80 66.5t54 86l89 -116q-25 -58 -80.5 -116t-129 -97.5t-153.5 -39.5q-155 0 -239 124.5t-84 325.5q0 147 48.5 263t141.5 183t228 67q110 0 207 -42.5
t155 -99.5v-504z" />
    <glyph glyph-name="A" unicode="A" horiz-adv-x="1244" 
d="M478 1366q31 4 74 6.5t74 2.5t74 -2.5t72 -7.5l441 -1349q-27 -15 -68 -23t-80 -8q-60 0 -94 27.5t-58 108.5l-189 621q-26 86 -55.5 190t-51.5 191h-11q-15 -73 -41 -166t-45 -159l-248 -800q-23 -6 -51 -7.5t-58 -1.5q-31 0 -65.5 4t-58.5 12l-8 13zM472 312
q-12 0 -36.5 0.5l-49 1t-36.5 0.5h-126l79 204h111q12 0 34.5 0.5t44.5 1t33 0.5h178q12 0 34.5 -0.5l45 -1t34.5 -0.5h114l66 -204h-125q-12 0 -37 -0.5t-49.5 -1t-36.5 -0.5h-278z" />
    <glyph glyph-name="B" unicode="B" horiz-adv-x="1218" 
d="M183 1368q114 3 222.5 5t211.5 2q144 0 244.5 -41t152.5 -122t52 -199q0 -75 -33.5 -139.5t-91.5 -106.5t-131 -50v30q83 -3 156 -52t119 -129.5t46 -179.5q0 -122 -54.5 -210.5t-163 -136.5t-269.5 -48q-118 0 -230 2.5t-231 4.5l-13 13v1344zM422 175q57 2 112 2h101
q74 0 120.5 21t71.5 54.5t35 72t10 74.5q0 48 -21 99.5t-74 87.5t-150 36h-304v190h282q84 0 129 28.5t62 72.5t17 88q0 45 -16.5 87.5t-61 70.5t-127.5 28q-36 0 -89 0.5t-97 1.5v-1014z" />
    <glyph glyph-name="C" unicode="C" horiz-adv-x="1212" 
d="M899 865q1 79 -21 153.5t-78 122.5t-157 48q-146 0 -216.5 -131t-70.5 -382q0 -234 82 -357.5t227 -123.5q97 0 184 41.5t167 105.5q38 -26 75 -73t47 -92q-56 -55 -136.5 -102t-177.5 -74.5t-203 -27.5q-150 0 -252 59.5t-164 161t-89.5 227t-27.5 256.5q0 250 77 409
t205.5 234t279.5 75t262 -55.5t172 -146.5t61 -199q0 -70 -36 -106.5t-109 -36.5q-28 0 -51.5 4t-49.5 10z" />
    <glyph glyph-name="D" unicode="D" horiz-adv-x="1311" 
d="M1220 683q0 -117 -15.5 -224.5t-62 -200.5t-138.5 -167q-45 -36 -108 -58.5t-128.5 -32.5t-119.5 -10q-83 0 -156 1t-147.5 3t-161.5 4l-13 13v1344l13 13q86 3 160.5 5t148 2h156.5q54 0 120 -10t129 -32t107 -58q91 -74 137.5 -167.5t62.5 -201t16 -223.5zM957 683
q0 85 -10.5 171t-42.5 158.5t-93.5 116.5t-163.5 44q-57 0 -108.5 1t-114.5 1v-983q63 1 114.5 0.5t108.5 -0.5q102 0 163.5 44.5t93.5 117t42.5 159t10.5 170.5z" />
    <glyph glyph-name="E" unicode="E" horiz-adv-x="1138" 
d="M168 1353l14 13h236v-210q0 -42 1 -71t1 -70v-689q0 -31 -1 -57.5t-1 -60.5v-211h-104q-68 0 -107 41t-39 112v1203zM897 793q7 -24 10.5 -53.5t3.5 -50.5q0 -22 -3.5 -51t-10.5 -54h-348q-24 0 -63.5 0.5t-81 1t-72.5 0.5v205q31 0 72.5 0.5t81 1t63.5 0.5h348z
M1009 1366q6 -28 7.5 -53.5t1.5 -47.5q0 -21 -5 -53t-16 -61h-448q-24 0 -63.5 0.5t-81 1t-72.5 1.5v212h677zM1053 212q0 -111 -34.5 -163t-134.5 -52h-552v206q55 3 106.5 6t118.5 3h496z" />
    <glyph glyph-name="F" unicode="F" horiz-adv-x="1054" 
d="M425 0q-31 -6 -64 -7.5t-62 -1.5q-28 0 -63 1.5t-66 7.5v1354l13 12h240v-102q0 -79 1 -160.5t1 -158.5v-945zM1000 1366q7 -21 10 -49t3 -50q0 -63 -35 -91t-106 -28h-276q-80 0 -147 1.5t-127 3.5v213h678zM888 790q6 -23 9.5 -53.5t3.5 -51.5q0 -22 -3.5 -51.5
t-9.5 -54.5h-396q-39 0 -83.5 1.5t-79.5 1.5v205q35 1 79.5 2t83.5 1h396z" />
    <glyph glyph-name="G" unicode="G" horiz-adv-x="1295" 
d="M1174 1248q-6 -56 -42.5 -108.5t-75.5 -77.5q-73 52 -163 84.5t-182 32.5q-105 0 -186.5 -50.5t-127.5 -162t-46 -295.5q0 -252 94 -372t277 -120q102 0 188 21t135 39l133 -183q-59 -21 -139.5 -40t-172.5 -31t-188 -12q-159 0 -271 53t-182.5 148t-103.5 223t-33 277
q0 187 52 323t139 224t197 130t225 42q130 0 254.5 -39.5t218.5 -105.5zM936 393q0 71 4.5 138.5t18.5 122.5l219 -74v-524l-242 -3v340zM1002 741q99 0 137.5 -43.5t38.5 -117.5v-55h-380q-36 0 -64.5 9t-44.5 33t-16 67q0 26 6 55t13 52h310z" />
    <glyph glyph-name="H" unicode="H" horiz-adv-x="1358" 
d="M532 596q-11 0 -32.5 0.5l-43 1t-33.5 0.5q-37 0 -75.5 -1t-76.5 -1v217q38 0 76.5 -1t75.5 -1q12 0 33.5 0.5l43 1t32.5 0.5h295q12 0 33 -0.5t42.5 -1t32.5 -0.5q37 0 76 1t77 1v-217q-38 0 -77 1t-76 1q-11 0 -32.5 -0.5t-42.5 -1t-33 -0.5h-295zM425 0
q-30 -6 -65 -7.5t-63 -1.5q-25 0 -61 1.5t-66 7.5v1366q30 6 66 7.5t61 1.5q28 0 63 -1.5t65 -7.5v-407q0 -42 -1 -74.5t-1 -73.5v-213q0 -40 1 -73t1 -75v-450zM933 450q0 42 1 75t1 73v213q0 41 -1 73.5t-1 74.5v407q30 6 65 7.5t62 1.5t63 -1.5t66 -7.5v-1366
q-32 -6 -65 -7.5t-62 -1.5q-27 0 -62.5 1.5t-66.5 7.5v450z" />
    <glyph glyph-name="I" unicode="I" horiz-adv-x="604" 
d="M174 1366q29 6 65.5 7.5t61.5 1.5q28 0 63.5 -1.5t65.5 -7.5v-1366q-30 -6 -65.5 -7.5t-63.5 -1.5q-25 0 -61.5 1.5t-65.5 7.5v1366z" />
    <glyph glyph-name="J" unicode="J" horiz-adv-x="914" 
d="M112 255q43 -25 95.5 -44t105.5 -19q116 0 158 71t42 215v888q29 6 65.5 7.5t62.5 1.5q28 0 62.5 -1.5t64.5 -7.5v-858q0 -113 -17.5 -209.5t-63.5 -167.5t-130.5 -111t-219.5 -40q-78 0 -163.5 22t-153.5 63q9 51 32.5 101.5t59.5 88.5z" />
    <glyph glyph-name="K" unicode="K" horiz-adv-x="1212" 
d="M170 1366q30 6 66 7.5t61 1.5q28 0 63 -1.5t65 -7.5v-1366q-30 -6 -65 -7.5t-63 -1.5q-25 0 -61 1.5t-66 7.5v1366zM1187 64q-25 -38 -73 -58.5t-98 -20.5q-72 0 -104 38t-58 113l-95 270q-37 106 -86 149t-131 43q-37 0 -100 -3t-147 -10v162h364q108 0 171 -30.5
t99.5 -85.5t63.5 -131l99 -274q26 -73 45.5 -104t49.5 -58zM825 1278q26 49 54.5 73t87.5 24q32 0 72 -2t78 -6l15 -19l-279 -492q-49 -90 -124.5 -141.5t-194.5 -51.5h-239v145q52 3 109.5 4t108.5 2q33 0 48 13t33 47z" />
    <glyph glyph-name="L" unicode="L" horiz-adv-x="1032" 
d="M424 -3h-108q-66 0 -107 40t-41 113v1213l14 14h95q76 0 111.5 -39t35.5 -124v-1217zM983 218q0 -126 -39.5 -173.5t-132.5 -47.5h-495l-134 186q108 18 220 26.5t204 8.5h377z" />
    <glyph glyph-name="M" unicode="M" horiz-adv-x="1636" 
d="M239 1365q41 7 90 9.5t82 2.5t76.5 -2.5t85.5 -9.5l161 -572q7 -21 17.5 -65t23 -96t22.5 -99.5t15 -75.5h12q4 28 14.5 75.5t22.5 99.5t23.5 96t16.5 65l162 572q43 7 86 9.5t76 2.5q32 0 80.5 -2.5t91.5 -9.5l106 -1362q-27 -6 -63 -9.5t-67 -3.5q-29 0 -57 2t-55 6
l-41 663q-3 61 -6.5 137t-6 152.5t-3.5 137.5h-12l-244 -882q-28 -5 -65.5 -7.5t-65.5 -2.5q-27 0 -64 2.5t-65 7.5l-244 882h-12q-1 -61 -4 -137.5t-6 -152.5t-6 -137l-41 -663q-28 -4 -56.5 -6t-57.5 -2q-31 0 -66.5 3.5t-61.5 9.5z" />
    <glyph glyph-name="N" unicode="N" horiz-adv-x="1372" 
d="M170 1363q30 6 77.5 9t73.5 3q28 0 69.5 -1.5t80.5 -7.5l-65 -294l-19 -4q6 -76 10.5 -170.5t7 -189.5t2.5 -173v-535q-31 -6 -61.5 -7.5t-55.5 -1.5q-23 0 -56.5 1.5t-63.5 7.5v1363zM516 790q-36 76 -66 147.5t-56 132.5l-118 140l195 156l378 -789q38 -82 71 -159
t60 -136l127 -137l-209 -145zM1203 1364v-1361q-31 -6 -77.5 -9t-76.5 -3q-31 0 -71 1.5t-80 7.5l69 280l19 5q-6 85 -10.5 183.5t-6.5 191.5t-2 162v398q0 85 32 121t108 36h82z" />
    <glyph glyph-name="O" unicode="O" horiz-adv-x="1323" 
d="M355 684q0 -86 12 -176t44 -166t92.5 -122.5t157.5 -46.5t157.5 46.5t92.5 122.5t43.5 166t11.5 176t-11.5 175.5t-43.5 165t-92.5 122t-157.5 46.5t-157.5 -46.5t-92.5 -122t-44 -165t-12 -175.5zM88 684q0 207 62.5 367t189.5 251t321 91q196 0 323 -91.5t188.5 -252
t61.5 -365.5q0 -207 -62 -367.5t-189 -252t-322 -91.5q-147 0 -255 52.5t-178.5 148.5t-105 226t-34.5 284z" />
    <glyph glyph-name="P" unicode="P" horiz-adv-x="1152" 
d="M1086 918q0 -150 -60.5 -252t-166.5 -153.5t-243 -51.5h-298v192q31 2 88.5 3.5t113.5 2.5t81 1q92 0 139.5 41.5t65 102t17.5 114.5q0 56 -17.5 115.5t-65 100.5t-139.5 41q-38 0 -84 0.5t-92 1.5v-1177q-30 -6 -65 -7.5t-63 -1.5q-25 0 -61 1.5t-66 7.5v1355l13 13
q119 3 222.5 5t210.5 2q136 0 242.5 -49.5t167 -151t60.5 -256.5z" />
    <glyph glyph-name="Q" unicode="Q" horiz-adv-x="1317" 
d="M351 684q0 -87 12 -176t44 -164.5t93 -122t159 -46.5t158 46.5t92 122t43.5 164.5t11.5 176t-11.5 176.5t-43.5 165t-92 121.5t-158 46t-159 -46t-93 -121.5t-44 -165t-12 -176.5zM88 684q0 206 60.5 366t187 251.5t323.5 91.5q198 0 324 -92t186 -252.5t60 -365.5
q0 -122 -24.5 -238t-75 -209.5t-128.5 -149.5t-187 -57q-32 -23 -67 -39.5t-85 -16.5q-200 0 -326.5 92t-187 252.5t-60.5 366.5zM577 53l246 81l160 -115q59 -41 102 -64t78.5 -31.5t72.5 -8.5q-2 -89 -52 -136.5t-114 -47.5q-57 0 -99.5 18t-78.5 47z" />
    <glyph glyph-name="R" unicode="R" horiz-adv-x="1212" 
d="M1100 956q0 -94 -35 -168t-92.5 -124t-124.5 -73q53 -18 89 -66t58 -110l77 -208q20 -55 42.5 -88.5t50.5 -56.5q-24 -35 -72.5 -56t-97.5 -21q-71 0 -103.5 38t-59.5 113l-89 246q-21 62 -60.5 105t-127.5 43h-236v196q42 2 99.5 3.5t111 3t85.5 1.5q90 0 138 32.5
t66 83.5t18 106q0 58 -18 108t-66 82t-138 32h-58t-67.5 0.5t-66.5 1.5v-1180q-31 -6 -65 -7.5t-62 -1.5q-26 0 -61 1.5t-65 7.5v1355l13 13q119 3 231 5t219 2q139 0 244 -46t164 -139.5t59 -233.5z" />
    <glyph glyph-name="S" unicode="S" horiz-adv-x="1112" 
d="M48 121q5 55 35.5 108.5t67.5 85.5q87 -54 193.5 -93.5t210.5 -39.5q108 0 163.5 48.5t55.5 117.5q0 56 -37 104.5t-123 84.5l-242 101q-125 53 -202 137.5t-77 218.5q0 116 60 206t165.5 141.5t239.5 51.5q132 0 248.5 -33.5t194.5 -73.5q-3 -55 -27.5 -108t-62.5 -87
q-78 38 -175 66.5t-175 28.5q-101 0 -154 -48t-53 -112q0 -55 38 -92t109 -67l241 -101q90 -37 157.5 -92.5t105 -128t37.5 -161.5q0 -117 -55 -210t-167 -147t-281 -54q-124 0 -255 39t-236 109z" />
    <glyph glyph-name="T" unicode="T" horiz-adv-x="998" 
d="M28 1152q-5 28 -7.5 56t-2.5 50q0 23 2.5 51.5t7.5 56.5h948q13 -45 13 -99q0 -63 -33.5 -89t-104.5 -26h-102q-21 0 -60 1t-60 1h-256q-21 0 -59.5 -1t-60.5 -1h-225zM373 1006q0 41 0.5 73.5t0.5 74.5v106h253v-106q0 -42 1 -74.5t1 -73.5v-1006q-32 -6 -66 -7.5
t-62 -1.5q-27 0 -61.5 1.5t-66.5 7.5v1006z" />
    <glyph glyph-name="U" unicode="U" horiz-adv-x="1341" 
d="M1190 490q0 -168 -62.5 -283t-179.5 -174.5t-278 -59.5t-277 59.5t-178.5 174.5t-62.5 283v873l12 14h96q76 0 111.5 -39t35.5 -124v-726q0 -153 64.5 -232t199.5 -79t199 79t64 232v878q31 6 64.5 7.5t60.5 1.5q26 0 63.5 -1.5t67.5 -7.5v-876z" />
    <glyph glyph-name="V" unicode="V" horiz-adv-x="1174" 
d="M909 1366q27 6 55 7.5t56 1.5q26 0 59 -3.5t58 -12.5l10 -15l-387 -1345q-46 -5 -98.5 -7t-101.5 -2q-73 0 -114 24.5t-61 94.5l-353 1235q35 15 74 26t81 11q55 0 87.5 -29t50.5 -96l186 -661q15 -53 29.5 -113.5t28.5 -122t25 -116.5q3 -14 7 -18t12 -4z" />
    <glyph glyph-name="W" unicode="W" horiz-adv-x="1742" 
d="M48 1352q32 14 68 21.5t70 7.5q66 0 96 -29t43 -109l109 -615q10 -56 21.5 -129.5t22.5 -143.5t17 -118q3 -18 6 -21t12 -3l198 1125q37 7 82.5 9.5t81.5 2.5q39 0 84 -2.5t80 -9.5l181 -1101q3 -17 7.5 -20.5t12.5 -3.5q7 58 19 133t24.5 150.5t22.5 133.5l138 736
q28 6 58.5 7.5t56.5 1.5q29 0 62 -3.5t59 -12.5l13 -15l-278 -1342q-45 -6 -109 -9t-114 -3q-57 0 -100.5 20.5t-55.5 98.5l-85 495q-17 106 -37 236.5t-35 245.5h-14q-17 -115 -38 -244.5t-41 -237.5l-110 -603q-47 -5 -106.5 -8t-110.5 -3q-60 0 -104.5 20.5t-60.5 100.5z
" />
    <glyph glyph-name="X" unicode="X" horiz-adv-x="1197" 
d="M70 1327q39 27 83.5 41.5t84.5 14.5q52 0 88.5 -22t72.5 -79l770 -1243q-39 -27 -83.5 -41.5t-84.5 -14.5q-51 0 -88.5 22.5t-74.5 79.5zM880 1366q20 4 47.5 7t59.5 3q37 0 73.5 -6t59.5 -16l7 -14l-419 -683l-104 -116l-325 -541q-18 -4 -47.5 -7t-60.5 -3
q-37 0 -73.5 6.5t-62.5 15.5l-7 15l464 751l104 114z" />
    <glyph glyph-name="Y" unicode="Y" horiz-adv-x="1037" 
d="M391 584h256v-584q-30 -6 -64.5 -7.5t-62.5 -1.5q-25 0 -62 1.5t-67 7.5v584zM789 1366q27 6 53.5 8t52.5 2q33 0 66 -4t59 -14l10 -15l-399 -953h-220l-402 946q38 22 78.5 33.5t79.5 11.5q54 0 84 -25t52 -81l133 -326q23 -57 45.5 -126.5t41.5 -138.5h10
q12 44 28.5 93.5t33.5 96t31 82.5z" />
    <glyph glyph-name="Z" unicode="Z" horiz-adv-x="1138" 
d="M601 959q30 44 74 100t85 106l-6 6q-29 -4 -71 -7.5t-87.5 -5t-86 -2.5t-66.5 -1h-308q-6 22 -7.5 43t-1.5 42q0 34 4 64t13 62h849q16 -58 24 -89t10 -46t2 -26q0 -22 -7 -45.5t-24 -49.5l-480 -696q-31 -45 -74.5 -101.5t-82.5 -103.5l6 -6q65 6 138.5 9.5t126.5 3.5
h170q77 0 134.5 11.5t96.5 29.5q8 -25 13.5 -56.5t5.5 -62.5q0 -68 -45.5 -103t-126.5 -35h-762q-14 56 -20 85.5t-8 45t-2 26.5q0 25 8 52t25 50z" />
    <glyph glyph-name="bracketleft" unicode="[" horiz-adv-x="728" 
d="M198 1526l245 -85v-1770l-245 -67v1922zM213 -410l-15 14l20 188l427 -11q7 -16 13 -46t6 -58q0 -15 -2 -36t-6 -35zM656 1524q4 -13 6 -34t2 -36q0 -29 -6 -58.5t-13 -45.5l-427 -12l-20 188l15 15z" />
    <glyph glyph-name="backslash" unicode="\" horiz-adv-x="867" 
d="M645 -329q54 7 111 26.5t102 55.5l-630 1675q-55 -5 -111 -25t-103 -56z" />
    <glyph glyph-name="bracketright" unicode="]" horiz-adv-x="728" 
d="M530 1526l-245 -85v-1770l245 -67v1922zM515 -410l15 14l-20 188l-428 -11q-6 -16 -12.5 -46t-6.5 -58q0 -15 2 -36t7 -35zM72 1524q-5 -13 -7 -34t-2 -36q0 -29 6.5 -58.5t12.5 -45.5l428 -12l20 188l-15 15z" />
    <glyph glyph-name="asciicircum" unicode="^" horiz-adv-x="1060" 
d="M984 612q-48 -11 -122 -11q-33 0 -64 2.5t-54 8.5l-137 307q-9 23 -22.5 58t-26 70.5t-21.5 57.5h-14q-8 -22 -21 -57.5t-26 -70.5t-23 -58l-137 -307q-22 -6 -53.5 -8.5t-64.5 -2.5q-74 0 -122 11l321 684q22 5 58.5 8t76.5 3q38 0 73.5 -2.5t57.5 -8.5z" />
    <glyph glyph-name="underscore" unicode="_" horiz-adv-x="1087" 
d="M-1 -328q-6 24 -8.5 50.5t-2.5 44.5t2.5 45t8.5 51h1090q5 -24 7.5 -45.5t2.5 -50.5q0 -50 -10 -95h-1090z" />
    <glyph glyph-name="grave" unicode="`" horiz-adv-x="796" 
d="M332 1502q-50 -15 -98 -59t-65 -94l353 -271q33 9 63 36.5t43 61.5z" />
    <glyph glyph-name="a" unicode="a" horiz-adv-x="1019" 
d="M76 271q0 116 53 191t141 110.5t194 35.5q52 0 122 -3.5t128 -16.5v-162q-50 11 -114 14t-115 3q-81 0 -122.5 -42t-41.5 -113q0 -53 30.5 -89.5t86.5 -36.5q68 0 142 48t124 138l37 -175q-38 -44 -89.5 -90t-120 -78t-156.5 -32q-101 0 -167.5 44.5t-99 113t-32.5 140.5
zM940 113q-9 -34 -33.5 -72t-51.5 -56q-73 8 -119 44t-69.5 86.5t-29.5 103.5v441q0 83 -38.5 120t-112.5 37q-71 0 -149.5 -21.5t-156.5 -49.5q-28 30 -45.5 80.5t-21.5 96.5q61 26 136 46.5t152.5 32.5t143.5 12q94 0 171 -35t122.5 -109t45.5 -194v-408q0 -52 11.5 -90
t44.5 -65z" />
    <glyph glyph-name="b" unicode="b" horiz-adv-x="1061" 
d="M384 50h-243v1408l14 13h93q76 0 106 -35.5t30 -118.5v-1267zM985 509q0 -170 -61 -287.5t-166.5 -177.5t-240.5 -60q-102 0 -197.5 17.5t-178.5 48.5l120 187q60 -36 122.5 -54t135.5 -18q67 0 114 39t72.5 115t25.5 186q0 159 -44.5 230t-116.5 71q-62 2 -124.5 -39
t-102.5 -114l-36 196q34 39 82 76t109.5 61t137.5 24q116 0 193.5 -64.5t116.5 -177.5t39 -259z" />
    <glyph glyph-name="c" unicode="c" horiz-adv-x="945" 
d="M655 586q2 70 -9.5 125.5t-45 87.5t-98.5 32q-85 0 -127.5 -83.5t-42.5 -256.5q0 -171 53.5 -245.5t152.5 -74.5q64 0 123.5 29t109.5 66q32 -19 61.5 -62t37.5 -82q-66 -67 -164.5 -108t-206.5 -41t-187.5 39t-131.5 109.5t-77.5 165t-25.5 204.5q0 189 63 305
t161.5 169.5t205.5 53.5q89 0 158.5 -26t117.5 -70t72.5 -100.5t24.5 -117.5q0 -62 -32 -95.5t-92 -33.5q-30 0 -53.5 2.5t-47.5 7.5z" />
    <glyph glyph-name="d" unicode="d" horiz-adv-x="1067" 
d="M922 284q0 -53 13 -100t43 -71q-8 -34 -33 -72t-52 -56q-111 12 -162.5 91.5t-51.5 186.5v1195l13 13h95q76 0 105.5 -35.5t29.5 -118.5v-1033zM78 484q0 176 55.5 292.5t145 175t190.5 58.5q99 0 179 -41t149 -88l-34 -186q-58 46 -124.5 84.5t-130.5 38.5
q-53 0 -92.5 -38t-61.5 -112.5t-22 -184.5q0 -109 21.5 -176.5t57.5 -99t79 -31.5q42 0 92 23.5t94.5 80t71.5 152.5l53 -162q-15 -73 -67 -141.5t-130.5 -112t-174.5 -43.5q-117 0 -195 64.5t-117 180t-39 266.5z" />
    <glyph glyph-name="e" unicode="e" horiz-adv-x="998" 
d="M234 416v176h444v24q0 61 -17.5 111.5t-55 81t-100.5 30.5q-90 0 -132.5 -75.5t-42.5 -216.5v-75q0 -84 16.5 -153t62 -110t133.5 -41q72 0 140 20.5t131 49.5q29 -28 47 -71.5t24 -80.5q-73 -53 -174.5 -83t-206.5 -30q-124 0 -206.5 42.5t-130.5 116t-68.5 166.5
t-20.5 194q0 150 46.5 269t141 188.5t241.5 69.5q131 0 221 -56.5t137 -153t47 -216.5q0 -55 -4 -93.5t-15 -83.5h-658z" />
    <glyph glyph-name="f" unicode="f" horiz-adv-x="692" 
d="M311 990l380 4q5 -22 7.5 -44.5t2.5 -44.5t-2.5 -45.5t-7.5 -46.5l-381 6l-291 -6q-9 45 -9 92q0 43 9 89zM191 886q-6 70 -14.5 136.5t-8.5 130.5q0 92 39.5 166t112 117t172.5 43q78 0 153 -16t123 -34q1 -43 -14.5 -91t-40.5 -75q-36 10 -80 19.5t-86 9.5
q-66 0 -104 -39.5t-38 -116.5q0 -57 10.5 -123t18.5 -129v-884q-58 -9 -122 -9q-62 0 -121 9v886z" />
    <glyph glyph-name="g" unicode="g" horiz-adv-x="1063" 
d="M980 879q-30 -24 -43 -70.5t-13 -101.5v-566q0 -125 -11.5 -209t-33.5 -139.5t-53 -95.5q-53 -65 -143 -101.5t-206 -36.5q-93 0 -189 19t-169 48q1 45 18.5 98.5t44.5 84.5q64 -29 137 -45.5t135 -16.5q90 0 139.5 33t69 89t19.5 126v733q0 108 51 187t162 92
q27 -18 53 -56t32 -72zM78 494q0 175 56 292t145 175t189 58q92 0 157.5 -28.5t111.5 -71t76 -85.5l-37 -207q-55 92 -127.5 146t-139.5 54q-54 0 -94 -37.5t-61.5 -112t-21.5 -184.5q0 -163 45.5 -235.5t110.5 -72.5q72 0 139 48t107 129l37 -183q-30 -50 -81 -94.5
t-117 -73.5t-142 -29q-118 0 -196.5 64.5t-117.5 180t-39 267.5z" />
    <glyph glyph-name="h" unicode="h" horiz-adv-x="1087" 
d="M384 0q-52 -9 -122 -9q-63 0 -121 9v1458l14 13h95q77 0 105.5 -35.5t28.5 -118.5v-1317zM952 227q0 -55 9 -103.5t31 -84.5q-27 -23 -68 -38t-87 -15q-74 0 -103.5 40t-29.5 115v476q0 88 -22.5 128t-86.5 40q-43 0 -94.5 -21.5t-98.5 -63t-78 -101.5v228
q67 74 158.5 128t198.5 54q93 0 153 -44.5t89 -121t29 -174.5v-442z" />
    <glyph glyph-name="i" unicode="i" horiz-adv-x="564" 
d="M425 0q-54 -9 -124 -9q-69 0 -124 9v705q0 52 -19.5 80t-71.5 28h-24q-11 42 -11 86q0 22 2.5 45t8.5 46q40 5 79.5 7t65.5 2h34q85 0 134.5 -54.5t49.5 -147.5v-797zM115 1264q0 55 21 100q21 12 56 19.5t69 7.5q32 0 69 -7.5t56 -19.5q10 -21 15.5 -48.5t5.5 -51.5
q0 -54 -21 -100q-18 -12 -55.5 -19.5t-69.5 -7.5q-34 0 -70 7.5t-55 19.5q-21 46 -21 100z" />
    <glyph glyph-name="j" unicode="j" horiz-adv-x="577" 
d="M438 -5q0 -129 -27.5 -215.5t-98 -138.5t-201.5 -80q-25 22 -45.5 64.5t-23.5 87.5q57 26 90 55t47 73.5t14 117.5v746q0 52 -19.5 80t-70.5 28h-43q-11 42 -11 86q0 22 2.5 45t8.5 46q45 5 91 7t74 2h33q84 0 132 -54.5t48 -147.5v-802zM124 1264q0 55 21 100
q21 12 56 19.5t69 7.5q32 0 69 -7.5t56 -19.5q10 -21 15.5 -48.5t5.5 -51.5q0 -54 -21 -100q-18 -12 -55.5 -19.5t-69.5 -7.5q-34 0 -70 7.5t-55 19.5q-21 46 -21 100z" />
    <glyph glyph-name="k" unicode="k" horiz-adv-x="1020" 
d="M384 0q-52 -9 -122 -9q-65 0 -121 9v1458l14 13h95q77 0 105.5 -35.5t28.5 -118.5v-1317zM898 224q24 -67 45.5 -104t50.5 -58q-28 -31 -73.5 -53.5t-92.5 -22.5q-61 0 -90 30t-53 95l-72 187q-27 72 -58.5 96t-89.5 24q-35 0 -65.5 -2.5t-65.5 -6.5l-75 -8v175h286
q108 0 180.5 -45t111.5 -148zM742 653q-42 -77 -113 -113t-174 -36h-169v115l152 4q19 0 30 7t21 25l147 246q27 48 61 73t90 25q39 0 70 -0.5t66 -2.5l12 -16z" />
    <glyph glyph-name="l" unicode="l" horiz-adv-x="603" 
d="M530 184q20 -56 20 -122q0 -13 -1 -27.5t-4 -27.5q-39 -6 -90 -11t-98 -5q-112 0 -165 57.5t-53 176.5v1233l13 13h95q76 0 105.5 -35.5t29.5 -118.5v-1042q0 -45 19.5 -68t62.5 -23h66z" />
    <glyph glyph-name="m" unicode="m" horiz-adv-x="1603" 
d="M247 1003q75 0 109 -48t34 -131v-824q-53 -9 -123 -9t-126 9v989l14 14h92zM680 616q0 96 -29 133t-78 37q-47 0 -99.5 -32t-97.5 -83t-69 -108v229q45 59 101.5 108.5t121.5 79.5t134 30q87 0 146 -41.5t89 -112t30 -159.5v-697q-53 -9 -124 -9q-69 0 -125 9v616z
M1220 618q0 96 -30.5 132t-79.5 36q-44 0 -96 -31.5t-98 -84t-76 -114.5v254q48 54 107.5 99.5t126.5 73t134 27.5q88 0 145.5 -42t86.5 -113t29 -160v-468q0 -55 9 -103.5t31 -84.5q-28 -23 -69 -38t-87 -15q-74 0 -103.5 40t-29.5 115v477z" />
    <glyph glyph-name="n" unicode="n" horiz-adv-x="1092" 
d="M249 1003q74 0 107.5 -48t33.5 -131v-824q-53 -9 -123 -9t-126 9v989l14 14h94zM958 227q0 -55 9 -103.5t31 -84.5q-28 -23 -69 -38t-87 -15q-74 0 -103.5 40t-29.5 115v477q0 87 -22.5 127.5t-86.5 40.5q-42 0 -93.5 -21t-98.5 -62.5t-79 -103.5v228q68 74 159.5 128.5
t198.5 54.5q93 0 153 -44.5t89 -121t29 -173.5v-444z" />
    <glyph glyph-name="o" unicode="o" horiz-adv-x="1041" 
d="M964 496q0 -156 -50 -274t-149 -183.5t-245 -65.5t-244.5 66t-148.5 184t-50 273q0 156 50.5 273.5t149 183.5t243.5 66q147 0 246 -66.5t148.5 -184t49.5 -272.5zM333 496q0 -89 15 -165.5t56 -123t117 -46.5q77 0 117 46.5t55.5 123t15.5 165.5q0 88 -15.5 165
t-55.5 124t-117 47q-76 0 -117 -47t-56 -124t-15 -165z" />
    <glyph glyph-name="p" unicode="p" horiz-adv-x="1067" 
d="M225 1003q79 0 120 -54t41 -149v-1077q0 -83 -29.5 -118.5t-106.5 -35.5h-95l-14 13v1407l14 14h70zM988 508q0 -176 -55 -292.5t-144.5 -175t-191.5 -58.5q-99 0 -179 41t-149 87l35 187q57 -46 123.5 -84.5t131.5 -38.5q52 0 91.5 38t61.5 112.5t22 184.5
q0 109 -21.5 176.5t-57 99t-78.5 31.5t-93 -24t-94.5 -80t-70.5 -153l-53 163q15 73 67 141t130.5 112t174.5 44q117 0 195 -65t116.5 -180t38.5 -266z" />
    <glyph glyph-name="q" unicode="q" horiz-adv-x="1066" 
d="M78 494q0 175 56 292t145 175t189 58q92 0 157.5 -28t111.5 -70t76 -85l-37 -209q-55 92 -127.5 146t-139.5 54q-53 0 -93 -37.5t-62 -112t-22 -184.5q0 -163 46 -235.5t110 -72.5q72 0 139 48t107 129l37 -184q-30 -50 -81 -95t-117 -73t-142 -28q-118 0 -196.5 64.5
t-117.5 180t-39 267.5zM680 728q0 108 51.5 187t162.5 92q27 -18 52 -56t33 -72q-30 -24 -43 -70.5t-13 -101.5v-1125l-13 -13h-96q-75 0 -104.5 35.5t-29.5 118.5v1005z" />
    <glyph glyph-name="r" unicode="r" horiz-adv-x="759" 
d="M752 992q0 -47 -14.5 -114.5t-46.5 -118.5q-22 7 -44.5 9t-45.5 5q-50 0 -88 -20.5t-66.5 -54t-50 -77t-38.5 -89.5l-32 41q4 75 20.5 151.5t51.5 140.5t93 102.5t145 38.5q34 0 61 -3.5t55 -10.5zM84 877q8 33 32.5 72t50.5 58q115 -18 172.5 -101.5t67.5 -215.5v-690
q-54 -9 -124 -9q-69 0 -124 9v670q0 84 -24.5 134.5t-50.5 72.5z" />
    <glyph glyph-name="s" unicode="s" horiz-adv-x="880" 
d="M53 71q2 42 24 92.5t52 78.5q64 -34 135.5 -60t143.5 -26t112.5 29t41.5 74q0 37 -27.5 67t-84.5 51l-114 42q-69 25 -126.5 63.5t-92 94t-34.5 133.5q0 95 47 164.5t130 107t191 37.5q86 0 183 -23t159 -54q2 -44 -18 -98t-52 -79q-56 25 -127.5 47t-144.5 22
q-55 0 -87.5 -26.5t-32.5 -68.5q0 -36 26 -59.5t80 -43.5l123 -46q113 -40 186 -114t73 -194q0 -144 -110.5 -226.5t-297.5 -82.5q-106 0 -198.5 29t-159.5 69z" />
    <glyph glyph-name="t" unicode="t" horiz-adv-x="720" 
d="M180 1142q0 83 29.5 118.5t105.5 35.5h95l13 -13v-1010q0 -41 19.5 -65t65.5 -24h128q19 -57 19 -122q0 -13 -0.5 -27.5t-4.5 -27.5q-52 -6 -115 -11t-122 -5q-116 0 -174.5 57.5t-58.5 176.5v917zM667 994q11 -46 11 -89q0 -48 -11 -92l-346 6l-291 -6q-11 44 -11 92
q0 43 11 89l296 -6z" />
    <glyph glyph-name="u" unicode="u" horiz-adv-x="1095" 
d="M951 282q0 -54 13 -100.5t43 -71.5q-9 -33 -33.5 -70t-51.5 -55q-112 12 -166 92.5t-54 187.5v727q53 9 124 9q69 0 125 -9v-710zM134 765q0 55 -8.5 103.5t-30.5 84.5q27 23 68 38t88 15q73 0 102.5 -40t29.5 -116v-476q0 -87 22.5 -127.5t86.5 -40.5q43 0 94 21t99 63
t79 102v-228q-68 -73 -159.5 -127.5t-199.5 -54.5q-92 0 -152 44.5t-89.5 121.5t-29.5 173v444z" />
    <glyph glyph-name="v" unicode="v" horiz-adv-x="930" 
d="M694 991q23 6 46.5 8t45.5 2q32 0 65.5 -4t61.5 -16l8 -10q-33 -112 -73 -246t-81 -268.5t-78 -253.5t-64 -203q-41 -6 -89.5 -8.5t-94.5 -2.5q-72 0 -111.5 23.5t-64.5 105.5l-262 854q37 17 73.5 26.5t67.5 9.5q56 0 90 -24.5t49 -87.5l116 -413q14 -45 26 -96.5
t22.5 -98t16.5 -77.5q2 -16 19 -16z" />
    <glyph glyph-name="w" unicode="w" horiz-adv-x="1472" 
d="M31 977q39 16 74.5 23.5t67.5 7.5q54 0 80 -25.5t37 -78.5l79 -379q20 -95 36 -181.5t24 -142.5q4 -17 16 -17l145 801q29 6 75 8.5t71 2.5q26 0 73 -2.5t75 -8.5l143 -784q3 -17 16 -17q14 80 29.5 165.5t35.5 175.5l101 466q21 6 48.5 8.5t52.5 2.5q27 0 65 -4t63 -17
l7 -14l-239 -968q-37 -5 -89 -7t-96 -2q-71 0 -111 21.5t-54 101.5l-47 253q-9 52 -20.5 118t-23.5 139t-23 143h-11q-10 -69 -23 -141.5t-25 -138.5t-22 -118l-71 -368q-40 -5 -94 -7.5t-99 -2.5q-66 0 -106 23.5t-58 102.5z" />
    <glyph glyph-name="x" unicode="x" horiz-adv-x="937" 
d="M44 954q39 28 84.5 42t84.5 14q46 0 73.5 -19.5t52.5 -57.5l584 -893q-36 -24 -82 -40t-89 -16q-46 0 -75.5 18.5t-53.5 55.5zM656 992q19 4 46 7t54 3q35 0 65.5 -4.5t56.5 -13.5l7 -18l-322 -500l-62 -63l-244 -404q-18 -5 -46 -7.5t-54 -2.5q-36 0 -69.5 4.5
t-59.5 15.5l-9 16l352 547l69 65z" />
    <glyph glyph-name="y" unicode="y" horiz-adv-x="959" 
d="M683 29q-40 -145 -93.5 -250t-140.5 -160.5t-229 -55.5q-53 0 -115 11.5t-97 23.5q-4 44 11.5 97t40.5 81q27 -9 72 -18t88 -9q61 0 103 26t71 74t49 114l7 26q-70 1 -113.5 25.5t-62.5 88.5l-250 869q40 18 80.5 27t71.5 9q44 0 75 -23t48 -86l118 -430q12 -41 23.5 -93
t22 -102t17.5 -87q3 -14 17 -14l202 818q22 6 50 8.5t52 2.5q32 0 65.5 -3.5t65.5 -14.5l9 -15z" />
    <glyph glyph-name="z" unicode="z" horiz-adv-x="895" 
d="M390 617q34 47 79 98.5t80 93.5l-6 8q-32 -4 -77.5 -7t-93.5 -5t-87 -2h-188q-5 19 -7 40t-2 39q0 25 4 54t10 56h680q18 -49 26.5 -82t8.5 -59q0 -19 -7 -40t-21 -40l-293 -393q-34 -45 -75.5 -96t-78.5 -93l6 -8q47 4 92.5 7t82.5 3h85q59 0 112 6t91 23
q25 -58 25 -106q0 -52 -31 -83t-113 -31h-599q-17 49 -24 77.5t-7 51.5q0 21 8 44.5t29 50.5z" />
    <glyph glyph-name="braceleft" unicode="{" horiz-adv-x="734" 
d="M87 633q71 18 118 81.5t47 147.5v332q0 149 85 233t215 105l115 19q17 -18 29 -49t17 -63t0 -54l-108 -35q-45 -14 -73.5 -54t-28.5 -104v-326q0 -98 -46 -184t-124 -121v-16q78 -35 124 -121.5t46 -183.5v-328q0 -63 28.5 -103.5t73.5 -54.5l108 -35q5 -21 0 -53
t-17 -63t-29 -49l-115 18q-130 22 -215 106t-85 232v334q0 84 -47 147t-118 81q-12 30 -12 81t12 80z" />
    <glyph glyph-name="bar" unicode="|" horiz-adv-x="522" 
d="M145 1548q27 6 61.5 8t56.5 2q24 0 55 -2t59 -8v-1830q-28 -7 -59 -9t-55 -2q-22 0 -56.5 2t-61.5 9v1830z" />
    <glyph glyph-name="braceright" unicode="}" horiz-adv-x="734" 
d="M648 633q-71 18 -118.5 81.5t-47.5 147.5v332q0 149 -85 233t-215 105l-114 19q-17 -18 -29.5 -49t-17 -63t-0.5 -54l109 -35q44 -14 72.5 -54t28.5 -104v-326q0 -98 46.5 -184t123.5 -121v-16q-77 -35 -123.5 -121.5t-46.5 -183.5v-328q0 -63 -28.5 -103.5t-72.5 -54.5
l-109 -35q-4 -21 0.5 -53t17 -63t29.5 -49l114 18q130 22 215 106t85 232v334q0 84 47.5 147t118.5 81q12 30 12 81t-12 80z" />
    <glyph glyph-name="asciitilde" unicode="~" horiz-adv-x="1209" 
d="M733 662q26 -11 50 -17.5t47 -6.5q34 0 63 16t53 44l43 48q38 -3 83.5 -29t63.5 -67l-32 -55q-50 -88 -124 -138t-170 -50q-41 0 -85 11t-88 31l-161 73q-26 11 -50.5 17t-46.5 6q-33 0 -62.5 -16t-53.5 -44l-43 -47q-40 3 -84.5 28.5t-62.5 66.5l32 55q50 88 124 137.5
t169 49.5q42 0 85.5 -10.5t88.5 -29.5z" />
    <glyph glyph-name="uni00A0" unicode="&#xa0;" horiz-adv-x="440" 
 />
    <glyph glyph-name="exclamdown" unicode="&#xa1;" horiz-adv-x="592" 
d="M398 590q14 -196 28.5 -392t14.5 -395v-177q-35 -10 -87 -13.5t-104.5 0t-87.5 13.5v180q0 196 16.5 392t29.5 392q23 7 48.5 9t45.5 2q18 0 45.5 -2t50.5 -9zM302 748q-35 0 -69.5 7.5t-56.5 20.5q-10 16 -15 48.5t-5 54.5q0 24 5 56t15 47q22 13 56.5 20.5t69.5 7.5
q77 0 127 -28q9 -15 14 -47t5 -56q0 -22 -5 -54.5t-14 -48.5q-51 -28 -127 -28z" />
    <glyph glyph-name="cent" unicode="&#xa2;" horiz-adv-x="1080" 
d="M564 -53q-22 0 -48.5 3t-45.5 7v301h188v-301q-18 -4 -44.5 -7t-49.5 -3zM476 999v310q39 10 94 10q24 0 50 -3t44 -7v-310h-188zM571 133q-131 0 -218.5 44.5t-139.5 117.5t-74 160.5t-22 173.5q0 177 66 288.5t171.5 163.5t222.5 52q92 0 164.5 -26t122.5 -69.5
t76 -97.5t26 -110q0 -69 -32 -104.5t-100 -35.5q-21 0 -44.5 2.5t-44.5 8.5q2 60 -13.5 115.5t-54 92t-106.5 36.5q-101 0 -152 -81t-51 -235q0 -155 65.5 -225t174.5 -70q66 0 132 30t115 72q33 -20 63.5 -60.5t42.5 -78.5q-41 -49 -105 -86t-138 -57.5t-147 -20.5z" />
    <glyph glyph-name="sterling" unicode="&#xa3;" horiz-adv-x="1080" 
d="M171 0q-20 59 -25.5 88.5t-5.5 50.5q0 37 19 63.5t41 51.5l24 26q39 43 67 92.5t28 119.5q0 81 -22.5 149t-45.5 136.5t-23 148.5q0 99 48.5 183.5t139 135.5t214.5 51q106 0 192.5 -39t147.5 -94q-9 -46 -41.5 -93t-76.5 -71q-44 40 -96.5 65t-106.5 25
q-66 0 -119 -41.5t-53 -139.5q0 -59 17 -120t34.5 -129t17.5 -148q0 -90 -45 -170t-112 -142l5 -5q73 8 161 10.5t184 2.5h246q0 -122 -40.5 -164.5t-124.5 -42.5h-649zM149 523q-5 18 -7 41t-2 48q0 26 2 48.5t7 41.5l261 -2l411 2q10 -36 10 -89q0 -22 -2.5 -47t-7.5 -43
l-411 1z" />
    <glyph glyph-name="currency" unicode="&#xa4;" horiz-adv-x="1080" 
d="M538 238q-116 0 -205 50t-139.5 139t-50.5 205q0 118 50.5 207t139.5 139t205 50q117 0 206 -50t140 -139t51 -207q0 -116 -51 -205t-140 -139t-206 -50zM538 413q89 0 132 64t43 155q0 92 -43 156.5t-132 64.5q-88 0 -131 -64.5t-43 -156.5q0 -90 43 -154.5t131 -64.5z
M178 138q-38 22 -73 57.5t-58 73.5l214 235l153 -154zM261 758l-214 235q20 40 56.5 74.5t74.5 56.5l234 -212zM820 761l-153 154l235 213q38 -22 73 -57.5t58 -73.5zM898 137l-235 213l154 151l212 -233q-45 -82 -131 -131z" />
    <glyph glyph-name="yen" unicode="&#xa5;" horiz-adv-x="1080" 
d="M419 442l-346 802q36 19 78 32t81 13q44 0 71 -22.5t45 -71.5l105 -262q22 -56 43.5 -120t42.5 -139h10q21 68 46.5 136.5t46.5 122.5l135 336q24 8 48 10t47 2q30 0 61 -3.5t65 -12.5l9 -19l-354 -804h-234zM537 -9q-22 0 -58 1.5t-66 7.5v517h245v-517
q-30 -6 -62.5 -7.5t-58.5 -1.5zM133 305q-4 18 -6.5 39t-2.5 45q0 23 2.5 45t6.5 38h806q5 -18 7.5 -39t2.5 -43t-2.5 -44t-7.5 -41h-806zM133 614q-4 17 -6.5 39t-2.5 46t2.5 45t6.5 40h276v-170h-276zM663 614v170h276q5 -16 7.5 -37.5t2.5 -46.5q0 -23 -2.5 -44.5
t-7.5 -41.5h-276z" />
    <glyph glyph-name="brokenbar" unicode="&#xa6;" horiz-adv-x="510" 
d="M140 492q27 6 61 8t56 2q24 0 54.5 -2t58.5 -8v-774q-28 -7 -58.5 -9t-54.5 -2q-22 0 -56 2t-61 9v774zM140 1548q27 6 61 8t56 2q24 0 54.5 -2t58.5 -8v-774q-28 -7 -58.5 -9t-54.5 -2q-22 0 -56 2t-61 9v774z" />
    <glyph glyph-name="section" unicode="&#xa7;" horiz-adv-x="982" 
d="M511 381q46 16 85 44t63.5 65t24.5 82q0 43 -27 75t-72.5 57.5t-100.5 47.5l-98 38q-71 28 -129 69t-92.5 98t-34.5 133q0 87 47.5 155.5t131.5 108t192 39.5q85 0 172.5 -20.5t150.5 -50.5q3 -45 -18 -97t-53 -77q-56 24 -119 42t-125 18q-57 0 -94.5 -26.5t-37.5 -72.5
q0 -37 28 -62.5t80 -46.5l116 -46q87 -36 161 -80.5t119 -106.5t45 -153q0 -82 -47 -151.5t-123.5 -121.5t-165.5 -81zM475 792q-45 -17 -85 -45t-64.5 -65t-24.5 -82q0 -42 25.5 -74t71 -57t104.5 -48l97 -39q72 -28 129.5 -69.5t92 -99t34.5 -133.5q0 -87 -48 -156
t-134.5 -108.5t-201.5 -39.5q-90 0 -183.5 22.5t-158.5 61.5q-3 46 20 98t53 74q52 -24 122.5 -47.5t146.5 -23.5q62 0 99.5 27t37.5 72q0 38 -28 64.5t-80 47.5l-115 46q-87 36 -161.5 80.5t-119 107t-44.5 152.5q0 82 47 151.5t123 121.5t165 81z" />
    <glyph glyph-name="dieresis" unicode="&#xa8;" horiz-adv-x="796" 
d="M80 1238q0 20 3.5 44.5t11.5 43.5q21 13 52 20t58 7q28 0 59 -7t52 -20q8 -19 12 -43.5t4 -44.5q0 -19 -4 -43.5t-12 -44.5q-21 -12 -52 -19t-59 -7q-27 0 -58 7t-52 19q-8 20 -11.5 44.5t-3.5 43.5zM464 1238q0 20 4 44.5t12 43.5q21 13 52 20t59 7q27 0 58 -7t52 -20
q8 -19 11.5 -43.5t3.5 -44.5q0 -19 -3.5 -43.5t-11.5 -44.5q-21 -12 -52 -19t-58 -7q-28 0 -59 7t-52 19q-8 20 -12 44.5t-4 43.5z" />
    <glyph glyph-name="copyright" unicode="&#xa9;" horiz-adv-x="1594" 
d="M73 682q0 153 55 285t153 230.5t230 154t285 55.5t285 -55.5t230.5 -154t154 -230.5t55.5 -285t-55.5 -284.5t-154 -230t-230.5 -153.5t-285 -55t-285 55t-230 153.5t-153 230t-55 284.5zM270 682q0 -115 39 -215t109.5 -176t166.5 -118.5t211 -42.5t211.5 42.5
t167.5 118.5t110 176t39 215t-39 215.5t-110 176.5t-167.5 119t-211.5 43t-211 -43t-166.5 -119t-109.5 -176.5t-39 -215.5zM917 748q2 43 -8 85t-37.5 69t-76.5 27q-69 0 -105 -62t-36 -184q0 -115 46 -175.5t128 -60.5q45 0 94 22t90 52q27 -16 49 -49.5t28 -64.5
q-48 -49 -131 -83t-161 -34q-123 0 -199.5 55t-111 144.5t-34.5 193.5q0 141 52 228t133 127t165 40q93 0 159 -35t102 -89t36 -113q0 -49 -25.5 -77t-81.5 -28q-19 0 -40 3t-35 9z" />
    <glyph glyph-name="ordfeminine" unicode="&#xaa;" horiz-adv-x="874" 
d="M79 706q0 92 41 150.5t112 86.5t159 28q43 0 99 -4t105 -9v-138q-41 5 -93.5 9t-96.5 4q-58 0 -89.5 -30.5t-31.5 -82.5q0 -38 25.5 -67t68.5 -29q51 0 112 41t102 108l33 -139q-31 -36 -74.5 -74.5t-100 -65t-127.5 -26.5q-79 0 -133.5 34t-82.5 88.5t-28 115.5z
M790 586q-4 -30 -28 -62.5t-54 -47.5q-86 9 -135 70.5t-49 161.5v309q0 61 -32.5 87t-77.5 26q-61 0 -119.5 -14.5t-124.5 -37.5q-24 25 -39 63.5t-17 78.5q74 31 170 52t178 21q76 0 139 -27.5t100.5 -87t37.5 -154.5v-312q0 -42 10.5 -74t40.5 -52z" />
    <glyph glyph-name="guillemotleft" unicode="&#xab;" horiz-adv-x="1163" 
d="M820 514l274 -321q-13 -40 -55 -78.5t-84 -49.5l-399 371q-13 30 -13 74.5t13 73.5l393 374q41 -12 81.5 -50.5t53.5 -78.5zM335 514l274 -321q-13 -40 -55 -78.5t-84 -49.5l-399 371q-13 30 -13 74.5t13 73.5l393 374q41 -12 81.5 -50.5t53.5 -78.5z" />
    <glyph glyph-name="logicalnot" unicode="&#xac;" horiz-adv-x="1080" 
d="M110 746q-7 -26 -9 -54.5t-2 -49.5q0 -19 2 -48.5t9 -54.5h520q31 0 61 1t59 1l211 -2v193l-13 14h-838zM742 562q1 -30 -0.5 -63t-1.5 -64v-157q31 -6 58 -7.5t56 -1.5q28 0 55 1.5t52 7.5v369h-221z" />
    <glyph glyph-name="uni00AD" unicode="&#xad;" horiz-adv-x="721" 
d="M99 432q-6 25 -8.5 54t-2.5 49q0 21 2.5 49.5t8.5 54.5h522q7 -26 9 -54.5t2 -49.5q0 -20 -2 -49t-9 -54h-522z" />
    <glyph glyph-name="registered" unicode="&#xae;" horiz-adv-x="1193" 
d="M63 953q0 149 70.5 270t191.5 192.5t270 71.5q150 0 271 -71.5t192.5 -192.5t71.5 -270q0 -150 -71.5 -270.5t-192.5 -191.5t-271 -71q-149 0 -270 71t-191.5 191.5t-70.5 270.5zM217 953q0 -109 49.5 -197.5t135 -141.5t193.5 -53q109 0 195 53t136 141.5t50 197.5
q0 108 -50 197.5t-136 143t-195 53.5q-108 0 -193.5 -53.5t-135 -143t-49.5 -197.5zM805 1067q0 -58 -31.5 -90.5t-69.5 -43.5q23 -9 37 -27.5t29 -48.5l25 -48q9 -18 20 -33.5t26 -24.5q-14 -21 -40 -35.5t-55 -14.5q-28 0 -46 15.5t-33 46.5l-47 89q-9 18 -21 28t-36 10
h-94v103q25 1 64.5 1.5t56.5 0.5q40 0 56.5 17.5t16.5 42.5q0 23 -15.5 40t-50.5 17h-33.5h-32.5v-401q-26 -8 -67 -8t-69 8v494l6 5q53 2 107 3.5t100 1.5q106 0 151.5 -42.5t45.5 -105.5z" />
    <glyph glyph-name="macron" unicode="&#xaf;" horiz-adv-x="796" 
d="M107 1148q-6 24 -8.5 45t-2.5 48t2.5 48.5t8.5 46.5h583q6 -25 8 -44.5t2 -47.5q0 -54 -10 -96h-583z" />
    <glyph glyph-name="degree" unicode="&#xb0;" horiz-adv-x="765" 
d="M59 968q0 95 42 168.5t115 115t166 41.5q94 0 167 -41.5t114.5 -115t41.5 -168.5q0 -94 -41.5 -167t-114.5 -115.5t-167 -42.5q-93 0 -166 42.5t-115 115.5t-42 167zM239 968q0 -73 39 -118t104 -45t103 45t38 118t-38 118.5t-103 45.5t-104 -45.5t-39 -118.5z" />
    <glyph glyph-name="plusminus" unicode="&#xb1;" horiz-adv-x="1080" 
d="M141 801q-6 -26 -7.5 -46t-1.5 -48q0 -27 1.5 -48t7.5 -48h183q30 0 60 1t59 1h194q29 0 59 -1t60 -1h183q6 27 7.5 48t1.5 48q0 28 -1.5 48t-7.5 46h-183q-30 0 -60 -1t-59 -1h-194q-29 0 -59 1t-60 1h-183zM433 917q0 -31 1 -63.5t1 -61.5v-171q0 -29 -1 -61t-1 -62
v-173q26 -5 53 -7t55 -2t55 2t53 7v173q0 30 -1 62t-1 61v171q0 29 1 61.5t1 63.5v182q-26 5 -53 7t-55 2t-55 -2t-53 -7v-182zM141 0q-6 27 -7.5 49t-1.5 49q0 29 1.5 50t7.5 48h798q6 -27 7.5 -48t1.5 -50q0 -27 -1.5 -49t-7.5 -49h-798z" />
    <glyph glyph-name="uni00B2" unicode="&#xb2;" horiz-adv-x="830" 
d="M106 1290q24 92 101 155t194 63q129 0 207.5 -76.5t78.5 -190.5q0 -73 -29 -127t-68.5 -90.5t-72.5 -60.5l-87 -63q-58 -41 -94 -76t-36 -64v-125h-138q-38 46 -52.5 72.5t-14.5 54.5q0 60 45.5 120.5t106.5 106.5l127 98q37 28 69 63.5t32 84.5q0 43 -25.5 69.5
t-67.5 24.5q-42 -1 -73 -32.5t-45 -76.5q-25 1 -57.5 11t-60.5 26t-40 33zM712 819q0 -79 -15 -118.5t-43 -52.5t-66 -13h-396l-24 124q48 22 105 35t123 19t140 6h176z" />
    <glyph glyph-name="uni00B3" unicode="&#xb3;" horiz-adv-x="831" 
d="M499 912q0 57 -37 88t-87 31q-19 0 -38 -4t-35 -12q-28 13 -51.5 45.5t-31.5 65.5q61 18 122 28t115 10q66 0 124 -30.5t94 -87.5t36 -136q0 -95 -48 -159t-124.5 -95.5t-161.5 -31.5q-88 0 -160 25.5t-119 64.5q7 38 30 76.5t52 62.5q38 -26 84 -44.5t100 -18.5
q60 0 98 33t38 89zM541 1200q-32 -28 -90 -61t-119 -52l-113 39l144 137q17 15 38.5 33t40.5 31l-5 6q-26 -5 -74 -7.5t-78 -2.5h-148q-9 39 -9 75q0 20 3.5 45.5t13.5 50.5h489q14 -26 27.5 -58.5t13.5 -63.5q0 -29 -13 -49.5t-37 -40.5z" />
    <glyph glyph-name="acute" unicode="&#xb4;" horiz-adv-x="796" 
d="M465 1502q50 -15 97.5 -59t64.5 -94l-353 -271q-32 9 -62 36.5t-44 61.5z" />
    <glyph glyph-name="uni00B5" unicode="&#xb5;" horiz-adv-x="1107" 
d="M229 466v-134q0 -94 34.5 -173.5t98 -128.5t148.5 -49q98 0 166.5 55t103.5 137l-16 212q-39 -87 -95 -139.5t-130 -52.5q-73 0 -113 48t-40 131v94h-157zM960 992q-56 9 -125 9q-70 0 -124 -9v-725q0 -108 54 -189t166 -93q27 18 51.5 55t33.5 70q-30 25 -43 72t-13 101
v709zM386 992q-56 9 -123 9q-70 0 -122 -9v-1189q0 -40 -7.5 -95t-32.5 -95q31 -24 68.5 -37t82.5 -13q76 0 97.5 46.5t21.5 121.5v430h15v831z" />
    <glyph glyph-name="paragraph" unicode="&#xb6;" horiz-adv-x="1405" 
d="M565 123q0 -80 -15.5 -135t-56 -83t-115.5 -28q-48 0 -100 13t-95 29q-26 -36 -41 -91.5t-14 -93.5q45 -17 120 -32.5t153 -15.5q158 0 248 55.5t128 163t38 264.5v1186l-12 13q-74 3 -132.5 5.5t-126.5 2.5q-136 0 -243 -45.5t-168 -142.5t-61 -252q0 -149 60.5 -248
t165 -148.5t235.5 -49.5h32v-367zM943 1353l13 13h240v-1629q-31 -7 -64 -9t-62 -2q-25 0 -61.5 2t-65.5 9v1616zM1071 1366h286q8 -24 10.5 -66t0 -84t-10.5 -66h-69q-35 0 -69 2t-66 2h-82v212z" />
    <glyph glyph-name="periodcentered" unicode="&#xb7;" horiz-adv-x="629" 
d="M167 527q0 18 4.5 53t14.5 56q23 14 59 22.5t69 8.5q32 0 69 -8.5t59 -22.5q10 -21 14.5 -56t4.5 -53t-4.5 -52t-14.5 -56q-21 -14 -58.5 -22t-69.5 -8q-33 0 -69 8t-59 22q-10 22 -14.5 56t-4.5 52z" />
    <glyph glyph-name="cedilla" unicode="&#xb8;" horiz-adv-x="796" 
d="M253 -151q11 33 33.5 82.5t40.5 80.5h142q-11 -14 -24 -39.5t-21 -42.5q79 -7 131 -55t52 -121q0 -91 -72 -149t-183 -58q-48 0 -93 12.5t-70 30.5q2 30 13.5 61.5t31.5 54.5q18 -11 44 -19t53 -8q41 0 62 20t21 49q0 30 -20.5 50.5t-57.5 20.5q-12 0 -23 -2.5t-21 -7.5
q-29 13 -39 40z" />
    <glyph glyph-name="uni00B9" unicode="&#xb9;" horiz-adv-x="830" 
d="M559 727h-202v341q0 22 2.5 60t4.5 79.5t1 75.5l-1 208q26 5 51 7.5t48 2.5q24 0 45.5 -2.5t50.5 -7.5v-764zM260 806h50h47h202h52h51h58q11 -38 11 -86q0 -18 -2 -41t-9 -44h-563q-10 47 -10 85q0 45 10 86h103zM97 1211q108 64 167 128.5t100 151.5l71 -133
q-28 -103 -87 -166.5t-159 -109.5q-35 17 -60.5 55t-31.5 74z" />
    <glyph glyph-name="ordmasculine" unicode="&#xba;" horiz-adv-x="860" 
d="M784 881q0 -95 -25.5 -180t-90.5 -148q-44 -43 -105.5 -65t-132.5 -22q-72 0 -133.5 21.5t-104.5 65.5q-64 64 -90 148.5t-26 179.5q0 94 25.5 178.5t90.5 147.5q44 43 105 64.5t133 21.5q71 0 133 -20.5t105 -65.5q63 -64 89.5 -148t26.5 -178zM286 881q0 -71 13.5 -128
t45 -90.5t85.5 -33.5t85 33.5t45 90.5t14 128t-14 127.5t-45 90t-85 33.5t-85.5 -33.5t-45 -90t-13.5 -127.5z" />
    <glyph glyph-name="guillemotright" unicode="&#xbb;" horiz-adv-x="1163" 
d="M342 508l-274 321q13 40 55.5 78.5t84.5 50.5l399 -371q12 -30 12 -74t-12 -75l-394 -373q-41 11 -81.5 50t-53.5 79zM827 508l-274 321q13 40 55.5 78.5t84.5 50.5l399 -371q12 -30 12 -74t-12 -75l-394 -373q-41 11 -81.5 50t-53.5 79z" />
    <glyph glyph-name="onequarter" unicode="&#xbc;" horiz-adv-x="2040" 
d="M559 599h-202v341q0 22 2.5 60t4.5 79.5t1 75.5l-1 208q26 5 51 7.5t48 2.5q24 0 45.5 -2.5t50.5 -7.5v-764zM260 678h50h47h202h52h51h58q11 -38 11 -86q0 -18 -2 -41t-9 -44h-563q-10 47 -10 85q0 45 10 86h103zM97 1083q108 64 167 128.5t100 151.5l71 -133
q-28 -103 -87 -166.5t-159 -109.5q-35 17 -60.5 55t-31.5 74zM1336 1366q32 9 81 11t94.5 -1t65.5 -10l-754 -1366q-31 -8 -80.5 -10.5t-94.5 0.5t-66 10zM1338 151q-18 29 -31.5 63.5t-13.5 60.5q0 20 10 48.5t18 44.5l227 502q47 5 105.5 -7.5t88.5 -37.5l-130 -282
q-12 -27 -32 -68.5t-42.5 -83.5t-44.5 -70l4 -4q26 3 58 3.5t59 1t39 0.5h189q15 0 33 1t34 1h47q4 -16 6 -36.5t2 -40.5q0 -26 -4 -51.5t-10 -44.5h-46q-13 0 -31.5 0.5t-30.5 0.5h-190q-16 0 -42 -0.5t-48 -0.5h-224zM1650 71q0 22 1 42.5t1 38.5v141q0 12 -1 32t-1 33v55
q0 66 36.5 107.5t98.5 41.5h52l6 -7v-131q0 -25 -0.5 -52t-0.5 -50v-170q0 -18 0.5 -38.5t0.5 -42.5v-69q-20 -6 -46 -8t-50 -2t-49.5 2t-47.5 8v69z" />
    <glyph glyph-name="onehalf" unicode="&#xbd;" horiz-adv-x="2072" 
d="M559 599h-202v341q0 22 2.5 60t4.5 79.5t1 75.5l-1 208q26 5 51 7.5t48 2.5q24 0 45.5 -2.5t50.5 -7.5v-764zM260 678h50h47h202h52h51h58q11 -38 11 -86q0 -18 -2 -41t-9 -44h-563q-10 47 -10 85q0 45 10 86h103zM97 1083q108 64 167 128.5t100 151.5l71 -133
q-28 -103 -87 -166.5t-159 -109.5q-35 17 -60.5 55t-31.5 74zM1336 1366q32 9 81 11t94.5 -1t65.5 -10l-754 -1366q-31 -8 -80.5 -10.5t-94.5 0.5t-66 10zM1348 655q24 92 101 155t194 63q129 0 207.5 -76.5t78.5 -190.5q0 -73 -29 -127t-68.5 -90.5t-72.5 -60.5l-87 -63
q-58 -41 -94 -76t-36 -64v-125h-138q-38 46 -52.5 72.5t-14.5 54.5q0 60 45.5 120.5t106.5 106.5l127 98q37 28 69 63.5t32 84.5q0 43 -25.5 69.5t-67.5 24.5q-42 -1 -73 -32.5t-45 -76.5q-25 1 -57.5 11t-60.5 26t-40 33zM1954 184q0 -79 -15 -118.5t-43 -52.5t-66 -13
h-396l-24 124q48 22 105 35t123 19t140 6h176z" />
    <glyph glyph-name="threequarters" unicode="&#xbe;" horiz-adv-x="2002" 
d="M499 784q0 57 -37 88t-87 31q-19 0 -38 -4t-35 -12q-28 13 -51.5 45.5t-31.5 65.5q61 18 122 28t115 10q66 0 124 -30.5t94 -87.5t36 -136q0 -95 -48 -159t-124.5 -95.5t-161.5 -31.5q-88 0 -160 25.5t-119 64.5q7 38 30 76.5t52 62.5q38 -26 84 -44.5t100 -18.5
q60 0 98 33t38 89zM541 1072q-32 -28 -90 -61t-119 -52l-113 39l144 137q17 15 38.5 33t40.5 31l-5 6q-26 -5 -74 -7.5t-78 -2.5h-148q-9 39 -9 75q0 20 3.5 45.5t13.5 50.5h489q14 -26 27.5 -58.5t13.5 -63.5q0 -29 -13 -49.5t-37 -40.5zM1298 1366q32 9 81 11t94.5 -1
t65.5 -10l-754 -1366q-31 -8 -80.5 -10.5t-94.5 0.5t-66 10zM1300 151q-18 29 -31.5 63.5t-13.5 60.5q0 20 10 48.5t18 44.5l227 502q47 5 105.5 -7.5t88.5 -37.5l-130 -282q-12 -27 -32 -68.5t-42.5 -83.5t-44.5 -70l4 -4q26 3 58 3.5t59 1t39 0.5h189q15 0 33 1t34 1h47
q4 -16 6 -36.5t2 -40.5q0 -26 -4 -51.5t-10 -44.5h-46q-13 0 -31.5 0.5t-30.5 0.5h-190q-16 0 -42 -0.5t-48 -0.5h-224zM1612 71q0 22 1 42.5t1 38.5v141q0 12 -1 32t-1 33v55q0 66 36.5 107.5t98.5 41.5h52l6 -7v-131q0 -25 -0.5 -52t-0.5 -50v-170q0 -18 0.5 -38.5
t0.5 -42.5v-69q-20 -6 -46 -8t-50 -2t-49.5 2t-47.5 8v69z" />
    <glyph glyph-name="questiondown" unicode="&#xbf;" horiz-adv-x="811" 
d="M807 -300q-82 -46 -183 -76.5t-211 -30.5q-184 0 -286 97.5t-102 253.5q0 143 75 237t186 154l123 67l18 183q21 8 45 10.5t46 2.5q23 0 49 -2.5t49 -10.5l14 -298l-21 -25l-102 -50q-96 -47 -158 -104.5t-62 -138.5q0 -71 47.5 -115t134.5 -44q65 0 128 21.5t119 50.5
q34 -27 61 -80t30 -102zM519 748q-35 0 -69.5 7.5t-57.5 20.5q-9 16 -14 48.5t-5 54.5q0 24 5 56t14 47q23 13 57.5 20.5t69.5 7.5t69.5 -7.5t58.5 -20.5q8 -15 13 -47t5 -56q0 -22 -5 -54.5t-13 -48.5q-51 -28 -128 -28z" />
    <glyph glyph-name="Agrave" unicode="&#xc0;" horiz-adv-x="1244" 
d="M478 1366q31 4 74 6.5t74 2.5t74 -2.5t72 -7.5l441 -1349q-27 -15 -68 -23t-80 -8q-60 0 -94 27.5t-58 108.5l-189 621q-26 86 -55.5 190t-51.5 191h-11q-15 -73 -41 -166t-45 -159l-248 -800q-23 -6 -51 -7.5t-58 -1.5q-31 0 -65.5 4t-58.5 12l-8 13zM472 312
q-12 0 -36.5 0.5l-49 1t-36.5 0.5h-126l79 204h111q12 0 34.5 0.5t44.5 1t33 0.5h178q12 0 34.5 -0.5l45 -1t34.5 -0.5h114l66 -204h-125q-12 0 -37 -0.5t-49.5 -1t-36.5 -0.5h-278zM447 1834q-33 -24 -65.5 -81.5t-38.5 -114.5l453 -182q32 19 49.5 54.5t23.5 69.5z" />
    <glyph glyph-name="Aacute" unicode="&#xc1;" horiz-adv-x="1244" 
d="M478 1366q31 4 74 6.5t74 2.5t74 -2.5t72 -7.5l441 -1349q-27 -15 -68 -23t-80 -8q-60 0 -94 27.5t-58 108.5l-189 621q-26 86 -55.5 190t-51.5 191h-11q-15 -73 -41 -166t-45 -159l-248 -800q-23 -6 -51 -7.5t-58 -1.5q-31 0 -65.5 4t-58.5 12l-8 13zM472 312
q-12 0 -36.5 0.5l-49 1t-36.5 0.5h-126l79 204h111q12 0 34.5 0.5t44.5 1t33 0.5h178q12 0 34.5 -0.5l45 -1t34.5 -0.5h114l66 -204h-125q-12 0 -37 -0.5t-49.5 -1t-36.5 -0.5h-278zM827 1834q33 -24 66 -81.5t39 -114.5l-454 -182q-28 16 -48 53.5t-25 70.5z" />
    <glyph glyph-name="Acircumflex" unicode="&#xc2;" horiz-adv-x="1244" 
d="M478 1366q31 4 74 6.5t74 2.5t74 -2.5t72 -7.5l441 -1349q-27 -15 -68 -23t-80 -8q-60 0 -94 27.5t-58 108.5l-189 621q-26 86 -55.5 190t-51.5 191h-11q-15 -73 -41 -166t-45 -159l-248 -800q-23 -6 -51 -7.5t-58 -1.5q-31 0 -65.5 4t-58.5 12l-8 13zM472 312
q-12 0 -36.5 0.5l-49 1t-36.5 0.5h-126l79 204h111q12 0 34.5 0.5t44.5 1t33 0.5h178q12 0 34.5 -0.5l45 -1t34.5 -0.5h114l66 -204h-125q-12 0 -37 -0.5t-49.5 -1t-36.5 -0.5h-278zM730 1794l226 -216q-13 -40 -45.5 -68t-58.5 -37l-229 148l-228 -148q-26 9 -59 37t-45 68
l225 216q47 9 107 9q61 0 107 -9z" />
    <glyph glyph-name="Atilde" unicode="&#xc3;" horiz-adv-x="1244" 
d="M478 1366q31 4 74 6.5t74 2.5t74 -2.5t72 -7.5l441 -1349q-27 -15 -68 -23t-80 -8q-60 0 -94 27.5t-58 108.5l-189 621q-26 86 -55.5 190t-51.5 191h-11q-15 -73 -41 -166t-45 -159l-248 -800q-23 -6 -51 -7.5t-58 -1.5q-31 0 -65.5 4t-58.5 12l-8 13zM472 312
q-12 0 -36.5 0.5l-49 1t-36.5 0.5h-126l79 204h111q12 0 34.5 0.5t44.5 1t33 0.5h178q12 0 34.5 -0.5l45 -1t34.5 -0.5h114l66 -204h-125q-12 0 -37 -0.5t-49.5 -1t-36.5 -0.5h-278zM536 1565q-16 7 -31.5 12.5t-33.5 5.5q-19 0 -39.5 -12.5t-37.5 -36.5l-20 -28
q-37 1 -74 22t-51 54l16 34q33 74 89.5 118t133.5 44q35 0 66.5 -10t57.5 -23l101 -48q17 -8 34.5 -13.5t33.5 -5.5q19 0 39 11.5t38 36.5l20 27q37 0 74.5 -21t50.5 -54l-16 -34q-33 -74 -90 -118t-133 -44q-35 0 -67.5 10.5t-56.5 22.5z" />
    <glyph glyph-name="Adieresis" unicode="&#xc4;" horiz-adv-x="1244" 
d="M478 1366q31 4 74 6.5t74 2.5t74 -2.5t72 -7.5l441 -1349q-27 -15 -68 -23t-80 -8q-60 0 -94 27.5t-58 108.5l-189 621q-26 86 -55.5 190t-51.5 191h-11q-15 -73 -41 -166t-45 -159l-248 -800q-23 -6 -51 -7.5t-58 -1.5q-31 0 -65.5 4t-58.5 12l-8 13zM472 312
q-12 0 -36.5 0.5l-49 1t-36.5 0.5h-126l79 204h111q12 0 34.5 0.5t44.5 1t33 0.5h178q12 0 34.5 -0.5l45 -1t34.5 -0.5h114l66 -204h-125q-12 0 -37 -0.5t-49.5 -1t-36.5 -0.5h-278zM843 1486q-30 0 -60.5 7t-52.5 20q-9 22 -12.5 47t-3.5 43q0 19 3.5 43.5t12.5 46.5
q22 13 52.5 20t60.5 7q28 0 59 -7t53 -20q9 -22 12.5 -46.5t3.5 -43.5q0 -18 -3.5 -43t-12.5 -47q-22 -13 -53 -20t-59 -7zM407 1486q-28 0 -59 7t-53 20q-9 22 -12.5 47t-3.5 43q0 19 3.5 43.5t12.5 46.5q22 13 53 20t59 7q29 0 60 -7t53 -20q9 -22 12.5 -46.5t3.5 -43.5
q0 -18 -3.5 -43t-12.5 -47q-22 -13 -53 -20t-60 -7z" />
    <glyph glyph-name="Aring" unicode="&#xc5;" horiz-adv-x="1244" 
d="M481 1375h288l444 -1359q-27 -15 -68 -23t-80 -8q-60 0 -94 27.5t-58 108.5l-189 621q-26 86 -55.5 190t-51.5 191h-11q-15 -73 -41 -166t-45 -159l-248 -800q-23 -6 -51 -7.5t-58 -1.5q-31 0 -65.5 4t-58.5 12l-8 13zM472 312q-12 0 -36.5 0.5l-49 1t-36.5 0.5h-126
l79 204h111q12 0 34.5 0.5t44.5 1t33 0.5h178q12 0 34.5 -0.5l45 -1t34.5 -0.5h114l66 -204h-125q-12 0 -37 -0.5t-49.5 -1t-36.5 -0.5h-278zM368 1567q0 99 71 169t187 70q115 0 186 -70t71 -169q0 -98 -71 -168t-186 -70q-116 0 -187 70t-71 168zM526 1567
q0 -45 27.5 -75.5t72.5 -30.5q44 0 71.5 30.5t27.5 75.5t-27.5 75.5t-71.5 30.5q-45 0 -72.5 -30.5t-27.5 -75.5z" />
    <glyph glyph-name="AE" unicode="&#xc6;" horiz-adv-x="1761" 
d="M652 1343q29 13 74 18t80 5h167l-179 -243h-11q-29 -77 -65.5 -165t-69.5 -161l-368 -798q-28 -6 -59.5 -7.5t-61.5 -1.5q-34 0 -69 4t-59 13l-9 13zM522 312q-15 0 -38.5 0.5t-46 1t-36.5 0.5h-101l91 202h95q21 0 52 1t54 1h107q15 0 37.5 -0.5l45 -1t35.5 -0.5h93
v-202h-92q-14 0 -36 -0.5t-44.5 -1t-38.5 -0.5h-177zM793 1353l13 13h231v-210q0 -42 1 -71t1 -70v-686q0 -31 -1 -59t-1 -62v-211h-100q-68 0 -106 41t-38 112v1203zM1520 793q7 -24 10.5 -53.5t3.5 -50.5q0 -22 -3.5 -51t-10.5 -54h-351q-24 0 -62.5 0.5t-79.5 1t-72 0.5
v205q31 0 72 0.5t79.5 1t62.5 0.5h351zM1632 1366q6 -28 7.5 -53.5t1.5 -47.5q0 -21 -5 -53t-16 -61h-451q-24 0 -62.5 0.5t-79.5 1t-72 1.5v212h677zM1676 212q0 -123 -39 -169t-129 -46h-553v206q55 3 105 6t116 3h500z" />
    <glyph glyph-name="Ccedilla" unicode="&#xc7;" horiz-adv-x="1212" 
d="M899 865q1 79 -21 153.5t-78 122.5t-157 48q-146 0 -216.5 -131t-70.5 -382q0 -234 82 -357.5t227 -123.5q97 0 184 41.5t167 105.5q38 -26 75 -73t47 -92q-56 -55 -136.5 -102t-177.5 -74.5t-203 -27.5q-150 0 -252 59.5t-164 161t-89.5 227t-27.5 256.5q0 250 77 409
t205.5 234t279.5 75t262 -55.5t172 -146.5t61 -199q0 -70 -36 -106.5t-109 -36.5q-28 0 -51.5 4t-49.5 10zM512 -151q11 33 33.5 82.5t40.5 80.5h142q-11 -14 -24 -39.5t-21 -42.5q79 -7 131 -55t52 -121q0 -91 -72 -149t-183 -58q-48 0 -93 12.5t-70 30.5q2 30 13.5 61.5
t31.5 54.5q18 -11 44 -19t53 -8q41 0 62 20t21 49q0 30 -20.5 50.5t-57.5 20.5q-12 0 -23 -2.5t-21 -7.5q-29 13 -39 40z" />
    <glyph glyph-name="Egrave" unicode="&#xc8;" horiz-adv-x="1138" 
d="M168 1353l14 13h236v-210q0 -42 1 -71t1 -70v-689q0 -31 -1 -57.5t-1 -60.5v-211h-104q-68 0 -107 41t-39 112v1203zM897 793q7 -24 10.5 -53.5t3.5 -50.5q0 -22 -3.5 -51t-10.5 -54h-348q-24 0 -63.5 0.5t-81 1t-72.5 0.5v205q31 0 72.5 0.5t81 1t63.5 0.5h348z
M1009 1366q6 -28 7.5 -53.5t1.5 -47.5q0 -21 -5 -53t-16 -61h-448q-24 0 -63.5 0.5t-81 1t-72.5 1.5v212h677zM1053 212q0 -111 -34.5 -163t-134.5 -52h-552v206q55 3 106.5 6t118.5 3h496zM420 1834q-33 -24 -65.5 -81.5t-38.5 -114.5l453 -182q32 19 49.5 54.5t23.5 69.5z
" />
    <glyph glyph-name="Eacute" unicode="&#xc9;" horiz-adv-x="1138" 
d="M168 1353l14 13h236v-210q0 -42 1 -71t1 -70v-689q0 -31 -1 -57.5t-1 -60.5v-211h-104q-68 0 -107 41t-39 112v1203zM897 793q7 -24 10.5 -53.5t3.5 -50.5q0 -22 -3.5 -51t-10.5 -54h-348q-24 0 -63.5 0.5t-81 1t-72.5 0.5v205q31 0 72.5 0.5t81 1t63.5 0.5h348z
M1009 1366q6 -28 7.5 -53.5t1.5 -47.5q0 -21 -5 -53t-16 -61h-448q-24 0 -63.5 0.5t-81 1t-72.5 1.5v212h677zM1053 212q0 -111 -34.5 -163t-134.5 -52h-552v206q55 3 106.5 6t118.5 3h496zM799 1834q33 -24 66 -81.5t39 -114.5l-454 -182q-28 16 -48 53.5t-25 70.5z" />
    <glyph glyph-name="Ecircumflex" unicode="&#xca;" horiz-adv-x="1138" 
d="M168 1353l14 13h236v-210q0 -42 1 -71t1 -70v-689q0 -31 -1 -57.5t-1 -60.5v-211h-104q-68 0 -107 41t-39 112v1203zM897 793q7 -24 10.5 -53.5t3.5 -50.5q0 -22 -3.5 -51t-10.5 -54h-348q-24 0 -63.5 0.5t-81 1t-72.5 0.5v205q31 0 72.5 0.5t81 1t63.5 0.5h348z
M1009 1366q6 -28 7.5 -53.5t1.5 -47.5q0 -21 -5 -53t-16 -61h-448q-24 0 -63.5 0.5t-81 1t-72.5 1.5v212h677zM1053 212q0 -111 -34.5 -163t-134.5 -52h-552v206q55 3 106.5 6t118.5 3h496zM702 1794l226 -216q-13 -40 -45.5 -68t-58.5 -37l-229 148l-228 -148q-26 9 -59 37
t-45 68l225 216q47 9 107 9q61 0 107 -9z" />
    <glyph glyph-name="Edieresis" unicode="&#xcb;" horiz-adv-x="1138" 
d="M168 1353l14 13h236v-210q0 -42 1 -71t1 -70v-689q0 -31 -1 -57.5t-1 -60.5v-211h-104q-68 0 -107 41t-39 112v1203zM897 793q7 -24 10.5 -53.5t3.5 -50.5q0 -22 -3.5 -51t-10.5 -54h-348q-24 0 -63.5 0.5t-81 1t-72.5 0.5v205q31 0 72.5 0.5t81 1t63.5 0.5h348z
M1009 1366q6 -28 7.5 -53.5t1.5 -47.5q0 -21 -5 -53t-16 -61h-448q-24 0 -63.5 0.5t-81 1t-72.5 1.5v212h677zM1053 212q0 -111 -34.5 -163t-134.5 -52h-552v206q55 3 106.5 6t118.5 3h496zM815 1486q-30 0 -60.5 7t-52.5 20q-9 22 -12.5 47t-3.5 43q0 19 3.5 43.5
t12.5 46.5q22 13 52.5 20t60.5 7q28 0 59 -7t53 -20q9 -22 12.5 -46.5t3.5 -43.5q0 -18 -3.5 -43t-12.5 -47q-22 -13 -53 -20t-59 -7zM379 1486q-28 0 -59 7t-53 20q-9 22 -12.5 47t-3.5 43q0 19 3.5 43.5t12.5 46.5q22 13 53 20t59 7q29 0 60 -7t53 -20q9 -22 12.5 -46.5
t3.5 -43.5q0 -18 -3.5 -43t-12.5 -47q-22 -13 -53 -20t-60 -7z" />
    <glyph glyph-name="Igrave" unicode="&#xcc;" horiz-adv-x="604" 
d="M174 1366q29 6 65.5 7.5t61.5 1.5q28 0 63.5 -1.5t65.5 -7.5v-1366q-30 -6 -65.5 -7.5t-63.5 -1.5q-25 0 -61.5 1.5t-65.5 7.5v1366zM124 1835q-33 -24 -65.5 -81.5t-38.5 -114.5l453 -182q32 19 49.5 54.5t23.5 69.5z" />
    <glyph glyph-name="Iacute" unicode="&#xcd;" horiz-adv-x="604" 
d="M174 1366q29 6 65.5 7.5t61.5 1.5q28 0 63.5 -1.5t65.5 -7.5v-1366q-30 -6 -65.5 -7.5t-63.5 -1.5q-25 0 -61.5 1.5t-65.5 7.5v1366zM503 1835q33 -24 66 -81.5t39 -114.5l-454 -182q-28 16 -48 53.5t-25 70.5z" />
    <glyph glyph-name="Icircumflex" unicode="&#xce;" horiz-adv-x="604" 
d="M174 1366q29 6 65.5 7.5t61.5 1.5q28 0 63.5 -1.5t65.5 -7.5v-1366q-30 -6 -65.5 -7.5t-63.5 -1.5q-25 0 -61.5 1.5t-65.5 7.5v1366zM406 1795l226 -216q-13 -40 -45.5 -68t-58.5 -37l-229 148l-228 -148q-26 9 -59 37t-45 68l225 216q47 9 107 9q61 0 107 -9z" />
    <glyph glyph-name="Idieresis" unicode="&#xcf;" horiz-adv-x="604" 
d="M174 1366q29 6 65.5 7.5t61.5 1.5q28 0 63.5 -1.5t65.5 -7.5v-1366q-30 -6 -65.5 -7.5t-63.5 -1.5q-25 0 -61.5 1.5t-65.5 7.5v1366zM519 1487q-30 0 -60.5 7t-52.5 20q-9 22 -12.5 47t-3.5 43q0 19 3.5 43.5t12.5 46.5q22 13 52.5 20t60.5 7q28 0 59 -7t53 -20
q9 -22 12.5 -46.5t3.5 -43.5q0 -18 -3.5 -43t-12.5 -47q-22 -13 -53 -20t-59 -7zM83 1487q-28 0 -59 7t-53 20q-9 22 -12.5 47t-3.5 43q0 19 3.5 43.5t12.5 46.5q22 13 53 20t59 7q29 0 60 -7t53 -20q9 -22 12.5 -46.5t3.5 -43.5q0 -18 -3.5 -43t-12.5 -47q-22 -13 -53 -20
t-60 -7z" />
    <glyph glyph-name="Eth" unicode="&#xd0;" horiz-adv-x="1343" 
d="M1252 684q0 -117 -16 -224.5t-62.5 -201t-138.5 -167.5q-45 -36 -107.5 -58.5t-128 -32.5t-119.5 -10q-83 0 -156.5 1t-148 3t-161.5 4l-14 13v1344l14 13q87 3 161.5 5t148 2h156.5q54 0 119.5 -10t128 -32t107.5 -58q91 -74 137.5 -167.5t63 -200.5t16.5 -223zM988 684
q0 84 -11 170.5t-42.5 159t-93 116t-162.5 43.5q-59 0 -112.5 1t-115.5 1v-983q62 1 115.5 0.5t112.5 -0.5q101 0 162.5 44.5t93 117.5t42.5 159.5t11 170.5zM54 588q-6 24 -8.5 49.5t-2.5 52.5t2.5 54t8.5 53h683q6 -26 8.5 -51t2.5 -54q0 -57 -11 -104h-683z" />
    <glyph glyph-name="Ntilde" unicode="&#xd1;" horiz-adv-x="1372" 
d="M170 1363q30 6 77.5 9t73.5 3q28 0 69.5 -1.5t80.5 -7.5l-65 -294l-19 -4q6 -76 10.5 -170.5t7 -189.5t2.5 -173v-535q-31 -6 -61.5 -7.5t-55.5 -1.5q-23 0 -56.5 1.5t-63.5 7.5v1363zM516 790q-36 76 -66 147.5t-56 132.5l-118 140l195 156l378 -789q38 -82 71 -159
t60 -136l127 -137l-209 -145zM1203 1364v-1361q-31 -6 -77.5 -9t-76.5 -3q-31 0 -71 1.5t-80 7.5l69 280l19 5q-6 85 -10.5 183.5t-6.5 191.5t-2 162v398q0 85 32 121t108 36h82zM603 1565q-16 7 -31.5 12.5t-33.5 5.5q-19 0 -39.5 -12.5t-37.5 -36.5l-20 -28q-37 1 -74 22
t-51 54l16 34q33 74 89.5 118t133.5 44q35 0 66.5 -10t57.5 -23l101 -48q17 -8 34.5 -13.5t33.5 -5.5q19 0 39 11.5t38 36.5l20 27q37 0 74.5 -21t50.5 -54l-16 -34q-33 -74 -90 -118t-133 -44q-35 0 -67.5 10.5t-56.5 22.5z" />
    <glyph glyph-name="Ograve" unicode="&#xd2;" horiz-adv-x="1323" 
d="M355 684q0 -86 12 -176t44 -166t92.5 -122.5t157.5 -46.5t157.5 46.5t92.5 122.5t43.5 166t11.5 176t-11.5 175.5t-43.5 165t-92.5 122t-157.5 46.5t-157.5 -46.5t-92.5 -122t-44 -165t-12 -175.5zM88 684q0 207 62.5 367t189.5 251t321 91q196 0 323 -91.5t188.5 -252
t61.5 -365.5q0 -207 -62 -367.5t-189 -252t-322 -91.5q-147 0 -255 52.5t-178.5 148.5t-105 226t-34.5 284zM483 1834q-33 -24 -65.5 -81.5t-38.5 -114.5l453 -182q32 19 49.5 54.5t23.5 69.5z" />
    <glyph glyph-name="Oacute" unicode="&#xd3;" horiz-adv-x="1323" 
d="M355 684q0 -86 12 -176t44 -166t92.5 -122.5t157.5 -46.5t157.5 46.5t92.5 122.5t43.5 166t11.5 176t-11.5 175.5t-43.5 165t-92.5 122t-157.5 46.5t-157.5 -46.5t-92.5 -122t-44 -165t-12 -175.5zM88 684q0 207 62.5 367t189.5 251t321 91q196 0 323 -91.5t188.5 -252
t61.5 -365.5q0 -207 -62 -367.5t-189 -252t-322 -91.5q-147 0 -255 52.5t-178.5 148.5t-105 226t-34.5 284zM862 1834q33 -24 66 -81.5t39 -114.5l-454 -182q-28 16 -48 53.5t-25 70.5z" />
    <glyph glyph-name="Ocircumflex" unicode="&#xd4;" horiz-adv-x="1323" 
d="M355 684q0 -86 12 -176t44 -166t92.5 -122.5t157.5 -46.5t157.5 46.5t92.5 122.5t43.5 166t11.5 176t-11.5 175.5t-43.5 165t-92.5 122t-157.5 46.5t-157.5 -46.5t-92.5 -122t-44 -165t-12 -175.5zM88 684q0 207 62.5 367t189.5 251t321 91q196 0 323 -91.5t188.5 -252
t61.5 -365.5q0 -207 -62 -367.5t-189 -252t-322 -91.5q-147 0 -255 52.5t-178.5 148.5t-105 226t-34.5 284zM766 1794l226 -216q-13 -40 -45.5 -68t-58.5 -37l-229 148l-228 -148q-26 9 -59 37t-45 68l225 216q47 9 107 9q61 0 107 -9z" />
    <glyph glyph-name="Otilde" unicode="&#xd5;" horiz-adv-x="1323" 
d="M355 684q0 -86 12 -176t44 -166t92.5 -122.5t157.5 -46.5t157.5 46.5t92.5 122.5t43.5 166t11.5 176t-11.5 175.5t-43.5 165t-92.5 122t-157.5 46.5t-157.5 -46.5t-92.5 -122t-44 -165t-12 -175.5zM88 684q0 207 62.5 367t189.5 251t321 91q196 0 323 -91.5t188.5 -252
t61.5 -365.5q0 -207 -62 -367.5t-189 -252t-322 -91.5q-147 0 -255 52.5t-178.5 148.5t-105 226t-34.5 284zM571 1565q-16 7 -31.5 12.5t-33.5 5.5q-19 0 -39.5 -12.5t-37.5 -36.5l-20 -28q-37 1 -74 22t-51 54l16 34q33 74 89.5 118t133.5 44q35 0 66.5 -10t57.5 -23
l101 -48q17 -8 34.5 -13.5t33.5 -5.5q19 0 39 11.5t38 36.5l20 27q37 0 74.5 -21t50.5 -54l-16 -34q-33 -74 -90 -118t-133 -44q-35 0 -67.5 10.5t-56.5 22.5z" />
    <glyph glyph-name="Odieresis" unicode="&#xd6;" horiz-adv-x="1323" 
d="M355 684q0 -86 12 -176t44 -166t92.5 -122.5t157.5 -46.5t157.5 46.5t92.5 122.5t43.5 166t11.5 176t-11.5 175.5t-43.5 165t-92.5 122t-157.5 46.5t-157.5 -46.5t-92.5 -122t-44 -165t-12 -175.5zM88 684q0 207 62.5 367t189.5 251t321 91q196 0 323 -91.5t188.5 -252
t61.5 -365.5q0 -207 -62 -367.5t-189 -252t-322 -91.5q-147 0 -255 52.5t-178.5 148.5t-105 226t-34.5 284zM878 1486q-30 0 -60.5 7t-52.5 20q-9 22 -12.5 47t-3.5 43q0 19 3.5 43.5t12.5 46.5q22 13 52.5 20t60.5 7q28 0 59 -7t53 -20q9 -22 12.5 -46.5t3.5 -43.5
q0 -18 -3.5 -43t-12.5 -47q-22 -13 -53 -20t-59 -7zM442 1486q-28 0 -59 7t-53 20q-9 22 -12.5 47t-3.5 43q0 19 3.5 43.5t12.5 46.5q22 13 53 20t59 7q29 0 60 -7t53 -20q9 -22 12.5 -46.5t3.5 -43.5q0 -18 -3.5 -43t-12.5 -47q-22 -13 -53 -20t-60 -7z" />
    <glyph glyph-name="multiply" unicode="&#xd7;" horiz-adv-x="1080" 
d="M321 703q22 -21 44 -43l43 -43l116 -118q22 -20 44 -42t42 -43l177 -179q48 20 89 61q38 37 62 88l-179 178q-21 22 -43.5 43.5t-43.5 41.5l-116 116q-22 22 -43.5 45t-42.5 43l-178 179q-24 -11 -46.5 -26.5t-41.5 -34.5q-19 -20 -34.5 -42.5t-27.5 -47.5zM470 414
q21 21 42.5 43t43.5 42l116 117q21 21 43.5 43t43.5 42l179 178q-23 48 -64 90q-19 18 -41 34t-46 26l-177 -179q-20 -21 -42 -43l-44 -44l-116 -116l-43 -43t-44 -43l-179 -177q12 -25 28 -47t34 -41q19 -19 41 -34.5t47 -28.5z" />
    <glyph glyph-name="Oslash" unicode="&#xd8;" horiz-adv-x="1327" 
d="M875 1289l116 203q43 -7 89.5 -31.5t72.5 -57.5l-137 -244l-562 -1079l-116 -202q-44 6 -90 31t-72 58l136 243zM346 684q0 -87 13 -178t47.5 -168t97 -124.5t160.5 -47.5t160.5 47.5t96.5 124.5t46.5 168t12.5 178t-12.5 177.5t-46.5 167t-96.5 124t-160.5 47.5
t-160.5 -47.5t-97 -124t-47.5 -167t-13 -177.5zM88 684q0 204 62.5 364.5t190.5 252.5t323 92q196 0 323.5 -92.5t189.5 -253t62 -363.5q0 -205 -62.5 -365.5t-189.5 -253t-323 -92.5q-148 0 -256 53t-179 150t-106 226t-35 282z" />
    <glyph glyph-name="Ugrave" unicode="&#xd9;" horiz-adv-x="1341" 
d="M1190 490q0 -168 -62.5 -283t-179.5 -174.5t-278 -59.5t-277 59.5t-178.5 174.5t-62.5 283v873l12 14h96q76 0 111.5 -39t35.5 -124v-726q0 -153 64.5 -232t199.5 -79t199 79t64 232v878q31 6 64.5 7.5t60.5 1.5q26 0 63.5 -1.5t67.5 -7.5v-876zM489 1834
q-33 -24 -65.5 -81.5t-38.5 -114.5l453 -182q32 19 49.5 54.5t23.5 69.5z" />
    <glyph glyph-name="Uacute" unicode="&#xda;" horiz-adv-x="1341" 
d="M1190 490q0 -168 -62.5 -283t-179.5 -174.5t-278 -59.5t-277 59.5t-178.5 174.5t-62.5 283v873l12 14h96q76 0 111.5 -39t35.5 -124v-726q0 -153 64.5 -232t199.5 -79t199 79t64 232v878q31 6 64.5 7.5t60.5 1.5q26 0 63.5 -1.5t67.5 -7.5v-876zM868 1834
q33 -24 66 -81.5t39 -114.5l-454 -182q-28 16 -48 53.5t-25 70.5z" />
    <glyph glyph-name="Ucircumflex" unicode="&#xdb;" horiz-adv-x="1341" 
d="M1190 490q0 -168 -62.5 -283t-179.5 -174.5t-278 -59.5t-277 59.5t-178.5 174.5t-62.5 283v873l12 14h96q76 0 111.5 -39t35.5 -124v-726q0 -153 64.5 -232t199.5 -79t199 79t64 232v878q31 6 64.5 7.5t60.5 1.5q26 0 63.5 -1.5t67.5 -7.5v-876zM772 1794l226 -216
q-13 -40 -45.5 -68t-58.5 -37l-229 148l-228 -148q-26 9 -59 37t-45 68l225 216q47 9 107 9q61 0 107 -9z" />
    <glyph glyph-name="Udieresis" unicode="&#xdc;" horiz-adv-x="1341" 
d="M1190 490q0 -168 -62.5 -283t-179.5 -174.5t-278 -59.5t-277 59.5t-178.5 174.5t-62.5 283v873l12 14h96q76 0 111.5 -39t35.5 -124v-726q0 -153 64.5 -232t199.5 -79t199 79t64 232v878q31 6 64.5 7.5t60.5 1.5q26 0 63.5 -1.5t67.5 -7.5v-876zM884 1486q-30 0 -60.5 7
t-52.5 20q-9 22 -12.5 47t-3.5 43q0 19 3.5 43.5t12.5 46.5q22 13 52.5 20t60.5 7q28 0 59 -7t53 -20q9 -22 12.5 -46.5t3.5 -43.5q0 -18 -3.5 -43t-12.5 -47q-22 -13 -53 -20t-59 -7zM448 1486q-28 0 -59 7t-53 20q-9 22 -12.5 47t-3.5 43q0 19 3.5 43.5t12.5 46.5
q22 13 53 20t59 7q29 0 60 -7t53 -20q9 -22 12.5 -46.5t3.5 -43.5q0 -18 -3.5 -43t-12.5 -47q-22 -13 -53 -20t-60 -7z" />
    <glyph glyph-name="Yacute" unicode="&#xdd;" horiz-adv-x="1037" 
d="M391 584h256v-584q-30 -6 -64.5 -7.5t-62.5 -1.5q-25 0 -62 1.5t-67 7.5v584zM789 1366q27 6 53.5 8t52.5 2q33 0 66 -4t59 -14l10 -15l-399 -953h-220l-402 946q38 22 78.5 33.5t79.5 11.5q54 0 84 -25t52 -81l133 -326q23 -57 45.5 -126.5t41.5 -138.5h10
q12 44 28.5 93.5t33.5 96t31 82.5zM726 1834q33 -24 66 -81.5t39 -114.5l-454 -182q-28 16 -48 53.5t-25 70.5z" />
    <glyph glyph-name="Thorn" unicode="&#xde;" horiz-adv-x="1158" 
d="M295 1164q81 2 158.5 4.5t158.5 2.5q136 0 243 -46.5t168.5 -144.5t61.5 -252q0 -150 -61 -249.5t-168 -148t-244 -48.5h-317v194q23 1 65 2t89.5 2.5t88 2t59.5 0.5q92 0 140 38t66 95t18 112t-18 111t-66 94t-140 38q-27 0 -81.5 1t-115 2t-105.5 1v189zM170 1366
q30 6 66 7.5t61 1.5q28 0 63 -1.5t65 -7.5v-1366q-30 -6 -65 -7.5t-63 -1.5q-25 0 -61 1.5t-66 7.5v1366z" />
    <glyph glyph-name="germandbls" unicode="&#xdf;" horiz-adv-x="1277" 
d="M322 946l1 -185l-293 -6q-4 22 -6.5 50t-2.5 49q0 22 2.5 48t6.5 48zM202 1007q0 128 57.5 215.5t159.5 131.5t237 44q140 0 244 -49.5t160.5 -140t56.5 -212.5q0 -39 -7.5 -79t-23.5 -80l-265 -18q23 37 34 80.5t11 88.5q0 59 -23 109t-70 80.5t-119 30.5
q-103 0 -151 -62t-48 -166v-980q-28 -4 -62 -6.5t-65 -2.5q-29 0 -63 2.5t-63 6.5v1007zM579 42q2 41 22.5 93.5t50.5 81.5q41 -28 87 -41.5t82 -13.5q61 0 98 29t37 76q0 35 -20 66t-52 59l-82 71q-32 30 -61.5 63.5t-48 73t-18.5 87.5q0 76 55.5 144.5t148.5 103.5
l208 -98q-79 -20 -114 -60t-35 -75q0 -31 21 -56.5t40 -42.5l75 -67q69 -62 107 -129.5t38 -136.5q0 -138 -101.5 -217.5t-263.5 -79.5q-67 0 -141 16.5t-133 52.5z" />
    <glyph glyph-name="agrave" unicode="&#xe0;" horiz-adv-x="1019" 
d="M76 271q0 116 53 191t141 110.5t194 35.5q52 0 122 -3.5t128 -16.5v-162q-50 11 -114 14t-115 3q-81 0 -122.5 -42t-41.5 -113q0 -53 30.5 -89.5t86.5 -36.5q68 0 142 48t124 138l37 -175q-38 -44 -89.5 -90t-120 -78t-156.5 -32q-101 0 -167.5 44.5t-99 113t-32.5 140.5
zM940 113q-9 -34 -33.5 -72t-51.5 -56q-73 8 -119 44t-69.5 86.5t-29.5 103.5v441q0 83 -38.5 120t-112.5 37q-71 0 -149.5 -21.5t-156.5 -49.5q-28 30 -45.5 80.5t-21.5 96.5q61 26 136 46.5t152.5 32.5t143.5 12q94 0 171 -35t122.5 -109t45.5 -194v-408q0 -52 11.5 -90
t44.5 -65zM381 1502q-50 -15 -98 -59t-65 -94l353 -271q33 9 63 36.5t43 61.5z" />
    <glyph glyph-name="aacute" unicode="&#xe1;" horiz-adv-x="1019" 
d="M76 271q0 116 53 191t141 110.5t194 35.5q52 0 122 -3.5t128 -16.5v-162q-50 11 -114 14t-115 3q-81 0 -122.5 -42t-41.5 -113q0 -53 30.5 -89.5t86.5 -36.5q68 0 142 48t124 138l37 -175q-38 -44 -89.5 -90t-120 -78t-156.5 -32q-101 0 -167.5 44.5t-99 113t-32.5 140.5
zM940 113q-9 -34 -33.5 -72t-51.5 -56q-73 8 -119 44t-69.5 86.5t-29.5 103.5v441q0 83 -38.5 120t-112.5 37q-71 0 -149.5 -21.5t-156.5 -49.5q-28 30 -45.5 80.5t-21.5 96.5q61 26 136 46.5t152.5 32.5t143.5 12q94 0 171 -35t122.5 -109t45.5 -194v-408q0 -52 11.5 -90
t44.5 -65zM626 1502q50 -15 97.5 -59t64.5 -94l-353 -271q-32 9 -62 36.5t-44 61.5z" />
    <glyph glyph-name="acircumflex" unicode="&#xe2;" horiz-adv-x="1019" 
d="M76 271q0 116 53 191t141 110.5t194 35.5q52 0 122 -3.5t128 -16.5v-162q-50 11 -114 14t-115 3q-81 0 -122.5 -42t-41.5 -113q0 -53 30.5 -89.5t86.5 -36.5q68 0 142 48t124 138l37 -175q-38 -44 -89.5 -90t-120 -78t-156.5 -32q-101 0 -167.5 44.5t-99 113t-32.5 140.5
zM940 113q-9 -34 -33.5 -72t-51.5 -56q-73 8 -119 44t-69.5 86.5t-29.5 103.5v441q0 83 -38.5 120t-112.5 37q-71 0 -149.5 -21.5t-156.5 -49.5q-28 30 -45.5 80.5t-21.5 96.5q61 26 136 46.5t152.5 32.5t143.5 12q94 0 171 -35t122.5 -109t45.5 -194v-408q0 -52 11.5 -90
t44.5 -65zM608 1452l191 -250q-17 -40 -52 -68t-62 -38l-185 179l-186 -179q-27 10 -61.5 38t-51.5 68l190 250q47 14 109 14t108 -14z" />
    <glyph glyph-name="atilde" unicode="&#xe3;" horiz-adv-x="1019" 
d="M76 271q0 116 53 191t141 110.5t194 35.5q52 0 122 -3.5t128 -16.5v-162q-50 11 -114 14t-115 3q-81 0 -122.5 -42t-41.5 -113q0 -53 30.5 -89.5t86.5 -36.5q68 0 142 48t124 138l37 -175q-38 -44 -89.5 -90t-120 -78t-156.5 -32q-101 0 -167.5 44.5t-99 113t-32.5 140.5
zM940 113q-9 -34 -33.5 -72t-51.5 -56q-73 8 -119 44t-69.5 86.5t-29.5 103.5v441q0 83 -38.5 120t-112.5 37q-71 0 -149.5 -21.5t-156.5 -49.5q-28 30 -45.5 80.5t-21.5 96.5q61 26 136 46.5t152.5 32.5t143.5 12q94 0 171 -35t122.5 -109t45.5 -194v-408q0 -52 11.5 -90
t44.5 -65zM417 1189q-9 6 -26.5 13t-36.5 7q-29 0 -47.5 -18t-28.5 -30l-20 -28q-34 1 -69.5 22t-48.5 54l17 39q31 71 86 114.5t124 43.5q38 0 69.5 -11t50.5 -22l83 -44q10 -5 27.5 -12.5t36.5 -7.5q28 0 46 17.5t29 31.5l20 28q35 -1 70 -22.5t48 -54.5l-16 -38
q-33 -73 -88.5 -115.5t-123.5 -42.5q-34 0 -64.5 10t-54.5 23z" />
    <glyph glyph-name="adieresis" unicode="&#xe4;" horiz-adv-x="1019" 
d="M76 271q0 116 53 191t141 110.5t194 35.5q52 0 122 -3.5t128 -16.5v-162q-50 11 -114 14t-115 3q-81 0 -122.5 -42t-41.5 -113q0 -53 30.5 -89.5t86.5 -36.5q68 0 142 48t124 138l37 -175q-38 -44 -89.5 -90t-120 -78t-156.5 -32q-101 0 -167.5 44.5t-99 113t-32.5 140.5
zM940 113q-9 -34 -33.5 -72t-51.5 -56q-73 8 -119 44t-69.5 86.5t-29.5 103.5v441q0 83 -38.5 120t-112.5 37q-71 0 -149.5 -21.5t-156.5 -49.5q-28 30 -45.5 80.5t-21.5 96.5q61 26 136 46.5t152.5 32.5t143.5 12q94 0 171 -35t122.5 -109t45.5 -194v-408q0 -52 11.5 -90
t44.5 -65zM176 1238q0 20 3.5 44.5t11.5 43.5q21 13 52 20t58 7q28 0 59 -7t52 -20q8 -19 12 -43.5t4 -44.5q0 -19 -4 -43.5t-12 -44.5q-21 -12 -52 -19t-59 -7q-27 0 -58 7t-52 19q-8 20 -11.5 44.5t-3.5 43.5zM560 1238q0 20 4 44.5t12 43.5q21 13 52 20t59 7q27 0 58 -7
t52 -20q8 -19 11.5 -43.5t3.5 -44.5q0 -19 -3.5 -43.5t-11.5 -44.5q-21 -12 -52 -19t-58 -7q-28 0 -59 7t-52 19q-8 20 -12 44.5t-4 43.5z" />
    <glyph glyph-name="aring" unicode="&#xe5;" horiz-adv-x="1019" 
d="M76 271q0 116 53 191t141 110.5t194 35.5q52 0 122 -3.5t128 -16.5v-162q-50 11 -114 14t-115 3q-81 0 -122.5 -42t-41.5 -113q0 -53 30.5 -89.5t86.5 -36.5q68 0 142 48t124 138l37 -175q-38 -44 -89.5 -90t-120 -78t-156.5 -32q-101 0 -167.5 44.5t-99 113t-32.5 140.5
zM940 113q-9 -34 -33.5 -72t-51.5 -56q-73 8 -119 44t-69.5 86.5t-29.5 103.5v441q0 83 -38.5 120t-112.5 37q-71 0 -149.5 -21.5t-156.5 -49.5q-28 30 -45.5 80.5t-21.5 96.5q61 26 136 46.5t152.5 32.5t143.5 12q94 0 171 -35t122.5 -109t45.5 -194v-408q0 -52 11.5 -90
t44.5 -65zM236 1319q0 -98 71 -168.5t187 -70.5t187 70.5t71 168.5q0 99 -71 169t-187 70t-187 -70t-71 -169zM394 1319q0 46 28 76.5t72 30.5q45 0 72.5 -30.5t27.5 -76.5q0 -45 -27.5 -75t-72.5 -30q-44 0 -72 30t-28 75z" />
    <glyph glyph-name="ae" unicode="&#xe6;" horiz-adv-x="1542" 
d="M76 271q0 117 53 191.5t141 110t194 35.5q56 0 124 -4t126 -16v-165q-51 11 -114.5 15.5t-114.5 4.5q-81 0 -122.5 -41.5t-41.5 -114.5q0 -52 30.5 -88.5t86.5 -36.5q47 0 98 21.5t97.5 65t79.5 107.5l55 -180q-38 -49 -95.5 -95.5t-132.5 -77t-165 -30.5
q-101 0 -167.5 44.5t-99 113t-32.5 140.5zM637 491v171q0 81 -38 118t-111 37q-71 0 -150.5 -21t-157.5 -50q-28 30 -45.5 80.5t-21.5 96.5q91 39 206.5 65t210.5 26q146 0 236 -85.5t90 -254.5v-183h-219zM789 416v176h438v23q0 61 -16 111.5t-53.5 81.5t-99.5 31
q-91 0 -132 -76t-41 -220v-71q0 -84 16 -153t61 -110t132 -41q72 0 139 21t130 50q29 -28 47.5 -72t24.5 -81q-73 -53 -174 -83t-205 -30q-207 0 -313 134t-107 384q0 96 26.5 189.5t79 170t132 122.5t185.5 46q131 0 220.5 -56.5t135.5 -153t46 -216.5q0 -55 -4 -93.5
t-15 -83.5h-653z" />
    <glyph glyph-name="ccedilla" unicode="&#xe7;" horiz-adv-x="945" 
d="M655 586q2 70 -9.5 125.5t-45 87.5t-98.5 32q-85 0 -127.5 -83.5t-42.5 -256.5q0 -171 53.5 -245.5t152.5 -74.5q64 0 123.5 29t109.5 66q32 -19 61.5 -62t37.5 -82q-66 -67 -164.5 -108t-206.5 -41t-187.5 39t-131.5 109.5t-77.5 165t-25.5 204.5q0 189 63 305
t161.5 169.5t205.5 53.5q89 0 158.5 -26t117.5 -70t72.5 -100.5t24.5 -117.5q0 -62 -32 -95.5t-92 -33.5q-30 0 -53.5 2.5t-47.5 7.5zM365 -151q11 33 33.5 82.5t40.5 80.5h142q-11 -14 -24 -39.5t-21 -42.5q79 -7 131 -55t52 -121q0 -91 -72 -149t-183 -58q-48 0 -93 12.5
t-70 30.5q2 30 13.5 61.5t31.5 54.5q18 -11 44 -19t53 -8q41 0 62 20t21 49q0 30 -20.5 50.5t-57.5 20.5q-12 0 -23 -2.5t-21 -7.5q-29 13 -39 40z" />
    <glyph glyph-name="egrave" unicode="&#xe8;" horiz-adv-x="998" 
d="M234 416v176h444v24q0 61 -17.5 111.5t-55 81t-100.5 30.5q-90 0 -132.5 -75.5t-42.5 -216.5v-75q0 -84 16.5 -153t62 -110t133.5 -41q72 0 140 20.5t131 49.5q29 -28 47 -71.5t24 -80.5q-73 -53 -174.5 -83t-206.5 -30q-124 0 -206.5 42.5t-130.5 116t-68.5 166.5
t-20.5 194q0 150 46.5 269t141 188.5t241.5 69.5q131 0 221 -56.5t137 -153t47 -216.5q0 -55 -4 -93.5t-15 -83.5h-658zM397 1502q-50 -15 -98 -59t-65 -94l353 -271q33 9 63 36.5t43 61.5z" />
    <glyph glyph-name="eacute" unicode="&#xe9;" horiz-adv-x="998" 
d="M234 416v176h444v24q0 61 -17.5 111.5t-55 81t-100.5 30.5q-90 0 -132.5 -75.5t-42.5 -216.5v-75q0 -84 16.5 -153t62 -110t133.5 -41q72 0 140 20.5t131 49.5q29 -28 47 -71.5t24 -80.5q-73 -53 -174.5 -83t-206.5 -30q-124 0 -206.5 42.5t-130.5 116t-68.5 166.5
t-20.5 194q0 150 46.5 269t141 188.5t241.5 69.5q131 0 221 -56.5t137 -153t47 -216.5q0 -55 -4 -93.5t-15 -83.5h-658zM642 1502q50 -15 97.5 -59t64.5 -94l-353 -271q-32 9 -62 36.5t-44 61.5z" />
    <glyph glyph-name="ecircumflex" unicode="&#xea;" horiz-adv-x="998" 
d="M234 416v176h444v24q0 61 -17.5 111.5t-55 81t-100.5 30.5q-90 0 -132.5 -75.5t-42.5 -216.5v-75q0 -84 16.5 -153t62 -110t133.5 -41q72 0 140 20.5t131 49.5q29 -28 47 -71.5t24 -80.5q-73 -53 -174.5 -83t-206.5 -30q-124 0 -206.5 42.5t-130.5 116t-68.5 166.5
t-20.5 194q0 150 46.5 269t141 188.5t241.5 69.5q131 0 221 -56.5t137 -153t47 -216.5q0 -55 -4 -93.5t-15 -83.5h-658zM624 1452l191 -250q-17 -40 -52 -68t-62 -38l-185 179l-186 -179q-27 10 -61.5 38t-51.5 68l190 250q47 14 109 14t108 -14z" />
    <glyph glyph-name="edieresis" unicode="&#xeb;" horiz-adv-x="998" 
d="M234 416v176h444v24q0 61 -17.5 111.5t-55 81t-100.5 30.5q-90 0 -132.5 -75.5t-42.5 -216.5v-75q0 -84 16.5 -153t62 -110t133.5 -41q72 0 140 20.5t131 49.5q29 -28 47 -71.5t24 -80.5q-73 -53 -174.5 -83t-206.5 -30q-124 0 -206.5 42.5t-130.5 116t-68.5 166.5
t-20.5 194q0 150 46.5 269t141 188.5t241.5 69.5q131 0 221 -56.5t137 -153t47 -216.5q0 -55 -4 -93.5t-15 -83.5h-658zM192 1238q0 20 3.5 44.5t11.5 43.5q21 13 52 20t58 7q28 0 59 -7t52 -20q8 -19 12 -43.5t4 -44.5q0 -19 -4 -43.5t-12 -44.5q-21 -12 -52 -19t-59 -7
q-27 0 -58 7t-52 19q-8 20 -11.5 44.5t-3.5 43.5zM576 1238q0 20 4 44.5t12 43.5q21 13 52 20t59 7q27 0 58 -7t52 -20q8 -19 11.5 -43.5t3.5 -44.5q0 -19 -3.5 -43.5t-11.5 -44.5q-21 -12 -52 -19t-58 -7q-28 0 -59 7t-52 19q-8 20 -12 44.5t-4 43.5z" />
    <glyph glyph-name="igrave" unicode="&#xec;" horiz-adv-x="564" 
d="M425 0q-54 -9 -124 -9q-69 0 -124 9v705q0 52 -19.5 80t-71.5 28h-24q-11 42 -11 86q0 22 2.5 45t8.5 46q40 5 79.5 7t65.5 2h34q85 0 134.5 -54.5t49.5 -147.5v-797zM148 1502q-50 -15 -98 -59t-65 -94l353 -271q33 9 63 36.5t43 61.5z" />
    <glyph glyph-name="iacute" unicode="&#xed;" horiz-adv-x="564" 
d="M425 0q-54 -9 -124 -9q-69 0 -124 9v705q0 52 -19.5 80t-71.5 28h-24q-11 42 -11 86q0 22 2.5 45t8.5 46q40 5 79.5 7t65.5 2h34q85 0 134.5 -54.5t49.5 -147.5v-797zM393 1502q50 -15 97.5 -59t64.5 -94l-353 -271q-32 9 -62 36.5t-44 61.5z" />
    <glyph glyph-name="icircumflex" unicode="&#xee;" horiz-adv-x="564" 
d="M425 0q-54 -9 -124 -9q-69 0 -124 9v705q0 52 -19.5 80t-71.5 28h-24q-11 42 -11 86q0 22 2.5 45t8.5 46q40 5 79.5 7t65.5 2h34q85 0 134.5 -54.5t49.5 -147.5v-797zM375 1452l191 -250q-17 -40 -52 -68t-62 -38l-185 179l-186 -179q-27 10 -61.5 38t-51.5 68l190 250
q47 14 109 14t108 -14z" />
    <glyph glyph-name="idieresis" unicode="&#xef;" horiz-adv-x="564" 
d="M425 0q-54 -9 -124 -9q-69 0 -124 9v705q0 52 -19.5 80t-71.5 28h-24q-11 42 -11 86q0 22 2.5 45t8.5 46q40 5 79.5 7t65.5 2h34q85 0 134.5 -54.5t49.5 -147.5v-797zM-57 1238q0 20 3.5 44.5t11.5 43.5q21 13 52 20t58 7q28 0 59 -7t52 -20q8 -19 12 -43.5t4 -44.5
q0 -19 -4 -43.5t-12 -44.5q-21 -12 -52 -19t-59 -7q-27 0 -58 7t-52 19q-8 20 -11.5 44.5t-3.5 43.5zM327 1238q0 20 4 44.5t12 43.5q21 13 52 20t59 7q27 0 58 -7t52 -20q8 -19 11.5 -43.5t3.5 -44.5q0 -19 -3.5 -43.5t-11.5 -44.5q-21 -12 -52 -19t-58 -7q-28 0 -59 7
t-52 19q-8 20 -12 44.5t-4 43.5z" />
    <glyph glyph-name="eth" unicode="&#xf0;" horiz-adv-x="1040" 
d="M962 493q0 -154 -50.5 -271t-149.5 -183t-244 -66q-144 0 -242.5 66t-149 181t-50.5 263q0 145 51 255.5t146.5 173t228.5 62.5q84 0 158 -41t119 -90v-183q-46 56 -113.5 95t-144.5 39q-72 0 -113.5 -40.5t-59 -111.5t-17.5 -162q0 -82 15 -156t56 -120.5t117 -46.5
q77 0 117.5 47t56 124t15.5 165q0 126 -16 206.5t-48 154.5q-8 98 -72.5 190.5t-159.5 170t-195 130.5q7 46 35.5 91.5t63.5 63.5q207 -87 351.5 -233t219.5 -341.5t75 -432.5zM711 1492q28 -19 53.5 -53t32.5 -69l-509 -349q-28 19 -53 53.5t-32 68.5z" />
    <glyph glyph-name="ntilde" unicode="&#xf1;" horiz-adv-x="1092" 
d="M249 1003q74 0 107.5 -48t33.5 -131v-824q-53 -9 -123 -9t-126 9v989l14 14h94zM958 227q0 -55 9 -103.5t31 -84.5q-28 -23 -69 -38t-87 -15q-74 0 -103.5 40t-29.5 115v477q0 87 -22.5 127.5t-86.5 40.5q-42 0 -93.5 -21t-98.5 -62.5t-79 -103.5v228q68 74 159.5 128.5
t198.5 54.5q93 0 153 -44.5t89 -121t29 -173.5v-444zM482 1189q-9 6 -26.5 13t-36.5 7q-29 0 -47.5 -18t-28.5 -30l-20 -28q-34 1 -69.5 22t-48.5 54l17 39q31 71 86 114.5t124 43.5q38 0 69.5 -11t50.5 -22l83 -44q10 -5 27.5 -12.5t36.5 -7.5q28 0 46 17.5t29 31.5l20 28
q35 -1 70 -22.5t48 -54.5l-16 -38q-33 -73 -88.5 -115.5t-123.5 -42.5q-34 0 -64.5 10t-54.5 23z" />
    <glyph glyph-name="ograve" unicode="&#xf2;" horiz-adv-x="1041" 
d="M964 496q0 -156 -50 -274t-149 -183.5t-245 -65.5t-244.5 66t-148.5 184t-50 273q0 156 50.5 273.5t149 183.5t243.5 66q147 0 246 -66.5t148.5 -184t49.5 -272.5zM333 496q0 -89 15 -165.5t56 -123t117 -46.5q77 0 117 46.5t55.5 123t15.5 165.5q0 88 -15.5 165
t-55.5 124t-117 47q-76 0 -117 -47t-56 -124t-15 -165zM407 1502q-50 -15 -98 -59t-65 -94l353 -271q33 9 63 36.5t43 61.5z" />
    <glyph glyph-name="oacute" unicode="&#xf3;" horiz-adv-x="1041" 
d="M964 496q0 -156 -50 -274t-149 -183.5t-245 -65.5t-244.5 66t-148.5 184t-50 273q0 156 50.5 273.5t149 183.5t243.5 66q147 0 246 -66.5t148.5 -184t49.5 -272.5zM333 496q0 -89 15 -165.5t56 -123t117 -46.5q77 0 117 46.5t55.5 123t15.5 165.5q0 88 -15.5 165
t-55.5 124t-117 47q-76 0 -117 -47t-56 -124t-15 -165zM652 1502q50 -15 97.5 -59t64.5 -94l-353 -271q-32 9 -62 36.5t-44 61.5z" />
    <glyph glyph-name="ocircumflex" unicode="&#xf4;" horiz-adv-x="1041" 
d="M964 496q0 -156 -50 -274t-149 -183.5t-245 -65.5t-244.5 66t-148.5 184t-50 273q0 156 50.5 273.5t149 183.5t243.5 66q147 0 246 -66.5t148.5 -184t49.5 -272.5zM333 496q0 -89 15 -165.5t56 -123t117 -46.5q77 0 117 46.5t55.5 123t15.5 165.5q0 88 -15.5 165
t-55.5 124t-117 47q-76 0 -117 -47t-56 -124t-15 -165zM634 1452l191 -250q-17 -40 -52 -68t-62 -38l-185 179l-186 -179q-27 10 -61.5 38t-51.5 68l190 250q47 14 109 14t108 -14z" />
    <glyph glyph-name="otilde" unicode="&#xf5;" horiz-adv-x="1041" 
d="M964 496q0 -156 -50 -274t-149 -183.5t-245 -65.5t-244.5 66t-148.5 184t-50 273q0 156 50.5 273.5t149 183.5t243.5 66q147 0 246 -66.5t148.5 -184t49.5 -272.5zM333 496q0 -89 15 -165.5t56 -123t117 -46.5q77 0 117 46.5t55.5 123t15.5 165.5q0 88 -15.5 165
t-55.5 124t-117 47q-76 0 -117 -47t-56 -124t-15 -165zM444 1189q-9 6 -26.5 13t-36.5 7q-29 0 -47.5 -18t-28.5 -30l-20 -28q-34 1 -69.5 22t-48.5 54l17 39q31 71 86 114.5t124 43.5q38 0 69.5 -11t50.5 -22l83 -44q10 -5 27.5 -12.5t36.5 -7.5q28 0 46 17.5t29 31.5
l20 28q35 -1 70 -22.5t48 -54.5l-16 -38q-33 -73 -88.5 -115.5t-123.5 -42.5q-34 0 -64.5 10t-54.5 23z" />
    <glyph glyph-name="odieresis" unicode="&#xf6;" horiz-adv-x="1041" 
d="M964 496q0 -156 -50 -274t-149 -183.5t-245 -65.5t-244.5 66t-148.5 184t-50 273q0 156 50.5 273.5t149 183.5t243.5 66q147 0 246 -66.5t148.5 -184t49.5 -272.5zM333 496q0 -89 15 -165.5t56 -123t117 -46.5q77 0 117 46.5t55.5 123t15.5 165.5q0 88 -15.5 165
t-55.5 124t-117 47q-76 0 -117 -47t-56 -124t-15 -165zM202 1238q0 20 3.5 44.5t11.5 43.5q21 13 52 20t58 7q28 0 59 -7t52 -20q8 -19 12 -43.5t4 -44.5q0 -19 -4 -43.5t-12 -44.5q-21 -12 -52 -19t-59 -7q-27 0 -58 7t-52 19q-8 20 -11.5 44.5t-3.5 43.5zM586 1238
q0 20 4 44.5t12 43.5q21 13 52 20t59 7q27 0 58 -7t52 -20q8 -19 11.5 -43.5t3.5 -44.5q0 -19 -3.5 -43.5t-11.5 -44.5q-21 -12 -52 -19t-58 -7q-28 0 -59 7t-52 19q-8 20 -12 44.5t-4 43.5z" />
    <glyph glyph-name="divide" unicode="&#xf7;" horiz-adv-x="1080" 
d="M405 988q0 53 19 93q21 12 52.5 19t63.5 7q31 0 64 -7t51 -19q9 -18 14.5 -44t5.5 -49t-5.5 -49t-14.5 -44q-17 -12 -50.5 -19t-64.5 -7q-32 0 -64 7t-52 19q-19 40 -19 93zM405 274q0 53 19 92q21 12 52.5 19.5t63.5 7.5q31 0 64 -7.5t51 -19.5q9 -18 14.5 -44t5.5 -48
q0 -23 -5.5 -49t-14.5 -44q-17 -12 -50.5 -19t-64.5 -7q-32 0 -64 7t-52 19q-19 39 -19 93zM120 529q-7 25 -9 53.5t-2 49.5t2 49.5t9 54.5h840q7 -26 9 -54.5t2 -49.5t-2 -49.5t-9 -53.5h-840z" />
    <glyph glyph-name="oslash" unicode="&#xf8;" horiz-adv-x="1046" 
d="M967 497q0 -117 -31 -224.5t-110 -187.5q-58 -57 -134.5 -84.5t-168.5 -27.5q-91 0 -167 27.5t-136 84.5q-79 80 -110 187.5t-31 224.5q0 118 31 224.5t110 184.5q60 58 136 85.5t167 27.5q92 0 168.5 -27.5t134.5 -85.5q79 -78 110 -184.5t31 -224.5zM312 497
q0 -87 17.5 -166t63.5 -129t130 -50q85 0 130.5 50t62.5 129t17 166t-17 165.5t-62.5 128.5t-130.5 50q-84 0 -130 -50t-63.5 -128.5t-17.5 -165.5zM653 911l115 198q35 -8 71.5 -26.5t61.5 -47.5l-136 -238l-371 -709l-119 -203q-36 7 -73.5 26.5t-60.5 46.5l137 239z" />
    <glyph glyph-name="ugrave" unicode="&#xf9;" horiz-adv-x="1095" 
d="M951 282q0 -54 13 -100.5t43 -71.5q-9 -33 -33.5 -70t-51.5 -55q-112 12 -166 92.5t-54 187.5v727q53 9 124 9q69 0 125 -9v-710zM134 765q0 55 -8.5 103.5t-30.5 84.5q27 23 68 38t88 15q73 0 102.5 -40t29.5 -116v-476q0 -87 22.5 -127.5t86.5 -40.5q43 0 94 21t99 63
t79 102v-228q-68 -73 -159.5 -127.5t-199.5 -54.5q-92 0 -152 44.5t-89.5 121.5t-29.5 173v444zM420 1502q-50 -15 -98 -59t-65 -94l353 -271q33 9 63 36.5t43 61.5z" />
    <glyph glyph-name="uacute" unicode="&#xfa;" horiz-adv-x="1095" 
d="M951 282q0 -54 13 -100.5t43 -71.5q-9 -33 -33.5 -70t-51.5 -55q-112 12 -166 92.5t-54 187.5v727q53 9 124 9q69 0 125 -9v-710zM134 765q0 55 -8.5 103.5t-30.5 84.5q27 23 68 38t88 15q73 0 102.5 -40t29.5 -116v-476q0 -87 22.5 -127.5t86.5 -40.5q43 0 94 21t99 63
t79 102v-228q-68 -73 -159.5 -127.5t-199.5 -54.5q-92 0 -152 44.5t-89.5 121.5t-29.5 173v444zM665 1502q50 -15 97.5 -59t64.5 -94l-353 -271q-32 9 -62 36.5t-44 61.5z" />
    <glyph glyph-name="ucircumflex" unicode="&#xfb;" horiz-adv-x="1095" 
d="M951 282q0 -54 13 -100.5t43 -71.5q-9 -33 -33.5 -70t-51.5 -55q-112 12 -166 92.5t-54 187.5v727q53 9 124 9q69 0 125 -9v-710zM134 765q0 55 -8.5 103.5t-30.5 84.5q27 23 68 38t88 15q73 0 102.5 -40t29.5 -116v-476q0 -87 22.5 -127.5t86.5 -40.5q43 0 94 21t99 63
t79 102v-228q-68 -73 -159.5 -127.5t-199.5 -54.5q-92 0 -152 44.5t-89.5 121.5t-29.5 173v444zM647 1452l191 -250q-17 -40 -52 -68t-62 -38l-185 179l-186 -179q-27 10 -61.5 38t-51.5 68l190 250q47 14 109 14t108 -14z" />
    <glyph glyph-name="udieresis" unicode="&#xfc;" horiz-adv-x="1095" 
d="M951 282q0 -54 13 -100.5t43 -71.5q-9 -33 -33.5 -70t-51.5 -55q-112 12 -166 92.5t-54 187.5v727q53 9 124 9q69 0 125 -9v-710zM134 765q0 55 -8.5 103.5t-30.5 84.5q27 23 68 38t88 15q73 0 102.5 -40t29.5 -116v-476q0 -87 22.5 -127.5t86.5 -40.5q43 0 94 21t99 63
t79 102v-228q-68 -73 -159.5 -127.5t-199.5 -54.5q-92 0 -152 44.5t-89.5 121.5t-29.5 173v444zM215 1238q0 20 3.5 44.5t11.5 43.5q21 13 52 20t58 7q28 0 59 -7t52 -20q8 -19 12 -43.5t4 -44.5q0 -19 -4 -43.5t-12 -44.5q-21 -12 -52 -19t-59 -7q-27 0 -58 7t-52 19
q-8 20 -11.5 44.5t-3.5 43.5zM599 1238q0 20 4 44.5t12 43.5q21 13 52 20t59 7q27 0 58 -7t52 -20q8 -19 11.5 -43.5t3.5 -44.5q0 -19 -3.5 -43.5t-11.5 -44.5q-21 -12 -52 -19t-58 -7q-28 0 -59 7t-52 19q-8 20 -12 44.5t-4 43.5z" />
    <glyph glyph-name="yacute" unicode="&#xfd;" horiz-adv-x="959" 
d="M683 29q-40 -145 -93.5 -250t-140.5 -160.5t-229 -55.5q-53 0 -115 11.5t-97 23.5q-4 44 11.5 97t40.5 81q27 -9 72 -18t88 -9q61 0 103 26t71 74t49 114l7 26q-70 1 -113.5 25.5t-62.5 88.5l-250 869q40 18 80.5 27t71.5 9q44 0 75 -23t48 -86l118 -430q12 -41 23.5 -93
t22 -102t17.5 -87q3 -14 17 -14l202 818q22 6 50 8.5t52 2.5q32 0 65.5 -3.5t65.5 -14.5l9 -15zM609 1502q50 -15 97.5 -59t64.5 -94l-353 -271q-32 9 -62 36.5t-44 61.5z" />
    <glyph glyph-name="thorn" unicode="&#xfe;" horiz-adv-x="1061" 
d="M382 -277q0 -83 -29.5 -118.5t-105.5 -35.5h-92l-14 13v1876l14 13h92q76 0 105.5 -35.5t29.5 -118.5v-1594zM983 520q0 -189 -57 -307.5t-145 -174.5t-182 -56q-96 0 -181.5 38.5t-153.5 89.5l34 186q58 -47 126.5 -85.5t128.5 -38.5q53 0 92.5 37.5t61.5 112t22 184.5
q0 108 -21.5 174.5t-57.5 97t-79 30.5t-93 -24t-94 -80t-70 -153l-53 162q15 73 67 141t130.5 112t173.5 44q112 0 190 -63.5t119.5 -174.5t41.5 -252z" />
    <glyph glyph-name="ydieresis" unicode="&#xff;" horiz-adv-x="959" 
d="M683 29q-40 -145 -93.5 -250t-140.5 -160.5t-229 -55.5q-53 0 -115 11.5t-97 23.5q-4 44 11.5 97t40.5 81q27 -9 72 -18t88 -9q61 0 103 26t71 74t49 114l7 26q-70 1 -113.5 25.5t-62.5 88.5l-250 869q40 18 80.5 27t71.5 9q44 0 75 -23t48 -86l118 -430q12 -41 23.5 -93
t22 -102t17.5 -87q3 -14 17 -14l202 818q22 6 50 8.5t52 2.5q32 0 65.5 -3.5t65.5 -14.5l9 -15zM159 1238q0 20 3.5 44.5t11.5 43.5q21 13 52 20t58 7q28 0 59 -7t52 -20q8 -19 12 -43.5t4 -44.5q0 -19 -4 -43.5t-12 -44.5q-21 -12 -52 -19t-59 -7q-27 0 -58 7t-52 19
q-8 20 -11.5 44.5t-3.5 43.5zM543 1238q0 20 4 44.5t12 43.5q21 13 52 20t59 7q27 0 58 -7t52 -20q8 -19 11.5 -43.5t3.5 -44.5q0 -19 -3.5 -43.5t-11.5 -44.5q-21 -12 -52 -19t-58 -7q-28 0 -59 7t-52 19q-8 20 -12 44.5t-4 43.5z" />
    <glyph glyph-name="Amacron" unicode="&#x100;" horiz-adv-x="1244" 
d="M478 1366q31 4 74 6.5t74 2.5t74 -2.5t72 -7.5l441 -1349q-27 -15 -68 -23t-80 -8q-60 0 -94 27.5t-58 108.5l-189 621q-26 86 -55.5 190t-51.5 191h-11q-15 -73 -41 -166t-45 -159l-248 -800q-23 -6 -51 -7.5t-58 -1.5q-31 0 -65.5 4t-58.5 12l-8 13zM472 312
q-12 0 -36.5 0.5l-49 1t-36.5 0.5h-126l79 204h111q12 0 34.5 0.5t44.5 1t33 0.5h178q12 0 34.5 -0.5l45 -1t34.5 -0.5h114l66 -204h-125q-12 0 -37 -0.5t-49.5 -1t-36.5 -0.5h-278zM319 1512q-6 24 -8.5 45t-2.5 49q0 26 2.5 47.5t8.5 47.5h615q6 -26 8 -45.5t2 -47.5
q0 -54 -10 -96h-615z" />
    <glyph glyph-name="amacron" unicode="&#x101;" horiz-adv-x="1019" 
d="M76 271q0 116 53 191t141 110.5t194 35.5q52 0 122 -3.5t128 -16.5v-162q-50 11 -114 14t-115 3q-81 0 -122.5 -42t-41.5 -113q0 -53 30.5 -89.5t86.5 -36.5q68 0 142 48t124 138l37 -175q-38 -44 -89.5 -90t-120 -78t-156.5 -32q-101 0 -167.5 44.5t-99 113t-32.5 140.5
zM940 113q-9 -34 -33.5 -72t-51.5 -56q-73 8 -119 44t-69.5 86.5t-29.5 103.5v441q0 83 -38.5 120t-112.5 37q-71 0 -149.5 -21.5t-156.5 -49.5q-28 30 -45.5 80.5t-21.5 96.5q61 26 136 46.5t152.5 32.5t143.5 12q94 0 171 -35t122.5 -109t45.5 -194v-408q0 -52 11.5 -90
t44.5 -65zM203 1148q-6 24 -8.5 45t-2.5 48t2.5 48.5t8.5 46.5h583q6 -25 8 -44.5t2 -47.5q0 -54 -10 -96h-583z" />
    <glyph glyph-name="Abreve" unicode="&#x102;" horiz-adv-x="1244" 
d="M478 1366q31 4 74 6.5t74 2.5t74 -2.5t72 -7.5l441 -1349q-27 -15 -68 -23t-80 -8q-60 0 -94 27.5t-58 108.5l-189 621q-26 86 -55.5 190t-51.5 191h-11q-15 -73 -41 -166t-45 -159l-248 -800q-23 -6 -51 -7.5t-58 -1.5q-31 0 -65.5 4t-58.5 12l-8 13zM472 312
q-12 0 -36.5 0.5l-49 1t-36.5 0.5h-126l79 204h111q12 0 34.5 0.5t44.5 1t33 0.5h178q12 0 34.5 -0.5l45 -1t34.5 -0.5h114l66 -204h-125q-12 0 -37 -0.5t-49.5 -1t-36.5 -0.5h-278zM973 1731q-30 -111 -123.5 -183.5t-223.5 -72.5t-223 72.5t-124 183.5q24 28 62.5 42.5
t77.5 13.5q27 -59 82.5 -92.5t124.5 -33.5q70 0 125 33.5t82 92.5q40 1 78.5 -13.5t61.5 -42.5z" />
    <glyph glyph-name="abreve" unicode="&#x103;" horiz-adv-x="1019" 
d="M76 271q0 116 53 191t141 110.5t194 35.5q52 0 122 -3.5t128 -16.5v-162q-50 11 -114 14t-115 3q-81 0 -122.5 -42t-41.5 -113q0 -53 30.5 -89.5t86.5 -36.5q68 0 142 48t124 138l37 -175q-38 -44 -89.5 -90t-120 -78t-156.5 -32q-101 0 -167.5 44.5t-99 113t-32.5 140.5
zM940 113q-9 -34 -33.5 -72t-51.5 -56q-73 8 -119 44t-69.5 86.5t-29.5 103.5v441q0 83 -38.5 120t-112.5 37q-71 0 -149.5 -21.5t-156.5 -49.5q-28 30 -45.5 80.5t-21.5 96.5q61 26 136 46.5t152.5 32.5t143.5 12q94 0 171 -35t122.5 -109t45.5 -194v-408q0 -52 11.5 -90
t44.5 -65zM821 1366q-28 -115 -115 -188.5t-212 -73.5t-212 73.5t-115 188.5q22 27 58.5 41.5t74.5 12.5q24 -59 75 -92.5t119 -33.5t119 33.5t75 92.5q38 2 75 -12.5t58 -41.5z" />
    <glyph glyph-name="Aogonek" unicode="&#x104;" horiz-adv-x="1244" 
d="M1240 -244q22 -18 37.5 -49t17.5 -68q-36 -30 -95.5 -52t-125.5 -22q-98 0 -161.5 51t-63.5 140q0 67 35.5 125.5t86.5 103.5t98 71l144 -40q-78 -45 -126 -97t-48 -111q0 -42 26 -62.5t65 -20.5q31 0 60 10t50 21zM478 1366q31 4 74 6.5t74 2.5t74 -2.5t72 -7.5
l441 -1349q-27 -15 -68 -23t-80 -8q-60 0 -94 27.5t-58 108.5l-189 621q-26 86 -55.5 190t-51.5 191h-11q-15 -73 -41 -166t-45 -159l-248 -800q-23 -6 -51 -7.5t-58 -1.5q-31 0 -65.5 4t-58.5 12l-8 13zM472 312q-12 0 -36.5 0.5l-49 1t-36.5 0.5h-126l79 204h111
q12 0 34.5 0.5t44.5 1t33 0.5h178q12 0 34.5 -0.5l45 -1t34.5 -0.5h114l66 -204h-125q-12 0 -37 -0.5t-49.5 -1t-36.5 -0.5h-278z" />
    <glyph glyph-name="aogonek" unicode="&#x105;" horiz-adv-x="1029" 
d="M76 271q0 116 53 191t141 110.5t194 35.5q52 0 122 -3.5t128 -16.5v-162q-50 11 -114 14t-115 3q-81 0 -122.5 -42t-41.5 -113q0 -53 30.5 -89.5t86.5 -36.5q68 0 142 48t124 138l37 -175q-38 -44 -89.5 -90t-120 -78t-156.5 -32q-101 0 -167.5 44.5t-99 113t-32.5 140.5
zM779 8q-66 31 -100.5 90t-41.5 121v441q0 83 -38.5 120t-112.5 37q-71 0 -149.5 -21t-156.5 -50q-28 30 -45.5 80.5t-21.5 96.5q61 26 136 46.5t152.5 32.5t143.5 12q94 0 171 -35t122.5 -109t45.5 -194v-408q0 -52 17 -89.5t53 -65.5zM943 -244q21 -18 36.5 -49t18.5 -68
q-37 -30 -96.5 -52t-125.5 -22q-97 0 -161 50.5t-64 140.5q0 68 34 127t83.5 104.5t95.5 74.5l190 51q-14 -35 -42 -68.5t-64 -67.5q-45 -39 -76 -79t-31 -89q0 -43 26.5 -63.5t65.5 -20.5q31 0 59.5 10t50.5 21z" />
    <glyph glyph-name="Cacute" unicode="&#x106;" horiz-adv-x="1212" 
d="M899 865q1 79 -21 153.5t-78 122.5t-157 48q-146 0 -216.5 -131t-70.5 -382q0 -234 82 -357.5t227 -123.5q97 0 184 41.5t167 105.5q38 -26 75 -73t47 -92q-56 -55 -136.5 -102t-177.5 -74.5t-203 -27.5q-150 0 -252 59.5t-164 161t-89.5 227t-27.5 256.5q0 250 77 409
t205.5 234t279.5 75t262 -55.5t172 -146.5t61 -199q0 -70 -36 -106.5t-109 -36.5q-28 0 -51.5 4t-49.5 10zM847 1836q33 -24 66 -81.5t39 -114.5l-454 -182q-28 16 -48 53.5t-25 70.5z" />
    <glyph glyph-name="cacute" unicode="&#x107;" horiz-adv-x="945" 
d="M655 586q2 70 -9.5 125.5t-45 87.5t-98.5 32q-85 0 -127.5 -83.5t-42.5 -256.5q0 -171 53.5 -245.5t152.5 -74.5q64 0 123.5 29t109.5 66q32 -19 61.5 -62t37.5 -82q-66 -67 -164.5 -108t-206.5 -41t-187.5 39t-131.5 109.5t-77.5 165t-25.5 204.5q0 189 63 305
t161.5 169.5t205.5 53.5q89 0 158.5 -26t117.5 -70t72.5 -100.5t24.5 -117.5q0 -62 -32 -95.5t-92 -33.5q-30 0 -53.5 2.5t-47.5 7.5zM635 1502q50 -15 97.5 -59t64.5 -94l-353 -271q-32 9 -62 36.5t-44 61.5z" />
    <glyph glyph-name="Ccircumflex" unicode="&#x108;" horiz-adv-x="1212" 
d="M899 865q1 79 -21 153.5t-78 122.5t-157 48q-146 0 -216.5 -131t-70.5 -382q0 -234 82 -357.5t227 -123.5q97 0 184 41.5t167 105.5q38 -26 75 -73t47 -92q-56 -55 -136.5 -102t-177.5 -74.5t-203 -27.5q-150 0 -252 59.5t-164 161t-89.5 227t-27.5 256.5q0 250 77 409
t205.5 234t279.5 75t262 -55.5t172 -146.5t61 -199q0 -70 -36 -106.5t-109 -36.5q-28 0 -51.5 4t-49.5 10zM751 1796l226 -216q-13 -40 -45.5 -68t-58.5 -37l-229 148l-228 -148q-26 9 -59 37t-45 68l225 216q47 9 107 9q61 0 107 -9z" />
    <glyph glyph-name="ccircumflex" unicode="&#x109;" horiz-adv-x="945" 
d="M655 586q2 70 -9.5 125.5t-45 87.5t-98.5 32q-85 0 -127.5 -83.5t-42.5 -256.5q0 -171 53.5 -245.5t152.5 -74.5q64 0 123.5 29t109.5 66q32 -19 61.5 -62t37.5 -82q-66 -67 -164.5 -108t-206.5 -41t-187.5 39t-131.5 109.5t-77.5 165t-25.5 204.5q0 189 63 305
t161.5 169.5t205.5 53.5q89 0 158.5 -26t117.5 -70t72.5 -100.5t24.5 -117.5q0 -62 -32 -95.5t-92 -33.5q-30 0 -53.5 2.5t-47.5 7.5zM617 1452l191 -250q-17 -40 -52 -68t-62 -38l-185 179l-186 -179q-27 10 -61.5 38t-51.5 68l190 250q47 14 109 14t108 -14z" />
    <glyph glyph-name="Cdotaccent" unicode="&#x10a;" horiz-adv-x="1212" 
d="M899 865q1 79 -21 153.5t-78 122.5t-157 48q-146 0 -216.5 -131t-70.5 -382q0 -234 82 -357.5t227 -123.5q97 0 184 41.5t167 105.5q38 -26 75 -73t47 -92q-56 -55 -136.5 -102t-177.5 -74.5t-203 -27.5q-150 0 -252 59.5t-164 161t-89.5 227t-27.5 256.5q0 250 77 409
t205.5 234t279.5 75t262 -55.5t172 -146.5t61 -199q0 -70 -36 -106.5t-109 -36.5q-28 0 -51.5 4t-49.5 10zM500 1614q0 55 21 101q21 11 56 19t69 8q32 0 69 -8t56 -19q10 -22 15.5 -49.5t5.5 -51.5q0 -55 -21 -99q-18 -12 -55.5 -19.5t-69.5 -7.5q-34 0 -70 7t-55 20
q-21 44 -21 99z" />
    <glyph glyph-name="cdotaccent" unicode="&#x10b;" horiz-adv-x="945" 
d="M655 586q2 70 -9.5 125.5t-45 87.5t-98.5 32q-85 0 -127.5 -83.5t-42.5 -256.5q0 -171 53.5 -245.5t152.5 -74.5q64 0 123.5 29t109.5 66q32 -19 61.5 -62t37.5 -82q-66 -67 -164.5 -108t-206.5 -41t-187.5 39t-131.5 109.5t-77.5 165t-25.5 204.5q0 189 63 305
t161.5 169.5t205.5 53.5q89 0 158.5 -26t117.5 -70t72.5 -100.5t24.5 -117.5q0 -62 -32 -95.5t-92 -33.5q-30 0 -53.5 2.5t-47.5 7.5zM357 1264q0 55 21 100q21 12 56 19.5t69 7.5q32 0 69 -7.5t56 -19.5q10 -21 15.5 -48.5t5.5 -51.5q0 -54 -21 -100q-18 -12 -55.5 -19.5
t-69.5 -7.5q-34 0 -70 7.5t-55 19.5q-21 46 -21 100z" />
    <glyph glyph-name="Ccaron" unicode="&#x10c;" horiz-adv-x="1212" 
d="M899 865q1 79 -21 153.5t-78 122.5t-157 48q-146 0 -216.5 -131t-70.5 -382q0 -234 82 -357.5t227 -123.5q97 0 184 41.5t167 105.5q38 -26 75 -73t47 -92q-56 -55 -136.5 -102t-177.5 -74.5t-203 -27.5q-150 0 -252 59.5t-164 161t-89.5 227t-27.5 256.5q0 250 77 409
t205.5 234t279.5 75t262 -55.5t172 -146.5t61 -199q0 -70 -36 -106.5t-109 -36.5q-28 0 -51.5 4t-49.5 10zM874 1808q27 -10 59.5 -38t44.5 -67l-225 -216q-22 -4 -50 -7t-57 -3t-56.5 3t-50.5 7l-225 216q12 39 44.5 67t59.5 38l228 -149z" />
    <glyph glyph-name="ccaron" unicode="&#x10d;" horiz-adv-x="945" 
d="M655 586q2 70 -9.5 125.5t-45 87.5t-98.5 32q-85 0 -127.5 -83.5t-42.5 -256.5q0 -171 53.5 -245.5t152.5 -74.5q64 0 123.5 29t109.5 66q32 -19 61.5 -62t37.5 -82q-66 -67 -164.5 -108t-206.5 -41t-187.5 39t-131.5 109.5t-77.5 165t-25.5 204.5q0 189 63 305
t161.5 169.5t205.5 53.5q89 0 158.5 -26t117.5 -70t72.5 -100.5t24.5 -117.5q0 -62 -32 -95.5t-92 -33.5q-30 0 -53.5 2.5t-47.5 7.5zM395 1116l-190 251q16 39 51 67.5t62 37.5l185 -179l185 179q28 -9 63 -37.5t51 -67.5l-191 -251q-47 -13 -108 -13q-59 0 -108 13z" />
    <glyph glyph-name="Dcaron" unicode="&#x10e;" horiz-adv-x="1311" 
d="M1220 683q0 -117 -15.5 -224.5t-62 -200.5t-138.5 -167q-45 -36 -108 -58.5t-128.5 -32.5t-119.5 -10q-83 0 -156 1t-147.5 3t-161.5 4l-13 13v1344l13 13q86 3 160.5 5t148 2h156.5q54 0 120 -10t129 -32t107 -58q91 -74 137.5 -167.5t62.5 -201t16 -223.5zM957 683
q0 85 -10.5 171t-42.5 158.5t-93.5 116.5t-163.5 44q-57 0 -108.5 1t-114.5 1v-983q63 1 114.5 0.5t108.5 -0.5q102 0 163.5 44.5t93.5 117t42.5 159t10.5 170.5zM854 1806q27 -10 59.5 -38t44.5 -67l-225 -216q-22 -4 -50 -7t-57 -3t-56.5 3t-50.5 7l-225 216
q12 39 44.5 67t59.5 38l228 -149z" />
    <glyph glyph-name="dcaron" unicode="&#x10f;" horiz-adv-x="1214" 
d="M1048 1513q31 8 69 8q39 0 73.5 -9.5t61.5 -27.5l-78 -374q-24 -9 -57 -9q-24 0 -47.5 4.5t-38.5 13.5zM922 284q0 -53 13 -100t43 -71q-8 -34 -33 -72t-52 -56q-111 12 -162.5 91.5t-51.5 186.5v1195l13 13h95q76 0 105.5 -35.5t29.5 -118.5v-1033zM78 484
q0 176 55.5 292.5t145 175t190.5 58.5q99 0 179 -41t149 -88l-34 -186q-58 46 -124.5 84.5t-130.5 38.5q-53 0 -92.5 -38t-61.5 -112.5t-22 -184.5q0 -109 21.5 -176.5t57.5 -99t79 -31.5q42 0 92 23.5t94.5 80t71.5 152.5l53 -162q-15 -73 -67 -141.5t-130.5 -112
t-174.5 -43.5q-117 0 -195 64.5t-117 180t-39 266.5z" />
    <glyph glyph-name="Dcroat" unicode="&#x110;" horiz-adv-x="1343" 
d="M1252 684q0 -117 -16 -224.5t-62.5 -201t-138.5 -167.5q-45 -36 -107.5 -58.5t-128 -32.5t-119.5 -10q-83 0 -156.5 1t-148 3t-161.5 4l-14 13v1344l14 13q87 3 161.5 5t148 2h156.5q54 0 119.5 -10t128 -32t107.5 -58q91 -74 137.5 -167.5t63 -200.5t16.5 -223zM988 684
q0 84 -11 170.5t-42.5 159t-93 116t-162.5 43.5q-59 0 -112.5 1t-115.5 1v-983q62 1 115.5 0.5t112.5 -0.5q101 0 162.5 44.5t93 117.5t42.5 159.5t11 170.5zM54 588q-6 24 -8.5 49.5t-2.5 52.5t2.5 54t8.5 53h683q6 -26 8.5 -51t2.5 -54q0 -57 -11 -104h-683z" />
    <glyph glyph-name="dcroat" unicode="&#x111;" horiz-adv-x="1073" 
d="M372 1128q-10 43 -10 81q0 42 10 83l410 -6l284 6q10 -41 10 -83q0 -38 -10 -81l-289 5zM922 284q0 -53 13 -100t43 -71q-8 -34 -33 -72t-52 -56q-111 12 -162.5 91.5t-51.5 186.5v1195l13 13h95q76 0 105.5 -35.5t29.5 -118.5v-1033zM78 484q0 176 55.5 292.5t145 175
t190.5 58.5q99 0 179 -41t149 -88l-34 -186q-58 46 -124.5 84.5t-130.5 38.5q-53 0 -92.5 -38t-61.5 -112.5t-22 -184.5q0 -109 21.5 -176.5t57.5 -99t79 -31.5q42 0 92 23.5t94.5 80t71.5 152.5l53 -162q-15 -73 -67 -141.5t-130.5 -112t-174.5 -43.5q-117 0 -195 64.5
t-117 180t-39 266.5z" />
    <glyph glyph-name="Emacron" unicode="&#x112;" horiz-adv-x="1138" 
d="M168 1353l14 13h236v-210q0 -42 1 -71t1 -70v-689q0 -31 -1 -57.5t-1 -60.5v-211h-104q-68 0 -107 41t-39 112v1203zM897 793q7 -24 10.5 -53.5t3.5 -50.5q0 -22 -3.5 -51t-10.5 -54h-348q-24 0 -63.5 0.5t-81 1t-72.5 0.5v205q31 0 72.5 0.5t81 1t63.5 0.5h348z
M1009 1366q6 -28 7.5 -53.5t1.5 -47.5q0 -21 -5 -53t-16 -61h-448q-24 0 -63.5 0.5t-81 1t-72.5 1.5v212h677zM1053 212q0 -111 -34.5 -163t-134.5 -52h-552v206q55 3 106.5 6t118.5 3h496zM291 1512q-6 24 -8.5 45t-2.5 49q0 26 2.5 47.5t8.5 47.5h615q6 -26 8 -45.5
t2 -47.5q0 -54 -10 -96h-615z" />
    <glyph glyph-name="emacron" unicode="&#x113;" horiz-adv-x="998" 
d="M234 416v176h444v24q0 61 -17.5 111.5t-55 81t-100.5 30.5q-90 0 -132.5 -75.5t-42.5 -216.5v-75q0 -84 16.5 -153t62 -110t133.5 -41q72 0 140 20.5t131 49.5q29 -28 47 -71.5t24 -80.5q-73 -53 -174.5 -83t-206.5 -30q-124 0 -206.5 42.5t-130.5 116t-68.5 166.5
t-20.5 194q0 150 46.5 269t141 188.5t241.5 69.5q131 0 221 -56.5t137 -153t47 -216.5q0 -55 -4 -93.5t-15 -83.5h-658zM219 1148q-6 24 -8.5 45t-2.5 48t2.5 48.5t8.5 46.5h583q6 -25 8 -44.5t2 -47.5q0 -54 -10 -96h-583z" />
    <glyph glyph-name="Ebreve" unicode="&#x114;" horiz-adv-x="1138" 
d="M168 1353l14 13h236v-210q0 -42 1 -71t1 -70v-689q0 -31 -1 -57.5t-1 -60.5v-211h-104q-68 0 -107 41t-39 112v1203zM897 793q7 -24 10.5 -53.5t3.5 -50.5q0 -22 -3.5 -51t-10.5 -54h-348q-24 0 -63.5 0.5t-81 1t-72.5 0.5v205q31 0 72.5 0.5t81 1t63.5 0.5h348z
M1009 1366q6 -28 7.5 -53.5t1.5 -47.5q0 -21 -5 -53t-16 -61h-448q-24 0 -63.5 0.5t-81 1t-72.5 1.5v212h677zM1053 212q0 -111 -34.5 -163t-134.5 -52h-552v206q55 3 106.5 6t118.5 3h496zM945 1731q-30 -111 -123.5 -183.5t-223.5 -72.5t-223 72.5t-124 183.5
q24 28 62.5 42.5t77.5 13.5q27 -59 82.5 -92.5t124.5 -33.5q70 0 125 33.5t82 92.5q40 1 78.5 -13.5t61.5 -42.5z" />
    <glyph glyph-name="ebreve" unicode="&#x115;" horiz-adv-x="998" 
d="M234 416v176h444v24q0 61 -17.5 111.5t-55 81t-100.5 30.5q-90 0 -132.5 -75.5t-42.5 -216.5v-75q0 -84 16.5 -153t62 -110t133.5 -41q72 0 140 20.5t131 49.5q29 -28 47 -71.5t24 -80.5q-73 -53 -174.5 -83t-206.5 -30q-124 0 -206.5 42.5t-130.5 116t-68.5 166.5
t-20.5 194q0 150 46.5 269t141 188.5t241.5 69.5q131 0 221 -56.5t137 -153t47 -216.5q0 -55 -4 -93.5t-15 -83.5h-658zM837 1366q-28 -115 -115 -188.5t-212 -73.5t-212 73.5t-115 188.5q22 27 58.5 41.5t74.5 12.5q24 -59 75 -92.5t119 -33.5t119 33.5t75 92.5
q38 2 75 -12.5t58 -41.5z" />
    <glyph glyph-name="Edotaccent" unicode="&#x116;" horiz-adv-x="1138" 
d="M168 1353l14 13h236v-210q0 -42 1 -71t1 -70v-689q0 -31 -1 -57.5t-1 -60.5v-211h-104q-68 0 -107 41t-39 112v1203zM897 793q7 -24 10.5 -53.5t3.5 -50.5q0 -22 -3.5 -51t-10.5 -54h-348q-24 0 -63.5 0.5t-81 1t-72.5 0.5v205q31 0 72.5 0.5t81 1t63.5 0.5h348z
M1009 1366q6 -28 7.5 -53.5t1.5 -47.5q0 -21 -5 -53t-16 -61h-448q-24 0 -63.5 0.5t-81 1t-72.5 1.5v212h677zM1053 212q0 -111 -34.5 -163t-134.5 -52h-552v206q55 3 106.5 6t118.5 3h496zM452 1612q0 55 21 101q21 11 56 19t69 8q32 0 69 -8t56 -19q10 -22 15.5 -49.5
t5.5 -51.5q0 -55 -21 -99q-18 -12 -55.5 -19.5t-69.5 -7.5q-34 0 -70 7t-55 20q-21 44 -21 99z" />
    <glyph glyph-name="edotaccent" unicode="&#x117;" horiz-adv-x="998" 
d="M234 416v176h444v24q0 61 -17.5 111.5t-55 81t-100.5 30.5q-90 0 -132.5 -75.5t-42.5 -216.5v-75q0 -84 16.5 -153t62 -110t133.5 -41q72 0 140 20.5t131 49.5q29 -28 47 -71.5t24 -80.5q-73 -53 -174.5 -83t-206.5 -30q-124 0 -206.5 42.5t-130.5 116t-68.5 166.5
t-20.5 194q0 150 46.5 269t141 188.5t241.5 69.5q131 0 221 -56.5t137 -153t47 -216.5q0 -55 -4 -93.5t-15 -83.5h-658zM364 1264q0 55 21 100q21 12 56 19.5t69 7.5q32 0 69 -7.5t56 -19.5q10 -21 15.5 -48.5t5.5 -51.5q0 -54 -21 -100q-18 -12 -55.5 -19.5t-69.5 -7.5
q-34 0 -70 7.5t-55 19.5q-21 46 -21 100z" />
    <glyph glyph-name="Eogonek" unicode="&#x118;" horiz-adv-x="1143" 
d="M987 -244q21 -18 37 -49t17 -68q-36 -30 -95.5 -52t-125.5 -22q-98 0 -161 51t-63 143q0 94 62.5 168.5t146.5 116.5q42 6 89 -3t69 -32q-87 -35 -132 -91.5t-45 -109.5q0 -42 26 -62.5t65 -20.5q30 0 59 10t51 21zM168 1353l14 13h236v-210q0 -42 1 -71t1 -70v-689
q0 -31 -1 -57.5t-1 -60.5v-211h-104q-68 0 -107 41t-39 112v1203zM897 793q7 -24 10.5 -53.5t3.5 -50.5q0 -22 -3.5 -51t-10.5 -54h-348q-24 0 -63.5 0.5t-81 1t-72.5 0.5v205q31 0 72.5 0.5t81 1t63.5 0.5h348zM1009 1366q6 -28 7.5 -53.5t1.5 -47.5q0 -21 -5 -53t-16 -61
h-448q-24 0 -63.5 0.5t-81 1t-72.5 1.5v212h677zM1053 212q0 -100 -21.5 -141.5t-68.5 -61.5q-32 -12 -79 -12h-552v206q55 3 106.5 6t118.5 3h496z" />
    <glyph glyph-name="eogonek" unicode="&#x119;" horiz-adv-x="998" 
d="M820 -244q21 -18 37 -49t18 -68q-36 -30 -95.5 -52t-126.5 -22q-97 0 -160.5 51t-63.5 142q0 95 73.5 175t187.5 137l194 16q-27 -22 -54.5 -38.5t-59.5 -34.5q-75 -44 -113 -93.5t-38 -106.5q0 -43 25.5 -65.5t65.5 -22.5q31 0 60 10t50 21zM234 416v176h444v24
q0 61 -17.5 111.5t-55 81t-100.5 30.5q-90 0 -132.5 -75.5t-42.5 -216.5v-75q0 -84 16.5 -153t62 -110t133.5 -41q72 0 140 20.5t131 49.5q29 -28 47 -71.5t24 -80.5q-78 -44 -177 -78.5t-204 -34.5q-124 0 -206.5 42.5t-130.5 116t-68.5 166.5t-20.5 194q0 150 46.5 269
t141 188.5t241.5 69.5q131 0 221 -56.5t137 -153t47 -216.5q0 -55 -4 -93.5t-15 -83.5h-658z" />
    <glyph glyph-name="Ecaron" unicode="&#x11a;" horiz-adv-x="1138" 
d="M168 1353l14 13h236v-210q0 -42 1 -71t1 -70v-689q0 -31 -1 -57.5t-1 -60.5v-211h-104q-68 0 -107 41t-39 112v1203zM897 793q7 -24 10.5 -53.5t3.5 -50.5q0 -22 -3.5 -51t-10.5 -54h-348q-24 0 -63.5 0.5t-81 1t-72.5 0.5v205q31 0 72.5 0.5t81 1t63.5 0.5h348z
M1009 1366q6 -28 7.5 -53.5t1.5 -47.5q0 -21 -5 -53t-16 -61h-448q-24 0 -63.5 0.5t-81 1t-72.5 1.5v212h677zM1053 212q0 -111 -34.5 -163t-134.5 -52h-552v206q55 3 106.5 6t118.5 3h496zM826 1806q27 -10 59.5 -38t44.5 -67l-225 -216q-22 -4 -50 -7t-57 -3t-56.5 3
t-50.5 7l-225 216q12 39 44.5 67t59.5 38l228 -149z" />
    <glyph glyph-name="ecaron" unicode="&#x11b;" horiz-adv-x="998" 
d="M234 416v176h444v24q0 61 -17.5 111.5t-55 81t-100.5 30.5q-90 0 -132.5 -75.5t-42.5 -216.5v-75q0 -84 16.5 -153t62 -110t133.5 -41q72 0 140 20.5t131 49.5q29 -28 47 -71.5t24 -80.5q-73 -53 -174.5 -83t-206.5 -30q-124 0 -206.5 42.5t-130.5 116t-68.5 166.5
t-20.5 194q0 150 46.5 269t141 188.5t241.5 69.5q131 0 221 -56.5t137 -153t47 -216.5q0 -55 -4 -93.5t-15 -83.5h-658zM402 1116l-190 251q16 39 51 67.5t62 37.5l185 -179l185 179q28 -9 63 -37.5t51 -67.5l-191 -251q-47 -13 -108 -13q-59 0 -108 13z" />
    <glyph glyph-name="Gcircumflex" unicode="&#x11c;" horiz-adv-x="1295" 
d="M1174 1248q-6 -56 -42.5 -108.5t-75.5 -77.5q-73 52 -163 84.5t-182 32.5q-105 0 -186.5 -50.5t-127.5 -162t-46 -295.5q0 -252 94 -372t277 -120q102 0 188 21t135 39l133 -183q-59 -21 -139.5 -40t-172.5 -31t-188 -12q-159 0 -271 53t-182.5 148t-103.5 223t-33 277
q0 187 52 323t139 224t197 130t225 42q130 0 254.5 -39.5t218.5 -105.5zM936 393q0 71 4.5 138.5t18.5 122.5l219 -74v-524l-242 -3v340zM1002 741q99 0 137.5 -43.5t38.5 -117.5v-55h-380q-36 0 -64.5 9t-44.5 33t-16 67q0 26 6 55t13 52h310zM798 1794l226 -216
q-13 -40 -45.5 -68t-58.5 -37l-229 148l-228 -148q-26 9 -59 37t-45 68l225 216q47 9 107 9q61 0 107 -9z" />
    <glyph glyph-name="gcircumflex" unicode="&#x11d;" horiz-adv-x="1063" 
d="M980 879q-30 -24 -43 -70.5t-13 -101.5v-566q0 -125 -11.5 -209t-33.5 -139.5t-53 -95.5q-53 -65 -143 -101.5t-206 -36.5q-93 0 -189 19t-169 48q1 45 18.5 98.5t44.5 84.5q64 -29 137 -45.5t135 -16.5q90 0 139.5 33t69 89t19.5 126v733q0 108 51 187t162 92
q27 -18 53 -56t32 -72zM78 494q0 175 56 292t145 175t189 58q92 0 157.5 -28.5t111.5 -71t76 -85.5l-37 -207q-55 92 -127.5 146t-139.5 54q-54 0 -94 -37.5t-61.5 -112t-21.5 -184.5q0 -163 45.5 -235.5t110.5 -72.5q72 0 139 48t107 129l37 -183q-30 -50 -81 -94.5
t-117 -73.5t-142 -29q-118 0 -196.5 64.5t-117.5 180t-39 267.5zM655 1452l191 -250q-17 -40 -52 -68t-62 -38l-185 179l-186 -179q-27 10 -61.5 38t-51.5 68l190 250q47 14 109 14t108 -14z" />
    <glyph glyph-name="Gbreve" unicode="&#x11e;" horiz-adv-x="1295" 
d="M1174 1248q-6 -56 -42.5 -108.5t-75.5 -77.5q-73 52 -163 84.5t-182 32.5q-105 0 -186.5 -50.5t-127.5 -162t-46 -295.5q0 -252 94 -372t277 -120q102 0 188 21t135 39l133 -183q-59 -21 -139.5 -40t-172.5 -31t-188 -12q-159 0 -271 53t-182.5 148t-103.5 223t-33 277
q0 187 52 323t139 224t197 130t225 42q130 0 254.5 -39.5t218.5 -105.5zM936 393q0 71 4.5 138.5t18.5 122.5l219 -74v-524l-242 -3v340zM1002 741q99 0 137.5 -43.5t38.5 -117.5v-55h-380q-36 0 -64.5 9t-44.5 33t-16 67q0 26 6 55t13 52h310zM1041 1731
q-30 -111 -123.5 -183.5t-223.5 -72.5t-223 72.5t-124 183.5q24 28 62.5 42.5t77.5 13.5q27 -59 82.5 -92.5t124.5 -33.5q70 0 125 33.5t82 92.5q40 1 78.5 -13.5t61.5 -42.5z" />
    <glyph glyph-name="gbreve" unicode="&#x11f;" horiz-adv-x="1063" 
d="M980 879q-30 -24 -43 -70.5t-13 -101.5v-566q0 -125 -11.5 -209t-33.5 -139.5t-53 -95.5q-53 -65 -143 -101.5t-206 -36.5q-93 0 -189 19t-169 48q1 45 18.5 98.5t44.5 84.5q64 -29 137 -45.5t135 -16.5q90 0 139.5 33t69 89t19.5 126v733q0 108 51 187t162 92
q27 -18 53 -56t32 -72zM78 494q0 175 56 292t145 175t189 58q92 0 157.5 -28.5t111.5 -71t76 -85.5l-37 -207q-55 92 -127.5 146t-139.5 54q-54 0 -94 -37.5t-61.5 -112t-21.5 -184.5q0 -163 45.5 -235.5t110.5 -72.5q72 0 139 48t107 129l37 -183q-30 -50 -81 -94.5
t-117 -73.5t-142 -29q-118 0 -196.5 64.5t-117.5 180t-39 267.5zM868 1366q-28 -115 -115 -188.5t-212 -73.5t-212 73.5t-115 188.5q22 27 58.5 41.5t74.5 12.5q24 -59 75 -92.5t119 -33.5t119 33.5t75 92.5q38 2 75 -12.5t58 -41.5z" />
    <glyph glyph-name="Gdotaccent" unicode="&#x120;" horiz-adv-x="1295" 
d="M1174 1248q-6 -56 -42.5 -108.5t-75.5 -77.5q-73 52 -163 84.5t-182 32.5q-105 0 -186.5 -50.5t-127.5 -162t-46 -295.5q0 -252 94 -372t277 -120q102 0 188 21t135 39l133 -183q-59 -21 -139.5 -40t-172.5 -31t-188 -12q-159 0 -271 53t-182.5 148t-103.5 223t-33 277
q0 187 52 323t139 224t197 130t225 42q130 0 254.5 -39.5t218.5 -105.5zM936 393q0 71 4.5 138.5t18.5 122.5l219 -74v-524l-242 -3v340zM1002 741q99 0 137.5 -43.5t38.5 -117.5v-55h-380q-36 0 -64.5 9t-44.5 33t-16 67q0 26 6 55t13 52h310zM548 1612q0 55 21 101
q21 11 56 19t69 8q32 0 69 -8t56 -19q10 -22 15.5 -49.5t5.5 -51.5q0 -55 -21 -99q-18 -12 -55.5 -19.5t-69.5 -7.5q-34 0 -70 7t-55 20q-21 44 -21 99z" />
    <glyph glyph-name="gdotaccent" unicode="&#x121;" horiz-adv-x="1063" 
d="M980 879q-30 -24 -43 -70.5t-13 -101.5v-566q0 -125 -11.5 -209t-33.5 -139.5t-53 -95.5q-53 -65 -143 -101.5t-206 -36.5q-93 0 -189 19t-169 48q1 45 18.5 98.5t44.5 84.5q64 -29 137 -45.5t135 -16.5q90 0 139.5 33t69 89t19.5 126v733q0 108 51 187t162 92
q27 -18 53 -56t32 -72zM78 494q0 175 56 292t145 175t189 58q92 0 157.5 -28.5t111.5 -71t76 -85.5l-37 -207q-55 92 -127.5 146t-139.5 54q-54 0 -94 -37.5t-61.5 -112t-21.5 -184.5q0 -163 45.5 -235.5t110.5 -72.5q72 0 139 48t107 129l37 -183q-30 -50 -81 -94.5
t-117 -73.5t-142 -29q-118 0 -196.5 64.5t-117.5 180t-39 267.5zM395 1264q0 55 21 100q21 12 56 19.5t69 7.5q32 0 69 -7.5t56 -19.5q10 -21 15.5 -48.5t5.5 -51.5q0 -54 -21 -100q-18 -12 -55.5 -19.5t-69.5 -7.5q-34 0 -70 7.5t-55 19.5q-21 46 -21 100z" />
    <glyph glyph-name="uni0122" unicode="&#x122;" horiz-adv-x="1295" 
d="M1174 1248q-6 -56 -42.5 -108.5t-75.5 -77.5q-73 52 -163 84.5t-182 32.5q-105 0 -186.5 -50.5t-127.5 -162t-46 -295.5q0 -252 94 -372t277 -120q102 0 188 21t135 39l133 -183q-59 -21 -139.5 -40t-172.5 -31t-188 -12q-159 0 -271 53t-182.5 148t-103.5 223t-33 277
q0 187 52 323t139 224t197 130t225 42q130 0 254.5 -39.5t218.5 -105.5zM936 393q0 71 4.5 138.5t18.5 122.5l219 -74v-524l-242 -3v340zM1002 741q99 0 137.5 -43.5t38.5 -117.5v-55h-380q-36 0 -64.5 9t-44.5 33t-16 67q0 26 6 55t13 52h310zM798 -123q8 -18 14 -49.5
t6 -60.5q0 -110 -73 -194.5t-197 -127.5q-31 10 -51.5 39t-27.5 65q126 78 126 195q0 27 -7 54t-19 51q59 42 146 42q43 0 83 -14z" />
    <glyph glyph-name="uni0123" unicode="&#x123;" horiz-adv-x="1063" 
d="M980 879q-30 -24 -43 -70.5t-13 -101.5v-566q0 -125 -11.5 -209t-33.5 -139.5t-53 -95.5q-53 -65 -143 -101.5t-206 -36.5q-93 0 -189 19t-169 48q1 45 18.5 98.5t44.5 84.5q64 -29 137 -45.5t135 -16.5q90 0 139.5 33t69 89t19.5 126v733q0 108 51 187t162 92
q27 -18 53 -56t32 -72zM78 494q0 175 56 292t145 175t189 58q92 0 157.5 -28.5t111.5 -71t76 -85.5l-37 -207q-55 92 -127.5 146t-139.5 54q-54 0 -94 -37.5t-61.5 -112t-21.5 -184.5q0 -163 45.5 -235.5t110.5 -72.5q72 0 139 48t107 129l37 -183q-30 -50 -81 -94.5
t-117 -73.5t-142 -29q-118 0 -196.5 64.5t-117.5 180t-39 267.5zM440 1116q-9 18 -15 48.5t-6 59.5q0 105 71.5 186.5t194.5 123.5q30 -10 50 -37.5t27 -62.5q-123 -75 -123 -189q0 -25 7 -52t18 -49q-28 -19 -66 -29.5t-78 -10.5q-44 0 -80 12z" />
    <glyph glyph-name="Hcircumflex" unicode="&#x124;" horiz-adv-x="1358" 
d="M532 596q-11 0 -32.5 0.5l-43 1t-33.5 0.5q-37 0 -75.5 -1t-76.5 -1v217q38 0 76.5 -1t75.5 -1q12 0 33.5 0.5l43 1t32.5 0.5h295q12 0 33 -0.5t42.5 -1t32.5 -0.5q37 0 76 1t77 1v-217q-38 0 -77 1t-76 1q-11 0 -32.5 -0.5t-42.5 -1t-33 -0.5h-295zM425 0
q-30 -6 -65 -7.5t-63 -1.5q-25 0 -61 1.5t-66 7.5v1366q30 6 66 7.5t61 1.5q28 0 63 -1.5t65 -7.5v-407q0 -42 -1 -74.5t-1 -73.5v-213q0 -40 1 -73t1 -75v-450zM933 450q0 42 1 75t1 73v213q0 41 -1 73.5t-1 74.5v407q30 6 65 7.5t62 1.5t63 -1.5t66 -7.5v-1366
q-32 -6 -65 -7.5t-62 -1.5q-27 0 -62.5 1.5t-66.5 7.5v450zM783 1795l226 -216q-13 -40 -45.5 -68t-58.5 -37l-229 148l-228 -148q-26 9 -59 37t-45 68l225 216q47 9 107 9q61 0 107 -9z" />
    <glyph glyph-name="hcircumflex" unicode="&#x125;" horiz-adv-x="1087" 
d="M384 0q-52 -9 -122 -9q-63 0 -121 9v1458l14 13h95q77 0 105.5 -35.5t28.5 -118.5v-1317zM952 227q0 -55 9 -103.5t31 -84.5q-27 -23 -68 -38t-87 -15q-74 0 -103.5 40t-29.5 115v476q0 88 -22.5 128t-86.5 40q-43 0 -94.5 -21.5t-98.5 -63t-78 -101.5v228
q67 74 158.5 128t198.5 54q93 0 153 -44.5t89 -121t29 -174.5v-442zM652 1850l226 -216q-13 -40 -45.5 -68t-58.5 -37l-229 148l-228 -148q-26 9 -59 37t-45 68l225 216q47 9 107 9q61 0 107 -9z" />
    <glyph glyph-name="Hbar" unicode="&#x126;" horiz-adv-x="1376" 
d="M41 983q-6 24 -8.5 46t-2.5 49t2.5 49t8.5 48h1295q6 -26 8 -46t2 -49q0 -53 -10 -97h-1295zM540 593q-11 0 -32.5 0.5t-42.5 1t-33 0.5q-38 0 -76.5 -1t-75.5 -1v214q37 0 75.5 -1t76.5 -1q12 0 33 0.5t42.5 1t32.5 0.5h296q11 0 32.5 -0.5t42.5 -1t33 -0.5q38 0 76.5 1
t75.5 1v-214q-37 0 -75.5 1t-76.5 1q-12 0 -33 -0.5t-42.5 -1t-32.5 -0.5h-296zM434 0q-30 -6 -65 -7.5t-63 -1.5q-26 0 -62 1.5t-66 7.5v1366q30 6 66 7.5t62 1.5q28 0 63 -1.5t65 -7.5v-411q0 -42 -1 -75.5t-1 -74.5v-210q0 -40 1 -73t1 -75v-447zM942 447q0 42 1 75t1 73
v210q0 41 -1 74.5t-1 75.5v411q31 6 65 7.5t62 1.5q26 0 62.5 -1.5t66.5 -7.5v-1366q-32 -6 -65 -7.5t-62 -1.5q-28 0 -63 1.5t-66 7.5v447z" />
    <glyph glyph-name="hbar" unicode="&#x127;" horiz-adv-x="1093" 
d="M697 1292q6 -24 8.5 -41.5t2.5 -39.5q0 -24 -2.5 -42.5t-8.5 -40.5l-409 5l-284 -5q-6 22 -8.5 40.5t-2.5 42.5q0 22 2.5 39.5t8.5 41.5l289 -6zM390 0q-52 -9 -122 -9q-63 0 -121 9v1458l14 13h95q77 0 105.5 -35.5t28.5 -118.5v-1317zM958 227q0 -55 9 -103.5t31 -84.5
q-27 -23 -68 -38t-87 -15q-74 0 -103.5 40t-29.5 115v476q0 88 -22.5 128t-86.5 40q-43 0 -94.5 -21.5t-98.5 -63t-78 -101.5v228q67 74 158.5 128t198.5 54q93 0 153 -44.5t89 -121t29 -174.5v-442z" />
    <glyph glyph-name="Itilde" unicode="&#x128;" horiz-adv-x="604" 
d="M174 1366q29 6 65.5 7.5t61.5 1.5q28 0 63.5 -1.5t65.5 -7.5v-1366q-30 -6 -65.5 -7.5t-63.5 -1.5q-25 0 -61.5 1.5t-65.5 7.5v1366zM212 1566q-16 7 -31.5 12.5t-33.5 5.5q-19 0 -39.5 -12.5t-37.5 -36.5l-20 -28q-37 1 -74 22t-51 54l16 34q33 74 89.5 118t133.5 44
q35 0 66.5 -10t57.5 -23l101 -48q17 -8 34.5 -13.5t33.5 -5.5q19 0 39 11.5t38 36.5l20 27q37 0 74.5 -21t50.5 -54l-16 -34q-33 -74 -90 -118t-133 -44q-35 0 -67.5 10.5t-56.5 22.5z" />
    <glyph glyph-name="itilde" unicode="&#x129;" horiz-adv-x="564" 
d="M425 0q-54 -9 -124 -9q-69 0 -124 9v705q0 52 -19.5 80t-71.5 28h-24q-11 42 -11 86q0 22 2.5 45t8.5 46q40 5 79.5 7t65.5 2h34q85 0 134.5 -54.5t49.5 -147.5v-797zM184 1189q-9 6 -26.5 13t-36.5 7q-29 0 -47.5 -18t-28.5 -30l-20 -28q-34 1 -69.5 22t-48.5 54l17 39
q31 71 86 114.5t124 43.5q38 0 69.5 -11t50.5 -22l83 -44q10 -5 27.5 -12.5t36.5 -7.5q28 0 46 17.5t29 31.5l20 28q35 -1 70 -22.5t48 -54.5l-16 -38q-33 -73 -88.5 -115.5t-123.5 -42.5q-34 0 -64.5 10t-54.5 23z" />
    <glyph glyph-name="Imacron" unicode="&#x12a;" horiz-adv-x="604" 
d="M174 1366q29 6 65.5 7.5t61.5 1.5q28 0 63.5 -1.5t65.5 -7.5v-1366q-30 -6 -65.5 -7.5t-63.5 -1.5q-25 0 -61.5 1.5t-65.5 7.5v1366zM-5 1513q-6 24 -8.5 45t-2.5 49q0 26 2.5 47.5t8.5 47.5h615q6 -26 8 -45.5t2 -47.5q0 -54 -10 -96h-615z" />
    <glyph glyph-name="imacron" unicode="&#x12b;" horiz-adv-x="564" 
d="M425 0q-54 -9 -124 -9q-69 0 -124 9v705q0 52 -19.5 80t-71.5 28h-24q-11 42 -11 86q0 22 2.5 45t8.5 46q40 5 79.5 7t65.5 2h34q85 0 134.5 -54.5t49.5 -147.5v-797zM-30 1148q-6 24 -8.5 45t-2.5 48t2.5 48.5t8.5 46.5h583q6 -25 8 -44.5t2 -47.5q0 -54 -10 -96h-583z
" />
    <glyph glyph-name="Ibreve" unicode="&#x12c;" horiz-adv-x="604" 
d="M174 1366q29 6 65.5 7.5t61.5 1.5q28 0 63.5 -1.5t65.5 -7.5v-1366q-30 -6 -65.5 -7.5t-63.5 -1.5q-25 0 -61.5 1.5t-65.5 7.5v1366zM649 1732q-30 -111 -123.5 -183.5t-223.5 -72.5t-223 72.5t-124 183.5q24 28 62.5 42.5t77.5 13.5q27 -59 82.5 -92.5t124.5 -33.5
q70 0 125 33.5t82 92.5q40 1 78.5 -13.5t61.5 -42.5z" />
    <glyph glyph-name="ibreve" unicode="&#x12d;" horiz-adv-x="564" 
d="M425 0q-54 -9 -124 -9q-69 0 -124 9v705q0 52 -19.5 80t-71.5 28h-24q-11 42 -11 86q0 22 2.5 45t8.5 46q40 5 79.5 7t65.5 2h34q85 0 134.5 -54.5t49.5 -147.5v-797zM588 1366q-28 -115 -115 -188.5t-212 -73.5t-212 73.5t-115 188.5q22 27 58.5 41.5t74.5 12.5
q24 -59 75 -92.5t119 -33.5t119 33.5t75 92.5q38 2 75 -12.5t58 -41.5z" />
    <glyph glyph-name="Iogonek" unicode="&#x12e;" horiz-adv-x="604" 
d="M174 1366q29 6 65.5 7.5t61.5 1.5q28 0 63.5 -1.5t65.5 -7.5v-1366q-30 -6 -65.5 -7.5t-63.5 -1.5q-25 0 -61.5 1.5t-65.5 7.5v1366zM302 -435q-99 0 -161.5 51t-62.5 140q0 66 39 124t96 105.5t114 79.5q27 -5 56.5 -22.5t46.5 -42.5q-63 -40 -112.5 -89t-49.5 -103
q0 -42 26.5 -62.5t64.5 -20.5q31 0 60 10t50 21q22 -18 38 -49t17 -68q-36 -30 -96 -52t-126 -22z" />
    <glyph glyph-name="iogonek" unicode="&#x12f;" horiz-adv-x="564" 
d="M301 -9q-69 0 -124 9v705q0 52 -19.5 80t-71.5 28h-24q-11 42 -11 86q0 22 2.5 45t8.5 46q40 5 79.5 7t65.5 2h34q85 0 134.5 -54.5t49.5 -147.5v-797q-54 -9 -124 -9zM302 -435q-99 0 -161.5 51t-62.5 140q0 66 37 123t89.5 102t99.5 73q34 0 67 -14.5t54 -39.5
q-66 -40 -111.5 -89t-45.5 -103q0 -42 26 -62.5t65 -20.5q31 0 59 10t49 21q22 -18 38 -49t17 -68q-36 -30 -95 -52t-125 -22zM261 1144q-34 0 -69.5 7.5t-55.5 19.5q-21 46 -21 100q0 56 21 100q21 12 56 19.5t69 7.5q32 0 69 -7.5t56 -19.5q10 -21 15.5 -48.5t5.5 -51.5
q0 -54 -21 -100q-18 -12 -55.5 -19.5t-69.5 -7.5z" />
    <glyph glyph-name="Idotaccent" unicode="&#x130;" horiz-adv-x="604" 
d="M174 1366q29 6 65.5 7.5t61.5 1.5q28 0 63.5 -1.5t65.5 -7.5v-1366q-30 -6 -65.5 -7.5t-63.5 -1.5q-25 0 -61.5 1.5t-65.5 7.5v1366zM156 1613q0 55 21 101q21 11 56 19t69 8q32 0 69 -8t56 -19q10 -22 15.5 -49.5t5.5 -51.5q0 -55 -21 -99q-18 -12 -55.5 -19.5
t-69.5 -7.5q-34 0 -70 7t-55 20q-21 44 -21 99z" />
    <glyph glyph-name="dotlessi" unicode="&#x131;" horiz-adv-x="564" 
d="M425 0q-54 -9 -124 -9q-69 0 -124 9v705q0 52 -19.5 80t-71.5 28h-24q-11 42 -11 86q0 22 2.5 45t8.5 46q40 5 79.5 7t65.5 2h34q85 0 134.5 -54.5t49.5 -147.5v-797z" />
    <glyph glyph-name="IJ" unicode="&#x132;" horiz-adv-x="1519" 
d="M174 1366q29 6 65.5 7.5t61.5 1.5q28 0 63.5 -1.5t65.5 -7.5v-1366q-30 -6 -65.5 -7.5t-63.5 -1.5q-25 0 -61.5 1.5t-65.5 7.5v1366zM716 255q43 -25 95.5 -44t105.5 -19q116 0 158 71t42 215v888q29 6 65.5 7.5t62.5 1.5q28 0 62.5 -1.5t64.5 -7.5v-858
q0 -113 -17.5 -209.5t-63.5 -167.5t-130.5 -111t-219.5 -40q-78 0 -163.5 22t-153.5 63q9 51 32.5 101.5t59.5 88.5z" />
    <glyph glyph-name="ij" unicode="&#x133;" horiz-adv-x="1140" 
d="M425 0q-54 -9 -124 -9q-69 0 -124 9v705q0 52 -19.5 80t-71.5 28h-24q-11 42 -11 86q0 22 2.5 45t8.5 46q40 5 79.5 7t65.5 2h34q85 0 134.5 -54.5t49.5 -147.5v-797zM115 1264q0 55 21 100q21 12 56 19.5t69 7.5q32 0 69 -7.5t56 -19.5q10 -21 15.5 -48.5t5.5 -51.5
q0 -54 -21 -100q-18 -12 -55.5 -19.5t-69.5 -7.5q-34 0 -70 7.5t-55 19.5q-21 46 -21 100zM1002 -5q0 -129 -27.5 -215.5t-98 -138.5t-201.5 -80q-25 22 -45.5 64.5t-23.5 87.5q57 26 90 55t47 73.5t14 117.5v746q0 52 -19.5 80t-70.5 28h-43q-11 42 -11 86q0 22 2.5 45
t8.5 46q45 5 91 7t74 2h33q84 0 132 -54.5t48 -147.5v-802zM688 1264q0 55 21 100q21 12 56 19.5t69 7.5q32 0 69 -7.5t56 -19.5q10 -21 15.5 -48.5t5.5 -51.5q0 -54 -21 -100q-18 -12 -55.5 -19.5t-69.5 -7.5q-34 0 -70 7.5t-55 19.5q-21 46 -21 100z" />
    <glyph glyph-name="Jcircumflex" unicode="&#x134;" horiz-adv-x="914" 
d="M112 255q43 -25 95.5 -44t105.5 -19q116 0 158 71t42 215v888q29 6 65.5 7.5t62.5 1.5q28 0 62.5 -1.5t64.5 -7.5v-858q0 -113 -17.5 -209.5t-63.5 -167.5t-130.5 -111t-219.5 -40q-78 0 -163.5 22t-153.5 63q9 51 32.5 101.5t59.5 88.5zM745 1794l226 -216
q-13 -40 -45.5 -68t-58.5 -37l-229 148l-228 -148q-26 9 -59 37t-45 68l225 216q47 9 107 9q61 0 107 -9z" />
    <glyph glyph-name="jcircumflex" unicode="&#x135;" horiz-adv-x="577" 
d="M438 -5q0 -129 -27.5 -215.5t-98 -138.5t-201.5 -80q-25 22 -45.5 64.5t-23.5 87.5q57 26 90 55t47 73.5t14 117.5v746q0 52 -19.5 80t-70.5 28h-43q-11 42 -11 86q0 22 2.5 45t8.5 46q45 5 91 7t74 2h33q84 0 132 -54.5t48 -147.5v-802zM384 1452l191 -250
q-17 -40 -52 -68t-62 -38l-185 179l-186 -179q-27 10 -61.5 38t-51.5 68l190 250q47 14 109 14t108 -14z" />
    <glyph glyph-name="uni0136" unicode="&#x136;" horiz-adv-x="1212" 
d="M170 1366q30 6 66 7.5t61 1.5q28 0 63 -1.5t65 -7.5v-1366q-30 -6 -65 -7.5t-63 -1.5q-25 0 -61 1.5t-66 7.5v1366zM1187 64q-25 -38 -73 -58.5t-98 -20.5q-72 0 -104 38t-58 113l-95 270q-37 106 -86 149t-131 43q-37 0 -100 -3t-147 -10v162h364q108 0 171 -30.5
t99.5 -85.5t63.5 -131l99 -274q26 -73 45.5 -104t49.5 -58zM825 1278q26 49 54.5 73t87.5 24q32 0 72 -2t78 -6l15 -19l-279 -492q-49 -90 -124.5 -141.5t-194.5 -51.5h-239v145q52 3 109.5 4t108.5 2q33 0 48 13t33 47zM754 -123q8 -18 14 -49.5t6 -60.5q0 -110 -73 -194.5
t-197 -127.5q-31 10 -51.5 39t-27.5 65q126 78 126 195q0 27 -7 54t-19 51q59 42 146 42q43 0 83 -14z" />
    <glyph glyph-name="uni0137" unicode="&#x137;" horiz-adv-x="1020" 
d="M384 0q-52 -9 -122 -9q-65 0 -121 9v1458l14 13h95q77 0 105.5 -35.5t28.5 -118.5v-1317zM898 224q24 -67 45.5 -104t50.5 -58q-28 -31 -73.5 -53.5t-92.5 -22.5q-61 0 -90 30t-53 95l-72 187q-27 72 -58.5 96t-89.5 24q-35 0 -65.5 -2.5t-65.5 -6.5l-75 -8v175h286
q108 0 180.5 -45t111.5 -148zM742 653q-42 -77 -113 -113t-174 -36h-169v115l152 4q19 0 30 7t21 25l147 246q27 48 61 73t90 25q39 0 70 -0.5t66 -2.5l12 -16zM668 -123q8 -18 14 -49.5t6 -60.5q0 -110 -73 -194.5t-197 -127.5q-31 10 -51.5 39t-27.5 65q126 78 126 195
q0 27 -7 54t-19 51q59 42 146 42q43 0 83 -14z" />
    <glyph glyph-name="kgreenlandic" unicode="&#x138;" horiz-adv-x="1020" 
d="M384 0q-52 -9 -122 -9q-65 0 -121 9v989l14 14h95q77 0 105.5 -36t28.5 -119v-848zM898 224q27 -75 48 -108.5t48 -53.5q-28 -31 -73.5 -53.5t-92.5 -22.5q-61 0 -90 30t-53 95l-72 187q-27 72 -58.5 96t-89.5 24q-35 0 -65.5 -2.5t-65.5 -6.5l-75 -8v175h286
q108 0 180.5 -45t111.5 -148zM742 653q-42 -77 -113 -113t-174 -36h-169v115l152 4q19 0 30 7t21 25l147 246q27 48 61 73t90 25q39 0 70 -0.5t66 -2.5l12 -16z" />
    <glyph glyph-name="Lacute" unicode="&#x139;" horiz-adv-x="1032" 
d="M424 -3h-108q-66 0 -107 40t-41 113v1213l14 14h95q76 0 111.5 -39t35.5 -124v-1217zM983 218q0 -126 -39.5 -173.5t-132.5 -47.5h-495l-134 186q108 18 220 26.5t204 8.5h377zM495 1828q33 -24 66 -81.5t39 -114.5l-454 -182q-28 16 -48 53.5t-25 70.5z" />
    <glyph glyph-name="lacute" unicode="&#x13a;" horiz-adv-x="603" 
d="M530 184q20 -56 20 -122q0 -13 -1 -27.5t-4 -27.5q-39 -6 -90 -11t-98 -5q-112 0 -165 57.5t-53 176.5v1233l13 13h95q76 0 105.5 -35.5t29.5 -118.5v-1042q0 -45 19.5 -68t62.5 -23h66zM385 1969q50 -15 97.5 -59t64.5 -94l-353 -271q-32 9 -62 36.5t-44 61.5z" />
    <glyph glyph-name="uni013B" unicode="&#x13b;" horiz-adv-x="1032" 
d="M424 -3h-108q-66 0 -107 40t-41 113v1213l14 14h95q76 0 111.5 -39t35.5 -124v-1217zM983 218q0 -126 -39.5 -173.5t-132.5 -47.5h-495l-134 186q108 18 220 26.5t204 8.5h377zM689 -123q8 -18 14 -49.5t6 -60.5q0 -110 -73 -194.5t-197 -127.5q-31 10 -51.5 39t-27.5 65
q126 78 126 195q0 27 -7 54t-19 51q59 42 146 42q43 0 83 -14z" />
    <glyph glyph-name="uni013C" unicode="&#x13c;" horiz-adv-x="603" 
d="M530 184q20 -56 20 -122q0 -13 -1 -27.5t-4 -27.5q-39 -6 -90 -11t-98 -5q-112 0 -165 57.5t-53 176.5v1233l13 13h95q76 0 105.5 -35.5t29.5 -118.5v-1042q0 -45 19.5 -68t62.5 -23h66zM463 -123q8 -18 14 -49.5t6 -60.5q0 -110 -73 -194.5t-197 -127.5q-31 10 -51.5 39
t-27.5 65q126 78 126 195q0 27 -7 54t-19 51q59 42 146 42q43 0 83 -14z" />
    <glyph glyph-name="Lcaron" unicode="&#x13d;" horiz-adv-x="1032" 
d="M424 -3h-108q-66 0 -107 40t-41 113v1213l14 14h95q76 0 111.5 -39t35.5 -124v-1217zM983 218q0 -126 -39.5 -173.5t-132.5 -47.5h-495l-134 186q108 18 220 26.5t204 8.5h377zM630 1395q30 8 69 8q38 0 73 -9.5t62 -27.5l-78 -374q-23 -9 -58 -9q-23 0 -46.5 4.5
t-37.5 13.5z" />
    <glyph glyph-name="lcaron" unicode="&#x13e;" horiz-adv-x="677" 
d="M508 1513q30 8 69 8q38 0 73 -9.5t62 -27.5l-78 -374q-22 -9 -57 -9q-24 0 -47.5 4.5t-37.5 13.5zM530 184q20 -56 20 -122q0 -13 -1 -27.5t-4 -27.5q-39 -6 -90 -11t-98 -5q-112 0 -165 57.5t-53 176.5v1233l13 13h95q76 0 105.5 -35.5t29.5 -118.5v-1042
q0 -45 19.5 -68t62.5 -23h66z" />
    <glyph glyph-name="Ldot" unicode="&#x13f;" horiz-adv-x="1032" 
d="M424 -3h-108q-66 0 -107 40t-41 113v1213l14 14h95q76 0 111.5 -39t35.5 -124v-1217zM983 218q0 -126 -39.5 -173.5t-132.5 -47.5h-495l-134 186q108 18 220 26.5t204 8.5h377zM678 725q0 22 4 52.5t14 51.5q21 14 53 21t63 7t63 -7t53 -21q9 -21 14 -51.5t5 -52.5
q0 -20 -5 -51t-14 -51q-21 -15 -53 -23t-63 -8t-63 8t-53 23q-10 20 -14 51t-4 51z" />
    <glyph glyph-name="ldot" unicode="&#x140;" horiz-adv-x="603" 
d="M530 184q20 -56 20 -122q0 -13 -1 -27.5t-4 -27.5q-39 -6 -90 -11t-98 -5q-112 0 -165 57.5t-53 176.5v1233l13 13h95q76 0 105.5 -35.5t29.5 -118.5v-1042q0 -45 19.5 -68t62.5 -23h66zM504 726q0 21 4 51.5t13 51.5q21 14 53.5 21.5t63.5 7.5t62.5 -7.5t52.5 -21.5
q10 -21 14.5 -51.5t4.5 -51.5t-4.5 -51.5t-14.5 -51.5q-21 -15 -52.5 -22.5t-62.5 -7.5t-63.5 7.5t-53.5 22.5q-9 21 -13 51.5t-4 51.5z" />
    <glyph glyph-name="Lslash" unicode="&#x141;" horiz-adv-x="1048" 
d="M400 617l-162 -44l-192 -69l-18 10q-11 36 -12 89.5t8 100.5l214 73l162 44l375 130l18 -10q12 -36 13 -89.5t-8 -100.5zM440 -3h-107q-67 0 -107.5 40t-40.5 113v1213l13 14h95q76 0 111.5 -39t35.5 -124v-1217zM1000 218q0 -126 -40 -173.5t-134 -47.5h-493l-134 186
q108 18 219.5 26.5t203.5 8.5h378z" />
    <glyph glyph-name="lslash" unicode="&#x142;" horiz-adv-x="693" 
d="M69 508l-18 9q-12 36 -13 85.5t8 96.5l556 283l18 -10q12 -36 12.5 -85t-8.5 -97zM596 184q21 -56 21 -122q0 -13 -1 -27.5t-5 -27.5q-38 -6 -89.5 -11t-98.5 -5q-112 0 -164.5 57.5t-52.5 176.5v1233l14 13h93q76 0 105 -35.5t29 -118.5v-1042q0 -91 83 -91h66z" />
    <glyph glyph-name="Nacute" unicode="&#x143;" horiz-adv-x="1372" 
d="M170 1363q30 6 77.5 9t73.5 3q28 0 69.5 -1.5t80.5 -7.5l-65 -294l-19 -4q6 -76 10.5 -170.5t7 -189.5t2.5 -173v-535q-31 -6 -61.5 -7.5t-55.5 -1.5q-23 0 -56.5 1.5t-63.5 7.5v1363zM516 790q-36 76 -66 147.5t-56 132.5l-118 140l195 156l378 -789q38 -82 71 -159
t60 -136l127 -137l-209 -145zM1203 1364v-1361q-31 -6 -77.5 -9t-76.5 -3q-31 0 -71 1.5t-80 7.5l69 280l19 5q-6 85 -10.5 183.5t-6.5 191.5t-2 162v398q0 85 32 121t108 36h82zM894 1834q33 -24 66 -81.5t39 -114.5l-454 -182q-28 16 -48 53.5t-25 70.5z" />
    <glyph glyph-name="nacute" unicode="&#x144;" horiz-adv-x="1092" 
d="M249 1003q74 0 107.5 -48t33.5 -131v-824q-53 -9 -123 -9t-126 9v989l14 14h94zM958 227q0 -55 9 -103.5t31 -84.5q-28 -23 -69 -38t-87 -15q-74 0 -103.5 40t-29.5 115v477q0 87 -22.5 127.5t-86.5 40.5q-42 0 -93.5 -21t-98.5 -62.5t-79 -103.5v228q68 74 159.5 128.5
t198.5 54.5q93 0 153 -44.5t89 -121t29 -173.5v-444zM691 1502q50 -15 97.5 -59t64.5 -94l-353 -271q-32 9 -62 36.5t-44 61.5z" />
    <glyph glyph-name="uni0145" unicode="&#x145;" horiz-adv-x="1372" 
d="M170 1363q30 6 77.5 9t73.5 3q28 0 69.5 -1.5t80.5 -7.5l-65 -294l-19 -4q6 -76 10.5 -170.5t7 -189.5t2.5 -173v-535q-31 -6 -61.5 -7.5t-55.5 -1.5q-23 0 -56.5 1.5t-63.5 7.5v1363zM516 790q-36 76 -66 147.5t-56 132.5l-118 140l195 156l378 -789q38 -82 71 -159
t60 -136l127 -137l-209 -145zM1203 1364v-1361q-31 -6 -77.5 -9t-76.5 -3q-31 0 -71 1.5t-80 7.5l69 280l19 5q-6 85 -10.5 183.5t-6.5 191.5t-2 162v398q0 85 32 121t108 36h82zM803 -123q8 -18 14 -49.5t6 -60.5q0 -110 -73 -194.5t-197 -127.5q-31 10 -51.5 39t-27.5 65
q126 78 126 195q0 27 -7 54t-19 51q59 42 146 42q43 0 83 -14z" />
    <glyph glyph-name="uni0146" unicode="&#x146;" horiz-adv-x="1092" 
d="M249 1003q74 0 107.5 -48t33.5 -131v-824q-53 -9 -123 -9t-126 9v989l14 14h94zM958 227q0 -55 9 -103.5t31 -84.5q-28 -23 -69 -38t-87 -15q-74 0 -103.5 40t-29.5 115v477q0 87 -22.5 127.5t-86.5 40.5q-42 0 -93.5 -21t-98.5 -62.5t-79 -103.5v228q68 74 159.5 128.5
t198.5 54.5q93 0 153 -44.5t89 -121t29 -173.5v-444zM675 -123q8 -18 14 -49.5t6 -60.5q0 -110 -73 -194.5t-197 -127.5q-31 10 -51.5 39t-27.5 65q126 78 126 195q0 27 -7 54t-19 51q59 42 146 42q43 0 83 -14z" />
    <glyph glyph-name="Ncaron" unicode="&#x147;" horiz-adv-x="1372" 
d="M170 1363q30 6 77.5 9t73.5 3q28 0 69.5 -1.5t80.5 -7.5l-65 -294l-19 -4q6 -76 10.5 -170.5t7 -189.5t2.5 -173v-535q-31 -6 -61.5 -7.5t-55.5 -1.5q-23 0 -56.5 1.5t-63.5 7.5v1363zM516 790q-36 76 -66 147.5t-56 132.5l-118 140l195 156l378 -789q38 -82 71 -159
t60 -136l127 -137l-209 -145zM1203 1364v-1361q-31 -6 -77.5 -9t-76.5 -3q-31 0 -71 1.5t-80 7.5l69 280l19 5q-6 85 -10.5 183.5t-6.5 191.5t-2 162v398q0 85 32 121t108 36h82zM921 1806q27 -10 59.5 -38t44.5 -67l-225 -216q-22 -4 -50 -7t-57 -3t-56.5 3t-50.5 7
l-225 216q12 39 44.5 67t59.5 38l228 -149z" />
    <glyph glyph-name="ncaron" unicode="&#x148;" horiz-adv-x="1092" 
d="M249 1003q74 0 107.5 -48t33.5 -131v-824q-53 -9 -123 -9t-126 9v989l14 14h94zM958 227q0 -55 9 -103.5t31 -84.5q-28 -23 -69 -38t-87 -15q-74 0 -103.5 40t-29.5 115v477q0 87 -22.5 127.5t-86.5 40.5q-42 0 -93.5 -21t-98.5 -62.5t-79 -103.5v228q68 74 159.5 128.5
t198.5 54.5q93 0 153 -44.5t89 -121t29 -173.5v-444zM451 1116l-190 251q16 39 51 67.5t62 37.5l185 -179l185 179q28 -9 63 -37.5t51 -67.5l-191 -251q-47 -13 -108 -13q-59 0 -108 13z" />
    <glyph glyph-name="napostrophe" unicode="&#x149;" horiz-adv-x="1127" 
d="M283 1003q75 0 108.5 -48t33.5 -131v-824q-25 -4 -58.5 -6.5t-65.5 -2.5q-69 0 -124 9v989l13 14h93zM993 227q0 -55 8.5 -103.5t30.5 -84.5q-26 -23 -67.5 -38t-87.5 -15q-74 0 -103 40t-29 115v477q0 87 -22.5 127.5t-87.5 40.5q-42 0 -93.5 -21t-99 -62.5
t-79.5 -103.5v228q69 74 160 128.5t199 54.5q93 0 152.5 -44.5t89 -121t29.5 -173.5v-444zM294 1479q12 -30 16 -60.5t4 -62.5q0 -113 -65 -204t-196 -132q-30 14 -43.5 45t-10.5 61q27 11 57.5 30.5t52.5 48t24 65.5q-20 4 -41 8.5t-34 11.5q-7 16 -12.5 43t-5.5 49
q0 24 5.5 53.5t12.5 43.5q22 12 55 19t64 7q30 0 64 -7t53 -19z" />
    <glyph glyph-name="Eng" unicode="&#x14a;" horiz-adv-x="1372" 
d="M672 -217q71 -32 135 -32q87 0 129 60t42 169v59h225v-36q0 -136 -40 -237.5t-126 -157.5t-223 -56q-42 0 -105 13t-110 37q6 50 24.5 95t48.5 86zM170 1363q30 6 77.5 9t73.5 3q28 0 69.5 -1.5t80.5 -7.5l-65 -294l-19 -4q6 -76 10.5 -170.5t7 -189.5t2.5 -173v-535
q-31 -6 -61.5 -7.5t-55.5 -1.5q-24 0 -57.5 1.5t-62.5 7.5v1363zM516 790q-36 76 -66 147.5t-56 132.5l-123 143l200 153l378 -789q38 -82 71 -159t60 -136l98 -106l-180 -176zM1203 1364v-1361q-31 -6 -79 -9t-75 -3q-28 0 -69.5 1.5t-81.5 7.5l69 280l19 5
q-6 85 -10.5 183.5t-6.5 191.5t-2 162v398q0 85 32 121t108 36h82z" />
    <glyph glyph-name="eng" unicode="&#x14b;" horiz-adv-x="1089" 
d="M249 1003q74 0 107.5 -48t33.5 -131v-824q-53 -9 -123 -9t-126 9v989l14 14h94zM954 1q0 -135 -27.5 -222t-98.5 -138.5t-200 -79.5q-26 22 -46 64.5t-24 87.5q85 40 118 90t33 156v659q0 87 -22.5 127.5t-86.5 40.5q-42 0 -93.5 -21t-98.5 -62.5t-79 -103.5v228
q68 74 159.5 128.5t198.5 54.5q93 0 152 -44.5t87 -121t28 -173.5v-670z" />
    <glyph glyph-name="Omacron" unicode="&#x14c;" horiz-adv-x="1323" 
d="M355 684q0 -86 12 -176t44 -166t92.5 -122.5t157.5 -46.5t157.5 46.5t92.5 122.5t43.5 166t11.5 176t-11.5 175.5t-43.5 165t-92.5 122t-157.5 46.5t-157.5 -46.5t-92.5 -122t-44 -165t-12 -175.5zM88 684q0 207 62.5 367t189.5 251t321 91q196 0 323 -91.5t188.5 -252
t61.5 -365.5q0 -207 -62 -367.5t-189 -252t-322 -91.5q-147 0 -255 52.5t-178.5 148.5t-105 226t-34.5 284zM354 1512q-6 24 -8.5 45t-2.5 49q0 26 2.5 47.5t8.5 47.5h615q6 -26 8 -45.5t2 -47.5q0 -54 -10 -96h-615z" />
    <glyph glyph-name="omacron" unicode="&#x14d;" horiz-adv-x="1041" 
d="M964 496q0 -156 -50 -274t-149 -183.5t-245 -65.5t-244.5 66t-148.5 184t-50 273q0 156 50.5 273.5t149 183.5t243.5 66q147 0 246 -66.5t148.5 -184t49.5 -272.5zM333 496q0 -89 15 -165.5t56 -123t117 -46.5q77 0 117 46.5t55.5 123t15.5 165.5q0 88 -15.5 165
t-55.5 124t-117 47q-76 0 -117 -47t-56 -124t-15 -165zM229 1148q-6 24 -8.5 45t-2.5 48t2.5 48.5t8.5 46.5h583q6 -25 8 -44.5t2 -47.5q0 -54 -10 -96h-583z" />
    <glyph glyph-name="Obreve" unicode="&#x14e;" horiz-adv-x="1323" 
d="M355 684q0 -86 12 -176t44 -166t92.5 -122.5t157.5 -46.5t157.5 46.5t92.5 122.5t43.5 166t11.5 176t-11.5 175.5t-43.5 165t-92.5 122t-157.5 46.5t-157.5 -46.5t-92.5 -122t-44 -165t-12 -175.5zM88 684q0 207 62.5 367t189.5 251t321 91q196 0 323 -91.5t188.5 -252
t61.5 -365.5q0 -207 -62 -367.5t-189 -252t-322 -91.5q-147 0 -255 52.5t-178.5 148.5t-105 226t-34.5 284zM1008 1731q-30 -111 -123.5 -183.5t-223.5 -72.5t-223 72.5t-124 183.5q24 28 62.5 42.5t77.5 13.5q27 -59 82.5 -92.5t124.5 -33.5q70 0 125 33.5t82 92.5
q40 1 78.5 -13.5t61.5 -42.5z" />
    <glyph glyph-name="obreve" unicode="&#x14f;" horiz-adv-x="1041" 
d="M964 496q0 -156 -50 -274t-149 -183.5t-245 -65.5t-244.5 66t-148.5 184t-50 273q0 156 50.5 273.5t149 183.5t243.5 66q147 0 246 -66.5t148.5 -184t49.5 -272.5zM333 496q0 -89 15 -165.5t56 -123t117 -46.5q77 0 117 46.5t55.5 123t15.5 165.5q0 88 -15.5 165
t-55.5 124t-117 47q-76 0 -117 -47t-56 -124t-15 -165zM847 1366q-28 -115 -115 -188.5t-212 -73.5t-212 73.5t-115 188.5q22 27 58.5 41.5t74.5 12.5q24 -59 75 -92.5t119 -33.5t119 33.5t75 92.5q38 2 75 -12.5t58 -41.5z" />
    <glyph glyph-name="Ohungarumlaut" unicode="&#x150;" horiz-adv-x="1323" 
d="M355 684q0 -86 12 -176t44 -166t92.5 -122.5t157.5 -46.5t157.5 46.5t92.5 122.5t43.5 166t11.5 176t-11.5 175.5t-43.5 165t-92.5 122t-157.5 46.5t-157.5 -46.5t-92.5 -122t-44 -165t-12 -175.5zM88 684q0 207 62.5 367t189.5 251t321 91q196 0 323 -91.5t188.5 -252
t61.5 -365.5q0 -207 -62 -367.5t-189 -252t-322 -91.5q-147 0 -255 52.5t-178.5 148.5t-105 226t-34.5 284zM968 1837q60 -15 101.5 -56.5t60.5 -91.5l-337 -235q-28 12 -55.5 40.5t-35.5 59.5zM586 1837q59 -15 100.5 -56.5t59.5 -91.5l-336 -235q-29 12 -56 41t-36 59z
" />
    <glyph glyph-name="ohungarumlaut" unicode="&#x151;" horiz-adv-x="1041" 
d="M964 496q0 -156 -50 -274t-149 -183.5t-245 -65.5t-244.5 66t-148.5 184t-50 273q0 156 50.5 273.5t149 183.5t243.5 66q147 0 246 -66.5t148.5 -184t49.5 -272.5zM333 496q0 -89 15 -165.5t56 -123t117 -46.5q77 0 117 46.5t55.5 123t15.5 165.5q0 88 -15.5 165
t-55.5 124t-117 47q-76 0 -117 -47t-56 -124t-15 -165zM747 1504q66 2 118 -29t84 -74l-269 -312q-30 5 -63.5 26.5t-49.5 50.5zM406 1505q66 5 119 -22.5t88 -67.5l-248 -326q-31 3 -65.5 22t-51.5 47z" />
    <glyph glyph-name="OE" unicode="&#x152;" horiz-adv-x="1809" 
d="M1017 11q-43 -7 -102 -15.5t-124 -15.5t-127 -7q-197 0 -324.5 92.5t-189.5 253.5t-62 365q0 206 63 366t191 251.5t322 91.5q62 0 127 -7t124 -17t102 -16v-244q-39 18 -97.5 37.5t-125 33t-130.5 13.5q-98 0 -159.5 -46.5t-94.5 -122t-46 -165t-13 -175.5t13 -176
t46 -166t94.5 -122.5t159.5 -46.5q64 0 130.5 13.5t125 33t97.5 37.5v-246zM856 1366h245v-210q0 -42 1 -71t1 -70v-687q0 -32 -1 -59t-1 -59v-212h-245v1368zM1581 793q7 -24 10 -53.5t3 -50.5q0 -22 -3 -51t-10 -54h-349q-23 0 -62.5 0.5t-81 1t-73.5 0.5v205
q32 0 73.5 0.5t81 1t62.5 0.5h349zM1693 1366q6 -28 7.5 -53.5t1.5 -47.5q0 -21 -5 -53t-16 -61h-449q-23 0 -62.5 0.5t-80.5 1t-72 1.5v212h676zM1737 213q0 -124 -40 -169.5t-129 -45.5h-551v206q55 3 106 6t118 3h496z" />
    <glyph glyph-name="oe" unicode="&#x153;" horiz-adv-x="1640" 
d="M939 496q0 -102 -21 -195.5t-69.5 -167.5t-129 -117t-199.5 -43q-89 0 -165.5 27.5t-135.5 84.5q-79 80 -110.5 182t-31.5 229t31.5 229.5t110.5 180.5q59 58 135.5 85.5t165.5 27.5q153 0 245 -70.5t133 -189.5t41 -263zM333 496q0 -88 15 -165t56 -123.5t117 -46.5
q77 0 117 46.5t55.5 123.5t15.5 165t-15.5 165t-55.5 124t-117 47q-76 0 -117 -47t-56 -124t-15 -165zM881 416v176h438v23q0 62 -16.5 112.5t-53 81t-98.5 30.5q-92 0 -133 -76t-41 -219v-72q0 -84 16 -153t61 -110t133 -41q72 0 139 20.5t129 49.5q30 -28 48.5 -71.5
t23.5 -79.5q-74 -53 -174.5 -83.5t-205.5 -30.5q-124 0 -202 43t-121 116.5t-59.5 167t-16.5 193.5q0 149 39.5 268t128.5 188.5t235 69.5q131 0 220.5 -56.5t136 -153t46.5 -216.5q0 -55 -4.5 -93.5t-15.5 -83.5h-653z" />
    <glyph glyph-name="Racute" unicode="&#x154;" horiz-adv-x="1212" 
d="M1100 956q0 -94 -35 -168t-92.5 -124t-124.5 -73q53 -18 89 -66t58 -110l77 -208q20 -55 42.5 -88.5t50.5 -56.5q-24 -35 -72.5 -56t-97.5 -21q-71 0 -103.5 38t-59.5 113l-89 246q-21 62 -60.5 105t-127.5 43h-236v196q42 2 99.5 3.5t111 3t85.5 1.5q90 0 138 32.5
t66 83.5t18 106q0 58 -18 108t-66 82t-138 32h-58t-67.5 0.5t-66.5 1.5v-1180q-31 -6 -65 -7.5t-62 -1.5q-26 0 -61 1.5t-65 7.5v1355l13 13q119 3 231 5t219 2q139 0 244 -46t164 -139.5t59 -233.5zM800 1834q33 -24 66 -81.5t39 -114.5l-454 -182q-28 16 -48 53.5
t-25 70.5z" />
    <glyph glyph-name="racute" unicode="&#x155;" horiz-adv-x="759" 
d="M752 992q0 -47 -14.5 -114.5t-46.5 -118.5q-22 7 -44.5 9t-45.5 5q-50 0 -88 -20.5t-66.5 -54t-50 -77t-38.5 -89.5l-32 41q4 75 20.5 151.5t51.5 140.5t93 102.5t145 38.5q34 0 61 -3.5t55 -10.5zM84 877q8 33 32.5 72t50.5 58q115 -18 172.5 -101.5t67.5 -215.5v-690
q-54 -9 -124 -9q-69 0 -124 9v670q0 84 -24.5 134.5t-50.5 72.5zM541 1502q50 -15 97.5 -59t64.5 -94l-353 -271q-32 9 -62 36.5t-44 61.5z" />
    <glyph glyph-name="uni0156" unicode="&#x156;" horiz-adv-x="1212" 
d="M1100 956q0 -94 -35 -168t-92.5 -124t-124.5 -73q53 -18 89 -66t58 -110l77 -208q20 -55 42.5 -88.5t50.5 -56.5q-24 -35 -72.5 -56t-97.5 -21q-71 0 -103.5 38t-59.5 113l-89 246q-21 62 -60.5 105t-127.5 43h-236v196q42 2 99.5 3.5t111 3t85.5 1.5q90 0 138 32.5
t66 83.5t18 106q0 58 -18 108t-66 82t-138 32h-58t-67.5 0.5t-66.5 1.5v-1180q-31 -6 -65 -7.5t-62 -1.5q-26 0 -61 1.5t-65 7.5v1355l13 13q119 3 231 5t219 2q139 0 244 -46t164 -139.5t59 -233.5zM750 -123q8 -18 14 -49.5t6 -60.5q0 -110 -73 -194.5t-197 -127.5
q-31 10 -51.5 39t-27.5 65q126 78 126 195q0 27 -7 54t-19 51q59 42 146 42q43 0 83 -14z" />
    <glyph glyph-name="uni0157" unicode="&#x157;" horiz-adv-x="759" 
d="M752 992q0 -47 -14.5 -114.5t-46.5 -118.5q-22 7 -44.5 9t-45.5 5q-50 0 -88 -20.5t-66.5 -54t-50 -77t-38.5 -89.5l-32 41q4 75 20.5 151.5t51.5 140.5t93 102.5t145 38.5q34 0 61 -3.5t55 -10.5zM84 877q8 33 32.5 72t50.5 58q115 -18 172.5 -101.5t67.5 -215.5v-690
q-54 -9 -124 -9q-69 0 -124 9v670q0 84 -24.5 134.5t-50.5 72.5zM399 -123q8 -18 14 -49.5t6 -60.5q0 -110 -73 -194.5t-197 -127.5q-31 10 -51.5 39t-27.5 65q126 78 126 195q0 27 -7 54t-19 51q59 42 146 42q43 0 83 -14z" />
    <glyph glyph-name="Rcaron" unicode="&#x158;" horiz-adv-x="1212" 
d="M1100 956q0 -94 -35 -168t-92.5 -124t-124.5 -73q53 -18 89 -66t58 -110l77 -208q20 -55 42.5 -88.5t50.5 -56.5q-24 -35 -72.5 -56t-97.5 -21q-71 0 -103.5 38t-59.5 113l-89 246q-21 62 -60.5 105t-127.5 43h-236v196q42 2 99.5 3.5t111 3t85.5 1.5q90 0 138 32.5
t66 83.5t18 106q0 58 -18 108t-66 82t-138 32h-58t-67.5 0.5t-66.5 1.5v-1180q-31 -6 -65 -7.5t-62 -1.5q-26 0 -61 1.5t-65 7.5v1355l13 13q119 3 231 5t219 2q139 0 244 -46t164 -139.5t59 -233.5zM827 1806q27 -10 59.5 -38t44.5 -67l-225 -216q-22 -4 -50 -7t-57 -3
t-56.5 3t-50.5 7l-225 216q12 39 44.5 67t59.5 38l228 -149z" />
    <glyph glyph-name="rcaron" unicode="&#x159;" horiz-adv-x="759" 
d="M752 992q0 -47 -14.5 -114.5t-46.5 -118.5q-22 7 -44.5 9t-45.5 5q-50 0 -88 -20.5t-66.5 -54t-50 -77t-38.5 -89.5l-32 41q4 75 20.5 151.5t51.5 140.5t93 102.5t145 38.5q34 0 61 -3.5t55 -10.5zM84 877q8 33 32.5 72t50.5 58q115 -18 172.5 -101.5t67.5 -215.5v-690
q-54 -9 -124 -9q-69 0 -124 9v670q0 84 -24.5 134.5t-50.5 72.5zM301 1116l-190 251q16 39 51 67.5t62 37.5l185 -179l185 179q28 -9 63 -37.5t51 -67.5l-191 -251q-47 -13 -108 -13q-59 0 -108 13z" />
    <glyph glyph-name="Sacute" unicode="&#x15a;" horiz-adv-x="1112" 
d="M48 121q5 55 35.5 108.5t67.5 85.5q87 -54 193.5 -93.5t210.5 -39.5q108 0 163.5 48.5t55.5 117.5q0 56 -37 104.5t-123 84.5l-242 101q-125 53 -202 137.5t-77 218.5q0 116 60 206t165.5 141.5t239.5 51.5q132 0 248.5 -33.5t194.5 -73.5q-3 -55 -27.5 -108t-62.5 -87
q-78 38 -175 66.5t-175 28.5q-101 0 -154 -48t-53 -112q0 -55 38 -92t109 -67l241 -101q90 -37 157.5 -92.5t105 -128t37.5 -161.5q0 -117 -55 -210t-167 -147t-281 -54q-124 0 -255 39t-236 109zM766 1834q33 -24 66 -81.5t39 -114.5l-454 -182q-28 16 -48 53.5t-25 70.5z
" />
    <glyph glyph-name="sacute" unicode="&#x15b;" horiz-adv-x="880" 
d="M53 71q2 42 24 92.5t52 78.5q64 -34 135.5 -60t143.5 -26t112.5 29t41.5 74q0 37 -27.5 67t-84.5 51l-114 42q-69 25 -126.5 63.5t-92 94t-34.5 133.5q0 95 47 164.5t130 107t191 37.5q86 0 183 -23t159 -54q2 -44 -18 -98t-52 -79q-56 25 -127.5 47t-144.5 22
q-55 0 -87.5 -26.5t-32.5 -68.5q0 -36 26 -59.5t80 -43.5l123 -46q113 -40 186 -114t73 -194q0 -144 -110.5 -226.5t-297.5 -82.5q-106 0 -198.5 29t-159.5 69zM572 1502q50 -15 97.5 -59t64.5 -94l-353 -271q-32 9 -62 36.5t-44 61.5z" />
    <glyph glyph-name="Scircumflex" unicode="&#x15c;" horiz-adv-x="1112" 
d="M48 121q5 55 35.5 108.5t67.5 85.5q87 -54 193.5 -93.5t210.5 -39.5q108 0 163.5 48.5t55.5 117.5q0 56 -37 104.5t-123 84.5l-242 101q-125 53 -202 137.5t-77 218.5q0 116 60 206t165.5 141.5t239.5 51.5q132 0 248.5 -33.5t194.5 -73.5q-3 -55 -27.5 -108t-62.5 -87
q-78 38 -175 66.5t-175 28.5q-101 0 -154 -48t-53 -112q0 -55 38 -92t109 -67l241 -101q90 -37 157.5 -92.5t105 -128t37.5 -161.5q0 -117 -55 -210t-167 -147t-281 -54q-124 0 -255 39t-236 109zM669 1794l226 -216q-13 -40 -45.5 -68t-58.5 -37l-229 148l-228 -148
q-26 9 -59 37t-45 68l225 216q47 9 107 9q61 0 107 -9z" />
    <glyph glyph-name="scircumflex" unicode="&#x15d;" horiz-adv-x="880" 
d="M53 71q2 42 24 92.5t52 78.5q64 -34 135.5 -60t143.5 -26t112.5 29t41.5 74q0 37 -27.5 67t-84.5 51l-114 42q-69 25 -126.5 63.5t-92 94t-34.5 133.5q0 95 47 164.5t130 107t191 37.5q86 0 183 -23t159 -54q2 -44 -18 -98t-52 -79q-56 25 -127.5 47t-144.5 22
q-55 0 -87.5 -26.5t-32.5 -68.5q0 -36 26 -59.5t80 -43.5l123 -46q113 -40 186 -114t73 -194q0 -144 -110.5 -226.5t-297.5 -82.5q-106 0 -198.5 29t-159.5 69zM554 1452l191 -250q-17 -40 -52 -68t-62 -38l-185 179l-186 -179q-27 10 -61.5 38t-51.5 68l190 250
q47 14 109 14t108 -14z" />
    <glyph glyph-name="Scedilla" unicode="&#x15e;" horiz-adv-x="1112" 
d="M48 121q5 55 35.5 108.5t67.5 85.5q87 -54 193.5 -93.5t210.5 -39.5q108 0 163.5 48.5t55.5 117.5q0 56 -37 104.5t-123 84.5l-242 101q-125 53 -202 137.5t-77 218.5q0 116 60 206t165.5 141.5t239.5 51.5q132 0 248.5 -33.5t194.5 -73.5q-3 -55 -27.5 -108t-62.5 -87
q-78 38 -175 66.5t-175 28.5q-101 0 -154 -48t-53 -112q0 -55 38 -92t109 -67l241 -101q90 -37 157.5 -92.5t105 -128t37.5 -161.5q0 -117 -55 -210t-167 -147t-281 -54q-124 0 -255 39t-236 109zM406 -151q11 33 33.5 82.5t40.5 80.5h142q-11 -14 -24 -39.5t-21 -42.5
q79 -7 131 -55t52 -121q0 -91 -72 -149t-183 -58q-48 0 -93 12.5t-70 30.5q2 30 13.5 61.5t31.5 54.5q18 -11 44 -19t53 -8q41 0 62 20t21 49q0 30 -20.5 50.5t-57.5 20.5q-12 0 -23 -2.5t-21 -7.5q-29 13 -39 40z" />
    <glyph glyph-name="scedilla" unicode="&#x15f;" horiz-adv-x="880" 
d="M53 71q2 42 24 92.5t52 78.5q64 -34 135.5 -60t143.5 -26t112.5 29t41.5 74q0 37 -27.5 67t-84.5 51l-114 42q-69 25 -126.5 63.5t-92 94t-34.5 133.5q0 95 47 164.5t130 107t191 37.5q86 0 183 -23t159 -54q2 -44 -18 -98t-52 -79q-56 25 -127.5 47t-144.5 22
q-55 0 -87.5 -26.5t-32.5 -68.5q0 -36 26 -59.5t80 -43.5l123 -46q113 -40 186 -114t73 -194q0 -144 -110.5 -226.5t-297.5 -82.5q-106 0 -198.5 29t-159.5 69zM304 -151q11 33 33.5 82.5t40.5 80.5h142q-11 -14 -24 -39.5t-21 -42.5q79 -7 131 -55t52 -121q0 -91 -72 -149
t-183 -58q-48 0 -93 12.5t-70 30.5q2 30 13.5 61.5t31.5 54.5q18 -11 44 -19t53 -8q41 0 62 20t21 49q0 30 -20.5 50.5t-57.5 20.5q-12 0 -23 -2.5t-21 -7.5q-29 13 -39 40z" />
    <glyph glyph-name="Scaron" unicode="&#x160;" horiz-adv-x="1112" 
d="M48 121q5 55 35.5 108.5t67.5 85.5q87 -54 193.5 -93.5t210.5 -39.5q108 0 163.5 48.5t55.5 117.5q0 56 -37 104.5t-123 84.5l-242 101q-125 53 -202 137.5t-77 218.5q0 116 60 206t165.5 141.5t239.5 51.5q132 0 248.5 -33.5t194.5 -73.5q-3 -55 -27.5 -108t-62.5 -87
q-78 38 -175 66.5t-175 28.5q-101 0 -154 -48t-53 -112q0 -55 38 -92t109 -67l241 -101q90 -37 157.5 -92.5t105 -128t37.5 -161.5q0 -117 -55 -210t-167 -147t-281 -54q-124 0 -255 39t-236 109zM793 1806q27 -10 59.5 -38t44.5 -67l-225 -216q-22 -4 -50 -7t-57 -3
t-56.5 3t-50.5 7l-225 216q12 39 44.5 67t59.5 38l228 -149z" />
    <glyph glyph-name="scaron" unicode="&#x161;" horiz-adv-x="880" 
d="M53 71q2 42 24 92.5t52 78.5q64 -34 135.5 -60t143.5 -26t112.5 29t41.5 74q0 37 -27.5 67t-84.5 51l-114 42q-69 25 -126.5 63.5t-92 94t-34.5 133.5q0 95 47 164.5t130 107t191 37.5q86 0 183 -23t159 -54q2 -44 -18 -98t-52 -79q-56 25 -127.5 47t-144.5 22
q-55 0 -87.5 -26.5t-32.5 -68.5q0 -36 26 -59.5t80 -43.5l123 -46q113 -40 186 -114t73 -194q0 -144 -110.5 -226.5t-297.5 -82.5q-106 0 -198.5 29t-159.5 69zM332 1116l-190 251q16 39 51 67.5t62 37.5l185 -179l185 179q28 -9 63 -37.5t51 -67.5l-191 -251
q-47 -13 -108 -13q-59 0 -108 13z" />
    <glyph glyph-name="uni0162" unicode="&#x162;" horiz-adv-x="998" 
d="M28 1152q-5 28 -7.5 56t-2.5 50q0 23 2.5 51.5t7.5 56.5h948q13 -45 13 -99q0 -63 -33.5 -89t-104.5 -26h-102q-21 0 -60 1t-60 1h-256q-21 0 -59.5 -1t-60.5 -1h-225zM373 1006q0 41 0.5 73.5t0.5 74.5v106h253v-106q0 -42 1 -74.5t1 -73.5v-1006q-32 -6 -66 -7.5
t-62 -1.5q-27 0 -61.5 1.5t-66.5 7.5v1006zM367 -151q11 33 33.5 82.5t40.5 80.5h142q-11 -14 -24 -39.5t-21 -42.5q79 -7 131 -55t52 -121q0 -91 -72 -149t-183 -58q-48 0 -93 12.5t-70 30.5q2 30 13.5 61.5t31.5 54.5q18 -11 44 -19t53 -8q41 0 62 20t21 49
q0 30 -20.5 50.5t-57.5 20.5q-12 0 -23 -2.5t-21 -7.5q-29 13 -39 40z" />
    <glyph glyph-name="uni0163" unicode="&#x163;" horiz-adv-x="720" 
d="M180 1142q0 83 29.5 118.5t105.5 35.5h95l13 -13v-1010q0 -41 19.5 -65t65.5 -24h128q19 -57 19 -122q0 -13 -0.5 -27.5t-4.5 -27.5q-52 -6 -115 -11t-122 -5q-116 0 -174.5 57.5t-58.5 176.5v917zM667 994q11 -46 11 -89q0 -48 -11 -92l-346 6l-291 -6q-11 44 -11 92
q0 43 11 89l296 -6zM273 -151q11 33 33.5 82.5t40.5 80.5h142q-11 -14 -24 -39.5t-21 -42.5q79 -7 131 -55t52 -121q0 -91 -72 -149t-183 -58q-48 0 -93 12.5t-70 30.5q2 30 13.5 61.5t31.5 54.5q18 -11 44 -19t53 -8q41 0 62 20t21 49q0 30 -20.5 50.5t-57.5 20.5
q-12 0 -23 -2.5t-21 -7.5q-29 13 -39 40z" />
    <glyph glyph-name="Tcaron" unicode="&#x164;" horiz-adv-x="998" 
d="M28 1152q-5 28 -7.5 56t-2.5 50q0 23 2.5 51.5t7.5 56.5h948q13 -45 13 -99q0 -63 -33.5 -89t-104.5 -26h-102q-21 0 -60 1t-60 1h-256q-21 0 -59.5 -1t-60.5 -1h-225zM373 1006q0 41 0.5 73.5t0.5 74.5v106h253v-106q0 -42 1 -74.5t1 -73.5v-1006q-32 -6 -66 -7.5
t-62 -1.5q-27 0 -61.5 1.5t-66.5 7.5v1006zM728 1806q27 -10 59.5 -38t44.5 -67l-225 -216q-22 -4 -50 -7t-57 -3t-56.5 3t-50.5 7l-225 216q12 39 44.5 67t59.5 38l228 -149z" />
    <glyph glyph-name="tcaron" unicode="&#x165;" horiz-adv-x="767" 
d="M552 1513q28 8 64 8q41 2 76.5 -7.5t63.5 -29.5l-78 -372q-24 -8 -53 -8q-24 -1 -49.5 4.5t-40.5 13.5zM180 1142q0 83 29.5 118.5t105.5 35.5h95l13 -13v-1010q0 -41 19.5 -65t65.5 -24h128q19 -57 19 -122q0 -13 -0.5 -27.5t-4.5 -27.5q-52 -6 -115 -11t-122 -5
q-116 0 -174.5 57.5t-58.5 176.5v917zM667 994q11 -46 11 -89q0 -48 -11 -92l-346 6l-291 -6q-11 44 -11 92q0 43 11 89l296 -6z" />
    <glyph glyph-name="Tbar" unicode="&#x166;" horiz-adv-x="998" 
d="M130 557q-12 44 -12 95q0 26 3 48.5t9 47.5h741q6 -25 8.5 -45t2.5 -49q0 -51 -11 -97h-741zM27 1152q-5 28 -7 56t-2 50q0 23 2 51.5t7 56.5h948q14 -45 14 -99q0 -63 -33.5 -89t-105.5 -26h-102q-21 0 -59.5 1t-59.5 1h-256q-21 0 -59.5 -1t-60.5 -1h-226zM373 1006
q0 41 0.5 73.5t0.5 74.5v106h253v-106q0 -42 1 -74.5t1 -73.5v-1006q-32 -6 -66.5 -7.5t-61.5 -1.5q-28 0 -62.5 1.5t-65.5 7.5v1006z" />
    <glyph glyph-name="tbar" unicode="&#x167;" horiz-adv-x="759" 
d="M635 632q6 -24 8.5 -41t2.5 -39q0 -24 -2.5 -42.5t-8.5 -40.5l-291 5l-280 -5q-6 22 -8.5 40.5t-2.5 42.5q0 22 2.5 39t8.5 41l285 -5zM192 1142q0 83 29.5 118.5t104.5 35.5h96l13 -13v-1010q0 -41 19.5 -65t65.5 -24h127q21 -56 21 -122q0 -13 -1 -27.5t-5 -27.5
q-51 -6 -114.5 -11t-122.5 -5q-116 0 -174.5 57.5t-58.5 176.5v917zM678 994q7 -24 9 -45.5t2 -43.5q0 -24 -2 -46.5t-9 -45.5l-345 6l-292 -6q-5 23 -7.5 45.5t-2.5 46.5q0 22 2.5 43.5t7.5 45.5l297 -6z" />
    <glyph glyph-name="Utilde" unicode="&#x168;" horiz-adv-x="1341" 
d="M1190 490q0 -168 -62.5 -283t-179.5 -174.5t-278 -59.5t-277 59.5t-178.5 174.5t-62.5 283v873l12 14h96q76 0 111.5 -39t35.5 -124v-726q0 -153 64.5 -232t199.5 -79t199 79t64 232v878q31 6 64.5 7.5t60.5 1.5q26 0 63.5 -1.5t67.5 -7.5v-876zM577 1565
q-16 7 -31.5 12.5t-33.5 5.5q-19 0 -39.5 -12.5t-37.5 -36.5l-20 -28q-37 1 -74 22t-51 54l16 34q33 74 89.5 118t133.5 44q35 0 66.5 -10t57.5 -23l101 -48q17 -8 34.5 -13.5t33.5 -5.5q19 0 39 11.5t38 36.5l20 27q37 0 74.5 -21t50.5 -54l-16 -34q-33 -74 -90 -118
t-133 -44q-35 0 -67.5 10.5t-56.5 22.5z" />
    <glyph glyph-name="utilde" unicode="&#x169;" horiz-adv-x="1095" 
d="M951 282q0 -54 13 -100.5t43 -71.5q-9 -33 -33.5 -70t-51.5 -55q-112 12 -166 92.5t-54 187.5v727q53 9 124 9q69 0 125 -9v-710zM134 765q0 55 -8.5 103.5t-30.5 84.5q27 23 68 38t88 15q73 0 102.5 -40t29.5 -116v-476q0 -87 22.5 -127.5t86.5 -40.5q43 0 94 21t99 63
t79 102v-228q-68 -73 -159.5 -127.5t-199.5 -54.5q-92 0 -152 44.5t-89.5 121.5t-29.5 173v444zM456 1189q-9 6 -26.5 13t-36.5 7q-29 0 -47.5 -18t-28.5 -30l-20 -28q-34 1 -69.5 22t-48.5 54l17 39q31 71 86 114.5t124 43.5q38 0 69.5 -11t50.5 -22l83 -44
q10 -5 27.5 -12.5t36.5 -7.5q28 0 46 17.5t29 31.5l20 28q35 -1 70 -22.5t48 -54.5l-16 -38q-33 -73 -88.5 -115.5t-123.5 -42.5q-34 0 -64.5 10t-54.5 23z" />
    <glyph glyph-name="Umacron" unicode="&#x16a;" horiz-adv-x="1341" 
d="M1190 490q0 -168 -62.5 -283t-179.5 -174.5t-278 -59.5t-277 59.5t-178.5 174.5t-62.5 283v873l12 14h96q76 0 111.5 -39t35.5 -124v-726q0 -153 64.5 -232t199.5 -79t199 79t64 232v878q31 6 64.5 7.5t60.5 1.5q26 0 63.5 -1.5t67.5 -7.5v-876zM360 1512q-6 24 -8.5 45
t-2.5 49q0 26 2.5 47.5t8.5 47.5h615q6 -26 8 -45.5t2 -47.5q0 -54 -10 -96h-615z" />
    <glyph glyph-name="umacron" unicode="&#x16b;" horiz-adv-x="1095" 
d="M951 282q0 -54 13 -100.5t43 -71.5q-9 -33 -33.5 -70t-51.5 -55q-112 12 -166 92.5t-54 187.5v727q53 9 124 9q69 0 125 -9v-710zM134 765q0 55 -8.5 103.5t-30.5 84.5q27 23 68 38t88 15q73 0 102.5 -40t29.5 -116v-476q0 -87 22.5 -127.5t86.5 -40.5q43 0 94 21t99 63
t79 102v-228q-68 -73 -159.5 -127.5t-199.5 -54.5q-92 0 -152 44.5t-89.5 121.5t-29.5 173v444zM242 1148q-6 24 -8.5 45t-2.5 48t2.5 48.5t8.5 46.5h583q6 -25 8 -44.5t2 -47.5q0 -54 -10 -96h-583z" />
    <glyph glyph-name="Ubreve" unicode="&#x16c;" horiz-adv-x="1341" 
d="M1190 490q0 -168 -62.5 -283t-179.5 -174.5t-278 -59.5t-277 59.5t-178.5 174.5t-62.5 283v873l12 14h96q76 0 111.5 -39t35.5 -124v-726q0 -153 64.5 -232t199.5 -79t199 79t64 232v878q31 6 64.5 7.5t60.5 1.5q26 0 63.5 -1.5t67.5 -7.5v-876zM1014 1731
q-30 -111 -123.5 -183.5t-223.5 -72.5t-223 72.5t-124 183.5q24 28 62.5 42.5t77.5 13.5q27 -59 82.5 -92.5t124.5 -33.5q70 0 125 33.5t82 92.5q40 1 78.5 -13.5t61.5 -42.5z" />
    <glyph glyph-name="ubreve" unicode="&#x16d;" horiz-adv-x="1095" 
d="M951 282q0 -54 13 -100.5t43 -71.5q-9 -33 -33.5 -70t-51.5 -55q-112 12 -166 92.5t-54 187.5v727q53 9 124 9q69 0 125 -9v-710zM134 765q0 55 -8.5 103.5t-30.5 84.5q27 23 68 38t88 15q73 0 102.5 -40t29.5 -116v-476q0 -87 22.5 -127.5t86.5 -40.5q43 0 94 21t99 63
t79 102v-228q-68 -73 -159.5 -127.5t-199.5 -54.5q-92 0 -152 44.5t-89.5 121.5t-29.5 173v444zM860 1366q-28 -115 -115 -188.5t-212 -73.5t-212 73.5t-115 188.5q22 27 58.5 41.5t74.5 12.5q24 -59 75 -92.5t119 -33.5t119 33.5t75 92.5q38 2 75 -12.5t58 -41.5z" />
    <glyph glyph-name="Uring" unicode="&#x16e;" horiz-adv-x="1341" 
d="M1190 490q0 -168 -62.5 -283t-179.5 -174.5t-278 -59.5t-277 59.5t-178.5 174.5t-62.5 283v873l12 14h96q76 0 111.5 -39t35.5 -124v-726q0 -153 64.5 -232t199.5 -79t199 79t64 232v878q31 6 64.5 7.5t60.5 1.5q26 0 63.5 -1.5t67.5 -7.5v-876zM409 1568q0 98 71 168
t187 70t187 -70t71 -168t-71 -168.5t-187 -70.5t-187 70.5t-71 168.5zM567 1568q0 -45 28 -75.5t72 -30.5q45 0 72.5 30.5t27.5 75.5q0 46 -27.5 75.5t-72.5 29.5q-44 0 -72 -29.5t-28 -75.5z" />
    <glyph glyph-name="uring" unicode="&#x16f;" horiz-adv-x="1095" 
d="M951 282q0 -54 13 -100.5t43 -71.5q-9 -33 -33.5 -70t-51.5 -55q-112 12 -166 92.5t-54 187.5v727q53 9 124 9q69 0 125 -9v-710zM134 765q0 55 -8.5 103.5t-30.5 84.5q27 23 68 38t88 15q73 0 102.5 -40t29.5 -116v-476q0 -87 22.5 -127.5t86.5 -40.5q43 0 94 21t99 63
t79 102v-228q-68 -73 -159.5 -127.5t-199.5 -54.5q-92 0 -152 44.5t-89.5 121.5t-29.5 173v444zM275 1319q0 -98 71 -168.5t187 -70.5t187 70.5t71 168.5q0 99 -71 169t-187 70t-187 -70t-71 -169zM433 1319q0 46 28 76.5t72 30.5q45 0 72.5 -30.5t27.5 -76.5
q0 -45 -27.5 -75t-72.5 -30q-44 0 -72 30t-28 75z" />
    <glyph glyph-name="Uhungarumlaut" unicode="&#x170;" horiz-adv-x="1341" 
d="M1190 490q0 -168 -62.5 -283t-179.5 -174.5t-278 -59.5t-277 59.5t-178.5 174.5t-62.5 283v873l12 14h96q76 0 111.5 -39t35.5 -124v-726q0 -153 64.5 -232t199.5 -79t199 79t64 232v878q31 6 64.5 7.5t60.5 1.5q26 0 63.5 -1.5t67.5 -7.5v-876zM974 1837
q60 -15 101.5 -56.5t60.5 -91.5l-337 -235q-28 12 -55.5 40.5t-35.5 59.5zM592 1837q59 -15 100.5 -56.5t59.5 -91.5l-336 -235q-29 12 -56 41t-36 59z" />
    <glyph glyph-name="uhungarumlaut" unicode="&#x171;" horiz-adv-x="1095" 
d="M951 282q0 -54 13 -100.5t43 -71.5q-9 -33 -33.5 -70t-51.5 -55q-112 12 -166 92.5t-54 187.5v727q53 9 124 9q69 0 125 -9v-710zM134 765q0 55 -8.5 103.5t-30.5 84.5q27 23 68 38t88 15q73 0 102.5 -40t29.5 -116v-476q0 -87 22.5 -127.5t86.5 -40.5q43 0 94 21t99 63
t79 102v-228q-68 -73 -159.5 -127.5t-199.5 -54.5q-92 0 -152 44.5t-89.5 121.5t-29.5 173v444zM760 1504q66 2 118 -29t84 -74l-269 -312q-30 5 -63.5 26.5t-49.5 50.5zM419 1505q66 5 119 -22.5t88 -67.5l-248 -326q-31 3 -65.5 22t-51.5 47z" />
    <glyph glyph-name="Uogonek" unicode="&#x172;" horiz-adv-x="1341" 
d="M152 490v873l12 14h96q76 0 111.5 -39t35.5 -124v-726q0 -153 64.5 -232t199.5 -79t199 79t64 232v878q31 6 64.5 7.5t60.5 1.5q26 0 63.5 -1.5t67.5 -7.5v-867q0 -150 -46 -255.5t-165 -188.5q-45 -30 -93 -66t-81.5 -80t-33.5 -99q0 -45 26.5 -65t64.5 -20
q31 0 59.5 10t50.5 21q22 -18 37.5 -49t17.5 -68q-36 -30 -95.5 -52t-125.5 -22q-98 0 -161.5 50.5t-63.5 140.5q0 83 52 151.5t121 113.5l30 -40q-30 -4 -61 -6t-57 -2q-158 0 -273 59.5t-178 174.5t-63 283z" />
    <glyph glyph-name="uogonek" unicode="&#x173;" horiz-adv-x="1095" 
d="M951 282q0 -54 15.5 -97.5t50.5 -71.5l-177 -102q-71 35 -104.5 103t-33.5 151v727q53 9 124 9q69 0 125 -9v-710zM134 765q0 55 -8.5 103.5t-30.5 84.5q27 23 68 38t88 15q73 0 102.5 -40t29.5 -116v-476q0 -87 22.5 -127.5t86.5 -40.5q43 0 94 21t99 63t79 102v-228
q-68 -73 -159.5 -127.5t-199.5 -54.5q-92 0 -152 44.5t-89.5 121.5t-29.5 173v444zM1010 -244q21 -18 37 -49t18 -68q-37 -30 -96 -52t-126 -22q-97 0 -160.5 50.5t-63.5 140.5q0 68 34 127t83 104.5t95 74.5l186 51q-13 -36 -39 -69t-63 -68q-44 -38 -75 -78.5t-31 -89.5
q0 -42 26 -62.5t64 -20.5q32 0 61 10t50 21z" />
    <glyph glyph-name="Wcircumflex" unicode="&#x174;" horiz-adv-x="1742" 
d="M48 1352q32 14 68 21.5t70 7.5q66 0 96 -29t43 -109l109 -615q10 -56 21.5 -129.5t22.5 -143.5t17 -118q3 -18 6 -21t12 -3l198 1125q37 7 82.5 9.5t81.5 2.5q39 0 84 -2.5t80 -9.5l181 -1101q3 -17 7.5 -20.5t12.5 -3.5q7 58 19 133t24.5 150.5t22.5 133.5l138 736
q28 6 58.5 7.5t56.5 1.5q29 0 62 -3.5t59 -12.5l13 -15l-278 -1342q-45 -6 -109 -9t-114 -3q-57 0 -100.5 20.5t-55.5 98.5l-85 495q-17 106 -37 236.5t-35 245.5h-14q-17 -115 -38 -244.5t-41 -237.5l-110 -603q-47 -5 -106.5 -8t-110.5 -3q-60 0 -104.5 20.5t-60.5 100.5z
M979 1794l226 -216q-13 -40 -45.5 -68t-58.5 -37l-229 148l-228 -148q-26 9 -59 37t-45 68l225 216q47 9 107 9q61 0 107 -9z" />
    <glyph glyph-name="wcircumflex" unicode="&#x175;" horiz-adv-x="1472" 
d="M31 977q39 16 74.5 23.5t67.5 7.5q54 0 80 -25.5t37 -78.5l79 -379q20 -95 36 -181.5t24 -142.5q4 -17 16 -17l145 801q29 6 75 8.5t71 2.5q26 0 73 -2.5t75 -8.5l143 -784q3 -17 16 -17q14 80 29.5 165.5t35.5 175.5l101 466q21 6 48.5 8.5t52.5 2.5q27 0 65 -4t63 -17
l7 -14l-239 -968q-37 -5 -89 -7t-96 -2q-71 0 -111 21.5t-54 101.5l-47 253q-9 52 -20.5 118t-23.5 139t-23 143h-11q-10 -69 -23 -141.5t-25 -138.5t-22 -118l-71 -368q-40 -5 -94 -7.5t-99 -2.5q-66 0 -106 23.5t-58 102.5zM851 1452l191 -250q-17 -40 -52 -68t-62 -38
l-185 179l-186 -179q-27 10 -61.5 38t-51.5 68l190 250q47 14 109 14t108 -14z" />
    <glyph glyph-name="Ycircumflex" unicode="&#x176;" horiz-adv-x="1037" 
d="M391 584h256v-584q-30 -6 -64.5 -7.5t-62.5 -1.5q-25 0 -62 1.5t-67 7.5v584zM789 1366q27 6 53.5 8t52.5 2q33 0 66 -4t59 -14l10 -15l-399 -953h-220l-402 946q38 22 78.5 33.5t79.5 11.5q54 0 84 -25t52 -81l133 -326q23 -57 45.5 -126.5t41.5 -138.5h10
q12 44 28.5 93.5t33.5 96t31 82.5zM630 1794l226 -216q-13 -40 -45.5 -68t-58.5 -37l-229 148l-228 -148q-26 9 -59 37t-45 68l225 216q47 9 107 9q61 0 107 -9z" />
    <glyph glyph-name="ycircumflex" unicode="&#x177;" horiz-adv-x="959" 
d="M683 29q-40 -145 -93.5 -250t-140.5 -160.5t-229 -55.5q-53 0 -115 11.5t-97 23.5q-4 44 11.5 97t40.5 81q27 -9 72 -18t88 -9q61 0 103 26t71 74t49 114l7 26q-70 1 -113.5 25.5t-62.5 88.5l-250 869q40 18 80.5 27t71.5 9q44 0 75 -23t48 -86l118 -430q12 -41 23.5 -93
t22 -102t17.5 -87q3 -14 17 -14l202 818q22 6 50 8.5t52 2.5q32 0 65.5 -3.5t65.5 -14.5l9 -15zM591 1452l191 -250q-17 -40 -52 -68t-62 -38l-185 179l-186 -179q-27 10 -61.5 38t-51.5 68l190 250q47 14 109 14t108 -14z" />
    <glyph glyph-name="Ydieresis" unicode="&#x178;" horiz-adv-x="1037" 
d="M391 584h256v-584q-30 -6 -64.5 -7.5t-62.5 -1.5q-25 0 -62 1.5t-67 7.5v584zM789 1366q27 6 53.5 8t52.5 2q33 0 66 -4t59 -14l10 -15l-399 -953h-220l-402 946q38 22 78.5 33.5t79.5 11.5q54 0 84 -25t52 -81l133 -326q23 -57 45.5 -126.5t41.5 -138.5h10
q12 44 28.5 93.5t33.5 96t31 82.5zM742 1486q-30 0 -60.5 7t-52.5 20q-9 22 -12.5 47t-3.5 43q0 19 3.5 43.5t12.5 46.5q22 13 52.5 20t60.5 7q28 0 59 -7t53 -20q9 -22 12.5 -46.5t3.5 -43.5q0 -18 -3.5 -43t-12.5 -47q-22 -13 -53 -20t-59 -7zM306 1486q-28 0 -59 7
t-53 20q-9 22 -12.5 47t-3.5 43q0 19 3.5 43.5t12.5 46.5q22 13 53 20t59 7q29 0 60 -7t53 -20q9 -22 12.5 -46.5t3.5 -43.5q0 -18 -3.5 -43t-12.5 -47q-22 -13 -53 -20t-60 -7z" />
    <glyph glyph-name="Zacute" unicode="&#x179;" horiz-adv-x="1138" 
d="M601 959q30 44 74 100t85 106l-6 6q-29 -4 -71 -7.5t-87.5 -5t-86 -2.5t-66.5 -1h-308q-6 22 -7.5 43t-1.5 42q0 34 4 64t13 62h849q16 -58 24 -89t10 -46t2 -26q0 -22 -7 -45.5t-24 -49.5l-480 -696q-31 -45 -74.5 -101.5t-82.5 -103.5l6 -6q65 6 138.5 9.5t126.5 3.5
h170q77 0 134.5 11.5t96.5 29.5q8 -25 13.5 -56.5t5.5 -62.5q0 -68 -45.5 -103t-126.5 -35h-762q-14 56 -20 85.5t-8 45t-2 26.5q0 25 8 52t25 50zM772 1834q33 -24 66 -81.5t39 -114.5l-454 -182q-28 16 -48 53.5t-25 70.5z" />
    <glyph glyph-name="zacute" unicode="&#x17a;" horiz-adv-x="895" 
d="M390 617q34 47 79 98.5t80 93.5l-6 8q-32 -4 -77.5 -7t-93.5 -5t-87 -2h-188q-5 19 -7 40t-2 39q0 25 4 54t10 56h680q18 -49 26.5 -82t8.5 -59q0 -19 -7 -40t-21 -40l-293 -393q-34 -45 -75.5 -96t-78.5 -93l6 -8q47 4 92.5 7t82.5 3h85q59 0 112 6t91 23
q25 -58 25 -106q0 -52 -31 -83t-113 -31h-599q-17 49 -24 77.5t-7 51.5q0 21 8 44.5t29 50.5zM581 1502q50 -15 97.5 -59t64.5 -94l-353 -271q-32 9 -62 36.5t-44 61.5z" />
    <glyph glyph-name="Zdotaccent" unicode="&#x17b;" horiz-adv-x="1138" 
d="M601 959q30 44 74 100t85 106l-6 6q-29 -4 -71 -7.5t-87.5 -5t-86 -2.5t-66.5 -1h-308q-6 22 -7.5 43t-1.5 42q0 34 4 64t13 62h849q16 -58 24 -89t10 -46t2 -26q0 -22 -7 -45.5t-24 -49.5l-480 -696q-31 -45 -74.5 -101.5t-82.5 -103.5l6 -6q65 6 138.5 9.5t126.5 3.5
h170q77 0 134.5 11.5t96.5 29.5q8 -25 13.5 -56.5t5.5 -62.5q0 -68 -45.5 -103t-126.5 -35h-762q-14 56 -20 85.5t-8 45t-2 26.5q0 25 8 52t25 50zM425 1612q0 55 21 101q21 11 56 19t69 8q32 0 69 -8t56 -19q10 -22 15.5 -49.5t5.5 -51.5q0 -55 -21 -99
q-18 -12 -55.5 -19.5t-69.5 -7.5q-34 0 -70 7t-55 20q-21 44 -21 99z" />
    <glyph glyph-name="zdotaccent" unicode="&#x17c;" horiz-adv-x="895" 
d="M390 617q34 47 79 98.5t80 93.5l-6 8q-32 -4 -77.5 -7t-93.5 -5t-87 -2h-188q-5 19 -7 40t-2 39q0 25 4 54t10 56h680q18 -49 26.5 -82t8.5 -59q0 -19 -7 -40t-21 -40l-293 -393q-34 -45 -75.5 -96t-78.5 -93l6 -8q47 4 92.5 7t82.5 3h85q59 0 112 6t91 23
q25 -58 25 -106q0 -52 -31 -83t-113 -31h-599q-17 49 -24 77.5t-7 51.5q0 21 8 44.5t29 50.5zM303 1264q0 55 21 100q21 12 56 19.5t69 7.5q32 0 69 -7.5t56 -19.5q10 -21 15.5 -48.5t5.5 -51.5q0 -54 -21 -100q-18 -12 -55.5 -19.5t-69.5 -7.5q-34 0 -70 7.5t-55 19.5
q-21 46 -21 100z" />
    <glyph glyph-name="Zcaron" unicode="&#x17d;" horiz-adv-x="1138" 
d="M601 959q30 44 74 100t85 106l-6 6q-29 -4 -71 -7.5t-87.5 -5t-86 -2.5t-66.5 -1h-308q-6 22 -7.5 43t-1.5 42q0 34 4 64t13 62h849q16 -58 24 -89t10 -46t2 -26q0 -22 -7 -45.5t-24 -49.5l-480 -696q-31 -45 -74.5 -101.5t-82.5 -103.5l6 -6q65 6 138.5 9.5t126.5 3.5
h170q77 0 134.5 11.5t96.5 29.5q8 -25 13.5 -56.5t5.5 -62.5q0 -68 -45.5 -103t-126.5 -35h-762q-14 56 -20 85.5t-8 45t-2 26.5q0 25 8 52t25 50zM799 1806q27 -10 59.5 -38t44.5 -67l-225 -216q-22 -4 -50 -7t-57 -3t-56.5 3t-50.5 7l-225 216q12 39 44.5 67t59.5 38
l228 -149z" />
    <glyph glyph-name="zcaron" unicode="&#x17e;" horiz-adv-x="895" 
d="M390 617q34 47 79 98.5t80 93.5l-6 8q-32 -4 -77.5 -7t-93.5 -5t-87 -2h-188q-5 19 -7 40t-2 39q0 25 4 54t10 56h680q18 -49 26.5 -82t8.5 -59q0 -19 -7 -40t-21 -40l-293 -393q-34 -45 -75.5 -96t-78.5 -93l6 -8q47 4 92.5 7t82.5 3h85q59 0 112 6t91 23
q25 -58 25 -106q0 -52 -31 -83t-113 -31h-599q-17 49 -24 77.5t-7 51.5q0 21 8 44.5t29 50.5zM341 1116l-190 251q16 39 51 67.5t62 37.5l185 -179l185 179q28 -9 63 -37.5t51 -67.5l-191 -251q-47 -13 -108 -13q-59 0 -108 13z" />
    <glyph glyph-name="longs" unicode="&#x17f;" horiz-adv-x="732" 
d="M323 990l-2 -177l-290 -5q-9 44 -9 93q0 47 9 93zM203 1099q0 110 40.5 195.5t122.5 134.5t204 49q61 0 128.5 -14.5t114.5 -36.5q1 -42 -14.5 -90.5t-40.5 -75.5q-34 12 -74 20.5t-72 8.5q-93 0 -128.5 -61t-35.5 -151v-1078q-28 -4 -60.5 -6.5t-63.5 -2.5
q-29 0 -60.5 2.5t-60.5 6.5v1099z" />
    <glyph glyph-name="uni018F" unicode="&#x18f;" horiz-adv-x="1272" 
d="M995 782v-210h-637v-73q0 -145 65.5 -236t194.5 -91q140 0 218.5 113t78.5 314v146q0 208 -99 321t-276 113q-80 0 -163 -24t-163 -67q-41 33 -64 88t-19 105q99 53 211 82.5t226 29.5q288 0 451.5 -185.5t163.5 -538.5q0 -218 -67.5 -374t-195 -239t-310.5 -83
q-254 0 -385.5 162t-131.5 440q0 57 5.5 111.5t13.5 95.5h883z" />
    <glyph glyph-name="florin" unicode="&#x192;" horiz-adv-x="1080" 
d="M510 737l391 4q9 -46 9 -89q0 -47 -9 -91l-393 5l-309 -5q-5 21 -7 45t-2 46t2 44.5t7 44.5zM445 923q32 174 117.5 269.5t247.5 95.5q61 0 128.5 -15t118.5 -45q-5 -42 -25.5 -91t-49.5 -77q-67 37 -136 37q-71 0 -107 -49t-58 -166l-134 -725q-30 -164 -89.5 -260.5
t-143 -138.5t-187.5 -42q-59 0 -121.5 14t-109.5 40q0 45 21.5 95.5t48.5 75.5q31 -14 65.5 -23t70.5 -9q47 0 86 24.5t69.5 86.5t50.5 173z" />
    <glyph glyph-name="Ohorn" unicode="&#x1a0;" horiz-adv-x="1328" 
d="M88 684q0 213 64.5 372.5t192.5 248t320 88.5q72 0 123 -10t91.5 -20t80.5 -10q63 0 92.5 27.5t29.5 66.5q0 28 -11 60t-22 51q33 30 86 48.5t113 14.5q18 -27 34.5 -77.5t16.5 -104.5q0 -85 -53.5 -146.5t-163.5 -85.5q77 -92 114.5 -227t37.5 -296q0 -207 -62 -367.5
t-189 -252t-322 -91.5q-147 0 -255 52.5t-178.5 148.5t-105 226t-34.5 284zM355 684q0 -86 12 -176t44 -166t92.5 -122.5t157.5 -46.5t157.5 46.5t92.5 122.5t43.5 166t11.5 176t-11.5 175.5t-43.5 165t-92.5 122t-157.5 46.5t-157.5 -46.5t-92.5 -122t-44 -165t-12 -175.5z
" />
    <glyph glyph-name="ohorn" unicode="&#x1a1;" horiz-adv-x="1047" 
d="M77 496q0 158 51.5 275.5t150 182.5t239.5 65q58 0 96.5 -9t69 -18t61.5 -9q44 0 70 22.5t26 61.5q0 26 -10.5 53t-22.5 49q26 29 76 47t108 15q18 -24 35.5 -71.5t17.5 -97.5q0 -71 -43.5 -129.5t-133.5 -84.5q48 -67 72 -156.5t24 -195.5q0 -156 -50 -274t-149 -183.5
t-245 -65.5t-244.5 66t-148.5 184t-50 273zM333 495q0 -88 15 -164.5t56 -123t117 -46.5q77 0 117 46.5t55.5 123t15.5 164.5q0 89 -15.5 166t-55.5 124t-117 47q-76 0 -117 -47t-56 -124t-15 -166z" />
    <glyph glyph-name="Uhorn" unicode="&#x1af;" horiz-adv-x="1374" 
d="M152 490v873l12 14h96q76 0 111.5 -39t35.5 -124v-726q0 -153 64.5 -232t199.5 -79t199 79t64 232v878q31 6 64.5 7.5t60.5 1.5h24q72 0 99 29.5t27 69.5q0 26 -11 58t-23 51q33 30 86 48.5t113 14.5q18 -27 34.5 -77t16.5 -104q0 -87 -56.5 -150.5t-178.5 -82.5v-742
q0 -168 -62.5 -283t-179.5 -174.5t-278 -59.5t-277 59.5t-178.5 174.5t-62.5 283z" />
    <glyph glyph-name="uhorn" unicode="&#x1b0;" horiz-adv-x="1136" 
d="M134 765q0 55 -8.5 103.5t-30.5 84.5q27 23 68 38t88 15q73 0 102.5 -40t29.5 -116v-476q0 -87 22.5 -127.5t86.5 -40.5q43 0 94 21t99 63t79 102v-228q-68 -73 -159.5 -127.5t-199.5 -54.5q-92 0 -152 44.5t-89.5 121.5t-29.5 173v444zM702 265v727q53 9 124 9h23
q69 0 97 25.5t28 66.5q0 26 -10.5 53t-22.5 48q26 30 76 48.5t108 14.5q18 -24 35 -71t17 -98q0 -79 -59 -142.5t-167 -81.5v-582q0 -54 13 -100.5t43 -71.5q-9 -33 -33.5 -70t-51.5 -55q-112 12 -166 92.5t-54 187.5z" />
    <glyph glyph-name="uni01C4" unicode="&#x1c4;" horiz-adv-x="2423" 
d="M1220 683q0 -117 -15.5 -224.5t-62 -200.5t-138.5 -167q-45 -36 -108 -58.5t-128.5 -32.5t-119.5 -10q-83 0 -156 1t-147.5 3t-161.5 4l-13 13v1344l13 13q86 3 160.5 5t148 2h156.5q54 0 120 -10t129 -32t107 -58q91 -74 137.5 -167.5t62.5 -201t16 -223.5zM957 683
q0 85 -10.5 171t-42.5 158.5t-93.5 116.5t-163.5 44q-57 0 -108.5 1t-114.5 1v-983q63 1 114.5 0.5t108.5 -0.5q102 0 163.5 44.5t93.5 117t42.5 159t10.5 170.5zM1885 959q30 44 74 100t85 106l-6 6q-29 -4 -71 -7.5t-87.5 -5t-86 -2.5t-66.5 -1h-308q-6 22 -7.5 43
t-1.5 42q0 34 4 64t13 62h849q16 -58 24 -89t10 -46t2 -26q0 -22 -7 -45.5t-24 -49.5l-480 -696q-31 -45 -74.5 -101.5t-82.5 -103.5l6 -6q65 6 138.5 9.5t126.5 3.5h170q77 0 134.5 11.5t96.5 29.5q8 -25 13.5 -56.5t5.5 -62.5q0 -68 -45.5 -103t-126.5 -35h-762
q-14 56 -20 85.5t-8 45t-2 26.5q0 25 8 52t25 50zM2083 1806q27 -10 59.5 -38t44.5 -67l-225 -216q-22 -4 -50 -7t-57 -3t-56.5 3t-50.5 7l-225 216q12 39 44.5 67t59.5 38l228 -149z" />
    <glyph glyph-name="uni01C5" unicode="&#x1c5;" horiz-adv-x="2180" 
d="M1220 683q0 -117 -15.5 -224.5t-62 -200.5t-138.5 -167q-45 -36 -108 -58.5t-128.5 -32.5t-119.5 -10q-83 0 -156 1t-147.5 3t-161.5 4l-13 13v1344l13 13q86 3 160.5 5t148 2h156.5q54 0 120 -10t129 -32t107 -58q91 -74 137.5 -167.5t62.5 -201t16 -223.5zM957 683
q0 85 -10.5 171t-42.5 158.5t-93.5 116.5t-163.5 44q-57 0 -108.5 1t-114.5 1v-983q63 1 114.5 0.5t108.5 -0.5q102 0 163.5 44.5t93.5 117t42.5 159t10.5 170.5zM1675 617q34 47 79 98.5t80 93.5l-6 8q-32 -4 -77.5 -7t-93.5 -5t-87 -2h-188q-5 19 -7 40t-2 39q0 25 4 54
t10 56h680q18 -49 26.5 -82t8.5 -59q0 -19 -7 -40t-21 -40l-293 -393q-34 -45 -75.5 -96t-78.5 -93l6 -8q47 4 92.5 7t82.5 3h85q59 0 112 6t91 23q25 -58 25 -106q0 -52 -31 -83t-113 -31h-599q-17 49 -24 77.5t-7 51.5q0 21 8 44.5t29 50.5zM1626 1116l-190 251
q16 39 51 67.5t62 37.5l185 -179l185 179q28 -9 63 -37.5t51 -67.5l-191 -251q-47 -13 -108 -13q-59 0 -108 13z" />
    <glyph glyph-name="uni01C6" unicode="&#x1c6;" horiz-adv-x="1962" 
d="M922 284q0 -53 13 -100t43 -71q-8 -34 -33 -72t-52 -56q-111 12 -162.5 91.5t-51.5 186.5v1195l13 13h95q76 0 105.5 -35.5t29.5 -118.5v-1033zM78 484q0 176 55.5 292.5t145 175t190.5 58.5q99 0 179 -41t149 -88l-34 -186q-58 46 -124.5 84.5t-130.5 38.5
q-53 0 -92.5 -38t-61.5 -112.5t-22 -184.5q0 -109 21.5 -176.5t57.5 -99t79 -31.5q42 0 92 23.5t94.5 80t71.5 152.5l53 -162q-15 -73 -67 -141.5t-130.5 -112t-174.5 -43.5q-117 0 -195 64.5t-117 180t-39 266.5zM1457 617q34 47 79 98.5t80 93.5l-6 8q-32 -4 -77.5 -7
t-93.5 -5t-87 -2h-188q-5 19 -7 40t-2 39q0 25 4 54t10 56h680q18 -49 26.5 -82t8.5 -59q0 -19 -7 -40t-21 -40l-293 -393q-34 -45 -75.5 -96t-78.5 -93l6 -8q47 4 92.5 7t82.5 3h85q59 0 112 6t91 23q25 -58 25 -106q0 -52 -31 -83t-113 -31h-599q-17 49 -24 77.5t-7 51.5
q0 21 8 44.5t29 50.5zM1408 1116l-190 251q16 39 51 67.5t62 37.5l185 -179l185 179q28 -9 63 -37.5t51 -67.5l-191 -251q-47 -13 -108 -13q-59 0 -108 13z" />
    <glyph glyph-name="uni01C7" unicode="&#x1c7;" horiz-adv-x="1946" 
d="M424 -3h-108q-66 0 -107 40t-41 113v1213l14 14h95q76 0 111.5 -39t35.5 -124v-1217zM983 218q0 -126 -39.5 -173.5t-132.5 -47.5h-495l-134 186q108 18 220 26.5t204 8.5h377zM1144 255q43 -25 95.5 -44t105.5 -19q116 0 158 71t42 215v888q29 6 65.5 7.5t62.5 1.5
q28 0 62.5 -1.5t64.5 -7.5v-858q0 -113 -17.5 -209.5t-63.5 -167.5t-130.5 -111t-219.5 -40q-78 0 -163.5 22t-153.5 63q9 51 32.5 101.5t59.5 88.5z" />
    <glyph glyph-name="uni01C8" unicode="&#x1c8;" horiz-adv-x="1587" 
d="M424 -3h-108q-66 0 -107 40t-41 113v1213l14 14h95q76 0 111.5 -39t35.5 -124v-1217zM983 218q0 -126 -39.5 -173.5t-132.5 -47.5h-495l-134 186q108 18 220 26.5t204 8.5h377zM1448 -5q0 -129 -27.5 -215.5t-98 -138.5t-201.5 -80q-25 22 -45.5 64.5t-23.5 87.5
q57 26 90 55t47 73.5t14 117.5v746q0 52 -19.5 80t-70.5 28h-43q-11 42 -11 86q0 22 2.5 45t8.5 46q45 5 91 7t74 2h33q84 0 132 -54.5t48 -147.5v-802zM1135 1264q0 55 21 100q21 12 56 19.5t69 7.5q32 0 69 -7.5t56 -19.5q10 -21 15.5 -48.5t5.5 -51.5q0 -54 -21 -100
q-18 -12 -55.5 -19.5t-69.5 -7.5q-34 0 -70 7.5t-55 19.5q-21 46 -21 100z" />
    <glyph glyph-name="uni01C9" unicode="&#x1c9;" horiz-adv-x="1163" 
d="M530 184q20 -56 20 -122q0 -13 -1 -27.5t-4 -27.5q-39 -6 -90 -11t-98 -5q-112 0 -165 57.5t-53 176.5v1233l13 13h95q76 0 105.5 -35.5t29.5 -118.5v-1042q0 -45 19.5 -68t62.5 -23h66zM1025 -5q0 -129 -27.5 -215.5t-98 -138.5t-201.5 -80q-25 22 -45.5 64.5
t-23.5 87.5q57 26 90 55t47 73.5t14 117.5v746q0 52 -19.5 80t-70.5 28h-43q-11 42 -11 86q0 22 2.5 45t8.5 46q45 5 91 7t74 2h33q84 0 132 -54.5t48 -147.5v-802zM711 1264q0 55 21 100q21 12 56 19.5t69 7.5q32 0 69 -7.5t56 -19.5q10 -21 15.5 -48.5t5.5 -51.5
q0 -54 -21 -100q-18 -12 -55.5 -19.5t-69.5 -7.5q-34 0 -70 7.5t-55 19.5q-21 46 -21 100z" />
    <glyph glyph-name="uni01CA" unicode="&#x1ca;" horiz-adv-x="2287" 
d="M170 1363q30 6 77.5 9t73.5 3q28 0 69.5 -1.5t80.5 -7.5l-65 -294l-19 -4q6 -76 10.5 -170.5t7 -189.5t2.5 -173v-535q-31 -6 -61.5 -7.5t-55.5 -1.5q-23 0 -56.5 1.5t-63.5 7.5v1363zM516 790q-36 76 -66 147.5t-56 132.5l-118 140l195 156l378 -789q38 -82 71 -159
t60 -136l127 -137l-209 -145zM1203 1364v-1361q-31 -6 -77.5 -9t-76.5 -3q-31 0 -71 1.5t-80 7.5l69 280l19 5q-6 85 -10.5 183.5t-6.5 191.5t-2 162v398q0 85 32 121t108 36h82zM1484 255q43 -25 95.5 -44t105.5 -19q116 0 158 71t42 215v888q29 6 65.5 7.5t62.5 1.5
q28 0 62.5 -1.5t64.5 -7.5v-858q0 -113 -17.5 -209.5t-63.5 -167.5t-130.5 -111t-219.5 -40q-78 0 -163.5 22t-153.5 63q9 51 32.5 101.5t59.5 88.5z" />
    <glyph glyph-name="uni01CB" unicode="&#x1cb;" horiz-adv-x="1949" 
d="M170 1363q30 6 77.5 9t73.5 3q28 0 69.5 -1.5t80.5 -7.5l-65 -294l-19 -4q6 -76 10.5 -170.5t7 -189.5t2.5 -173v-535q-31 -6 -61.5 -7.5t-55.5 -1.5q-23 0 -56.5 1.5t-63.5 7.5v1363zM516 790q-36 76 -66 147.5t-56 132.5l-118 140l195 156l378 -789q38 -82 71 -159
t60 -136l127 -137l-209 -145zM1203 1364v-1361q-31 -6 -77.5 -9t-76.5 -3q-31 0 -71 1.5t-80 7.5l69 280l19 5q-6 85 -10.5 183.5t-6.5 191.5t-2 162v398q0 85 32 121t108 36h82zM1810 -5q0 -129 -27.5 -215.5t-98 -138.5t-201.5 -80q-25 22 -45.5 64.5t-23.5 87.5
q57 26 90 55t47 73.5t14 117.5v746q0 52 -19.5 80t-70.5 28h-43q-11 42 -11 86q0 22 2.5 45t8.5 46q45 5 91 7t74 2h33q84 0 132 -54.5t48 -147.5v-802zM1497 1264q0 55 21 100q21 12 56 19.5t69 7.5q32 0 69 -7.5t56 -19.5q10 -21 15.5 -48.5t5.5 -51.5q0 -54 -21 -100
q-18 -12 -55.5 -19.5t-69.5 -7.5q-34 0 -70 7.5t-55 19.5q-21 46 -21 100z" />
    <glyph glyph-name="uni01CC" unicode="&#x1cc;" horiz-adv-x="1669" 
d="M249 1003q74 0 107.5 -48t33.5 -131v-824q-53 -9 -123 -9t-126 9v989l14 14h94zM958 227q0 -55 9 -103.5t31 -84.5q-28 -23 -69 -38t-87 -15q-74 0 -103.5 40t-29.5 115v477q0 87 -22.5 127.5t-86.5 40.5q-42 0 -93.5 -21t-98.5 -62.5t-79 -103.5v228q68 74 159.5 128.5
t198.5 54.5q93 0 153 -44.5t89 -121t29 -173.5v-444zM1530 -5q0 -129 -27.5 -215.5t-98 -138.5t-201.5 -80q-25 22 -45.5 64.5t-23.5 87.5q57 26 90 55t47 73.5t14 117.5v746q0 52 -19.5 80t-70.5 28h-43q-11 42 -11 86q0 22 2.5 45t8.5 46q45 5 91 7t74 2h33
q84 0 132 -54.5t48 -147.5v-802zM1216 1264q0 55 21 100q21 12 56 19.5t69 7.5q32 0 69 -7.5t56 -19.5q10 -21 15.5 -48.5t5.5 -51.5q0 -54 -21 -100q-18 -12 -55.5 -19.5t-69.5 -7.5q-34 0 -70 7.5t-55 19.5q-21 46 -21 100z" />
    <glyph glyph-name="Gcaron" unicode="&#x1e6;" horiz-adv-x="1295" 
d="M1174 1248q-6 -56 -42.5 -108.5t-75.5 -77.5q-73 52 -163 84.5t-182 32.5q-105 0 -186.5 -50.5t-127.5 -162t-46 -295.5q0 -252 94 -372t277 -120q102 0 188 21t135 39l133 -183q-59 -21 -139.5 -40t-172.5 -31t-188 -12q-159 0 -271 53t-182.5 148t-103.5 223t-33 277
q0 187 52 323t139 224t197 130t225 42q130 0 254.5 -39.5t218.5 -105.5zM936 393q0 71 4.5 138.5t18.5 122.5l219 -74v-524l-242 -3v340zM1002 741q99 0 137.5 -43.5t38.5 -117.5v-55h-380q-36 0 -64.5 9t-44.5 33t-16 67q0 26 6 55t13 52h310zM922 1806q27 -10 59.5 -38
t44.5 -67l-225 -216q-22 -4 -50 -7t-57 -3t-56.5 3t-50.5 7l-225 216q12 39 44.5 67t59.5 38l228 -149z" />
    <glyph glyph-name="gcaron" unicode="&#x1e7;" horiz-adv-x="1063" 
d="M980 879q-30 -24 -43 -70.5t-13 -101.5v-566q0 -125 -11.5 -209t-33.5 -139.5t-53 -95.5q-53 -65 -143 -101.5t-206 -36.5q-93 0 -189 19t-169 48q1 45 18.5 98.5t44.5 84.5q64 -29 137 -45.5t135 -16.5q90 0 139.5 33t69 89t19.5 126v733q0 108 51 187t162 92
q27 -18 53 -56t32 -72zM78 494q0 175 56 292t145 175t189 58q92 0 157.5 -28.5t111.5 -71t76 -85.5l-37 -207q-55 92 -127.5 146t-139.5 54q-54 0 -94 -37.5t-61.5 -112t-21.5 -184.5q0 -163 45.5 -235.5t110.5 -72.5q72 0 139 48t107 129l37 -183q-30 -50 -81 -94.5
t-117 -73.5t-142 -29q-118 0 -196.5 64.5t-117.5 180t-39 267.5zM433 1116l-190 251q16 39 51 67.5t62 37.5l185 -179l185 179q28 -9 63 -37.5t51 -67.5l-191 -251q-47 -13 -108 -13q-59 0 -108 13z" />
    <glyph glyph-name="uni01EA" unicode="&#x1ea;" horiz-adv-x="1323" 
d="M88 683q0 212 63.5 372t191 249t318.5 89t318 -88t191 -248.5t64 -378.5q0 -191 -44 -318t-120.5 -207.5t-172.5 -133.5q-44 -24 -91 -53t-79.5 -67t-32.5 -88q0 -45 26.5 -65.5t65.5 -20.5q30 0 58.5 10t50.5 21q21 -18 37 -49t18 -68q-36 -30 -96 -52t-126 -22
q-99 0 -161.5 51t-62.5 140q0 82 55.5 150t132.5 116l34 -48q-16 -1 -34 -1h-29q-148 0 -256 52.5t-178.5 148.5t-105.5 226t-35 283zM355 684q0 -86 12 -176t44 -166t92.5 -122.5t157.5 -46.5t157.5 46.5t92.5 122.5t43.5 166t11.5 176t-11.5 175.5t-43.5 165t-92.5 122
t-157.5 46.5t-157.5 -46.5t-92.5 -122t-44 -165t-12 -175.5z" />
    <glyph glyph-name="uni01EB" unicode="&#x1eb;" horiz-adv-x="1041" 
d="M77 495q0 156 50.5 274t149.5 184t244 66q216 0 329.5 -143t113.5 -386q0 -139 -34.5 -231.5t-92 -151t-125.5 -97.5q-63 -37 -111 -86.5t-48 -110.5q0 -47 26.5 -67.5t64.5 -20.5q31 0 59.5 10t50.5 21q21 -18 37 -49t17 -68q-35 -30 -95.5 -52t-126.5 -22
q-99 0 -161 51t-62 140q0 82 56 151t128 115l23 -47q-11 -1 -23 -1.5t-25 -0.5q-142 0 -241.5 63t-151.5 180.5t-52 278.5zM333 495q0 -88 15 -164.5t56 -123t117 -46.5q77 0 117 46.5t55.5 123t15.5 164.5q0 89 -15.5 166t-55.5 124t-117 47q-76 0 -117 -47t-56 -124
t-15 -166z" />
    <glyph glyph-name="Aringacute" unicode="&#x1fa;" horiz-adv-x="1244" 
d="M481 1375h288l444 -1359q-27 -15 -68 -23t-80 -8q-60 0 -94 27.5t-58 108.5l-189 621q-26 86 -55.5 190t-51.5 191h-11q-15 -73 -41 -166t-45 -159l-248 -800q-23 -6 -51 -7.5t-58 -1.5q-31 0 -65.5 4t-58.5 12l-8 13zM472 312q-12 0 -36.5 0.5l-49 1t-36.5 0.5h-126
l79 204h111q12 0 34.5 0.5t44.5 1t33 0.5h178q12 0 34.5 -0.5l45 -1t34.5 -0.5h114l66 -204h-125q-12 0 -37 -0.5t-49.5 -1t-36.5 -0.5h-278zM368 1567q0 99 71 169t187 70q115 0 186 -70t71 -169q0 -98 -71 -168t-186 -70q-116 0 -187 70t-71 168zM526 1567
q0 -45 27.5 -75.5t72.5 -30.5q44 0 71.5 30.5t27.5 75.5t-27.5 75.5t-71.5 30.5q-45 0 -72.5 -30.5t-27.5 -75.5zM827 2210q33 -24 66 -81.5t39 -114.5l-454 -182q-28 16 -48 53.5t-25 70.5z" />
    <glyph glyph-name="aringacute" unicode="&#x1fb;" horiz-adv-x="1019" 
d="M76 271q0 116 53 191t141 110.5t194 35.5q52 0 122 -3.5t128 -16.5v-162q-50 11 -114 14t-115 3q-81 0 -122.5 -42t-41.5 -113q0 -53 30.5 -89.5t86.5 -36.5q68 0 142 48t124 138l37 -175q-38 -44 -89.5 -90t-120 -78t-156.5 -32q-101 0 -167.5 44.5t-99 113t-32.5 140.5
zM940 113q-9 -34 -33.5 -72t-51.5 -56q-73 8 -119 44t-69.5 86.5t-29.5 103.5v441q0 83 -38.5 120t-112.5 37q-71 0 -149.5 -21.5t-156.5 -49.5q-28 30 -45.5 80.5t-21.5 96.5q61 26 136 46.5t152.5 32.5t143.5 12q94 0 171 -35t122.5 -109t45.5 -194v-408q0 -52 11.5 -90
t44.5 -65zM236 1319q0 -98 71 -168.5t187 -70.5t187 70.5t71 168.5q0 99 -71 169t-187 70t-187 -70t-71 -169zM394 1319q0 46 28 76.5t72 30.5q45 0 72.5 -30.5t27.5 -76.5q0 -45 -27.5 -75t-72.5 -30q-44 0 -72 30t-28 75zM626 2009q50 -15 97.5 -59t64.5 -94l-353 -271
q-32 9 -62 36.5t-44 61.5z" />
    <glyph glyph-name="AEacute" unicode="&#x1fc;" horiz-adv-x="1761" 
d="M652 1343q29 13 74 18t80 5h167l-179 -243h-11q-29 -77 -65.5 -165t-69.5 -161l-368 -798q-28 -6 -59.5 -7.5t-61.5 -1.5q-34 0 -69 4t-59 13l-9 13zM522 312q-15 0 -38.5 0.5t-46 1t-36.5 0.5h-101l91 202h95q21 0 52 1t54 1h107q15 0 37.5 -0.5l45 -1t35.5 -0.5h93
v-202h-92q-14 0 -36 -0.5t-44.5 -1t-38.5 -0.5h-177zM793 1353l13 13h231v-210q0 -42 1 -71t1 -70v-686q0 -31 -1 -59t-1 -62v-211h-100q-68 0 -106 41t-38 112v1203zM1520 793q7 -24 10.5 -53.5t3.5 -50.5q0 -22 -3.5 -51t-10.5 -54h-351q-24 0 -62.5 0.5t-79.5 1t-72 0.5
v205q31 0 72 0.5t79.5 1t62.5 0.5h351zM1632 1366q6 -28 7.5 -53.5t1.5 -47.5q0 -21 -5 -53t-16 -61h-451q-24 0 -62.5 0.5t-79.5 1t-72 1.5v212h677zM1676 212q0 -123 -39 -169t-129 -46h-553v206q55 3 105 6t116 3h500zM1130 1834q33 -24 66 -81.5t39 -114.5l-454 -182
q-28 16 -48 53.5t-25 70.5z" />
    <glyph glyph-name="aeacute" unicode="&#x1fd;" horiz-adv-x="1542" 
d="M76 271q0 117 53 191.5t141 110t194 35.5q56 0 124 -4t126 -16v-165q-51 11 -114.5 15.5t-114.5 4.5q-81 0 -122.5 -41.5t-41.5 -114.5q0 -52 30.5 -88.5t86.5 -36.5q47 0 98 21.5t97.5 65t79.5 107.5l55 -180q-38 -49 -95.5 -95.5t-132.5 -77t-165 -30.5
q-101 0 -167.5 44.5t-99 113t-32.5 140.5zM637 491v171q0 81 -38 118t-111 37q-71 0 -150.5 -21t-157.5 -50q-28 30 -45.5 80.5t-21.5 96.5q91 39 206.5 65t210.5 26q146 0 236 -85.5t90 -254.5v-183h-219zM789 416v176h438v23q0 61 -16 111.5t-53.5 81.5t-99.5 31
q-91 0 -132 -76t-41 -220v-71q0 -84 16 -153t61 -110t132 -41q72 0 139 21t130 50q29 -28 47.5 -72t24.5 -81q-73 -53 -174 -83t-205 -30q-207 0 -313 134t-107 384q0 96 26.5 189.5t79 170t132 122.5t185.5 46q131 0 220.5 -56.5t135.5 -153t46 -216.5q0 -55 -4 -93.5
t-15 -83.5h-653zM930 1502q50 -15 97.5 -59t64.5 -94l-353 -271q-32 9 -62 36.5t-44 61.5z" />
    <glyph glyph-name="Oslashacute" unicode="&#x1fe;" horiz-adv-x="1327" 
d="M875 1289l116 203q43 -7 89.5 -31.5t72.5 -57.5l-137 -244l-562 -1079l-116 -202q-44 6 -90 31t-72 58l136 243zM346 684q0 -87 13 -178t47.5 -168t97 -124.5t160.5 -47.5t160.5 47.5t96.5 124.5t46.5 168t12.5 178t-12.5 177.5t-46.5 167t-96.5 124t-160.5 47.5
t-160.5 -47.5t-97 -124t-47.5 -167t-13 -177.5zM88 684q0 204 62.5 364.5t190.5 252.5t323 92q196 0 323.5 -92.5t189.5 -253t62 -363.5q0 -205 -62.5 -365.5t-189.5 -253t-323 -92.5q-148 0 -256 53t-179 150t-106 226t-35 282zM862 1834q33 -24 66 -81.5t39 -114.5
l-454 -182q-28 16 -48 53.5t-25 70.5z" />
    <glyph glyph-name="oslashacute" unicode="&#x1ff;" horiz-adv-x="1046" 
d="M967 497q0 -117 -31 -224.5t-110 -187.5q-58 -57 -134.5 -84.5t-168.5 -27.5q-91 0 -167 27.5t-136 84.5q-79 80 -110 187.5t-31 224.5q0 118 31 224.5t110 184.5q60 58 136 85.5t167 27.5q92 0 168.5 -27.5t134.5 -85.5q79 -78 110 -184.5t31 -224.5zM312 497
q0 -87 17.5 -166t63.5 -129t130 -50q85 0 130.5 50t62.5 129t17 166t-17 165.5t-62.5 128.5t-130.5 50q-84 0 -130 -50t-63.5 -128.5t-17.5 -165.5zM653 911l115 198q35 -8 71.5 -26.5t61.5 -47.5l-136 -238l-371 -709l-119 -203q-36 7 -73.5 26.5t-60.5 46.5l137 239z
M652 1502q50 -15 97.5 -59t64.5 -94l-353 -271q-32 9 -62 36.5t-44 61.5z" />
    <glyph glyph-name="uni0200" unicode="&#x200;" horiz-adv-x="1244" 
d="M478 1366q31 4 74 6.5t74 2.5t74 -2.5t72 -7.5l441 -1349q-27 -15 -68 -23t-80 -8q-60 0 -94 27.5t-58 108.5l-189 621q-26 86 -55.5 190t-51.5 191h-11q-15 -73 -41 -166t-45 -159l-248 -800q-23 -6 -51 -7.5t-58 -1.5q-31 0 -65.5 4t-58.5 12l-8 13zM472 312
q-12 0 -36.5 0.5l-49 1t-36.5 0.5h-126l79 204h111q12 0 34.5 0.5t44.5 1t33 0.5h178q12 0 34.5 -0.5l45 -1t34.5 -0.5h114l66 -204h-125q-12 0 -37 -0.5t-49.5 -1t-36.5 -0.5h-278zM318 1837l267 -283q-9 -31 -36 -59.5t-56 -40.5l-336 235q19 50 60 91.5t101 56.5z
M701 1837l267 -283q-9 -30 -36 -59t-55 -41l-337 235q19 50 60 91.5t101 56.5z" />
    <glyph glyph-name="uni0201" unicode="&#x201;" horiz-adv-x="1019" 
d="M76 271q0 116 53 191t141 110.5t194 35.5q52 0 122 -3.5t128 -16.5v-162q-50 11 -114 14t-115 3q-81 0 -122.5 -42t-41.5 -113q0 -53 30.5 -89.5t86.5 -36.5q68 0 142 48t124 138l37 -175q-38 -44 -89.5 -90t-120 -78t-156.5 -32q-101 0 -167.5 44.5t-99 113t-32.5 140.5
zM940 113q-9 -34 -33.5 -72t-51.5 -56q-73 8 -119 44t-69.5 86.5t-29.5 103.5v441q0 83 -38.5 120t-112.5 37q-71 0 -149.5 -21.5t-156.5 -49.5q-28 30 -45.5 80.5t-21.5 96.5q61 26 136 46.5t152.5 32.5t143.5 12q94 0 171 -35t122.5 -109t45.5 -194v-408q0 -52 11.5 -90
t44.5 -65zM277 1504l180 -338q-16 -29 -49 -50.5t-64 -26.5l-269 312q33 43 84.5 74t117.5 29zM618 1505l158 -347q-17 -28 -51.5 -47t-65.5 -22l-248 326q36 40 89 67.5t118 22.5z" />
    <glyph glyph-name="uni0202" unicode="&#x202;" horiz-adv-x="1244" 
d="M478 1366q31 4 74 6.5t74 2.5t74 -2.5t72 -7.5l441 -1349q-27 -15 -68 -23t-80 -8q-60 0 -94 27.5t-58 108.5l-189 621q-26 86 -55.5 190t-51.5 191h-11q-15 -73 -41 -166t-45 -159l-248 -800q-23 -6 -51 -7.5t-58 -1.5q-31 0 -65.5 4t-58.5 12l-8 13zM472 312
q-12 0 -36.5 0.5l-49 1t-36.5 0.5h-126l79 204h111q12 0 34.5 0.5t44.5 1t33 0.5h178q12 0 34.5 -0.5l45 -1t34.5 -0.5h114l66 -204h-125q-12 0 -37 -0.5t-49.5 -1t-36.5 -0.5h-278zM973 1545q-23 -27 -61.5 -41.5t-78.5 -13.5q-27 58 -82 92t-125 34q-69 0 -124.5 -34
t-82.5 -92q-39 -1 -77.5 13.5t-62.5 41.5q31 112 124 184.5t223 72.5t223.5 -72.5t123.5 -184.5z" />
    <glyph glyph-name="uni0203" unicode="&#x203;" horiz-adv-x="1019" 
d="M76 271q0 116 53 191t141 110.5t194 35.5q52 0 122 -3.5t128 -16.5v-162q-50 11 -114 14t-115 3q-81 0 -122.5 -42t-41.5 -113q0 -53 30.5 -89.5t86.5 -36.5q68 0 142 48t124 138l37 -175q-38 -44 -89.5 -90t-120 -78t-156.5 -32q-101 0 -167.5 44.5t-99 113t-32.5 140.5
zM940 113q-9 -34 -33.5 -72t-51.5 -56q-73 8 -119 44t-69.5 86.5t-29.5 103.5v441q0 83 -38.5 120t-112.5 37q-71 0 -149.5 -21.5t-156.5 -49.5q-28 30 -45.5 80.5t-21.5 96.5q61 26 136 46.5t152.5 32.5t143.5 12q94 0 171 -35t122.5 -109t45.5 -194v-408q0 -52 11.5 -90
t44.5 -65zM821 1159q-21 -27 -58 -41.5t-75 -13.5q-24 60 -75 93.5t-119 33.5t-119 -33.5t-75 -93.5q-38 -1 -74.5 13.5t-58.5 41.5q28 115 115 188t212 73t212 -73t115 -188z" />
    <glyph glyph-name="uni0204" unicode="&#x204;" horiz-adv-x="1138" 
d="M168 1353l14 13h236v-210q0 -42 1 -71t1 -70v-689q0 -31 -1 -57.5t-1 -60.5v-211h-104q-68 0 -107 41t-39 112v1203zM897 793q7 -24 10.5 -53.5t3.5 -50.5q0 -22 -3.5 -51t-10.5 -54h-348q-24 0 -63.5 0.5t-81 1t-72.5 0.5v205q31 0 72.5 0.5t81 1t63.5 0.5h348z
M1009 1366q6 -28 7.5 -53.5t1.5 -47.5q0 -21 -5 -53t-16 -61h-448q-24 0 -63.5 0.5t-81 1t-72.5 1.5v212h677zM1053 212q0 -111 -34.5 -163t-134.5 -52h-552v206q55 3 106.5 6t118.5 3h496zM291 1837l267 -283q-9 -31 -36 -59.5t-56 -40.5l-336 235q19 50 60 91.5t101 56.5z
M674 1837l267 -283q-9 -30 -36 -59t-55 -41l-337 235q19 50 60 91.5t101 56.5z" />
    <glyph glyph-name="uni0205" unicode="&#x205;" horiz-adv-x="998" 
d="M234 416v176h444v24q0 61 -17.5 111.5t-55 81t-100.5 30.5q-90 0 -132.5 -75.5t-42.5 -216.5v-75q0 -84 16.5 -153t62 -110t133.5 -41q72 0 140 20.5t131 49.5q29 -28 47 -71.5t24 -80.5q-73 -53 -174.5 -83t-206.5 -30q-124 0 -206.5 42.5t-130.5 116t-68.5 166.5
t-20.5 194q0 150 46.5 269t141 188.5t241.5 69.5q131 0 221 -56.5t137 -153t47 -216.5q0 -55 -4 -93.5t-15 -83.5h-658zM293 1504l180 -338q-16 -29 -49 -50.5t-64 -26.5l-269 312q33 43 84.5 74t117.5 29zM634 1505l158 -347q-17 -28 -51.5 -47t-65.5 -22l-248 326
q36 40 89 67.5t118 22.5z" />
    <glyph glyph-name="uni0206" unicode="&#x206;" horiz-adv-x="1138" 
d="M168 1353l14 13h236v-210q0 -42 1 -71t1 -70v-689q0 -31 -1 -57.5t-1 -60.5v-211h-104q-68 0 -107 41t-39 112v1203zM897 793q7 -24 10.5 -53.5t3.5 -50.5q0 -22 -3.5 -51t-10.5 -54h-348q-24 0 -63.5 0.5t-81 1t-72.5 0.5v205q31 0 72.5 0.5t81 1t63.5 0.5h348z
M1009 1366q6 -28 7.5 -53.5t1.5 -47.5q0 -21 -5 -53t-16 -61h-448q-24 0 -63.5 0.5t-81 1t-72.5 1.5v212h677zM1053 212q0 -111 -34.5 -163t-134.5 -52h-552v206q55 3 106.5 6t118.5 3h496zM945 1545q-23 -27 -61.5 -41.5t-78.5 -13.5q-27 58 -82 92t-125 34
q-69 0 -124.5 -34t-82.5 -92q-39 -1 -77.5 13.5t-62.5 41.5q31 112 124 184.5t223 72.5t223.5 -72.5t123.5 -184.5z" />
    <glyph glyph-name="uni0207" unicode="&#x207;" horiz-adv-x="998" 
d="M234 416v176h444v24q0 61 -17.5 111.5t-55 81t-100.5 30.5q-90 0 -132.5 -75.5t-42.5 -216.5v-75q0 -84 16.5 -153t62 -110t133.5 -41q72 0 140 20.5t131 49.5q29 -28 47 -71.5t24 -80.5q-73 -53 -174.5 -83t-206.5 -30q-124 0 -206.5 42.5t-130.5 116t-68.5 166.5
t-20.5 194q0 150 46.5 269t141 188.5t241.5 69.5q131 0 221 -56.5t137 -153t47 -216.5q0 -55 -4 -93.5t-15 -83.5h-658zM837 1159q-21 -27 -58 -41.5t-75 -13.5q-24 60 -75 93.5t-119 33.5t-119 -33.5t-75 -93.5q-38 -1 -74.5 13.5t-58.5 41.5q28 115 115 188t212 73
t212 -73t115 -188z" />
    <glyph glyph-name="uni0208" unicode="&#x208;" horiz-adv-x="604" 
d="M174 1366q29 6 65.5 7.5t61.5 1.5q28 0 63.5 -1.5t65.5 -7.5v-1366q-30 -6 -65.5 -7.5t-63.5 -1.5q-25 0 -61.5 1.5t-65.5 7.5v1366zM-5 1838l267 -283q-9 -31 -36 -59.5t-56 -40.5l-336 235q19 50 60 91.5t101 56.5zM378 1838l267 -283q-9 -30 -36 -59t-55 -41l-337 235
q19 50 60 91.5t101 56.5z" />
    <glyph glyph-name="uni0209" unicode="&#x209;" horiz-adv-x="564" 
d="M425 0q-54 -9 -124 -9q-69 0 -124 9v705q0 52 -19.5 80t-71.5 28h-24q-11 42 -11 86q0 22 2.5 45t8.5 46q40 5 79.5 7t65.5 2h34q85 0 134.5 -54.5t49.5 -147.5v-797zM44 1504l180 -338q-16 -29 -49 -50.5t-64 -26.5l-269 312q33 43 84.5 74t117.5 29zM385 1505l158 -347
q-17 -28 -51.5 -47t-65.5 -22l-248 326q36 40 89 67.5t118 22.5z" />
    <glyph glyph-name="uni020A" unicode="&#x20a;" horiz-adv-x="604" 
d="M174 1366q29 6 65.5 7.5t61.5 1.5q28 0 63.5 -1.5t65.5 -7.5v-1366q-30 -6 -65.5 -7.5t-63.5 -1.5q-25 0 -61.5 1.5t-65.5 7.5v1366zM649 1546q-23 -27 -61.5 -41.5t-78.5 -13.5q-27 58 -82 92t-125 34q-69 0 -124.5 -34t-82.5 -92q-39 -1 -77.5 13.5t-62.5 41.5
q31 112 124 184.5t223 72.5t223.5 -72.5t123.5 -184.5z" />
    <glyph glyph-name="uni020B" unicode="&#x20b;" horiz-adv-x="564" 
d="M425 0q-54 -9 -124 -9q-69 0 -124 9v705q0 52 -19.5 80t-71.5 28h-24q-11 42 -11 86q0 22 2.5 45t8.5 46q40 5 79.5 7t65.5 2h34q85 0 134.5 -54.5t49.5 -147.5v-797zM588 1159q-21 -27 -58 -41.5t-75 -13.5q-24 60 -75 93.5t-119 33.5t-119 -33.5t-75 -93.5
q-38 -1 -74.5 13.5t-58.5 41.5q28 115 115 188t212 73t212 -73t115 -188z" />
    <glyph glyph-name="uni020C" unicode="&#x20c;" horiz-adv-x="1323" 
d="M355 684q0 -86 12 -176t44 -166t92.5 -122.5t157.5 -46.5t157.5 46.5t92.5 122.5t43.5 166t11.5 176t-11.5 175.5t-43.5 165t-92.5 122t-157.5 46.5t-157.5 -46.5t-92.5 -122t-44 -165t-12 -175.5zM88 684q0 207 62.5 367t189.5 251t321 91q196 0 323 -91.5t188.5 -252
t61.5 -365.5q0 -207 -62 -367.5t-189 -252t-322 -91.5q-147 0 -255 52.5t-178.5 148.5t-105 226t-34.5 284zM354 1837l267 -283q-9 -31 -36 -59.5t-56 -40.5l-336 235q19 50 60 91.5t101 56.5zM737 1837l267 -283q-9 -30 -36 -59t-55 -41l-337 235q19 50 60 91.5t101 56.5z
" />
    </font>
</defs>
</svg>
