<?xml version="1.0" standalone="no"?>
<!DOCTYPE svg PUBLIC "-//W3C//DTD SVG 1.1//EN" "http://www.w3.org/Graphics/SVG/1.1/DTD/svg11.dtd" >
<svg xmlns="http://www.w3.org/2000/svg" xmlns:xlink="http://www.w3.org/1999/xlink" version="1.1">
<metadata>
Created by FontForge 20170731 at Wed Sep  1 20:26:44 2021
 By Aleksey,,,
Copyright 2018 The Signika Project Authors (https://github.com/googlefonts/Signika).
</metadata>
<defs>
<font id="SignikaNegative-Medium" horiz-adv-x="1929" >
  <font-face 
    font-family="Signika Negative Medium"
    font-weight="500"
    font-stretch="normal"
    units-per-em="2000"
    panose-1="0 0 0 0 0 0 0 0 0 0"
    ascent="1600"
    descent="-400"
    x-height="989"
    cap-height="1375"
    bbox="-452 -540 2475 2195"
    underline-thickness="50"
    underline-position="-175"
    unicode-range="U+000D-FB04"
  />
<missing-glyph horiz-adv-x="1273" 
d="M273 0q-96 0 -96 96v1178q0 96 96 96h727q96 0 96 -96v-1178q0 -96 -96 -96h-727zM286 17l-72 232l88 -20q15 36 30 67.5t41.5 78t75.5 126t132 211.5l50 56l357 575l82 -216l-87 20q-15 -36 -30.5 -67.5t-42 -78t-75.5 -126t-132 -211.5l-50 -56zM987 28l-386 610
q-91 144 -144.5 229t-82 133t-44 79.5t-30.5 67.5l-97 -20l91 219l386 -610q91 -144 144.5 -229t82 -133t43.5 -79.5t30 -67.5l98 20zM281 108q63 7 139.5 9.5t218.5 2.5q143 0 221.5 -2.5t141.5 -9.5q-8 74 -13 130t-7.5 113.5t-3.5 134.5t-1 194q0 115 1 193.5t3.5 139
t7.5 118.5t13 131q-62 -4 -141 -8t-222 -4q-142 0 -218.5 4t-139.5 8q8 -72 13 -130t7.5 -118.5t3.5 -139.5t1 -194q0 -117 -1 -194.5t-3.5 -135t-7.5 -113t-13 -129.5z" />
    <glyph glyph-name="f_f" unicode="ff" horiz-adv-x="1285" 
d="M304 987l320 3h40l251 -3l375 4q8 -42 8 -81q0 -43 -8 -82l-376 5l-250 -4h-40l-321 4l-277 -5q-4 21 -6.5 40.5t-2.5 41.5q0 38 9 81zM809 894q-6 71 -14.5 138.5t-8.5 129.5q0 90 37.5 161.5t108 113.5t169.5 42q71 0 143.5 -15t118.5 -33q1 -39 -12.5 -81.5
t-37.5 -67.5q-37 11 -82 20t-87 9q-69 0 -108 -42t-39 -121q0 -58 10 -124.5t19 -132.5v-891q-52 -9 -110 -9q-56 0 -107 9v894zM198 894q-7 68 -18.5 137t-11.5 131q0 90 37.5 161.5t108 113.5t169.5 42q56 0 110.5 -9t94.5 -22q2 -24 -3.5 -54t-15.5 -56.5t-23 -42.5
q-26 7 -56.5 11.5t-63.5 4.5q-69 0 -107.5 -42t-38.5 -121q0 -58 13 -124t22 -133v-891q-30 -4 -56.5 -6t-52.5 -2q-24 0 -51.5 2t-56.5 6v894z" />
    <glyph glyph-name="f_i" unicode="fi" horiz-adv-x="1166" 
d="M1019 0q-28 -4 -55.5 -6t-56.5 -2q-28 0 -55 2t-55 6v723q0 52 -19 79t-69 27h-158q-62 1 -123.5 1.5t-123.5 2.5l-277 -5q-9 42 -9 82q0 39 9 81l278 -4q139 2 266.5 4.5t251.5 2.5h29q79 0 123 -50.5t44 -135.5v-808zM198 894q-7 68 -19.5 137t-12.5 131
q0 90 37.5 161.5t108 113.5t169.5 42q45 0 93.5 -7t85.5 -18q2 -23 -3 -53t-15 -57.5t-23 -43.5q-28 6 -51 8.5t-46 2.5q-67 0 -106 -42t-39 -121q0 -58 14.5 -124t23.5 -133v-891q-30 -4 -56.5 -6t-52.5 -2q-24 0 -51.5 2t-56.5 6v894zM754 1256q0 23 4.5 48.5t13.5 44.5
q19 11 51 18t62 7q29 0 62.5 -7t51.5 -18q8 -19 12.5 -45t4.5 -48q0 -53 -17 -94q-16 -11 -50.5 -18t-63.5 -7q-30 0 -62.5 7t-50.5 18q-9 20 -13.5 45.5t-4.5 48.5z" />
    <glyph glyph-name="f_l" unicode="fl" horiz-adv-x="1244" 
d="M1167 166q18 -50 18 -111q0 -12 -1 -25t-4 -23q-35 -6 -84.5 -11t-92.5 -5q-102 0 -153.5 54t-51.5 162v1152l218 65v-1169q0 -89 80 -89h71zM304 987l347 4q9 -41 9 -81q0 -20 -2 -41t-7 -41l-348 5l-277 -5q-9 41 -9 82q0 39 9 81zM198 894q-6 71 -14.5 138.5
t-8.5 129.5q0 146 100 231.5t281 85.5q65 0 145 -8t162 -20.5t153 -26.5l-78 -158q-54 13 -117 23t-124 16t-108 6q-95 0 -149 -37t-54 -126q0 -58 10 -124.5t19 -132.5v-891q-52 -9 -110 -9q-55 0 -107 9v894z" />
    <glyph glyph-name="f_f_i" unicode="ffi" horiz-adv-x="1777" 
d="M198 894q-7 68 -18.5 137t-11.5 131q0 90 37.5 161.5t108 113.5t169.5 42q56 0 110.5 -9t94.5 -22q2 -24 -3.5 -54t-15.5 -56.5t-23 -42.5q-26 7 -56.5 11.5t-63.5 4.5q-69 0 -107.5 -42t-38.5 -121q0 -58 13 -124t22 -133v-891q-30 -4 -56.5 -6t-52.5 -2q-24 0 -51.5 2
t-56.5 6v894zM809 894q-7 68 -19.5 137t-12.5 131q0 90 37.5 161.5t108 113.5t169.5 42q46 0 94 -7t85 -18q2 -23 -3 -53t-15 -57.5t-23 -43.5q-28 6 -51.5 8.5t-45.5 2.5q-67 0 -106 -42t-39 -121q0 -58 14.5 -124t23.5 -133v-891q-30 -4 -56.5 -6t-52.5 -2q-24 0 -52 2
t-56 6v894zM1630 0q-28 -4 -55.5 -6t-56.5 -2q-28 0 -55 2t-56 6v723q0 49 -18.5 77.5t-68.5 28.5h-159q-62 0 -123.5 1.5t-123.5 2.5l-250 -4h-40l-321 4l-277 -5q-4 21 -6.5 40.5t-2.5 41.5q0 38 9 81l278 -4l320 3h40l251 -3q129 2 258.5 4.5t259.5 2.5h30
q78 0 122.5 -50.5t44.5 -135.5v-808zM1365 1252q0 23 5 48.5t13 44.5q19 11 51 18.5t62 7.5q29 0 62.5 -7.5t51.5 -18.5q8 -19 12.5 -45t4.5 -48q0 -23 -4.5 -48t-12.5 -45q-17 -11 -51 -18.5t-63 -7.5q-30 0 -62.5 7.5t-50.5 18.5q-8 20 -13 45t-5 48z" />
    <glyph glyph-name="f_f_l" unicode="ffl" horiz-adv-x="1853" 
d="M304 987l320 3h40l251 -3l347 4q5 -20 7 -40t2 -41q0 -22 -2 -42.5t-7 -39.5l-348 5l-250 -4h-40l-321 4l-277 -5q-4 21 -6.5 40.5t-2.5 41.5q0 38 9 81zM1777 166q8 -24 13 -53t5 -58q0 -12 -0.5 -25t-4.5 -23q-36 -6 -85 -11t-92 -5q-102 0 -153.5 54t-51.5 162v1152
l218 65v-1169q0 -89 79 -89h72zM808 894q-6 71 -14.5 138.5t-8.5 129.5q0 146 100 231.5t281 85.5q65 0 144.5 -8t162 -20.5t153.5 -26.5l-78 -158q-54 13 -117 23t-124 16t-108 6q-96 0 -149.5 -37t-53.5 -126q0 -58 10 -124.5t19 -132.5v-891q-52 -9 -110 -9q-56 0 -107 9
v894zM198 894q-7 68 -18.5 137t-11.5 131q0 90 37.5 161.5t108 113.5t169.5 42q56 0 110.5 -9t94.5 -22q2 -24 -3.5 -54t-15.5 -56.5t-23 -42.5q-26 7 -56.5 11.5t-63.5 4.5q-69 0 -107.5 -42t-38.5 -121q0 -58 13 -124t22 -133v-891q-30 -4 -56.5 -6t-52.5 -2
q-24 0 -51.5 2t-56.5 6v894z" />
    <glyph glyph-name="f_f_j" unicode="ffj" horiz-adv-x="1781" 
d="M915 987q105 0 194.5 2t170 3.5t159.5 1.5h29q77 0 121.5 -49t44.5 -136v-769q0 -100 -8.5 -178t-38 -136t-91 -98.5t-166.5 -66.5q-22 21 -40 58t-23 79q85 41 116 92t31 154v779q0 52 -19 79t-69 27h-165l-247 4l-250 -4h-40l-321 4l-277 -5q-4 21 -6.5 40.5t-2.5 41.5
q0 38 9 81l278 -4l320 3h40zM198 894q-7 68 -18.5 137t-11.5 131q0 90 37.5 161.5t108 113.5t169.5 42q56 0 110.5 -9t94.5 -22q2 -24 -3.5 -54t-15.5 -56.5t-23 -42.5q-26 7 -56.5 11.5t-63.5 4.5q-69 0 -107.5 -42t-38.5 -121q0 -58 13 -124t22 -133v-891q-30 -4 -56.5 -6
t-52.5 -2q-24 0 -51.5 2t-56.5 6v894zM809 894q-7 68 -19.5 137t-12.5 131q0 90 37.5 161.5t108 113.5t169.5 42q46 0 94 -7t85 -18q2 -23 -3 -53t-15 -57.5t-23 -43.5q-28 6 -51.5 8.5t-45.5 2.5q-67 0 -106 -42t-39 -121q0 -58 14.5 -124t23.5 -133v-891q-30 -4 -56.5 -6
t-52.5 -2q-24 0 -52 2t-56 6v894zM1369 1256q0 52 18 93q19 11 51 18t62 7q29 0 63 -7t50 -18q19 -41 19 -93t-19 -94q-15 -11 -49.5 -18t-63.5 -7q-30 0 -62.5 7t-50.5 18q-18 42 -18 94z" />
    <glyph glyph-name="f_f_t" unicode="fft" horiz-adv-x="1931" 
d="M1223 829l-310 4l-249 -4h-40l-321 4l-277 -5q-4 21 -6.5 40.5t-2.5 41.5q0 38 9 81l278 -4l320 3h40l251 -3l308 3h50l267 -4l331 5q5 -22 7 -41t2 -40q0 -22 -2 -42t-7 -40l-334 5l-263 -4h-51zM1408 1154q0 75 25 107.5t94 32.5h85l13 -12v-1029q0 -40 19 -63.5
t64 -23.5h133q19 -50 19 -111q0 -12 -1 -25t-4 -23q-50 -7 -109.5 -11.5t-118.5 -4.5q-107 0 -163 54t-56 162v947zM809 894q-6 71 -14.5 138.5t-8.5 129.5q0 90 37.5 161.5t108 113.5t169.5 42q58 0 117.5 -10.5t101.5 -24.5q2 -40 -11 -83t-36 -68q-31 7 -64 12.5t-65 5.5
q-69 0 -108 -42t-39 -121q0 -58 10 -124.5t19 -132.5v-891q-52 -9 -110 -9q-56 0 -107 9v894zM198 894q-7 68 -18.5 137t-11.5 131q0 90 37.5 161.5t108 113.5t169.5 42q56 0 110.5 -9t94.5 -22q2 -24 -3.5 -54t-15.5 -56.5t-23 -42.5q-26 7 -56.5 11.5t-63.5 4.5
q-69 0 -107.5 -42t-38.5 -121q0 -58 13 -124t22 -133v-891q-30 -4 -56.5 -6t-52.5 -2q-24 0 -51.5 2t-56.5 6v894z" />
    <glyph glyph-name="f_j" unicode="fj" horiz-adv-x="1171" 
d="M304 987q157 1 288.5 4t235.5 3h29q77 0 121.5 -49t44.5 -136v-769q0 -100 -8.5 -178t-38 -136t-90.5 -98.5t-166 -66.5q-23 21 -41 58t-23 79q85 41 116 92t31 154v779q0 52 -18.5 79t-68.5 27h-166q-62 1 -123.5 2t-123.5 2l-277 -5q-4 21 -6.5 40.5t-2.5 41.5
q0 38 9 81zM198 894q-7 68 -19.5 137t-12.5 131q0 90 37.5 161.5t108 113.5t169.5 42q45 0 93.5 -7t85.5 -18q2 -23 -3 -53t-15 -57.5t-23 -43.5q-28 6 -51 8.5t-46 2.5q-67 0 -106 -42t-39 -121q0 -58 14.5 -124t23.5 -133v-891q-30 -4 -56.5 -6t-52.5 -2q-24 0 -51.5 2
t-56.5 6v894zM752 1256q0 23 4.5 48.5t13.5 44.5q19 11 52 18t64 7q29 0 64 -7t52 -18q9 -19 13.5 -45t4.5 -48q0 -23 -4.5 -48.5t-13.5 -45.5q-16 -11 -51.5 -18t-64.5 -7q-31 0 -64.5 7t-51.5 18q-9 20 -13.5 45.5t-4.5 48.5z" />
    <glyph glyph-name="f_t" unicode="ft" horiz-adv-x="1321" 
d="M796 1154q0 75 26 107.5t95 32.5h84l13 -12v-1029q0 -40 19 -63.5t64 -23.5h134q18 -51 18 -111q0 -12 -0.5 -25t-4.5 -23q-50 -7 -109.5 -11.5t-118.5 -4.5q-107 0 -163.5 54t-56.5 162v947zM297 987l300 3h63l265 -4l336 5q8 -42 8 -81q0 -43 -8 -82l-339 5l-262 -4
h-63l-300 4l-271 -5q-4 21 -6.5 40.5t-2.5 41.5q0 38 9 81zM796 1154q0 75 26 107.5t95 32.5h84l13 -12v-1029q0 -40 19 -63.5t64 -23.5h134q18 -51 18 -111q0 -12 -0.5 -25t-4.5 -23q-50 -7 -109.5 -11.5t-118.5 -4.5q-107 0 -163.5 54t-56.5 162v947zM198 894
q-6 71 -14.5 138.5t-8.5 129.5q0 90 37.5 161.5t108 113.5t169.5 42q58 0 117.5 -10.5t101.5 -24.5q2 -40 -11 -83t-35 -68q-31 7 -64.5 12.5t-65.5 5.5q-69 0 -108 -42t-39 -121q0 -58 10 -124.5t19 -132.5v-891q-52 -9 -110 -9q-55 0 -107 9v894z" />
    <glyph glyph-name="v_i" unicode="vi" horiz-adv-x="1438" 
d="M1290 0q-46 -9 -110 -9q-63 0 -112 9v723q0 52 -19 79t-69 27h-114l-262 -829q-37 -6 -80.5 -8.5t-84.5 -2.5q-65 0 -100 22.5t-59 98.5l-272 862q36 16 68 24t60 8q48 0 77.5 -21t44.5 -76l127 -429q14 -48 28 -102.5t26 -103t18 -79.5q4 -16 19 -16l223 803
q23 7 53.5 9.5t54.5 2.5h316q77 0 122 -48.5t45 -134.5v-809zM1008 1258q0 52 18 93q20 11 52.5 18.5t63.5 7.5q29 0 64 -7.5t52 -18.5q8 -19 13 -45t5 -48q0 -23 -5 -48.5t-13 -45.5q-16 -11 -51.5 -18t-64.5 -7q-31 0 -64.5 7t-51.5 18q-18 43 -18 94z" />
    <glyph glyph-name="v_j" unicode="vj" horiz-adv-x="1447" 
d="M1014 1258q0 52 18 93q21 11 53.5 18.5t63.5 7.5q29 0 63.5 -7.5t51.5 -18.5q9 -18 14 -44t5 -49q0 -22 -5 -48t-14 -45q-16 -11 -51 -18t-64 -7q-31 0 -64.5 7t-52.5 18q-18 42 -18 93zM1131 992q77 0 121.5 -48t44.5 -135v-831q0 -127 -26.5 -209t-92.5 -131t-184 -77
q-22 21 -40 58t-24 79q85 41 116.5 92t31.5 154v779q0 52 -19.5 79t-68.5 27h-124l-262 -829q-37 -6 -80.5 -8.5t-84.5 -2.5q-65 0 -100 22.5t-59 98.5l-272 862q36 16 68 24t60 8q48 0 78 -21t44 -76l127 -429q14 -48 28 -102.5t26 -103t18 -79.5q4 -16 19 -16l223 803
q23 7 53.5 9.5t54.5 2.5h324z" />
    <glyph glyph-name=".notdef" horiz-adv-x="1273" 
d="M273 0q-96 0 -96 96v1178q0 96 96 96h727q96 0 96 -96v-1178q0 -96 -96 -96h-727zM286 17l-72 232l88 -20q15 36 30 67.5t41.5 78t75.5 126t132 211.5l50 56l357 575l82 -216l-87 20q-15 -36 -30.5 -67.5t-42 -78t-75.5 -126t-132 -211.5l-50 -56zM987 28l-386 610
q-91 144 -144.5 229t-82 133t-44 79.5t-30.5 67.5l-97 -20l91 219l386 -610q91 -144 144.5 -229t82 -133t43.5 -79.5t30 -67.5l98 20zM281 108q63 7 139.5 9.5t218.5 2.5q143 0 221.5 -2.5t141.5 -9.5q-8 74 -13 130t-7.5 113.5t-3.5 134.5t-1 194q0 115 1 193.5t3.5 139
t7.5 118.5t13 131q-62 -4 -141 -8t-222 -4q-142 0 -218.5 4t-139.5 8q8 -72 13 -130t7.5 -118.5t3.5 -139.5t1 -194q0 -117 -1 -194.5t-3.5 -135t-7.5 -113t-13 -129.5z" />
    <glyph glyph-name=".null" horiz-adv-x="0" 
 />
    <glyph glyph-name="nonmarkingreturn" horiz-adv-x="666" 
 />
    <glyph glyph-name="CR" unicode="&#xd;" horiz-adv-x="0" 
 />
    <glyph glyph-name="space" unicode=" " horiz-adv-x="440" 
 />
    <glyph glyph-name="exclam" unicode="!" horiz-adv-x="582" 
d="M200 393q-12 199 -25 396t-13 396v180q31 9 78 11.5t94 -0.5t78 -12v-180q0 -198 -14.5 -395.5t-26.5 -395.5q-21 -6 -43 -8.5t-41 -2.5q-18 0 -42 2.5t-45 8.5zM287 228q31 0 63.5 -7t53.5 -19q8 -14 13 -45t5 -53q0 -21 -5 -51.5t-13 -44.5q-21 -13 -53.5 -19.5
t-63.5 -6.5q-73 0 -119 26q-8 14 -12.5 44.5t-4.5 51.5q0 22 4.5 53t12.5 45q47 26 119 26z" />
    <glyph glyph-name="quotedbl" unicode="&#x22;" horiz-adv-x="797" 
d="M467 1411q0 26 3 50.5t8 48.5q22 13 48 20t58 7q30 0 57.5 -7t47.5 -20q6 -24 9 -48.5t3 -50.5q0 -18 -8.5 -82.5t-22.5 -156t-30 -189.5q-19 -11 -55 -11t-56 11q-16 98 -30.5 189.5t-23 156t-8.5 82.5zM96 1411q0 26 3 50.5t8 48.5q22 13 48 20t58 7q30 0 57.5 -7
t47.5 -20q6 -24 9 -48.5t3 -50.5q0 -18 -8.5 -82.5t-22.5 -156t-30 -189.5q-19 -11 -55 -11t-56 11q-16 98 -30.5 189.5t-23 156t-8.5 82.5z" />
    <glyph glyph-name="numbersign" unicode="#" horiz-adv-x="1312" 
d="M199 26q17 -8 44 -12t55 -4q29 0 55.5 4t44.5 12l281 1255q-37 16 -98 16q-28 0 -55 -4t-46 -12zM648 26q16 -8 43 -12t55 -4q29 0 56 4t45 12l281 1255q-37 16 -99 16q-28 0 -54.5 -4t-45.5 -12zM1162 303q14 38 14 91t-14 91h-1104q-6 -19 -9.5 -42.5t-3.5 -48.5
t3.5 -48.5t9.5 -42.5h1104zM1259 823q14 38 14 91t-14 91h-1104q-6 -19 -9.5 -42.5t-3.5 -48.5q0 -24 3.5 -48t9.5 -43h1104z" />
    <glyph glyph-name="dollar" unicode="$" horiz-adv-x="1080" 
d="M521 53q-84 0 -165 18.5t-147.5 47.5t-108.5 58q1 30 13 64t31.5 63t42.5 44q68 -45 157 -78.5t174 -33.5q80 -1 132 34t53 99q1 51 -31 91.5t-104 65.5l-191 68q-108 39 -174.5 111.5t-66.5 182.5q0 96 48.5 171.5t134 118t196.5 42.5q117 0 213.5 -26.5t170.5 -65.5
q0 -46 -22.5 -94t-56.5 -78q-70 37 -143.5 58.5t-142.5 21.5q-78 0 -124 -33.5t-46 -90.5q0 -55 36.5 -83t96.5 -50l181 -66q117 -43 186.5 -124t69.5 -210q0 -95 -51 -169t-143.5 -115.5t-218.5 -41.5zM509 -125q-24 0 -47.5 2t-40.5 7v233h174v-233q-16 -5 -39 -7t-47 -2z
M441 1150v239q18 5 41.5 7t45.5 2q23 0 46.5 -2t40.5 -7v-239h-174z" />
    <glyph glyph-name="percent" unicode="%" horiz-adv-x="1839" 
d="M1744 390q0 -186 -74 -300.5t-246 -114.5q-116 0 -186 53t-101.5 146.5t-31.5 215.5q0 184 73 298t246 114q115 0 185.5 -52.5t102.5 -145t32 -214.5zM1293 390q0 -72 10 -133.5t38.5 -99.5t83.5 -38t83 38t37.5 99.5t9.5 133.5q0 71 -9.5 132t-37.5 98.5t-83 37.5
t-83.5 -37.5t-38.5 -98.5t-10 -132zM735 879q0 -185 -74 -299.5t-246 -114.5q-117 0 -187 52.5t-101 146.5t-31 215q0 184 73.5 298.5t245.5 114.5q173 0 246.5 -115t73.5 -298zM284 879q0 -72 10 -133.5t38.5 -99t83.5 -37.5t83 37.5t38 99t10 133.5q0 71 -10 132.5
t-38 98.5t-83 37t-83.5 -37t-38.5 -98.5t-10 -132.5zM1168 1279q28 9 72 11t84.5 -1t59.5 -10l-705 -1279q-28 -8 -71.5 -10.5t-84.5 0.5t-61 10z" />
    <glyph glyph-name="ampersand" unicode="&#x26;" horiz-adv-x="1255" 
d="M1002 818q54 0 106 8t87 25q16 -18 23 -47.5t7 -59.5q0 -65 -43 -91t-113 -26h-459q-98 0 -159 -36t-89.5 -94t-28.5 -124q0 -106 56 -163t147 -57q80 0 147 28t108 62v259q0 45 1.5 109.5t5.5 118.5h207q4 -54 5.5 -119t1.5 -108v-198q0 -69 3 -153t9 -152
q-40 -12 -104 -12q-61 0 -103 10l-17 83q-64 -48 -146.5 -78t-171.5 -30q-126 0 -211.5 51.5t-129.5 139t-44 195.5q0 112 51.5 198.5t131 136.5t164.5 51v-30q-79 3 -145 46t-105 114.5t-39 158.5q0 102 50 183t144.5 128.5t226.5 47.5q105 0 205 -17.5t170 -43.5
q1 -43 -14.5 -92.5t-44.5 -80.5q-66 21 -138.5 36.5t-152.5 15.5q-102 0 -156 -54t-54 -138q0 -92 58 -146.5t182 -54.5h371z" />
    <glyph glyph-name="quotesingle" unicode="'" horiz-adv-x="431" 
d="M90 1411q0 26 3 50.5t8 48.5q22 13 48 20t58 7q30 0 57.5 -7t47.5 -20q6 -24 9 -48.5t3 -50.5q0 -18 -8.5 -82.5t-22.5 -156t-30 -189.5q-19 -11 -55 -11t-56 11q-16 98 -30.5 189.5t-23 156t-8.5 82.5z" />
    <glyph glyph-name="parenleft" unicode="(" horiz-adv-x="676" 
d="M361 548q0 -153 30 -310t92.5 -306t160.5 -278q-22 -47 -57.5 -76.5t-74.5 -42.5q-127 123 -213.5 293t-130.5 357.5t-44 362.5q0 176 44 363.5t130.5 357.5t213.5 293q39 -12 74.5 -42t57.5 -78q-98 -128 -160.5 -276.5t-92.5 -306t-30 -311.5z" />
    <glyph glyph-name="parenright" unicode=")" horiz-adv-x="676" 
d="M315 548q0 -153 -30 -310t-92.5 -306t-160.5 -278q22 -47 57.5 -76.5t74.5 -42.5q127 123 213.5 293t130.5 357.5t44 362.5q0 176 -44 363.5t-130.5 357.5t-213.5 293q-39 -12 -74.5 -42t-57.5 -78q98 -128 160.5 -276.5t92.5 -306t30 -311.5z" />
    <glyph glyph-name="asterisk" unicode="*" horiz-adv-x="1014" 
d="M411 1461q23 10 59 13t72.5 0t59.5 -13l-3 -114q-1 -68 -19 -140t-34 -134q-19 -22 -39 -22q-23 0 -41 22q-15 62 -33 134t-19 140zM87 1087q-3 24 5.5 59.5t22.5 69t32 53.5l106 -37q65 -23 128 -63t117 -73q16 -25 9 -45q-4 -11 -12 -19t-23 -12q-63 4 -137 9t-139 25z
M342 664q-24 5 -55 23t-58.5 42t-40.5 47l68 89q42 55 99.5 103t104.5 88q29 8 47 -5q8 -6 13.5 -16.5t5.5 -24.5q-24 -60 -51.5 -128.5t-68.5 -124.5zM823 774q-12 -21 -38.5 -44.5t-57.5 -42t-57 -24.5l-64 93q-40 56 -67.5 125t-51.5 128q1 28 20 42q8 6 20 8t25 -3
q50 -40 106.5 -88.5t97.5 -103.5zM867 1267q16 -18 30 -50.5t23 -68.5t7 -62l-110 -33q-65 -19 -139.5 -23.5t-136.5 -9.5q-27 9 -34 31q-8 20 7 44q55 36 118 74.5t128 60.5z" />
    <glyph glyph-name="plus" unicode="+" horiz-adv-x="1080" 
d="M122 723q-10 -43 -10 -94q0 -54 10 -94h217q27 0 56 1t55 1h180q26 0 55 -1t56 -1h217q10 41 10 94q0 27 -2.5 48.5t-7.5 45.5h-217q-27 0 -56 -1t-55 -1h-180q-26 0 -55 1t-56 1h-217zM440 825q0 -27 1 -56t1 -55v-169q0 -27 -1 -55t-1 -55v-237q24 -5 49.5 -6.5
t52.5 -1.5q26 0 50.5 1.5t47.5 6.5v237q0 27 -1 55t-1 55v169q0 26 1 55t1 56v235q-23 5 -48.5 6.5t-51.5 1.5q-27 0 -51.5 -1.5t-48.5 -6.5v-235z" />
    <glyph glyph-name="comma" unicode="," horiz-adv-x="545" 
d="M402 215q12 -28 17.5 -63.5t5.5 -72.5q0 -86 -34 -166t-101.5 -143.5t-169.5 -97.5q-29 15 -44 47t-12 63q69 29 116 81.5t52 119.5q-20 4 -44 11t-37 18q-8 14 -13.5 43.5t-5.5 54.5q0 27 5.5 59t13.5 46q20 11 57.5 19.5t69.5 8.5q31 0 68 -8t56 -20z" />
    <glyph glyph-name="hyphen" unicode="-" horiz-adv-x="707" 
d="M101 440q-6 22 -8 47.5t-2 45.5q0 21 2 47t8 48h506q5 -22 7 -48t2 -47q0 -20 -2 -45.5t-7 -47.5h-506z" />
    <glyph glyph-name="period" unicode="." horiz-adv-x="533" 
d="M119 113q0 18 5 51t15 52q22 12 58.5 20t68.5 8t70 -8t58 -20q10 -19 14.5 -52t4.5 -51t-4.5 -50.5t-14.5 -52.5q-19 -12 -57.5 -20t-70.5 -8t-68.5 8t-58.5 20q-10 20 -15 52.5t-5 50.5z" />
    <glyph glyph-name="slash" unicode="/" horiz-adv-x="853" 
d="M643 1424q48 -4 100 -22t92 -50l-631 -1676q-48 4 -99 22t-93 51z" />
    <glyph glyph-name="zero" unicode="0" horiz-adv-x="1080" 
d="M97 633q0 180 27 314t119 231q52 52 121.5 83.5t176.5 31.5t175 -31.5t121 -83.5q91 -97 118.5 -231t27.5 -314t-27.5 -314t-118.5 -231q-53 -52 -121.5 -83.5t-175.5 -31.5q-106 0 -175 31.5t-122 83.5q-91 97 -118.5 231t-27.5 314zM329 633q0 -163 16 -263t55 -152
q23 -36 59 -53.5t81 -17.5q46 0 81.5 17.5t58.5 53.5q38 52 54.5 152t16.5 263q0 164 -16.5 263.5t-54.5 151.5q-23 36 -58.5 53.5t-81.5 17.5q-45 0 -81 -17.5t-59 -53.5q-38 -52 -54.5 -151.5t-16.5 -263.5z" />
    <glyph glyph-name="one" unicode="1" horiz-adv-x="1080" 
d="M706 320q0 -40 -1 -77.5t-1 -79.5v-75h-214v75q0 42 -1 79.5t-1 77.5v397q0 35 3.5 96t6.5 123t2 101l-5 229q29 6 56 8t51 2t49.5 -2t54.5 -8v-946zM373 185q21 0 60.5 -1t60.5 -1h206q21 0 62.5 1t62.5 1h132q11 -44 11 -93q0 -46 -11 -92h-764q-10 48 -10 92
q0 49 10 93h180zM118 879q147 90 241 191t136 196l81 -177q-26 -74 -85 -140t-132.5 -118t-145.5 -84q-35 19 -60.5 54.5t-34.5 77.5z" />
    <glyph glyph-name="two" unicode="2" horiz-adv-x="1080" 
d="M127 995q28 80 85 147.5t139 109t186 41.5q121 0 209.5 -48t136.5 -132.5t48 -195.5q0 -94 -34.5 -164.5t-91 -128t-122.5 -112.5l-152 -125q-53 -45 -97.5 -88t-71 -79.5t-27.5 -61.5l-5 -159h-131q-33 36 -60 71t-27 79q0 57 35 118t91.5 122t121.5 117l198 168
q66 57 105 114t39 132q0 87 -51.5 138t-134.5 51q-81 0 -140 -55t-89 -133q-41 2 -89.5 20.5t-70.5 53.5zM963 193q0 -112 -33.5 -153t-113.5 -41h-603l-63 143q62 19 148 30.5t170.5 16t141.5 4.5h353z" />
    <glyph glyph-name="three" unicode="3" horiz-adv-x="1080" 
d="M733 404q0 102 -59.5 157.5t-158.5 55.5q-32 0 -67.5 -8t-64.5 -24q-30 17 -55 51t-33 69q56 27 125 43.5t155 16.5q106 0 195 -40t142 -122t53 -208q0 -105 -39 -184t-104.5 -131.5t-147 -79.5t-168.5 -27q-129 0 -232.5 38.5t-169.5 95.5q8 40 35 81t62 68
q58 -43 126.5 -72t150.5 -29q73 0 130.5 28.5t91 84t33.5 136.5zM669 825q-35 -36 -80.5 -68t-90 -57.5t-76.5 -40.5l-127 46l240 249q16 17 41.5 42t51.5 49.5t43 39.5l-7 9q-34 -9 -99.5 -14t-125.5 -5h-277q-9 24 -11.5 45.5t-2.5 37.5q0 24 4 52t16 56h701
q26 -48 36.5 -82t10.5 -57q0 -24 -10 -48t-35 -50z" />
    <glyph glyph-name="four" unicode="4" horiz-adv-x="1080" 
d="M131 267q-22 34 -35.5 69.5t-13.5 66.5q0 25 12 57.5t27 67.5l340 751q31 7 72 3.5t78 -15.5t56 -31l-217 -476q-19 -43 -46 -100.5t-55 -113.5t-53 -93l5 -8q39 4 86 6t87.5 2.5t61.5 0.5h271q27 0 48.5 1t47.5 1h99q3 -21 4 -42.5t1 -40.5q0 -22 -3 -50t-11 -54h-90
q-26 0 -47.5 0.5t-48.5 0.5h-212q-26 0 -56 -1.5t-57 -1.5h-351zM593 158q0 27 1 56.5t1 55.5v160q0 13 -1 42t-1 43v144q0 80 40 125.5t109 45.5h58l9 -9v-255q0 -26 -1 -55.5t-1 -56.5v-184q0 -26 1 -55.5t1 -56.5v-158q-27 -5 -54.5 -7t-53.5 -2t-53.5 2t-54.5 7v158z
" />
    <glyph glyph-name="five" unicode="5" horiz-adv-x="1080" 
d="M389 860q-2 -41 -9 -83t-19 -80q-43 -15 -92.5 -24t-106.5 -14l31 593l196 -32q5 -28 7 -74.5t2.5 -91.5t-1.5 -71zM116 102q7 35 33.5 80t60.5 69q60 -42 125 -68.5t145 -26.5q65 0 121.5 28.5t91.5 88t35 151.5t-36 145.5t-90.5 75.5t-112.5 22q-56 0 -112 -21
t-105 -62q-30 5 -62 28t-48 47q40 43 98.5 85t132 70t157.5 28q187 0 298 -109t111 -298q0 -158 -67.5 -260.5t-173.5 -152t-222 -49.5q-118 0 -216 36.5t-164 92.5zM891 1266q10 -25 13 -49.5t3 -41.5q0 -98 -98 -98h-343q-51 0 -103.5 1.5t-96 4.5t-66.5 5l-7 164l14 14
h684z" />
    <glyph glyph-name="six" unicode="6" horiz-adv-x="1080" 
d="M553 -27q-90 0 -152 24t-100.5 55t-56.5 53q-14 17 -37 49t-46.5 90t-39.5 152.5t-16 235.5q0 202 59.5 350.5t175.5 229.5t284 81q89 0 165.5 -17.5t130.5 -47.5q-4 -43 -24.5 -87t-54.5 -70q-38 17 -88 30t-114 13q-109 0 -175 -54t-96.5 -146.5t-30.5 -209.5v-177
q0 -53 8 -112t25 -111.5t45 -89.5q24 -29 58.5 -49.5t82.5 -20.5q100 0 151.5 73t51.5 190q0 95 -25.5 150.5t-69.5 79.5t-101 24q-51 0 -104 -21.5t-99.5 -61.5t-80.5 -94l-44 119q30 64 87 119.5t133 89.5t165 34q163 0 263.5 -103t100.5 -321q0 -136 -56 -236.5
t-153.5 -156.5t-221.5 -56z" />
    <glyph glyph-name="seven" unicode="7" horiz-adv-x="1080" 
d="M941 1266q15 -31 28 -70.5t13 -68.5q0 -19 -9 -43.5t-29 -52.5q-98 -131 -168.5 -246.5t-117.5 -227t-74.5 -229t-40.5 -253.5l-6 -75q-23 -5 -52.5 -7.5t-62.5 -2.5q-30 0 -60 2.5t-55 7.5l8 84q18 182 78.5 364t157 346t220.5 291l-8 9q-21 -5 -62.5 -8.5t-89.5 -6
t-88.5 -3.5t-60.5 -1h-326q-11 36 -11 77q0 30 5.5 59.5t14.5 54.5h796z" />
    <glyph glyph-name="eight" unicode="8" horiz-adv-x="1080" 
d="M93 319q0 94 46.5 170t120 129t153.5 77l163 -63q-130 -41 -193.5 -124t-63.5 -173q0 -96 63 -148.5t156 -52.5q62 0 111.5 25t78.5 70.5t29 106.5q0 63 -32.5 109t-86.5 78.5t-118 51.5l-37 14q-103 34 -184 82.5t-126.5 118.5t-45.5 166q0 97 54.5 173t147.5 120
t210 44q123 0 215.5 -42t144 -116t51.5 -171q0 -81 -40 -145t-104.5 -108t-137.5 -66l-156 65q104 32 161.5 97.5t57.5 147.5q0 81 -55.5 128t-137.5 47q-79 0 -134 -47.5t-55 -124.5t60 -125t162 -77l36 -12q106 -33 192 -87.5t136.5 -134t50.5 -188.5q0 -112 -62 -193.5
t-166 -124.5t-229 -43q-195 0 -315.5 91t-120.5 255z" />
    <glyph glyph-name="nine" unicode="9" horiz-adv-x="1080" 
d="M527 1293q90 0 152.5 -24t101 -54.5t55.5 -53.5q14 -17 37 -49t46.5 -90t39.5 -152.5t16 -235.5q0 -202 -59.5 -350.5t-175 -229.5t-284.5 -81q-89 0 -165 17.5t-131 47.5q4 43 24.5 87t54.5 70q38 -16 88.5 -29.5t113.5 -13.5q109 0 175 54t96.5 147t30.5 209v177
q0 54 -7.5 112.5t-24.5 111.5t-46 89q-24 30 -58.5 50t-82.5 20q-100 0 -151.5 -73t-51.5 -190q0 -95 25.5 -150.5t70 -79.5t100.5 -24q52 0 104.5 21.5t99.5 61.5t80 94l44 -119q-30 -64 -86.5 -119.5t-133 -89.5t-165.5 -34q-162 0 -263 103t-101 321q0 136 56 236.5
t154 156.5t221 56z" />
    <glyph glyph-name="colon" unicode=":" horiz-adv-x="545" 
d="M125 113q0 18 5 51t15 52q22 12 58.5 20t68.5 8t70 -8t58 -20q10 -19 14.5 -52t4.5 -51t-4.5 -50.5t-14.5 -52.5q-19 -12 -57.5 -20t-70.5 -8t-68.5 8t-58.5 20q-10 20 -15 52.5t-5 50.5zM125 765q0 18 5 51t15 52q22 12 58.5 20t68.5 8t70 -8t58 -20q10 -19 14.5 -52
t4.5 -51t-4.5 -50.5t-14.5 -52.5q-19 -12 -57.5 -20t-70.5 -8t-68.5 8t-58.5 20q-10 20 -15 52.5t-5 50.5z" />
    <glyph glyph-name="semicolon" unicode=";" horiz-adv-x="553" 
d="M400 215q12 -28 17.5 -63.5t5.5 -72.5q0 -86 -34 -166t-101.5 -143.5t-169.5 -97.5q-29 15 -44 47t-12 63q69 29 116 81.5t52 119.5q-20 4 -44 11t-37 18q-8 14 -13.5 43.5t-5.5 54.5q0 27 5.5 59t13.5 46q20 11 57.5 19.5t69.5 8.5q31 0 68 -8t56 -20zM129 765
q0 18 5 51t15 52q22 12 58.5 20t68.5 8t70 -8t58 -20q10 -19 14.5 -52t4.5 -51t-4.5 -50.5t-14.5 -52.5q-19 -12 -57.5 -20t-70.5 -8t-68.5 8t-58.5 20q-10 20 -15 52.5t-5 50.5z" />
    <glyph glyph-name="less" unicode="&#x3c;" horiz-adv-x="1080" 
d="M851 1117q41 -23 70 -70.5t33 -103.5l-460 -240q-27 -14 -75.5 -36t-74.5 -33v-13q26 -10 74.5 -32t75.5 -37l460 -240q-5 -54 -35 -103.5t-68 -72.5l-735 404q-9 39 -10.5 87t10.5 88z" />
    <glyph glyph-name="equal" unicode="=" horiz-adv-x="1080" 
d="M122 339q-6 23 -8 48.5t-2 45.5q0 21 2 46.5t8 48.5h836q6 -23 8 -48.5t2 -46.5q0 -20 -2 -45.5t-8 -48.5h-836zM122 735q-6 22 -8 47.5t-2 45.5q0 21 2 47t8 48h836q6 -22 8 -48t2 -47q0 -20 -2 -45.5t-8 -47.5h-836z" />
    <glyph glyph-name="greater" unicode="&#x3e;" horiz-adv-x="1069" 
d="M223 139q-39 24 -68.5 72t-33.5 102l459 240q29 15 77 37t73 32v14q-25 11 -73 32.5t-77 36.5l-459 240q5 55 35 103.5t68 71.5l734 -403q10 -39 11 -87t-11 -88z" />
    <glyph glyph-name="question" unicode="?" horiz-adv-x="799" 
d="M19 1289q81 45 180 74t206 29q176 0 276.5 -94.5t100.5 -249.5q0 -141 -75.5 -234.5t-185.5 -154.5l-124 -69l-17 -196q-19 -7 -40 -9.5t-41 -2.5q-22 0 -45 2.5t-44 9.5l-12 298l18 24l100 49q103 52 167 114t64 146q0 78 -50.5 125t-140.5 47q-67 0 -132 -21.5
t-124 -51.5q-29 25 -53.5 73t-27.5 92zM297 225q32 0 65 -7t54 -19q8 -14 13 -44.5t5 -52.5t-5 -52t-13 -45q-21 -12 -54 -19t-65 -7t-64 7t-54 19q-8 15 -12.5 45t-4.5 52t4.5 52.5t12.5 44.5q46 26 118 26z" />
    <glyph glyph-name="at" unicode="@" horiz-adv-x="1907" 
d="M1334 316q0 -72 20.5 -102.5t63.5 -30.5q47 0 90.5 38t71 127t27.5 240q0 184 -76.5 319.5t-216 210t-328.5 74.5q-151 0 -274 -55.5t-210.5 -156t-135 -236t-47.5 -294.5q0 -217 74.5 -363.5t207.5 -221t311 -74.5q108 0 209.5 18.5t193.5 55.5q27 -27 43 -71.5
t16 -83.5q-70 -28 -149.5 -48t-163 -31.5t-164.5 -11.5q-232 0 -412.5 92.5t-283.5 277.5t-103 461q0 196 65.5 361t184 288t281.5 190.5t357 67.5q183 0 337 -53.5t266.5 -154.5t174.5 -244t62 -323q0 -189 -60.5 -315t-155 -188.5t-198.5 -62.5q-88 0 -152.5 35.5
t-99.5 97.5t-35 142v457q-24 24 -62 40t-83 16q-68 0 -111.5 -47t-64 -125t-20.5 -172q0 -128 35 -204t118 -76q43 0 89.5 27t84.5 69t56 88l81 -108q-25 -58 -80 -115t-127.5 -95.5t-151.5 -38.5q-152 0 -236.5 122.5t-84.5 323.5q0 143 47.5 259t139.5 184t225 68
q107 0 201 -41.5t153 -98.5v-508z" />
    <glyph glyph-name="A" unicode="A" horiz-adv-x="1231" 
d="M486 1366q28 4 66.5 6.5t66.5 2.5q27 0 66 -2.5t63 -7.5l446 -1351q-24 -14 -60.5 -21.5t-72.5 -7.5q-54 0 -84 25t-52 97l-209 668q-27 87 -55.5 186.5t-50.5 182.5h-11q-15 -70 -39 -157t-42 -146l-265 -843q-21 -5 -46.5 -7t-51.5 -2q-29 0 -59 4t-52 12l-8 11z
M467 323q-10 0 -37 0.5t-54.5 1t-37.5 0.5h-109l71 185h96q10 0 34.5 0.5t48.5 1t33 0.5h192q10 0 34.5 -0.5t49.5 -1t35 -0.5h98l61 -185h-109q-10 0 -38 -0.5t-55 -1t-37 -0.5h-276z" />
    <glyph glyph-name="B" unicode="B" horiz-adv-x="1213" 
d="M190 1368q112 2 217 4.5t205 2.5q147 0 245 -43t147.5 -123.5t49.5 -195.5q0 -76 -33.5 -140.5t-92.5 -106.5t-134 -51v30q83 -2 157 -50.5t121 -129t47 -181.5q0 -116 -51.5 -204t-158 -138.5t-271.5 -50.5q-119 0 -225.5 2.5t-222.5 4.5l-13 13v1344zM403 161
q61 1 120 1.5t112 0.5q78 0 127.5 22t76.5 57t37 76t10 78q0 49 -22.5 103.5t-79.5 92.5t-160 38h-310v174h289q90 0 138.5 31t66 77t17.5 92q0 48 -17 93.5t-64 75t-138 29.5q-39 0 -97.5 0.5t-105.5 1.5v-1043z" />
    <glyph glyph-name="C" unicode="C" horiz-adv-x="1209" 
d="M913 883q1 77 -23 152t-83 124t-164 49q-154 0 -231 -135.5t-77 -396.5q0 -243 85.5 -373t237.5 -130q95 0 183 40.5t172 109.5q36 -24 69 -66t43 -82q-55 -55 -133.5 -101t-173.5 -73.5t-198 -27.5q-146 0 -246.5 59.5t-162 160t-89 226.5t-27.5 258q0 249 76 407.5
t202 234t275 75.5t258.5 -55.5t168.5 -145.5t59 -194q0 -60 -30.5 -94.5t-98.5 -34.5q-26 0 -46.5 3.5t-45.5 9.5z" />
    <glyph glyph-name="D" unicode="D" horiz-adv-x="1302" 
d="M1204 683q0 -117 -15.5 -224.5t-61 -200.5t-137.5 -167q-44 -36 -106 -58t-126.5 -32.5t-118.5 -10.5q-81 0 -150.5 1t-140.5 3t-158 4l-13 13v1344l13 13q86 3 157 4.5t141 2t151 0.5q54 0 119 -10.5t127 -32.5t105 -58q91 -74 136.5 -167.5t61.5 -200.5t16 -223z
M968 683q0 88 -11.5 177.5t-45.5 164.5t-99.5 121t-173.5 46q-60 0 -113.5 0.5t-119.5 1.5v-1020q66 0 119.5 -0.5t113.5 -0.5q108 0 173.5 46.5t99.5 121.5t45.5 165t11.5 177z" />
    <glyph glyph-name="E" unicode="E" horiz-adv-x="1134" 
d="M176 1353l13 13h210v-188q0 -42 1 -69.5t1 -68.5v-746q0 -28 -1 -52.5t-1 -54.5v-190h-92q-61 0 -96 37.5t-35 102.5v1216zM892 784q6 -22 9 -49t3 -46t-3 -45t-9 -49h-365q-23 0 -60 0.5t-76 1t-69 0.5v184q30 1 69 1.5t76 1t60 0.5h365zM1002 1366q5 -25 6.5 -48
t1.5 -42q0 -20 -4.5 -48.5t-13.5 -54.5h-465h-60t-76 1t-69 2v190h680zM1043 191q0 -102 -31.5 -148t-119.5 -46h-570v185q50 3 99 6t112 3h510z" />
    <glyph glyph-name="F" unicode="F" horiz-adv-x="1047" 
d="M406 0q-28 -5 -57.5 -7t-56.5 -2q-26 0 -57 2t-58 7v1354l13 12h214v-104q0 -78 1 -157.5t1 -156.5v-948zM991 1366q7 -19 9.5 -44t2.5 -46q0 -55 -31.5 -80.5t-95.5 -25.5h-288q-81 0 -148.5 1.5t-125.5 4.5v190h677zM883 781q6 -21 8.5 -48t2.5 -46q0 -20 -2.5 -46.5
t-8.5 -49.5h-399q-38 0 -82.5 1.5t-82.5 1.5v185q38 0 82.5 1t82.5 1h399z" />
    <glyph glyph-name="G" unicode="G" horiz-adv-x="1290" 
d="M1163 1246q-7 -51 -40 -98t-69 -70q-71 53 -163.5 86.5t-186.5 33.5q-107 0 -191.5 -51.5t-133 -167t-48.5 -308.5q0 -261 97 -385.5t290 -124.5q104 0 193 22.5t137 41.5l118 -167q-59 -22 -139 -41.5t-169.5 -31.5t-179.5 -12q-161 0 -272 55t-179.5 151.5t-100 223.5
t-31.5 271q0 189 51 325t137 223t193.5 129t221.5 42q126 0 250 -40t215 -107zM948 403q0 70 4.5 132.5t17.5 111.5l196 -67v-522l-218 -3v348zM1006 727q90 0 125 -38.5t35 -108.5v-48h-374q-30 0 -55.5 7.5t-41 28.5t-15.5 62q0 24 5 50t12 47h309z" />
    <glyph glyph-name="H" unicode="H" horiz-adv-x="1352" 
d="M515 607q-9 0 -32 0.5l-46 1t-33 0.5q-34 0 -68 -1t-68 -1v195q34 0 68 -1t68 -1q10 0 33 0.5l46 1t32 0.5h323q10 0 32.5 -0.5l45 -1t33.5 -0.5q33 0 67.5 1t68.5 1v-195q-34 0 -68.5 1t-67.5 1q-11 0 -33.5 -0.5l-45 -1t-32.5 -0.5h-323zM406 0q-27 -5 -58 -7t-58 -2
q-23 0 -55 2t-58 7v1366q26 5 58 7t55 2q27 0 58 -2t58 -7v-418q0 -42 -1 -74.5t-1 -73.5v-191q0 -40 1 -73t1 -75v-461zM947 461q0 42 1 75t1 73v191q0 41 -1 73.5t-1 74.5v418q26 5 57 7t56 2t57 -2t58 -7v-1366q-27 -5 -56.5 -7t-56.5 -2q-26 0 -57 2t-58 7v461z" />
    <glyph glyph-name="I" unicode="I" horiz-adv-x="593" 
d="M182 1366q26 5 58 7t56 2q26 0 57.5 -2t57.5 -7v-1366q-26 -5 -57.5 -7t-57.5 -2q-24 0 -56 2t-58 7v1366z" />
    <glyph glyph-name="J" unicode="J" horiz-adv-x="903" 
d="M104 235q44 -26 99.5 -45t109.5 -19q121 0 165 73t44 227v895q26 5 58.5 7t57.5 2t56 -2t57 -7v-865q0 -111 -16.5 -206t-60.5 -165.5t-126.5 -110t-213.5 -39.5q-78 0 -162.5 22t-151.5 63q9 46 30.5 91t53.5 79z" />
    <glyph glyph-name="K" unicode="K" horiz-adv-x="1200" 
d="M177 1366q26 5 58 7t55 2q27 0 58 -2t58 -7v-1366q-27 -5 -58 -7t-58 -2q-23 0 -55 2t-58 7v1366zM1170 58q-23 -34 -67 -53t-87 -19q-66 0 -95.5 35t-52.5 103l-104 284q-40 111 -91.5 155.5t-138.5 44.5q-33 0 -95 -2.5t-151 -8.5v148h351q105 0 167.5 -29.5t100 -86
t66.5 -136.5l105 -283q25 -67 44.5 -97t47.5 -55zM834 1283q25 45 51 68t82 23q29 0 63.5 -2t68.5 -5l14 -19l-294 -505q-46 -82 -116 -129.5t-177 -47.5h-238v131q52 3 111.5 4t108.5 2q32 0 46.5 12.5t32.5 44.5z" />
    <glyph glyph-name="L" unicode="L" horiz-adv-x="1027" 
d="M405 -3h-96q-59 0 -96 36.5t-37 104.5v1225l13 13h86q70 0 100 -35.5t30 -111.5v-1232zM974 196q0 -114 -35.5 -156.5t-118.5 -42.5h-511l-119 168q98 16 203 23.5t191 7.5h390z" />
    <glyph glyph-name="M" unicode="M" horiz-adv-x="1623" 
d="M248 1365q38 7 82.5 9t72.5 2t67.5 -2t77.5 -9l179 -606q7 -23 18 -67t24 -94.5t23 -95t13 -67.5h12q4 23 14 67.5t22.5 95t24 94.5t18.5 67l179 606q40 7 78.5 9t66.5 2t71.5 -2t83.5 -9l106 -1362q-25 -6 -57 -9.5t-60 -3.5q-26 0 -51 2t-50 6l-45 706q-3 57 -6.5 131
t-6 149t-3.5 135h-12l-263 -911q-25 -4 -58 -6.5t-59 -2.5q-24 0 -57 2.5t-58 6.5l-263 911h-11l-4.5 -135t-5.5 -149t-6 -131l-45 -706q-25 -4 -51 -6t-53 -2q-28 0 -59 3.5t-55 9.5z" />
    <glyph glyph-name="N" unicode="N" horiz-adv-x="1365" 
d="M177 1363q27 6 69 9t67 3q26 0 63.5 -2t71.5 -7l-59 -265l-18 -3q5 -72 9 -161t6.5 -179.5t2.5 -165.5v-592q-28 -5 -55 -7t-50 -2q-21 0 -50.5 2t-56.5 7v1363zM504 821q-37 75 -68 145.5t-58 132.5l-106 128l176 139l406 -820q39 -80 72.5 -155.5t60.5 -136.5l114 -120
l-188 -134zM1188 1364v-1361q-28 -6 -68.5 -9t-70.5 -3q-29 0 -65 2t-71 7l63 253l18 3q-6 82 -10 175.5t-6 182.5t-2 158v462q0 76 27.5 109t96.5 33h75z" />
    <glyph glyph-name="O" unicode="O" horiz-adv-x="1318" 
d="M334 684q0 -89 13 -182t47.5 -172t98.5 -127t166 -48t166 48t98 127t47 172t13 182t-13 181.5t-47 171t-98 126.5t-166 48t-166 -48t-98.5 -126.5t-47.5 -171t-13 -181.5zM95 684q0 204 61 364t186 252.5t317 92.5q193 0 318 -93t185.5 -253.5t60.5 -362.5
q0 -204 -61 -364.5t-186 -253.5t-317 -93q-145 0 -251 53.5t-175.5 150t-103.5 226t-34 281.5z" />
    <glyph glyph-name="P" unicode="P" horiz-adv-x="1141" 
d="M1072 925q0 -148 -59 -248.5t-163.5 -151t-240.5 -50.5h-299v175q32 1 90.5 2.5t115 2t84.5 0.5q96 0 147 43t69.5 106t18.5 121q0 59 -18.5 121t-69.5 104.5t-147 42.5q-41 0 -93.5 0.5t-100.5 1.5v-1195q-27 -5 -58 -7t-58 -2q-23 0 -55 2t-58 7v1355l13 13
q116 2 216 4.5t203 2.5q135 0 239.5 -49.5t164 -149.5t59.5 -251z" />
    <glyph glyph-name="Q" unicode="Q" horiz-adv-x="1308" 
d="M331 684q0 -90 12.5 -182.5t46.5 -170.5t98 -125.5t166 -47.5q103 0 166 47.5t97 125.5t46 170.5t12 182.5t-12 183t-46 171t-97 125.5t-166 47.5q-102 0 -166 -47.5t-98 -125.5t-46.5 -171t-12.5 -183zM95 684q0 204 59 364t182.5 252.5t317.5 92.5q196 0 319.5 -93
t181.5 -253.5t58 -363.5q0 -121 -24 -237.5t-74.5 -211t-128 -151.5t-184.5 -59q-30 -20 -61.5 -35.5t-80.5 -15.5q-198 0 -323 92.5t-183.5 253t-58.5 365.5zM585 46l228 74l149 -106q62 -44 105 -67.5t78 -32.5t70 -9q-3 -82 -49 -124t-103 -42q-51 0 -89.5 16t-72.5 43z
" />
    <glyph glyph-name="R" unicode="R" horiz-adv-x="1205" 
d="M1086 961q0 -93 -34 -166.5t-92 -124t-128 -74.5q51 -17 86.5 -64.5t57.5 -106.5l84 -225q21 -58 42 -90t49 -55q-22 -32 -66.5 -51t-87.5 -19q-64 0 -93.5 35.5t-54.5 103.5l-96 261q-24 66 -65 111.5t-133 45.5h-244v177q43 2 100.5 4t112 3t91.5 1q94 0 145.5 34.5
t71 88.5t19.5 111q0 60 -19.5 113.5t-71 87t-145.5 33.5h-64.5t-75 0.5t-71.5 1.5v-1197q-27 -5 -57.5 -7t-57.5 -2q-23 0 -54.5 2t-57.5 7v1355l13 13q116 2 225 4.5t213 2.5q139 0 242 -47t159.5 -139t56.5 -228z" />
    <glyph glyph-name="S" unicode="S" horiz-adv-x="1112" 
d="M56 122q4 50 32 98.5t63 76.5q87 -55 193 -94.5t209 -39.5q117 0 179.5 51t62.5 129q0 65 -43.5 117t-130.5 89l-242 101q-125 53 -200.5 137t-75.5 214q0 112 58 200.5t161.5 140t237.5 51.5q127 0 239.5 -33t190.5 -72q-2 -49 -24 -97.5t-58 -79.5q-78 39 -172.5 66.5
t-172.5 27.5q-107 0 -167 -52t-60 -125q0 -62 43.5 -102t115.5 -71l240 -100q87 -36 154.5 -90t106.5 -125.5t39 -161.5q0 -115 -54.5 -206.5t-164.5 -145t-277 -53.5q-124 0 -252.5 40t-230.5 109z" />
    <glyph glyph-name="T" unicode="T" horiz-adv-x="989" 
d="M32 1174q-5 25 -7 50t-2 45q0 21 2 46.5t7 50.5h930q13 -42 13 -90q0 -55 -31 -78.5t-96 -23.5h-120q-20 0 -58 1t-59 1h-229q-20 0 -57.5 -1t-59.5 -1h-233zM382 1028q0 41 0.5 73.5t0.5 74.5v95h227v-95q0 -42 0.5 -74.5t0.5 -73.5v-1028q-28 -5 -58.5 -7t-55.5 -2
t-56 2t-59 7v1028z" />
    <glyph glyph-name="U" unicode="U" horiz-adv-x="1339" 
d="M1180 483q0 -166 -62.5 -279.5t-177.5 -172t-272 -58.5q-155 0 -269.5 58.5t-177 172t-62.5 279.5v880l13 13h86q70 0 100 -35.5t30 -111.5v-746q0 -160 70.5 -242.5t211.5 -82.5q140 0 210.5 82.5t70.5 242.5v883q27 5 56.5 7t54.5 2q26 0 58.5 -2t59.5 -7v-883z" />
    <glyph glyph-name="V" unicode="V" horiz-adv-x="1158" 
d="M914 1366q23 6 48.5 7.5t50.5 1.5t54 -3.5t51 -11.5l9 -14l-393 -1347q-41 -5 -86.5 -7t-90.5 -2q-66 0 -102.5 22.5t-54.5 86.5l-362 1247q31 15 66.5 25t72.5 10q48 0 78 -25.5t46 -87.5l199 -698q15 -51 30 -111t29.5 -121.5t26.5 -115.5q3 -13 7 -16.5t12 -3.5z" />
    <glyph glyph-name="W" unicode="W" horiz-adv-x="1716" 
d="M56 1354q31 13 62.5 20t62.5 7q57 0 84.5 -26.5t38.5 -97.5l119 -655q10 -53 22 -126t23.5 -144t18.5 -119q2 -17 5.5 -20t11.5 -3l211 1148q33 5 74.5 7.5t73.5 2.5q34 0 75.5 -2.5t71.5 -7.5l193 -1125q3 -16 7 -19.5t12 -3.5q8 60 20.5 135.5t25.5 149.5t23 129
l148 762q24 5 51.5 7t51.5 2q26 0 55.5 -3.5t53.5 -11.5l11 -14l-283 -1344q-41 -6 -99.5 -9t-102.5 -3q-52 0 -90.5 19t-50.5 91l-92 521q-17 101 -38 233t-39 256h-14q-19 -124 -41.5 -255t-42.5 -234l-119 -620q-42 -5 -96 -8t-99 -3q-54 0 -94.5 19t-55.5 92z" />
    <glyph glyph-name="X" unicode="X" horiz-adv-x="1183" 
d="M79 1331q35 25 75 38t76 13q45 0 78 -20t66 -71l776 -1256q-35 -25 -75 -38t-76 -13q-44 0 -78.5 20.5t-67.5 71.5zM887 1366q16 4 41.5 7t53.5 3q34 0 66.5 -6t52.5 -14l7 -14l-416 -676l-94 -102l-340 -564q-15 -4 -42.5 -7t-55.5 -3q-33 0 -65.5 6t-54.5 14l-7 15
l463 746l93 102z" />
    <glyph glyph-name="Y" unicode="Y" horiz-adv-x="1018" 
d="M395 573h229v-573q-26 -5 -57 -7t-57 -2q-24 0 -56.5 2t-58.5 7v573zM789 1366q24 6 48.5 8t46.5 2q30 0 59 -4t53 -12l9 -15l-398 -951h-192l-401 946q37 20 73 30.5t70 10.5q48 0 75 -23.5t47 -74.5l149 -363q22 -54 45 -122.5t40 -132.5h11q11 42 27.5 90.5t33 94
t29.5 76.5z" />
    <glyph glyph-name="Z" unicode="Z" horiz-adv-x="1129" 
d="M619 975q30 46 72.5 101t84.5 108l-6 6q-26 -4 -68 -7t-89.5 -4.5t-88.5 -2.5t-65 -1h-317q-5 20 -7 39t-2 38q0 30 4 57.5t13 56.5h833q15 -51 22 -79t9 -42t2 -25q0 -21 -6.5 -42.5t-23.5 -46.5l-493 -731q-32 -47 -75.5 -104.5t-82.5 -106.5l6 -6q64 6 132.5 9
t118.5 3h194q78 0 136 10.5t98 28.5q7 -23 12 -51.5t5 -56.5q0 -62 -40 -94t-116 -32h-761q-13 50 -18.5 77t-7.5 41t-2 25q0 23 7 48t23 47z" />
    <glyph glyph-name="bracketleft" unicode="[" horiz-adv-x="702" 
d="M198 1520l221 -77v-1770l-221 -62v1909zM213 -403l-15 14l18 171l406 -11q7 -15 12 -42t5 -52q0 -13 -1.5 -32t-5.5 -32zM632 1518q4 -13 5.5 -31t1.5 -33q0 -25 -5 -51.5t-12 -42.5l-406 -11l-18 171l15 14z" />
    <glyph glyph-name="backslash" unicode="\" horiz-adv-x="853" 
d="M649 -324q48 5 99.5 23t92.5 50l-631 1675q-49 -3 -100 -21.5t-92 -50.5z" />
    <glyph glyph-name="bracketright" unicode="]" horiz-adv-x="702" 
d="M504 1520l-221 -77v-1770l221 -62v1909zM490 -403l14 14l-18 171l-406 -11q-6 -15 -11.5 -42t-5.5 -52q0 -13 1.5 -32t5.5 -32zM70 1518q-4 -13 -5.5 -31t-1.5 -33q0 -25 5.5 -51.5t11.5 -42.5l406 -11l18 171l-14 14z" />
    <glyph glyph-name="asciicircum" unicode="^" horiz-adv-x="1060" 
d="M977 612q-42 -11 -111 -11q-29 0 -57.5 2.5t-49.5 8.5l-154 335q-10 23 -22.5 55.5t-24.5 65t-21 54.5h-14q-8 -22 -20.5 -54.5l-25 -65t-22.5 -55.5l-154 -335q-21 -6 -49.5 -8.5t-57.5 -2.5q-69 0 -111 11l328 684q20 5 52.5 8t68.5 3q34 0 65.5 -2.5t51.5 -8.5z" />
    <glyph glyph-name="underscore" unicode="_" horiz-adv-x="1069" 
d="M-1 -317q-5 21 -7 44t-2 42q0 18 2 42t7 45h1072q5 -21 7 -40.5t2 -46.5q0 -47 -9 -86h-1072z" />
    <glyph glyph-name="grave" unicode="`" horiz-adv-x="796" 
d="M329 1487q-48 -15 -92 -55.5t-60 -87.5l346 -268q30 9 57 34t39 55z" />
    <glyph glyph-name="a" unicode="a" horiz-adv-x="1016" 
d="M83 270q0 114 51.5 188t138.5 109.5t195 35.5q54 0 124.5 -4.5t130.5 -18.5v-147q-52 12 -118 15.5t-122 3.5q-87 0 -133.5 -45t-46.5 -122q0 -58 33 -98.5t95 -40.5q71 0 149.5 50t132.5 145l33 -164q-36 -43 -88.5 -90t-122 -80.5t-156.5 -33.5q-100 0 -165.5 44.5
t-98 112.5t-32.5 140zM928 99q-8 -30 -31 -63.5t-49 -50.5q-67 11 -108.5 46t-62 83.5t-24.5 101.5v447q0 90 -41.5 129.5t-117.5 39.5q-74 0 -153.5 -22t-158.5 -52q-26 27 -43 73t-19 88q57 25 129.5 45.5t148.5 33t143 12.5q97 0 171.5 -35.5t117 -109.5t42.5 -191v-409
q0 -55 11.5 -95.5t44.5 -70.5z" />
    <glyph glyph-name="b" unicode="b" horiz-adv-x="1058" 
d="M368 50h-217v1408l13 13h82q70 0 96 -33t26 -107v-1281zM974 507q1 -173 -60 -289.5t-164.5 -175t-230.5 -58.5q-98 0 -191.5 17.5t-176.5 48.5l108 169q62 -36 124 -53.5t137 -17.5q69 0 120 40t79.5 119.5t28.5 197.5q0 168 -49.5 242.5t-124.5 75.5q-70 1 -138 -44.5
t-108 -120.5l-33 179q32 39 80 78t111.5 65t141.5 26q115 0 192 -64t115.5 -176.5t38.5 -258.5z" />
    <glyph glyph-name="c" unicode="c" horiz-adv-x="943" 
d="M669 598q3 67 -10 123.5t-50 90.5t-107 34q-91 0 -140 -88.5t-49 -268.5q0 -176 57.5 -256t160.5 -80q68 0 128.5 31t111.5 68q29 -17 56.5 -55.5t35.5 -74.5q-68 -67 -163 -108t-202 -41q-108 0 -186.5 40.5t-128.5 111.5t-74.5 164.5t-24.5 199.5q0 187 61.5 303
t158.5 170t203 54q90 0 159 -27t115 -71.5t69 -98.5t23 -110t-27.5 -87.5t-84.5 -31.5q-27 0 -48 2t-44 6z" />
    <glyph glyph-name="d" unicode="d" horiz-adv-x="1062" 
d="M908 282q0 -56 12.5 -105.5t43.5 -77.5q-8 -30 -31 -63.5t-49 -50.5q-102 17 -147.5 93t-45.5 176v1204l13 13h84q70 0 95 -33t25 -107v-1049zM85 482q0 178 55.5 294.5t144 173t186.5 56.5q97 0 177 -40t149 -89l-27 -171q-58 45 -127 85.5t-140 40.5q-55 0 -98.5 -38.5
t-68.5 -116.5t-25 -195q0 -115 24 -186.5t63 -105t85 -33.5q48 0 101 26t99 82.5t72 149.5l46 -157q-17 -69 -69 -134.5t-129 -108t-172 -42.5q-115 0 -192 64.5t-115.5 179.5t-38.5 265z" />
    <glyph glyph-name="e" unicode="e" horiz-adv-x="1000" 
d="M223 424v159h471v26q0 66 -18.5 121.5t-60.5 89t-110 33.5q-98 0 -145.5 -82.5t-47.5 -228.5v-68q0 -91 18.5 -164t66.5 -115.5t138 -42.5q75 0 144 21.5t133 52.5q26 -26 43.5 -66t22.5 -74q-72 -51 -172 -82t-204 -31q-121 0 -202 42.5t-128 116t-67.5 166.5t-20.5 194
q0 150 46.5 268t140 187t235.5 69q130 0 219 -57t135 -153.5t46 -216.5q0 -51 -3.5 -86.5t-13.5 -78.5h-666z" />
    <glyph glyph-name="f" unicode="f" horiz-adv-x="678" 
d="M304 987l375 4q4 -20 6 -40t2 -41q0 -20 -2 -41t-6 -41l-376 5l-277 -5q-9 41 -9 82q0 39 9 81zM198 894q-6 71 -14.5 138.5t-8.5 129.5q0 90 37.5 161.5t108 113.5t169.5 42q71 0 143.5 -15t119.5 -33q0 -39 -13.5 -81.5t-37.5 -67.5q-37 11 -82 20t-87 9
q-69 0 -108 -42t-39 -121q0 -58 10 -124.5t19 -132.5v-891q-52 -9 -110 -9q-55 0 -107 9v894z" />
    <glyph glyph-name="g" unicode="g" horiz-adv-x="1059" 
d="M966 890q-31 -28 -43.5 -77t-12.5 -106v-583q0 -119 -10.5 -200t-32 -136t-53.5 -94q-49 -62 -136 -98.5t-201 -36.5q-93 0 -187 19.5t-164 47.5q1 42 17 89.5t41 76.5q63 -29 137.5 -46t134.5 -17q97 0 149 36t71 96.5t19 134.5v739q0 100 44.5 176t146.5 93
q26 -16 50 -50t30 -64zM85 492q0 177 56 293t144 173.5t185 57.5q89 0 153.5 -27t110.5 -68t79 -84l-32 -188q-53 86 -128.5 139t-147.5 53q-57 0 -100.5 -38.5t-68.5 -116t-25 -194.5q0 -173 50 -249.5t120 -76.5q78 0 149 50.5t112 131.5l33 -168q-28 -47 -78.5 -92
t-117.5 -75.5t-145 -30.5q-117 0 -194.5 64.5t-116 179t-38.5 266.5z" />
    <glyph glyph-name="h" unicode="h" horiz-adv-x="1087" 
d="M368 0q-47 -9 -110 -9q-57 0 -107 9v1458l13 13h84q70 0 95 -33t25 -107v-1331zM945 217q0 -53 7.5 -100.5t27.5 -82.5q-24 -21 -61 -34.5t-78 -13.5q-66 0 -92 36t-26 105v495q0 97 -24.5 140.5t-94.5 43.5q-48 0 -103.5 -23.5t-106 -66.5t-81.5 -103v209q67 76 162 130
t202 54q94 0 153 -44t87 -119.5t28 -169.5v-456z" />
    <glyph glyph-name="i" unicode="i" horiz-adv-x="550" 
d="M403 0q-48 -9 -111 -9t-111 9v723q0 52 -19 78.5t-69 26.5h-24q-9 38 -9 78q0 19 2 39.5t7 41.5q39 5 75 7t59 2h30q79 0 124.5 -50t45.5 -137v-809zM119 1258q0 52 19 93q20 11 52.5 18.5t63.5 7.5q29 0 64 -7.5t52 -18.5q8 -19 13.5 -45t5.5 -48q0 -52 -19 -94
q-16 -11 -51.5 -18t-64.5 -7q-31 0 -64.5 7t-51.5 18q-19 42 -19 94z" />
    <glyph glyph-name="j" unicode="j" horiz-adv-x="563" 
d="M416 -26q0 -123 -26.5 -204.5t-92 -131t-185.5 -77.5q-22 21 -40 58t-23 79q57 27 89 56t45 73t13 117v779q0 52 -19 78.5t-69 26.5h-41q-10 38 -10 78q0 19 2.5 39.5t7.5 41.5q42 5 85 7t69 2h29q77 0 121.5 -50t44.5 -137v-835zM129 1258q0 52 19 93q20 11 52.5 18.5
t63.5 7.5q29 0 64 -7.5t52 -18.5q8 -19 13.5 -45t5.5 -48q0 -52 -19 -94q-16 -11 -51.5 -18t-64.5 -7q-31 0 -64.5 7t-51.5 18q-19 42 -19 94z" />
    <glyph glyph-name="k" unicode="k" horiz-adv-x="1009" 
d="M368 0q-47 -9 -110 -9q-58 0 -107 9v1458l13 13h84q70 0 95 -33t25 -107v-1331zM883 213q23 -63 45.5 -100.5t50.5 -57.5q-24 -28 -65 -48.5t-84 -20.5q-57 0 -84.5 30t-50.5 90l-77 192q-30 76 -64 102t-99 26q-30 0 -60.5 -2.5t-65.5 -6.5l-73 -7v159h274
q109 0 178 -45t109 -148zM708 638q-41 -71 -105.5 -103.5t-156.5 -32.5h-167v102l151 5q18 0 29 7t21 24l164 264q26 45 57 68.5t84 23.5q34 0 61.5 -0.5t58.5 -2.5l12 -16z" />
    <glyph glyph-name="l" unicode="l" horiz-adv-x="593" 
d="M516 166q18 -50 18 -111q0 -12 -0.5 -25t-3.5 -23q-36 -6 -85 -11t-92 -5q-103 0 -154 54t-51 162v1251l13 13h84q69 0 94.5 -33t25.5 -107v-1076q0 -44 19.5 -66.5t60.5 -22.5h71z" />
    <glyph glyph-name="m" unicode="m" horiz-adv-x="1598" 
d="M247 999q68 0 97 -42.5t29 -116.5v-840q-47 -9 -110 -9t-112 9v985l13 14h83zM691 623q0 101 -29.5 142.5t-85.5 41.5q-48 0 -103 -32t-102 -83.5t-73 -113.5v212q44 61 100.5 110t121 78t132.5 29q87 0 145 -41.5t87 -112t29 -158.5v-695q-46 -9 -110 -9q-63 0 -112 9
v623zM1233 625q0 101 -30.5 141.5t-85.5 40.5q-47 0 -101 -31t-102.5 -83.5t-80.5 -119.5v239q48 54 107.5 98.5t124.5 70.5t132 26q88 0 145 -42t85 -113t28 -158v-477q0 -53 8 -100.5t28 -82.5q-25 -21 -62 -34.5t-78 -13.5q-65 0 -91.5 36t-26.5 105v498z" />
    <glyph glyph-name="n" unicode="n" horiz-adv-x="1092" 
d="M248 999q68 0 96.5 -42.5t28.5 -116.5v-840q-47 -9 -110 -9t-112 9v986l13 13h84zM949 217q0 -53 8 -100.5t28 -82.5q-25 -21 -62 -34.5t-77 -13.5q-66 0 -92.5 36t-26.5 105v497q0 96 -24 139.5t-95 43.5q-47 0 -103 -23t-106 -66t-82 -104v209q68 76 162.5 130
t202.5 54q93 0 152 -44t87 -119t28 -169v-458z" />
    <glyph glyph-name="o" unicode="o" horiz-adv-x="1041" 
d="M957 494q0 -154 -49.5 -271.5t-147 -183.5t-240.5 -66q-144 0 -241 67t-146 184.5t-49 269.5q0 154 49.5 271.5t146.5 184t240 66.5q144 0 241.5 -67t146.5 -184.5t49 -270.5zM313 494q0 -91 17.5 -171.5t62.5 -130t128 -49.5q82 0 126.5 49.5t62.5 130t18 171.5t-18 172
t-62.5 131t-126.5 50q-83 0 -128 -50t-62.5 -131t-17.5 -172z" />
    <glyph glyph-name="p" unicode="p" horiz-adv-x="1063" 
d="M229 999q71 0 105.5 -47t34.5 -130v-1113q0 -74 -25.5 -107t-95.5 -33h-84l-13 13v1404l13 13h65zM978 506q0 -177 -55.5 -293t-144.5 -173.5t-186 -57.5t-177 40.5t-150 89.5l28 171q57 -45 126.5 -85.5t139.5 -40.5q55 0 98.5 39t68.5 116.5t25 194.5q0 116 -23.5 187
t-62.5 104.5t-86 33.5t-100.5 -26t-99.5 -82.5t-72 -149.5l-46 157q18 69 69.5 134.5t129 108t171.5 42.5q116 0 193 -65t115.5 -179.5t38.5 -265.5z" />
    <glyph glyph-name="q" unicode="q" horiz-adv-x="1061" 
d="M85 492q0 177 56 293t144 173.5t185 57.5q89 0 153.5 -26.5t110.5 -67t79 -82.5l-32 -191q-53 86 -128.5 139t-147.5 53q-56 0 -99.5 -38.5t-69 -116t-25.5 -194.5q0 -173 51 -249.5t119 -76.5q78 0 149 50.5t112 131.5l33 -170q-28 -46 -78.5 -91.5t-117.5 -75
t-145 -29.5q-117 0 -194.5 64.5t-116 179t-38.5 266.5zM692 735q0 100 45.5 176t147.5 93q26 -16 49.5 -50t30.5 -64q-31 -28 -43.5 -77t-12.5 -106v-1125l-12 -13h-85q-69 0 -94.5 33t-25.5 107v1026z" />
    <glyph glyph-name="r" unicode="r" horiz-adv-x="745" 
d="M736 990q0 -43 -13 -103t-41 -105q-21 5 -42 7t-43 4q-54 0 -95 -22.5t-70.5 -58.5t-50 -80.5t-35.5 -88.5l-31 39q3 72 20 146t52.5 136.5t94 100.5t144.5 38q30 0 55.5 -3t54.5 -10zM94 886q8 31 31 66t47 52q106 -20 158 -101t60 -204v-699q-48 -9 -110 -9
q-63 0 -112 9v680q0 81 -24 132t-50 74z" />
    <glyph glyph-name="s" unicode="s" horiz-adv-x="877" 
d="M58 72q2 38 23 83.5t48 71.5q64 -34 136 -61t145 -27q78 0 123.5 33t45.5 84q0 40 -30 73.5t-90 55.5l-116 43q-69 25 -126.5 63t-92 93t-34.5 131q0 93 46.5 160.5t128 104t184.5 36.5q83 0 176.5 -22.5t155.5 -51.5q2 -41 -16.5 -89t-47.5 -72q-54 24 -124.5 45.5
t-144.5 21.5q-61 0 -98 -30t-37 -79q0 -39 29 -65.5t88 -48.5l123 -46q113 -40 184.5 -113t71.5 -191q0 -140 -109 -221t-289 -81q-106 0 -196.5 30t-156.5 69z" />
    <glyph glyph-name="t" unicode="t" horiz-adv-x="708" 
d="M188 1154q0 75 25.5 107.5t94.5 32.5h85l12 -12v-1029q0 -40 19.5 -63.5t64.5 -23.5h134q18 -51 18 -111q0 -12 -0.5 -25t-4.5 -23q-50 -7 -109.5 -11.5t-118.5 -4.5q-107 0 -163.5 54t-56.5 162v947zM652 991q9 -42 9 -81q0 -42 -9 -82l-334 5l-277 -5q-10 40 -10 82
q0 39 10 81l280 -5z" />
    <glyph glyph-name="u" unicode="u" horiz-adv-x="1095" 
d="M941 280q0 -56 12.5 -105.5t43.5 -76.5q-8 -30 -31 -63t-49 -50q-103 17 -150.5 93.5t-47.5 177.5v733q47 9 111 9q62 0 111 -9v-709zM142 772q0 53 -7 100.5t-28 82.5q24 21 61.5 34t78.5 13q65 0 91 -35.5t26 -104.5v-497q0 -95 25 -139t94 -44q48 0 103.5 23
t106.5 66.5t82 103.5v-209q-67 -76 -162 -130t-203 -54q-93 0 -152 44t-87.5 119.5t-28.5 168.5v458z" />
    <glyph glyph-name="v" unicode="v" horiz-adv-x="918" 
d="M703 989q21 5 42 7t41 2q29 0 58.5 -4t54.5 -13l7 -10q-35 -114 -76 -248t-83 -269t-80 -253t-66 -201q-36 -6 -78.5 -8.5t-83.5 -2.5q-65 0 -100 22t-59 99l-272 862q36 16 68 24t60 8q48 0 78 -21t44 -76l127 -429q15 -48 29 -102.5t25.5 -103t17.5 -79.5q4 -16 19 -16
z" />
    <glyph glyph-name="w" unicode="w" horiz-adv-x="1455" 
d="M40 976q37 15 68.5 21.5t59.5 6.5q46 0 70.5 -21.5t34.5 -69.5l85 -402q21 -94 38 -183t26 -146q4 -17 16 -17l160 819q25 5 67 7.5t64 2.5q24 0 66.5 -2.5t66.5 -7.5l155 -802q4 -17 16 -17q17 84 33.5 170t36.5 176l106 478q19 5 44 7t49 2q25 0 57.5 -3.5t54.5 -13.5
l7 -13l-242 -969q-33 -5 -80 -7t-86 -2q-64 0 -101 20t-51 96l-53 269q-10 52 -22.5 120.5t-25.5 143.5t-26 145h-10q-12 -70 -26 -144.5t-27.5 -142.5t-23.5 -121l-78 -376q-36 -5 -85 -7.5t-90 -2.5q-58 0 -94.5 21.5t-54.5 96.5z" />
    <glyph glyph-name="x" unicode="x" horiz-adv-x="926" 
d="M51 956q34 24 75 37t76 13q42 0 66.5 -17t46.5 -51l590 -903q-32 -21 -73.5 -36t-79.5 -15q-41 0 -67.5 17t-47.5 50zM660 989q16 4 41 6.5t48 2.5q33 0 60.5 -4t49.5 -12l7 -16l-317 -493l-58 -59l-252 -415q-15 -5 -41.5 -7.5t-50.5 -2.5q-31 0 -61 4.5t-52 14.5l-8 15
l348 542l64 63z" />
    <glyph glyph-name="y" unicode="y" horiz-adv-x="944" 
d="M661 30q-43 -149 -95.5 -253.5t-136.5 -159t-220 -54.5q-49 0 -107.5 11t-91.5 22q-3 39 11 86.5t36 72.5q26 -8 69 -16.5t83 -8.5q65 0 109 28.5t73.5 81.5t51.5 125l7 24q-65 2 -104 25.5t-58 85.5l-258 872q37 16 72.5 24t62.5 8q39 0 67 -20.5t44 -77.5l129 -449
q13 -44 26 -97.5t24.5 -104t19.5 -87.5q4 -14 18 -14l213 835q20 5 45.5 7t47.5 2q30 0 59.5 -3t56.5 -13l8 -13z" />
    <glyph glyph-name="z" unicode="z" horiz-adv-x="893" 
d="M415 631q34 46 78 97.5t80 94.5l-6 8q-30 -4 -76 -7t-96 -4.5t-91 -1.5h-202q-4 18 -5.5 37.5t-1.5 33.5q0 22 3.5 48.5t8.5 51.5h673q17 -46 24.5 -75.5t7.5 -53.5q0 -17 -6.5 -36t-19.5 -38l-314 -422q-34 -46 -76 -98t-79 -95l6 -7q49 4 97 6.5t85 2.5h91
q65 0 119.5 6t91.5 22q22 -51 22 -97q0 -48 -29 -76t-106 -28h-598q-16 46 -22.5 72t-6.5 47q0 19 7.5 40t26.5 47z" />
    <glyph glyph-name="braceleft" unicode="{" horiz-adv-x="708" 
d="M86 624q70 20 117 83t47 150v337q0 145 82.5 227.5t207.5 103.5l107 18q15 -17 26 -44.5t15.5 -57t-0.5 -49.5l-103 -33q-51 -16 -80.5 -58t-29.5 -109v-331q0 -96 -45.5 -181t-122.5 -120v-16q77 -36 122.5 -121t45.5 -181v-332q0 -66 29.5 -108.5t80.5 -58.5l103 -33
q5 -20 0.5 -49t-15.5 -57t-26 -44l-107 17q-125 21 -207.5 103t-82.5 228v338q0 87 -47 149.5t-117 83.5q-11 26 -11 72.5t11 72.5z" />
    <glyph glyph-name="bar" unicode="|" horiz-adv-x="515" 
d="M153 1548q24 6 54.5 8t50.5 2q24 0 51 -2t52 -8v-1830q-25 -5 -52 -7t-51 -2q-20 0 -50.5 2t-54.5 7v1830z" />
    <glyph glyph-name="braceright" unicode="}" horiz-adv-x="708" 
d="M622 624q-69 20 -116.5 83t-47.5 150v337q0 145 -82 227.5t-208 103.5l-107 18q-15 -17 -26 -44.5t-15 -57t1 -49.5l102 -33q51 -16 80.5 -58t29.5 -109v-331q0 -96 45.5 -181t122.5 -120v-16q-77 -36 -122.5 -121t-45.5 -181v-332q0 -66 -29.5 -108.5t-80.5 -58.5
l-102 -33q-5 -20 -1 -49t15 -57t26 -44l107 17q126 21 208 103t82 228v338q0 87 47.5 149.5t116.5 83.5q12 26 12 72.5t-12 72.5z" />
    <glyph glyph-name="asciitilde" unicode="~" horiz-adv-x="1185" 
d="M718 648q27 -11 52 -17.5t48 -6.5q35 0 65 17t54 46l40 45q35 -2 75.5 -25t55.5 -61l-28 -49q-48 -86 -119 -133t-163 -47q-41 0 -84.5 11t-87.5 30l-158 71q-27 12 -52.5 18t-48.5 6q-35 0 -64.5 -16.5t-54.5 -46.5l-40 -45q-35 3 -75 26t-56 60l28 50
q48 85 119.5 132.5t162.5 47.5q42 0 85.5 -11t86.5 -30z" />
    <glyph glyph-name="uni00A0" unicode="&#xa0;" horiz-adv-x="440" 
 />
    <glyph glyph-name="exclamdown" unicode="&#xa1;" horiz-adv-x="582" 
d="M382 595q12 -198 25 -395.5t13 -396.5v-180q-31 -9 -78 -11.5t-93.5 0.5t-78.5 12v180q0 198 14.5 396t26.5 395q20 6 43 8t41 2t42 -2t45 -8zM295 760q-31 0 -63.5 7t-53.5 19q-8 15 -13 45.5t-5 51.5q0 23 5 53t13 44q21 12 53.5 19t63.5 7q73 0 119 -26
q8 -14 12.5 -44t4.5 -53q0 -21 -4.5 -51.5t-12.5 -45.5q-47 -26 -119 -26z" />
    <glyph glyph-name="cent" unicode="&#xa2;" horiz-adv-x="1080" 
d="M564 -51q-20 0 -44 2t-42 6v290h173v-290q-17 -4 -41.5 -6t-45.5 -2zM484 1009v300q36 8 86 8q23 0 46.5 -2t40.5 -6v-300h-173zM569 134q-128 0 -214 44t-137.5 117t-73.5 160.5t-22 173.5q0 175 65 286t169 164t220 53q95 0 167 -27t120.5 -70.5t73 -96t24.5 -104.5
q0 -61 -28 -94.5t-91 -33.5q-20 0 -41 2.5t-41 7.5q3 59 -13.5 115.5t-58.5 93.5t-117 37q-108 0 -165 -86t-57 -247q0 -162 67.5 -237.5t184.5 -75.5q70 0 137 31t118 75q30 -18 59 -55t40 -72q-42 -48 -104.5 -84.5t-135.5 -56.5t-146 -20z" />
    <glyph glyph-name="sterling" unicode="&#xa3;" horiz-adv-x="1080" 
d="M174 0q-19 56 -24 82.5t-5 45.5q0 36 18 61.5t39 47.5l24 27q42 47 71.5 99t29.5 124q0 80 -23 151t-46 141.5t-23 149.5q0 96 46.5 179.5t134.5 135.5t213 52q108 0 193 -40.5t143 -92.5q-8 -42 -38 -85t-70 -64q-47 43 -102.5 68.5t-111.5 25.5q-71 0 -127 -45.5
t-56 -147.5q0 -62 18 -126t36 -134.5t18 -150.5q0 -98 -47.5 -179.5t-115.5 -143.5l5 -5q69 6 154.5 8.5t178.5 2.5h273q0 -112 -36.5 -149.5t-111.5 -37.5h-658zM153 529q-4 17 -6 37.5t-2 42.5q0 23 2 43.5t6 38.5l253 -2l409 2q9 -33 9 -80q0 -20 -2.5 -43t-6.5 -39
l-409 2z" />
    <glyph glyph-name="currency" unicode="&#xa4;" horiz-adv-x="1080" 
d="M538 243q-114 0 -202 49.5t-138 137.5t-50 202q0 116 50 204t138 137.5t202 49.5q115 0 203.5 -49.5t138.5 -137.5t50 -204q0 -114 -50 -202t-138.5 -137.5t-203.5 -49.5zM538 402q94 0 142 67.5t48 162.5q0 96 -48 164t-142 68q-93 0 -140.5 -68t-47.5 -164
q0 -94 47.5 -162t140.5 -68zM171 144q-35 19 -67 51.5t-52 67.5l209 228l139 -140zM261 772l-209 228q18 36 51 68t68 52l227 -208zM820 774l-139 141l228 207q35 -20 67 -52t52 -67zM906 143l-228 208l139 138l209 -227q-41 -76 -120 -119z" />
    <glyph glyph-name="yen" unicode="&#xa5;" horiz-adv-x="1080" 
d="M431 442l-350 805q35 18 72 29.5t71 11.5q41 0 65.5 -21t41.5 -66l122 -297q23 -57 44.5 -119t41.5 -133h10q21 65 46 131.5t46 120.5l149 365q22 8 44.5 10t43.5 2q27 0 55 -3.5t58 -11.5l8 -17l-357 -807h-211zM537 -9q-20 0 -52 2t-58 7v510h220v-510q-26 -5 -56 -7
t-54 -2zM141 316q-3 18 -5.5 37t-2.5 41q0 21 2.5 40.5t5.5 35.5h792q4 -17 6.5 -36.5t2.5 -39.5q0 -19 -2.5 -39t-6.5 -39h-792zM141 620q-3 16 -5.5 36t-2.5 41q0 22 2.5 41.5t5.5 36.5h274v-155h-274zM659 620v155h274q4 -15 6.5 -34.5t2.5 -42.5q0 -20 -2.5 -40
t-6.5 -38h-274z" />
    <glyph glyph-name="brokenbar" unicode="&#xa6;" horiz-adv-x="503" 
d="M148 492q24 6 54 8t50 2q24 0 51 -2t52 -8v-774q-25 -5 -52 -7t-51 -2q-20 0 -50 2t-54 7v774zM148 1548q24 6 54 8t50 2q24 0 51 -2t52 -8v-774q-25 -5 -52 -7t-51 -2q-20 0 -50 2t-54 7v774z" />
    <glyph glyph-name="section" unicode="&#xa7;" horiz-adv-x="975" 
d="M510 371q49 18 91.5 47.5t69 69t26.5 87.5q0 45 -28 78t-74.5 58.5t-101.5 47.5l-102 40q-70 27 -128 67.5t-93 97.5t-35 133q0 87 47 153.5t129 104.5t186 38q82 0 168 -20.5t149 -50.5q2 -41 -17 -88t-47 -71q-54 23 -118.5 42.5t-129.5 19.5q-63 0 -104 -30t-41 -82
q0 -41 31 -69.5t88 -50.5l117 -47q85 -35 158.5 -78.5t119 -105t45.5 -152.5q0 -82 -47 -151t-123 -119.5t-163 -77.5zM468 804q-48 -18 -91 -47t-70 -68.5t-27 -88.5q0 -44 27.5 -77t74 -58.5t103.5 -47.5l102 -40q70 -28 128 -69t93 -97.5t35 -133.5q0 -86 -47.5 -153
t-132.5 -105t-196 -38q-88 0 -180.5 22.5t-155.5 61.5q-2 41 19.5 88t49.5 68q51 -24 120.5 -48t148.5 -24q69 0 110 30t41 81q0 42 -30.5 71.5t-87.5 51.5l-117 46q-85 35 -159 78.5t-119 105.5t-45 152q0 82 47 151.5t122.5 119.5t163.5 78z" />
    <glyph glyph-name="dieresis" unicode="&#xa8;" horiz-adv-x="796" 
d="M92 1233q0 19 4 42t11 40q19 12 48.5 18.5t53.5 6.5q26 0 55 -6.5t48 -18.5q8 -17 11.5 -40t3.5 -42t-3.5 -42.5t-11.5 -40.5q-19 -12 -48 -18t-55 -6q-24 0 -53.5 6t-48.5 18q-7 17 -11 40.5t-4 42.5zM469 1233q0 19 3.5 42t11.5 40q19 12 48 18.5t55 6.5q25 0 54 -6.5
t48 -18.5q7 -17 11 -40t4 -42t-4 -42.5t-11 -40.5q-19 -12 -48 -18t-54 -6q-26 0 -55 6t-48 18q-8 17 -11.5 40.5t-3.5 42.5z" />
    <glyph glyph-name="copyright" unicode="&#xa9;" horiz-adv-x="1601" 
d="M78 682q0 153 54.5 284.5t152.5 230t229.5 154t285.5 55.5q152 0 284 -55.5t230.5 -154t153.5 -230t55 -284.5t-55 -284.5t-153.5 -229.5t-230.5 -153t-284 -55q-154 0 -285.5 55t-229.5 153t-152.5 229.5t-54.5 284.5zM259 682q0 -117 40 -219.5t113 -180.5t171.5 -122
t216.5 -44q117 0 216 44t172 122t113 180.5t40 219.5t-40 220t-113 181t-172 122.5t-216 44.5q-118 0 -216.5 -44.5t-171.5 -122.5t-113 -181t-40 -220zM934 755q3 45 -9 87.5t-42 70.5t-84 28q-75 0 -116 -65.5t-41 -192.5q0 -122 49 -186t135 -64q48 0 99.5 23t93.5 55
q25 -14 46 -45t28 -59q-49 -51 -131.5 -85t-162.5 -34q-118 0 -194.5 53.5t-113.5 143t-37 198.5q0 140 52.5 227.5t133 128.5t166.5 41q96 0 162 -36t100 -91t34 -111q0 -43 -22.5 -70.5t-74.5 -27.5q-19 0 -38 3t-33 8z" />
    <glyph glyph-name="ordfeminine" unicode="&#xaa;" horiz-adv-x="858" 
d="M79 713q0 90 40 147.5t109.5 85t157.5 27.5q46 0 102.5 -4t106.5 -11v-127q-43 6 -97 10t-101 4q-62 0 -96.5 -32t-34.5 -87q0 -42 26.5 -73t72.5 -31q53 0 117.5 42t107.5 113l31 -132q-30 -35 -73.5 -74t-100.5 -65.5t-127 -26.5q-79 0 -132.5 33.5t-81 87.5t-27.5 113
zM769 584q-4 -26 -26.5 -55t-49.5 -43q-79 12 -121.5 69t-42.5 148v317q0 65 -33.5 93.5t-81.5 28.5q-63 0 -123 -14.5t-126 -39.5q-22 22 -37 58t-16 74q70 29 163 51t176 22q78 0 138.5 -28.5t95.5 -87t35 -150.5v-310q0 -44 9.5 -77t39.5 -56z" />
    <glyph glyph-name="guillemotleft" unicode="&#xab;" horiz-adv-x="1134" 
d="M779 514l283 -328q-12 -36 -49.5 -70t-75.5 -46l-397 372q-11 28 -11 68.5t11 67.5l389 372q38 -11 74.5 -46t48.5 -71zM314 514l283 -328q-12 -36 -49.5 -70t-75.5 -46l-397 372q-11 28 -11 68.5t11 67.5l389 372q38 -11 74.5 -46t48.5 -71z" />
    <glyph glyph-name="logicalnot" unicode="&#xac;" horiz-adv-x="1080" 
d="M112 734q-6 -23 -8 -48.5t-2 -45.5q0 -19 2 -45.5t8 -48.5h544q27 0 56 1t55 1l191 -2v175l-13 13h-833zM759 566q1 -27 -0.5 -58t-1.5 -58v-177q27 -5 51 -6.5t52 -1.5q26 0 51 1.5t47 6.5v366h-201z" />
    <glyph glyph-name="uni00AD" unicode="&#xad;" horiz-adv-x="707" 
d="M101 440q-6 22 -8 47.5t-2 45.5q0 21 2 47t8 48h506q5 -22 7 -48t2 -47q0 -20 -2 -45.5t-7 -47.5h-506z" />
    <glyph glyph-name="registered" unicode="&#xae;" horiz-adv-x="1188" 
d="M66 958q0 148 70.5 267.5t190 190.5t266.5 71q148 0 267.5 -71t190.5 -190.5t71 -267.5t-71 -267t-190.5 -189t-267.5 -70q-147 0 -266.5 70t-190 189t-70.5 267zM210 958q0 -109 50 -198.5t136.5 -143t196.5 -53.5t197 53.5t137.5 143t50.5 198.5q0 110 -50.5 200
t-137.5 144t-197 54t-196.5 -54t-136.5 -144t-50 -200zM800 1070q0 -57 -32 -89t-70 -43q22 -10 35.5 -27t30.5 -51l27 -51q9 -17 20 -32t25 -24q-13 -20 -37 -33.5t-51 -13.5q-28 0 -45 15.5t-32 45.5l-48 92q-9 18 -22.5 28t-37.5 10h-97v98q25 1 65 1.5t59 0.5
q42 0 59.5 18.5t17.5 44.5q0 25 -16.5 43.5t-53.5 18.5h-37.5h-35.5v-406q-26 -8 -63 -8q-38 0 -65 8v494l6 5q51 2 105 3.5t99 1.5q101 0 147.5 -42t46.5 -108z" />
    <glyph glyph-name="macron" unicode="&#xaf;" horiz-adv-x="796" 
d="M114 1150q-6 22 -8.5 41.5t-2.5 44.5t2.5 45t8.5 43h569q6 -23 8 -41.5t2 -45.5q0 -49 -10 -87h-569z" />
    <glyph glyph-name="degree" unicode="&#xb0;" horiz-adv-x="750" 
d="M59 975q0 91 41 163t113 113.5t162 41.5q91 0 162 -41.5t112.5 -113.5t41.5 -163q0 -92 -41.5 -164t-112.5 -113t-162 -41q-90 0 -162 41t-113 113t-41 164zM225 975q0 -75 40.5 -122.5t109.5 -47.5q68 0 108 47.5t40 122.5q0 73 -40 121t-108 48q-69 0 -109.5 -48
t-40.5 -121z" />
    <glyph glyph-name="plusminus" unicode="&#xb1;" horiz-adv-x="1080" 
d="M143 784q-5 -23 -7 -42t-2 -46q0 -25 2 -45t7 -43h199q27 0 55.5 1t54.5 1h176q26 0 54.5 -1t55.5 -1h199q5 23 7 43t2 45q0 27 -2 46t-7 42h-199q-27 0 -55.5 -1t-54.5 -1h-176q-26 0 -54.5 1t-55.5 1h-199zM442 888q0 -27 1 -57.5t1 -55.5v-157q0 -26 -1 -56.5
t-1 -56.5v-194q24 -5 48.5 -6.5t50.5 -1.5t51 1.5t47 6.5v194q0 26 -1 56.5t-1 56.5v157q0 25 1 55.5t1 57.5v201q-22 5 -47 6.5t-51 1.5t-50.5 -1.5t-48.5 -6.5v-201zM143 0q-5 25 -7 45t-2 46t2 45t7 45h794q5 -26 7 -45t2 -45t-2 -46t-7 -45h-794z" />
    <glyph glyph-name="uni00B2" unicode="&#xb2;" horiz-adv-x="833" 
d="M116 1292q25 88 99.5 149t188.5 61q126 0 202 -75t76 -186q0 -71 -28 -123.5t-67.5 -89.5t-73.5 -62l-92 -66q-61 -45 -95.5 -81t-34.5 -67v-113h-126q-34 40 -47.5 64.5t-13.5 51.5q0 57 46 119.5t109 110.5l126 97q38 30 71 67t33 88q0 46 -28.5 75t-73.5 28t-78.5 -33
t-50.5 -80q-23 1 -52 10.5t-54 24t-36 30.5zM705 806q0 -71 -13 -106.5t-37.5 -48t-58.5 -12.5h-406l-22 115q43 19 97 30.5t115 16.5t124 5h201z" />
    <glyph glyph-name="uni00B3" unicode="&#xb3;" horiz-adv-x="833" 
d="M513 912q0 64 -39.5 97t-92.5 33q-21 0 -41.5 -4.5t-37.5 -13.5q-25 11 -46.5 40t-27.5 61q54 17 114.5 28t111.5 11q66 0 123 -30.5t92 -87.5t35 -136q0 -95 -47.5 -158t-122.5 -94t-157 -31q-86 0 -157 25t-118 63q7 36 28 71t46 56q40 -26 88 -44.5t103 -18.5
q64 0 105 35t41 98zM530 1204q-33 -30 -88.5 -62.5t-111.5 -51.5l-102 35l151 148q16 15 37 33t39 31l-4 5q-26 -4 -73.5 -6.5t-80.5 -2.5h-155q-9 36 -9 69q0 18 3 41t12 45h484q13 -23 24.5 -52.5t11.5 -55.5q0 -25 -10.5 -43t-31.5 -37z" />
    <glyph glyph-name="acute" unicode="&#xb4;" horiz-adv-x="796" 
d="M468 1487q46 -15 90 -55.5t61 -87.5l-346 -268q-29 9 -56.5 34t-39.5 55z" />
    <glyph glyph-name="uni00B5" unicode="&#xb5;" horiz-adv-x="1107" 
d="M229 459v-135q0 -94 34.5 -172t98 -124.5t150.5 -46.5q99 0 170 54.5t110 135.5l-13 200q-40 -89 -101 -144t-140 -55q-78 0 -123.5 51t-45.5 141v95h-140zM952 989q-49 9 -112 9t-110 -9v-732q0 -101 47 -178t151 -94q26 17 49 50t31 63q-31 27 -43.5 77t-12.5 106v708z
M369 989q-49 9 -110 9q-62 0 -109 -9v-1197q0 -41 -6.5 -93.5t-28.5 -90.5q27 -21 61 -33t74 -12q67 0 87 41t20 109v446h12v830z" />
    <glyph glyph-name="paragraph" unicode="&#xb6;" horiz-adv-x="1365" 
d="M570 121q0 -84 -15 -142t-56 -88t-119 -30q-47 0 -99 13.5t-93 29.5q-24 -32 -38.5 -82.5t-14.5 -85.5q44 -17 117.5 -32.5t148.5 -15.5q152 0 237.5 54.5t121 160t35.5 257.5v1195l-12 13q-68 3 -121.5 5.5t-117.5 2.5q-134 0 -239 -46.5t-165.5 -142.5t-60.5 -247
q0 -147 60 -245.5t163 -147.5t233 -49h35v-377zM925 1353l13 13h213v-1630q-26 -6 -56 -8t-57 -2q-23 0 -55.5 2t-57.5 8v1617zM1040 1366h272q8 -22 10 -59.5t0 -75.5t-10 -60h-75q-32 0 -63.5 2t-58.5 2h-75v191z" />
    <glyph glyph-name="periodcentered" unicode="&#xb7;" horiz-adv-x="617" 
d="M170 527q0 18 4.5 51t13.5 51q21 13 55 21t65 8q30 0 65.5 -8t54.5 -21q9 -18 13.5 -51t4.5 -51t-4.5 -51t-13.5 -52q-19 -12 -54.5 -20t-65.5 -8q-31 0 -65 8t-55 20q-9 19 -13.5 52t-4.5 51z" />
    <glyph glyph-name="cedilla" unicode="&#xb8;" horiz-adv-x="796" 
d="M259 -149q12 33 33.5 81.5t38.5 79.5h133q-10 -14 -23.5 -40.5t-20.5 -43.5q76 -7 128.5 -54t52.5 -122q0 -88 -69.5 -144.5t-176.5 -56.5q-47 0 -90.5 12t-68.5 29q2 30 13.5 59t28.5 50q19 -11 45.5 -19t53.5 -8q45 0 66 22t21 52q0 31 -21 53t-61 22q-12 0 -24 -2.5
t-22 -7.5q-27 13 -37 38z" />
    <glyph glyph-name="uni00B9" unicode="&#xb9;" horiz-adv-x="833" 
d="M550 720h-182v373q0 22 2 57t4 73t1 70l-1 193q23 5 46 7t44 2t40.5 -2t45.5 -7v-766zM271 795q19 0 49.5 -0.5t47.5 -0.5h182q17 0 51 0.5t50 0.5h62q9 -35 9 -78q0 -17 -2 -37.5t-7 -40.5h-547q-9 43 -9 78q0 41 9 78h105zM110 1210q106 62 165 126.5t99 149.5l66 -126
q-27 -98 -89 -160.5t-159 -106.5q-31 15 -53.5 49.5t-28.5 67.5z" />
    <glyph glyph-name="ordmasculine" unicode="&#xba;" horiz-adv-x="838" 
d="M765 886q0 -94 -25 -178.5t-89 -145.5q-43 -41 -103 -63t-129 -22q-70 0 -130 21t-102 64q-62 63 -88 146.5t-26 177.5q0 93 25 177t89 145q43 42 102.5 63.5t129.5 21.5q69 0 130 -20.5t102 -64.5q62 -63 88 -146t26 -176zM264 886q0 -71 14.5 -130.5t48.5 -94.5t92 -35
t92 35t48.5 94.5t14.5 130.5t-14.5 130t-48.5 94.5t-92 35.5t-92 -35.5t-48.5 -94.5t-14.5 -130z" />
    <glyph glyph-name="guillemotright" unicode="&#xbb;" horiz-adv-x="1134" 
d="M354 506l-283 327q13 36 50.5 71t75.5 46l396 -371q12 -28 12 -69t-12 -68l-389 -372q-37 12 -73.5 46.5t-48.5 70.5zM819 506l-283 327q13 36 50.5 71t75.5 46l396 -371q12 -28 12 -69t-12 -68l-389 -372q-37 12 -73.5 46.5t-48.5 70.5z" />
    <glyph glyph-name="onequarter" unicode="&#xbc;" horiz-adv-x="2014" 
d="M550 598h-182v373q0 22 2 57t4 73t1 70l-1 193q23 5 46 7t44 2t40.5 -2t45.5 -7v-766zM271 673q19 0 49.5 -0.5t47.5 -0.5h182q17 0 51 0.5t50 0.5h62q9 -35 9 -78q0 -17 -2 -37.5t-7 -40.5h-547q-9 43 -9 78q0 41 9 78h105zM110 1088q106 62 165 126.5t99 149.5l66 -126
q-27 -98 -89 -160.5t-159 -106.5q-31 15 -53.5 49.5t-28.5 67.5zM1335 1366q29 9 72.5 11t84.5 -1t60 -10l-753 -1366q-28 -8 -72 -10.5t-84.5 0.5t-60.5 10zM1312 155q-16 25 -28.5 56t-12.5 55q0 18 10 46.5t19 45.5l230 501q42 5 95 -6.5t80 -34.5l-143 -309l-30 -62.5
t-37.5 -74.5t-39.5 -62l3 -4q25 3 54 3.5t54 1t38 0.5h197q14 0 32 1t33 1h53q4 -15 5.5 -34t1.5 -37q0 -22 -3 -46t-9 -41h-52q-13 0 -31 0.5t-31 0.5h-172q-15 0 -39 -0.5t-45 -0.5h-232zM1626 81q0 20 1 39.5t1 35.5v133q0 11 -1 32.5t-1 32.5v62q0 60 33 97t87 37h50
l6 -7v-138q0 -22 -1 -48t-1 -46v-155q0 -16 1 -35.5t1 -39.5v-80q-18 -5 -41.5 -7t-45.5 -2t-45.5 2t-43.5 7v80z" />
    <glyph glyph-name="onehalf" unicode="&#xbd;" horiz-adv-x="2042" 
d="M550 598h-182v373q0 22 2 57t4 73t1 70l-1 193q23 5 46 7t44 2t40.5 -2t45.5 -7v-766zM271 673q19 0 49.5 -0.5t47.5 -0.5h182q17 0 51 0.5t50 0.5h62q9 -35 9 -78q0 -17 -2 -37.5t-7 -40.5h-547q-9 43 -9 78q0 41 9 78h105zM110 1088q106 62 165 126.5t99 149.5l66 -126
q-27 -98 -89 -160.5t-159 -106.5q-31 15 -53.5 49.5t-28.5 67.5zM1335 1366q29 9 72.5 11t84.5 -1t60 -10l-753 -1366q-28 -8 -72 -10.5t-84.5 0.5t-60.5 10zM1326 653q25 88 99.5 149t188.5 61q126 0 202 -75t76 -186q0 -71 -28 -123.5t-67.5 -89.5t-73.5 -62l-92 -66
q-61 -45 -95.5 -81t-34.5 -67v-113h-126q-34 40 -47.5 64.5t-13.5 51.5q0 57 46 119.5t109 110.5l126 97q38 30 71 67t33 88q0 46 -28.5 75t-73.5 28t-78.5 -33t-50.5 -80q-23 1 -52 10.5t-54 24t-36 30.5zM1915 167q0 -71 -13 -106.5t-37.5 -48t-58.5 -12.5h-406l-22 115
q43 19 97 30.5t115 16.5t124 5h201z" />
    <glyph glyph-name="threequarters" unicode="&#xbe;" horiz-adv-x="1973" 
d="M513 790q0 64 -39.5 97t-92.5 33q-21 0 -41.5 -4.5t-37.5 -13.5q-25 11 -46.5 40t-27.5 61q54 17 114.5 28t111.5 11q66 0 123 -30.5t92 -87.5t35 -136q0 -95 -47.5 -158t-122.5 -94t-157 -31q-86 0 -157 25t-118 63q7 36 28 71t46 56q40 -26 88 -44.5t103 -18.5
q64 0 105 35t41 98zM530 1082q-33 -30 -88.5 -62.5t-111.5 -51.5l-102 35l151 148q16 15 37 33t39 31l-4 5q-26 -4 -73.5 -6.5t-80.5 -2.5h-155q-9 36 -9 69q0 18 3 41t12 45h484q13 -23 24.5 -52.5t11.5 -55.5q0 -25 -10.5 -43t-31.5 -37zM1294 1366q29 9 72.5 11t84.5 -1
t60 -10l-753 -1366q-28 -8 -72 -10.5t-84.5 0.5t-60.5 10zM1272 155q-16 25 -28.5 56t-12.5 55q0 18 10 46.5t19 45.5l230 501q42 5 95 -6.5t80 -34.5l-143 -309l-30 -62.5t-37.5 -74.5t-39.5 -62l3 -4q25 3 54 3.5t54 1t38 0.5h197q14 0 32 1t33 1h53q4 -15 5.5 -34
t1.5 -37q0 -22 -3 -46t-9 -41h-52q-13 0 -31 0.5t-31 0.5h-172q-15 0 -39 -0.5t-45 -0.5h-232zM1586 81q0 20 1 39.5t1 35.5v133q0 11 -1 32.5t-1 32.5v62q0 60 33 97t87 37h50l6 -7v-138q0 -22 -1 -48t-1 -46v-155q0 -16 1 -35.5t1 -39.5v-80q-18 -5 -41.5 -7t-45.5 -2
t-45.5 2t-43.5 7v80z" />
    <glyph glyph-name="questiondown" unicode="&#xbf;" horiz-adv-x="799" 
d="M787 -304q-81 -45 -180 -74t-206 -29q-175 0 -276 95t-101 249q0 141 75.5 235t185.5 154l124 69l17 196q19 7 40 9.5t41 2.5q22 0 45 -2.5t44 -9.5l12 -298l-18 -24l-100 -49q-102 -51 -166.5 -113t-64.5 -147q0 -77 50.5 -124.5t141.5 -47.5q66 0 131.5 21.5
t123.5 51.5q30 -24 54 -72t27 -93zM509 760q-32 0 -65 7t-54 19q-8 15 -13 45.5t-5 51.5q0 23 5 53t13 44q21 12 54 19t65 7q33 0 64.5 -7t53.5 -19q8 -14 12.5 -44t4.5 -53q0 -21 -4.5 -51.5t-12.5 -45.5q-46 -26 -118 -26z" />
    <glyph glyph-name="Agrave" unicode="&#xc0;" horiz-adv-x="1231" 
d="M486 1366q28 4 66.5 6.5t66.5 2.5q27 0 66 -2.5t63 -7.5l446 -1351q-24 -14 -60.5 -21.5t-72.5 -7.5q-54 0 -84 25t-52 97l-209 668q-27 87 -55.5 186.5t-50.5 182.5h-11q-15 -70 -39 -157t-42 -146l-265 -843q-21 -5 -46.5 -7t-51.5 -2q-29 0 -59 4t-52 12l-8 11z
M467 323q-10 0 -37 0.5t-54.5 1t-37.5 0.5h-109l71 185h96q10 0 34.5 0.5t48.5 1t33 0.5h192q10 0 34.5 -0.5t49.5 -1t35 -0.5h98l61 -185h-109q-10 0 -38 -0.5t-55 -1t-37 -0.5h-276zM440 1816q-32 -23 -61.5 -75t-35.5 -105l442 -180q28 18 44.5 50.5t21.5 63.5z" />
    <glyph glyph-name="Aacute" unicode="&#xc1;" horiz-adv-x="1231" 
d="M486 1366q28 4 66.5 6.5t66.5 2.5q27 0 66 -2.5t63 -7.5l446 -1351q-24 -14 -60.5 -21.5t-72.5 -7.5q-54 0 -84 25t-52 97l-209 668q-27 87 -55.5 186.5t-50.5 182.5h-11q-15 -70 -39 -157t-42 -146l-265 -843q-21 -5 -46.5 -7t-51.5 -2q-29 0 -59 4t-52 12l-8 11z
M467 323q-10 0 -37 0.5t-54.5 1t-37.5 0.5h-109l71 185h96q10 0 34.5 0.5t48.5 1t33 0.5h192q10 0 34.5 -0.5t49.5 -1t35 -0.5h98l61 -185h-109q-10 0 -38 -0.5t-55 -1t-37 -0.5h-276zM820 1816q32 -23 61.5 -75t35.5 -105l-442 -180q-26 16 -44 50t-22 64z" />
    <glyph glyph-name="Acircumflex" unicode="&#xc2;" horiz-adv-x="1231" 
d="M486 1366q28 4 66.5 6.5t66.5 2.5q27 0 66 -2.5t63 -7.5l446 -1351q-24 -14 -60.5 -21.5t-72.5 -7.5q-54 0 -84 25t-52 97l-209 668q-27 87 -55.5 186.5t-50.5 182.5h-11q-15 -70 -39 -157t-42 -146l-265 -843q-21 -5 -46.5 -7t-51.5 -2q-29 0 -59 4t-52 12l-8 11z
M467 323q-10 0 -37 0.5t-54.5 1t-37.5 0.5h-109l71 185h96q10 0 34.5 0.5t48.5 1t33 0.5h192q10 0 34.5 -0.5t49.5 -1t35 -0.5h98l61 -185h-109q-10 0 -38 -0.5t-55 -1t-37 -0.5h-276zM713 1783l225 -214q-11 -36 -40.5 -61.5t-54.5 -34.5l-227 149l-225 -149
q-25 9 -54.5 34.5t-41.5 61.5l225 214q43 8 96 8q55 0 97 -8z" />
    <glyph glyph-name="Atilde" unicode="&#xc3;" horiz-adv-x="1231" 
d="M486 1366q28 4 66.5 6.5t66.5 2.5q27 0 66 -2.5t63 -7.5l446 -1351q-24 -14 -60.5 -21.5t-72.5 -7.5q-54 0 -84 25t-52 97l-209 668q-27 87 -55.5 186.5t-50.5 182.5h-11q-15 -70 -39 -157t-42 -146l-265 -843q-21 -5 -46.5 -7t-51.5 -2q-29 0 -59 4t-52 12l-8 11z
M467 323q-10 0 -37 0.5t-54.5 1t-37.5 0.5h-109l71 185h96q10 0 34.5 0.5t48.5 1t33 0.5h192q10 0 34.5 -0.5t49.5 -1t35 -0.5h98l61 -185h-109q-10 0 -38 -0.5t-55 -1t-37 -0.5h-276zM528 1565q-16 8 -31.5 13t-33.5 5q-21 0 -41.5 -12.5t-37.5 -36.5l-22 -28
q-33 1 -65.5 19.5t-45.5 48.5l15 32q32 73 86 115t126 42q35 0 65.5 -10t55.5 -22l104 -50q18 -9 36 -14.5t34 -5.5q21 0 41 12.5t38 36.5l22 29q33 -1 66 -20t45 -48l-15 -33q-31 -72 -85.5 -114t-126.5 -42q-35 0 -66 10t-55 22z" />
    <glyph glyph-name="Adieresis" unicode="&#xc4;" horiz-adv-x="1231" 
d="M486 1366q28 4 66.5 6.5t66.5 2.5q27 0 66 -2.5t63 -7.5l446 -1351q-24 -14 -60.5 -21.5t-72.5 -7.5q-54 0 -84 25t-52 97l-209 668q-27 87 -55.5 186.5t-50.5 182.5h-11q-15 -70 -39 -157t-42 -146l-265 -843q-21 -5 -46.5 -7t-51.5 -2q-29 0 -59 4t-52 12l-8 11z
M467 323q-10 0 -37 0.5t-54.5 1t-37.5 0.5h-109l71 185h96q10 0 34.5 0.5t48.5 1t33 0.5h192q10 0 34.5 -0.5t49.5 -1t35 -0.5h98l61 -185h-109q-10 0 -38 -0.5t-55 -1t-37 -0.5h-276zM830 1486q-28 0 -56.5 6.5t-48.5 18.5q-9 21 -12 44t-3 41q0 19 3 41.5t12 44.5
q20 11 48.5 17.5t56.5 6.5q26 0 55 -6.5t49 -17.5q9 -22 12 -44.5t3 -41.5q0 -18 -3 -41t-12 -44q-20 -12 -49 -18.5t-55 -6.5zM405 1486q-27 0 -56 6.5t-49 18.5q-8 21 -11.5 44t-3.5 41q0 19 3.5 41.5t11.5 44.5q20 11 49 17.5t56 6.5q26 0 55.5 -6.5t49.5 -17.5
q8 -22 11.5 -44.5t3.5 -41.5q0 -18 -3.5 -41t-11.5 -44q-20 -12 -49.5 -18.5t-55.5 -6.5z" />
    <glyph glyph-name="Aring" unicode="&#xc5;" horiz-adv-x="1231" 
d="M488 1373h258l448 -1359q-24 -14 -60.5 -21.5t-72.5 -7.5q-54 0 -84 25t-52 97l-209 668q-27 87 -55.5 186.5t-50.5 182.5h-11q-15 -70 -39 -157t-42 -146l-265 -843q-21 -5 -46.5 -7t-51.5 -2q-29 0 -59 4t-52 12l-8 11zM467 323q-10 0 -37 0.5t-54.5 1t-37.5 0.5h-109
l71 185h96q10 0 34.5 0.5t48.5 1t33 0.5h192q10 0 34.5 -0.5t49.5 -1t35 -0.5h98l61 -185h-109q-10 0 -38 -0.5t-55 -1t-37 -0.5h-276zM370 1564q0 95 69 163t179 68t178.5 -68t68.5 -163t-68.5 -163.5t-178.5 -68.5t-179 68.5t-69 163.5zM518 1564q0 -46 28 -77t72 -31
t72 31t28 77t-28 76.5t-72 30.5t-72 -30.5t-28 -76.5z" />
    <glyph glyph-name="AE" unicode="&#xc6;" horiz-adv-x="1756" 
d="M674 1345q26 12 66 16.5t71 4.5h157l-169 -222h-11q-27 -73 -62 -154.5t-66 -149.5l-401 -841q-25 -6 -54.5 -7.5t-56.5 -1.5q-30 0 -60 4t-53 12l-8 11zM517 323q-15 0 -39.5 0.5t-48 1t-37.5 0.5h-90l85 183h84q20 0 52 1t56 1h117q15 0 39 -0.5l48 -1t37 -0.5h82v-183
h-82q-13 0 -36.5 -0.5t-48 -1t-40.5 -0.5h-178zM798 1353l13 13h206v-188q0 -42 1 -69.5t1 -68.5v-743q0 -29 -1 -54.5t-1 -55.5v-190h-89q-61 0 -95.5 37.5t-34.5 102.5v1216zM1513 784q7 -22 10 -49t3 -46t-3 -45t-10 -49h-367q-23 0 -59.5 0.5t-74.5 1t-69 0.5v184
q31 1 69 1.5t74.5 1t59.5 0.5h367zM1623 1366q5 -25 6.5 -48t1.5 -42q0 -20 -4.5 -48.5t-13.5 -54.5h-467h-59.5t-74.5 1t-69 2v190h680zM1664 191q0 -111 -34.5 -152.5t-115.5 -41.5h-571v185q51 3 98 6t111 3h512z" />
    <glyph glyph-name="Ccedilla" unicode="&#xc7;" horiz-adv-x="1209" 
d="M913 883q1 77 -23 152t-83 124t-164 49q-154 0 -231 -135.5t-77 -396.5q0 -243 85.5 -373t237.5 -130q95 0 183 40.5t172 109.5q36 -24 69 -66t43 -82q-55 -55 -133.5 -101t-173.5 -73.5t-198 -27.5q-146 0 -246.5 59.5t-162 160t-89 226.5t-27.5 258q0 249 76 407.5
t202 234t275 75.5t258.5 -55.5t168.5 -145.5t59 -194q0 -60 -30.5 -94.5t-98.5 -34.5q-26 0 -46.5 3.5t-45.5 9.5zM514 -149q12 33 33.5 81.5t38.5 79.5h133q-10 -14 -23.5 -40.5t-20.5 -43.5q76 -7 128.5 -54t52.5 -122q0 -88 -69.5 -144.5t-176.5 -56.5q-47 0 -90.5 12
t-68.5 29q2 30 13.5 59t28.5 50q19 -11 45.5 -19t53.5 -8q45 0 66 22t21 52q0 31 -21 53t-61 22q-12 0 -24 -2.5t-22 -7.5q-27 13 -37 38z" />
    <glyph glyph-name="Egrave" unicode="&#xc8;" horiz-adv-x="1134" 
d="M176 1353l13 13h210v-188q0 -42 1 -69.5t1 -68.5v-746q0 -28 -1 -52.5t-1 -54.5v-190h-92q-61 0 -96 37.5t-35 102.5v1216zM892 784q6 -22 9 -49t3 -46t-3 -45t-9 -49h-365q-23 0 -60 0.5t-76 1t-69 0.5v184q30 1 69 1.5t76 1t60 0.5h365zM1002 1366q5 -25 6.5 -48
t1.5 -42q0 -20 -4.5 -48.5t-13.5 -54.5h-465h-60t-76 1t-69 2v190h680zM1043 191q0 -102 -31.5 -148t-119.5 -46h-570v185q50 3 99 6t112 3h510zM421 1816q-32 -23 -61.5 -75t-35.5 -105l442 -180q28 18 44.5 50.5t21.5 63.5z" />
    <glyph glyph-name="Eacute" unicode="&#xc9;" horiz-adv-x="1134" 
d="M176 1353l13 13h210v-188q0 -42 1 -69.5t1 -68.5v-746q0 -28 -1 -52.5t-1 -54.5v-190h-92q-61 0 -96 37.5t-35 102.5v1216zM892 784q6 -22 9 -49t3 -46t-3 -45t-9 -49h-365q-23 0 -60 0.5t-76 1t-69 0.5v184q30 1 69 1.5t76 1t60 0.5h365zM1002 1366q5 -25 6.5 -48
t1.5 -42q0 -20 -4.5 -48.5t-13.5 -54.5h-465h-60t-76 1t-69 2v190h680zM1043 191q0 -102 -31.5 -148t-119.5 -46h-570v185q50 3 99 6t112 3h510zM800 1816q32 -23 61.5 -75t35.5 -105l-442 -180q-26 16 -44 50t-22 64z" />
    <glyph glyph-name="Ecircumflex" unicode="&#xca;" horiz-adv-x="1134" 
d="M176 1353l13 13h210v-188q0 -42 1 -69.5t1 -68.5v-746q0 -28 -1 -52.5t-1 -54.5v-190h-92q-61 0 -96 37.5t-35 102.5v1216zM892 784q6 -22 9 -49t3 -46t-3 -45t-9 -49h-365q-23 0 -60 0.5t-76 1t-69 0.5v184q30 1 69 1.5t76 1t60 0.5h365zM1002 1366q5 -25 6.5 -48
t1.5 -42q0 -20 -4.5 -48.5t-13.5 -54.5h-465h-60t-76 1t-69 2v190h680zM1043 191q0 -102 -31.5 -148t-119.5 -46h-570v185q50 3 99 6t112 3h510zM692 1783l225 -214q-11 -36 -40.5 -61.5t-54.5 -34.5l-227 149l-225 -149q-25 9 -54.5 34.5t-41.5 61.5l225 214q43 8 96 8
q55 0 97 -8z" />
    <glyph glyph-name="Edieresis" unicode="&#xcb;" horiz-adv-x="1134" 
d="M176 1353l13 13h210v-188q0 -42 1 -69.5t1 -68.5v-746q0 -28 -1 -52.5t-1 -54.5v-190h-92q-61 0 -96 37.5t-35 102.5v1216zM892 784q6 -22 9 -49t3 -46t-3 -45t-9 -49h-365q-23 0 -60 0.5t-76 1t-69 0.5v184q30 1 69 1.5t76 1t60 0.5h365zM1002 1366q5 -25 6.5 -48
t1.5 -42q0 -20 -4.5 -48.5t-13.5 -54.5h-465h-60t-76 1t-69 2v190h680zM1043 191q0 -102 -31.5 -148t-119.5 -46h-570v185q50 3 99 6t112 3h510zM810 1486q-28 0 -56.5 6.5t-48.5 18.5q-9 21 -12 44t-3 41q0 19 3 41.5t12 44.5q20 11 48.5 17.5t56.5 6.5q26 0 55 -6.5
t49 -17.5q9 -22 12 -44.5t3 -41.5q0 -18 -3 -41t-12 -44q-20 -12 -49 -18.5t-55 -6.5zM385 1486q-27 0 -56 6.5t-49 18.5q-8 21 -11.5 44t-3.5 41q0 19 3.5 41.5t11.5 44.5q20 11 49 17.5t56 6.5q26 0 55.5 -6.5t49.5 -17.5q8 -22 11.5 -44.5t3.5 -41.5q0 -18 -3.5 -41
t-11.5 -44q-20 -12 -49.5 -18.5t-55.5 -6.5z" />
    <glyph glyph-name="Igrave" unicode="&#xcc;" horiz-adv-x="593" 
d="M182 1366q26 5 58 7t56 2q26 0 57.5 -2t57.5 -7v-1366q-26 -5 -57.5 -7t-57.5 -2q-24 0 -56 2t-58 7v1366zM119 1817q-32 -23 -61.5 -75t-35.5 -105l442 -180q28 18 44.5 50.5t21.5 63.5z" />
    <glyph glyph-name="Iacute" unicode="&#xcd;" horiz-adv-x="593" 
d="M182 1366q26 5 58 7t56 2q26 0 57.5 -2t57.5 -7v-1366q-26 -5 -57.5 -7t-57.5 -2q-24 0 -56 2t-58 7v1366zM499 1817q32 -23 61.5 -75t35.5 -105l-442 -180q-26 16 -44 50t-22 64z" />
    <glyph glyph-name="Icircumflex" unicode="&#xce;" horiz-adv-x="593" 
d="M182 1366q26 5 58 7t56 2q26 0 57.5 -2t57.5 -7v-1366q-26 -5 -57.5 -7t-57.5 -2q-24 0 -56 2t-58 7v1366zM391 1784l225 -214q-11 -36 -40.5 -61.5t-54.5 -34.5l-227 149l-225 -149q-25 9 -54.5 34.5t-41.5 61.5l225 214q43 8 96 8q55 0 97 -8z" />
    <glyph glyph-name="Idieresis" unicode="&#xcf;" horiz-adv-x="593" 
d="M182 1366q26 5 58 7t56 2q26 0 57.5 -2t57.5 -7v-1366q-26 -5 -57.5 -7t-57.5 -2q-24 0 -56 2t-58 7v1366zM509 1487q-28 0 -56.5 6.5t-48.5 18.5q-9 21 -12 44t-3 41q0 19 3 41.5t12 44.5q20 11 48.5 17.5t56.5 6.5q26 0 55 -6.5t49 -17.5q9 -22 12 -44.5t3 -41.5
q0 -18 -3 -41t-12 -44q-20 -12 -49 -18.5t-55 -6.5zM84 1487q-27 0 -56 6.5t-49 18.5q-8 21 -11.5 44t-3.5 41q0 19 3.5 41.5t11.5 44.5q20 11 49 17.5t56 6.5q26 0 55.5 -6.5t49.5 -17.5q8 -22 11.5 -44.5t3.5 -41.5q0 -18 -3.5 -41t-11.5 -44q-20 -12 -49.5 -18.5
t-55.5 -6.5z" />
    <glyph glyph-name="Eth" unicode="&#xd0;" horiz-adv-x="1333" 
d="M1235 684q0 -117 -15.5 -224.5t-61 -201t-137.5 -167.5q-43 -36 -105 -58t-127 -32.5t-118 -10.5q-81 0 -151 1t-141 3t-158 4l-13 13v1344l13 13q87 3 158 4.5t141 2t151 0.5q53 0 118 -10.5t127 -32.5t105 -58q91 -74 136.5 -167t61.5 -200t16 -223zM999 684
q0 88 -11.5 177.5t-45.5 164.5t-99 120.5t-173 45.5q-61 0 -116 0.5t-121 1.5v-1020q66 0 121 -0.5t116 -0.5q108 0 173 46.5t99 122t45.5 165.5t11.5 177zM57 598q-6 22 -8 44.5t-2 47.5t2 49.5t8 46.5h676q5 -22 7.5 -44.5t2.5 -49.5q0 -52 -10 -94h-676z" />
    <glyph glyph-name="Ntilde" unicode="&#xd1;" horiz-adv-x="1365" 
d="M177 1363q27 6 69 9t67 3q26 0 63.5 -2t71.5 -7l-59 -265l-18 -3q5 -72 9 -161t6.5 -179.5t2.5 -165.5v-592q-28 -5 -55 -7t-50 -2q-21 0 -50.5 2t-56.5 7v1363zM504 821q-37 75 -68 145.5t-58 132.5l-106 128l176 139l406 -820q39 -80 72.5 -155.5t60.5 -136.5l114 -120
l-188 -134zM1188 1364v-1361q-28 -6 -68.5 -9t-70.5 -3q-29 0 -65 2t-71 7l63 253l18 3q-6 82 -10 175.5t-6 182.5t-2 158v462q0 76 27.5 109t96.5 33h75zM598 1565q-16 8 -31.5 13t-33.5 5q-21 0 -41.5 -12.5t-37.5 -36.5l-22 -28q-33 1 -65.5 19.5t-45.5 48.5l15 32
q32 73 86 115t126 42q35 0 65.5 -10t55.5 -22l104 -50q18 -9 36 -14.5t34 -5.5q21 0 41 12.5t38 36.5l22 29q33 -1 66 -20t45 -48l-15 -33q-31 -72 -85.5 -114t-126.5 -42q-35 0 -66 10t-55 22z" />
    <glyph glyph-name="Ograve" unicode="&#xd2;" horiz-adv-x="1318" 
d="M334 684q0 -89 13 -182t47.5 -172t98.5 -127t166 -48t166 48t98 127t47 172t13 182t-13 181.5t-47 171t-98 126.5t-166 48t-166 -48t-98.5 -126.5t-47.5 -171t-13 -181.5zM95 684q0 204 61 364t186 252.5t317 92.5q193 0 318 -93t185.5 -253.5t60.5 -362.5
q0 -204 -61 -364.5t-186 -253.5t-317 -93q-145 0 -251 53.5t-175.5 150t-103.5 226t-34 281.5zM481 1816q-32 -23 -61.5 -75t-35.5 -105l442 -180q28 18 44.5 50.5t21.5 63.5z" />
    <glyph glyph-name="Oacute" unicode="&#xd3;" horiz-adv-x="1318" 
d="M334 684q0 -89 13 -182t47.5 -172t98.5 -127t166 -48t166 48t98 127t47 172t13 182t-13 181.5t-47 171t-98 126.5t-166 48t-166 -48t-98.5 -126.5t-47.5 -171t-13 -181.5zM95 684q0 204 61 364t186 252.5t317 92.5q193 0 318 -93t185.5 -253.5t60.5 -362.5
q0 -204 -61 -364.5t-186 -253.5t-317 -93q-145 0 -251 53.5t-175.5 150t-103.5 226t-34 281.5zM861 1816q32 -23 61.5 -75t35.5 -105l-442 -180q-26 16 -44 50t-22 64z" />
    <glyph glyph-name="Ocircumflex" unicode="&#xd4;" horiz-adv-x="1318" 
d="M334 684q0 -89 13 -182t47.5 -172t98.5 -127t166 -48t166 48t98 127t47 172t13 182t-13 181.5t-47 171t-98 126.5t-166 48t-166 -48t-98.5 -126.5t-47.5 -171t-13 -181.5zM95 684q0 204 61 364t186 252.5t317 92.5q193 0 318 -93t185.5 -253.5t60.5 -362.5
q0 -204 -61 -364.5t-186 -253.5t-317 -93q-145 0 -251 53.5t-175.5 150t-103.5 226t-34 281.5zM754 1783l225 -214q-11 -36 -40.5 -61.5t-54.5 -34.5l-227 149l-225 -149q-25 9 -54.5 34.5t-41.5 61.5l225 214q43 8 96 8q55 0 97 -8z" />
    <glyph glyph-name="Otilde" unicode="&#xd5;" horiz-adv-x="1318" 
d="M334 684q0 -89 13 -182t47.5 -172t98.5 -127t166 -48t166 48t98 127t47 172t13 182t-13 181.5t-47 171t-98 126.5t-166 48t-166 -48t-98.5 -126.5t-47.5 -171t-13 -181.5zM95 684q0 204 61 364t186 252.5t317 92.5q193 0 318 -93t185.5 -253.5t60.5 -362.5
q0 -204 -61 -364.5t-186 -253.5t-317 -93q-145 0 -251 53.5t-175.5 150t-103.5 226t-34 281.5zM569 1565q-16 8 -31.5 13t-33.5 5q-21 0 -41.5 -12.5t-37.5 -36.5l-22 -28q-33 1 -65.5 19.5t-45.5 48.5l15 32q32 73 86 115t126 42q35 0 65.5 -10t55.5 -22l104 -50
q18 -9 36 -14.5t34 -5.5q21 0 41 12.5t38 36.5l22 29q33 -1 66 -20t45 -48l-15 -33q-31 -72 -85.5 -114t-126.5 -42q-35 0 -66 10t-55 22z" />
    <glyph glyph-name="Odieresis" unicode="&#xd6;" horiz-adv-x="1318" 
d="M334 684q0 -89 13 -182t47.5 -172t98.5 -127t166 -48t166 48t98 127t47 172t13 182t-13 181.5t-47 171t-98 126.5t-166 48t-166 -48t-98.5 -126.5t-47.5 -171t-13 -181.5zM95 684q0 204 61 364t186 252.5t317 92.5q193 0 318 -93t185.5 -253.5t60.5 -362.5
q0 -204 -61 -364.5t-186 -253.5t-317 -93q-145 0 -251 53.5t-175.5 150t-103.5 226t-34 281.5zM871 1486q-28 0 -56.5 6.5t-48.5 18.5q-9 21 -12 44t-3 41q0 19 3 41.5t12 44.5q20 11 48.5 17.5t56.5 6.5q26 0 55 -6.5t49 -17.5q9 -22 12 -44.5t3 -41.5q0 -18 -3 -41
t-12 -44q-20 -12 -49 -18.5t-55 -6.5zM446 1486q-27 0 -56 6.5t-49 18.5q-8 21 -11.5 44t-3.5 41q0 19 3.5 41.5t11.5 44.5q20 11 49 17.5t56 6.5q26 0 55.5 -6.5t49.5 -17.5q8 -22 11.5 -44.5t3.5 -41.5q0 -18 -3.5 -41t-11.5 -44q-20 -12 -49.5 -18.5t-55.5 -6.5z" />
    <glyph glyph-name="multiply" unicode="&#xd7;" horiz-adv-x="1080" 
d="M341 693q19 -18 40 -38.5t39 -39.5l106 -106q19 -18 39.5 -39t38.5 -40l189 -191q44 18 82 55q34 35 56 81l-192 191q-18 18 -39 38.5t-40 38.5l-106 106q-18 18 -38.5 40t-39.5 40l-190 191q-22 -10 -42.5 -24t-38.5 -32q-17 -18 -31 -38.5t-25 -43.5zM476 430
q19 19 39.5 40t38.5 39l106 105q19 19 40 39.5t39 38.5l192 190q-21 45 -58 83q-18 17 -38 31t-42 23l-189 -191q-18 -18 -38.5 -39.5t-39.5 -39.5l-106 -106l-39 -39l-40 -40l-192 -189q11 -23 26 -43.5t31 -37.5q17 -16 37 -30.5t43 -25.5z" />
    <glyph glyph-name="Oslash" unicode="&#xd8;" horiz-adv-x="1322" 
d="M877 1280l114 201q40 -6 82.5 -29t65.5 -52l-135 -241l-558 -1071l-115 -200q-39 6 -81.5 29t-66.5 52l136 241zM327 684q0 -90 14 -183.5t50 -173.5t102 -128.5t168 -48.5q103 0 168 48.5t101 128.5t49.5 173.5t13.5 183.5t-13.5 183t-49.5 172.5t-101 128t-168 48.5
q-102 0 -168 -48.5t-102 -128t-50 -172.5t-14 -183zM95 684q0 202 61.5 362.5t187 253.5t317.5 93q193 0 318.5 -94t186.5 -254t61 -361q0 -202 -61.5 -363t-186.5 -254.5t-318 -93.5q-145 0 -251.5 54t-176.5 151t-104 226t-34 280z" />
    <glyph glyph-name="Ugrave" unicode="&#xd9;" horiz-adv-x="1339" 
d="M1180 483q0 -166 -62.5 -279.5t-177.5 -172t-272 -58.5q-155 0 -269.5 58.5t-177 172t-62.5 279.5v880l13 13h86q70 0 100 -35.5t30 -111.5v-746q0 -160 70.5 -242.5t211.5 -82.5q140 0 210.5 82.5t70.5 242.5v883q27 5 56.5 7t54.5 2q26 0 58.5 -2t59.5 -7v-883z
M490 1816q-32 -23 -61.5 -75t-35.5 -105l442 -180q28 18 44.5 50.5t21.5 63.5z" />
    <glyph glyph-name="Uacute" unicode="&#xda;" horiz-adv-x="1339" 
d="M1180 483q0 -166 -62.5 -279.5t-177.5 -172t-272 -58.5q-155 0 -269.5 58.5t-177 172t-62.5 279.5v880l13 13h86q70 0 100 -35.5t30 -111.5v-746q0 -160 70.5 -242.5t211.5 -82.5q140 0 210.5 82.5t70.5 242.5v883q27 5 56.5 7t54.5 2q26 0 58.5 -2t59.5 -7v-883z
M869 1816q32 -23 61.5 -75t35.5 -105l-442 -180q-26 16 -44 50t-22 64z" />
    <glyph glyph-name="Ucircumflex" unicode="&#xdb;" horiz-adv-x="1339" 
d="M1180 483q0 -166 -62.5 -279.5t-177.5 -172t-272 -58.5q-155 0 -269.5 58.5t-177 172t-62.5 279.5v880l13 13h86q70 0 100 -35.5t30 -111.5v-746q0 -160 70.5 -242.5t211.5 -82.5q140 0 210.5 82.5t70.5 242.5v883q27 5 56.5 7t54.5 2q26 0 58.5 -2t59.5 -7v-883z
M762 1783l225 -214q-11 -36 -40.5 -61.5t-54.5 -34.5l-227 149l-225 -149q-25 9 -54.5 34.5t-41.5 61.5l225 214q43 8 96 8q55 0 97 -8z" />
    <glyph glyph-name="Udieresis" unicode="&#xdc;" horiz-adv-x="1339" 
d="M1180 483q0 -166 -62.5 -279.5t-177.5 -172t-272 -58.5q-155 0 -269.5 58.5t-177 172t-62.5 279.5v880l13 13h86q70 0 100 -35.5t30 -111.5v-746q0 -160 70.5 -242.5t211.5 -82.5q140 0 210.5 82.5t70.5 242.5v883q27 5 56.5 7t54.5 2q26 0 58.5 -2t59.5 -7v-883z
M879 1486q-28 0 -56.5 6.5t-48.5 18.5q-9 21 -12 44t-3 41q0 19 3 41.5t12 44.5q20 11 48.5 17.5t56.5 6.5q26 0 55 -6.5t49 -17.5q9 -22 12 -44.5t3 -41.5q0 -18 -3 -41t-12 -44q-20 -12 -49 -18.5t-55 -6.5zM454 1486q-27 0 -56 6.5t-49 18.5q-8 21 -11.5 44t-3.5 41
q0 19 3.5 41.5t11.5 44.5q20 11 49 17.5t56 6.5q26 0 55.5 -6.5t49.5 -17.5q8 -22 11.5 -44.5t3.5 -41.5q0 -18 -3.5 -41t-11.5 -44q-20 -12 -49.5 -18.5t-55.5 -6.5z" />
    <glyph glyph-name="Yacute" unicode="&#xdd;" horiz-adv-x="1018" 
d="M395 573h229v-573q-26 -5 -57 -7t-57 -2q-24 0 -56.5 2t-58.5 7v573zM789 1366q24 6 48.5 8t46.5 2q30 0 59 -4t53 -12l9 -15l-398 -951h-192l-401 946q37 20 73 30.5t70 10.5q48 0 75 -23.5t47 -74.5l149 -363q22 -54 45 -122.5t40 -132.5h11q11 42 27.5 90.5t33 94
t29.5 76.5zM718 1816q32 -23 61.5 -75t35.5 -105l-442 -180q-26 16 -44 50t-22 64z" />
    <glyph glyph-name="Thorn" unicode="&#xde;" horiz-adv-x="1148" 
d="M290 1160q79 3 157 5.5t158 2.5q135 0 240 -47t165 -144.5t60 -248.5q0 -147 -59.5 -245.5t-164.5 -147t-241 -48.5h-315v176q24 1 66.5 2t90 2t88 1.5t61.5 0.5q96 0 147.5 40.5t70.5 100.5t19 118q0 59 -19 118.5t-70.5 99.5t-147.5 40q-30 0 -85 1t-115 2t-106 1v170z
M177 1366q26 5 58 7t55 2q27 0 58 -2t58 -7v-1366q-27 -5 -58 -7t-58 -2q-23 0 -55 2t-58 7v1366z" />
    <glyph glyph-name="germandbls" unicode="&#xdf;" horiz-adv-x="1263" 
d="M313 944l2 -169l-280 -5q-4 20 -6.5 45t-2.5 46q0 20 2.5 43.5t6.5 43.5zM207 1010q0 127 56.5 213.5t156 130.5t229.5 44q137 0 237.5 -49.5t155.5 -138.5t55 -208q0 -40 -7.5 -80.5t-22.5 -80.5l-238 -17q23 39 33.5 81t10.5 87q0 62 -24.5 116t-74.5 86.5t-127 32.5
q-111 0 -162.5 -65.5t-51.5 -174.5v-987q-25 -4 -55.5 -6.5t-58.5 -2.5q-26 0 -56.5 2.5t-55.5 6.5v1010zM572 44q2 36 21 83.5t48 74.5q41 -29 89 -43t88 -14q67 0 106 31.5t39 82.5q0 38 -21.5 71.5t-55.5 61.5l-81 69q-31 28 -61 61t-50 73.5t-20 90.5q0 79 58 146.5
t152 102.5l183 -95q-86 -21 -122 -63t-36 -79q0 -36 24.5 -64t43.5 -45l75 -64q69 -59 108 -126t39 -138q0 -130 -98 -209t-257 -79q-67 0 -140.5 17.5t-131.5 53.5z" />
    <glyph glyph-name="agrave" unicode="&#xe0;" horiz-adv-x="1016" 
d="M83 270q0 114 51.5 188t138.5 109.5t195 35.5q54 0 124.5 -4.5t130.5 -18.5v-147q-52 12 -118 15.5t-122 3.5q-87 0 -133.5 -45t-46.5 -122q0 -58 33 -98.5t95 -40.5q71 0 149.5 50t132.5 145l33 -164q-36 -43 -88.5 -90t-122 -80.5t-156.5 -33.5q-100 0 -165.5 44.5
t-98 112.5t-32.5 140zM928 99q-8 -30 -31 -63.5t-49 -50.5q-67 11 -108.5 46t-62 83.5t-24.5 101.5v447q0 90 -41.5 129.5t-117.5 39.5q-74 0 -153.5 -22t-158.5 -52q-26 27 -43 73t-19 88q57 25 129.5 45.5t148.5 33t143 12.5q97 0 171.5 -35.5t117 -109.5t42.5 -191v-409
q0 -55 11.5 -95.5t44.5 -70.5zM374 1487q-48 -15 -92 -55.5t-60 -87.5l346 -268q30 9 57 34t39 55z" />
    <glyph glyph-name="aacute" unicode="&#xe1;" horiz-adv-x="1016" 
d="M83 270q0 114 51.5 188t138.5 109.5t195 35.5q54 0 124.5 -4.5t130.5 -18.5v-147q-52 12 -118 15.5t-122 3.5q-87 0 -133.5 -45t-46.5 -122q0 -58 33 -98.5t95 -40.5q71 0 149.5 50t132.5 145l33 -164q-36 -43 -88.5 -90t-122 -80.5t-156.5 -33.5q-100 0 -165.5 44.5
t-98 112.5t-32.5 140zM928 99q-8 -30 -31 -63.5t-49 -50.5q-67 11 -108.5 46t-62 83.5t-24.5 101.5v447q0 90 -41.5 129.5t-117.5 39.5q-74 0 -153.5 -22t-158.5 -52q-26 27 -43 73t-19 88q57 25 129.5 45.5t148.5 33t143 12.5q97 0 171.5 -35.5t117 -109.5t42.5 -191v-409
q0 -55 11.5 -95.5t44.5 -70.5zM627 1487q46 -15 90 -55.5t61 -87.5l-346 -268q-29 9 -56.5 34t-39.5 55z" />
    <glyph glyph-name="acircumflex" unicode="&#xe2;" horiz-adv-x="1016" 
d="M83 270q0 114 51.5 188t138.5 109.5t195 35.5q54 0 124.5 -4.5t130.5 -18.5v-147q-52 12 -118 15.5t-122 3.5q-87 0 -133.5 -45t-46.5 -122q0 -58 33 -98.5t95 -40.5q71 0 149.5 50t132.5 145l33 -164q-36 -43 -88.5 -90t-122 -80.5t-156.5 -33.5q-100 0 -165.5 44.5
t-98 112.5t-32.5 140zM928 99q-8 -30 -31 -63.5t-49 -50.5q-67 11 -108.5 46t-62 83.5t-24.5 101.5v447q0 90 -41.5 129.5t-117.5 39.5q-74 0 -153.5 -22t-158.5 -52q-26 27 -43 73t-19 88q57 25 129.5 45.5t148.5 33t143 12.5q97 0 171.5 -35.5t117 -109.5t42.5 -191v-409
q0 -55 11.5 -95.5t44.5 -70.5zM593 1441l193 -251q-15 -36 -47 -62t-57 -34l-187 181l-186 -181q-26 8 -57.5 34t-46.5 62l193 251q41 12 97 12q57 0 98 -12z" />
    <glyph glyph-name="atilde" unicode="&#xe3;" horiz-adv-x="1016" 
d="M83 270q0 114 51.5 188t138.5 109.5t195 35.5q54 0 124.5 -4.5t130.5 -18.5v-147q-52 12 -118 15.5t-122 3.5q-87 0 -133.5 -45t-46.5 -122q0 -58 33 -98.5t95 -40.5q71 0 149.5 50t132.5 145l33 -164q-36 -43 -88.5 -90t-122 -80.5t-156.5 -33.5q-100 0 -165.5 44.5
t-98 112.5t-32.5 140zM928 99q-8 -30 -31 -63.5t-49 -50.5q-67 11 -108.5 46t-62 83.5t-24.5 101.5v447q0 90 -41.5 129.5t-117.5 39.5q-74 0 -153.5 -22t-158.5 -52q-26 27 -43 73t-19 88q57 25 129.5 45.5t148.5 33t143 12.5q97 0 171.5 -35.5t117 -109.5t42.5 -191v-409
q0 -55 11.5 -95.5t44.5 -70.5zM416 1191q-10 6 -27.5 13t-37.5 7q-29 0 -48 -17.5t-30 -31.5l-21 -29q-32 2 -63.5 20.5t-43.5 48.5l17 39q30 68 83.5 109t118.5 41q36 0 66.5 -10.5t49.5 -20.5l85 -45q11 -5 28.5 -13t37.5 -8q28 0 46 16.5t31 33.5l22 28q31 -1 62.5 -20.5
t43.5 -48.5l-17 -39q-31 -71 -84.5 -110.5t-118.5 -39.5q-34 0 -63 9.5t-52 22.5z" />
    <glyph glyph-name="adieresis" unicode="&#xe4;" horiz-adv-x="1016" 
d="M83 270q0 114 51.5 188t138.5 109.5t195 35.5q54 0 124.5 -4.5t130.5 -18.5v-147q-52 12 -118 15.5t-122 3.5q-87 0 -133.5 -45t-46.5 -122q0 -58 33 -98.5t95 -40.5q71 0 149.5 50t132.5 145l33 -164q-36 -43 -88.5 -90t-122 -80.5t-156.5 -33.5q-100 0 -165.5 44.5
t-98 112.5t-32.5 140zM928 99q-8 -30 -31 -63.5t-49 -50.5q-67 11 -108.5 46t-62 83.5t-24.5 101.5v447q0 90 -41.5 129.5t-117.5 39.5q-74 0 -153.5 -22t-158.5 -52q-26 27 -43 73t-19 88q57 25 129.5 45.5t148.5 33t143 12.5q97 0 171.5 -35.5t117 -109.5t42.5 -191v-409
q0 -55 11.5 -95.5t44.5 -70.5zM185 1233q0 19 4 42t11 40q19 12 48.5 18.5t53.5 6.5q26 0 55 -6.5t48 -18.5q8 -17 11.5 -40t3.5 -42t-3.5 -42.5t-11.5 -40.5q-19 -12 -48 -18t-55 -6q-24 0 -53.5 6t-48.5 18q-7 17 -11 40.5t-4 42.5zM562 1233q0 19 3.5 42t11.5 40
q19 12 48 18.5t55 6.5q25 0 54 -6.5t48 -18.5q7 -17 11 -40t4 -42t-4 -42.5t-11 -40.5q-19 -12 -48 -18t-54 -6q-26 0 -55 6t-48 18q-8 17 -11.5 40.5t-3.5 42.5z" />
    <glyph glyph-name="aring" unicode="&#xe5;" horiz-adv-x="1016" 
d="M83 270q0 114 51.5 188t138.5 109.5t195 35.5q54 0 124.5 -4.5t130.5 -18.5v-147q-52 12 -118 15.5t-122 3.5q-87 0 -133.5 -45t-46.5 -122q0 -58 33 -98.5t95 -40.5q71 0 149.5 50t132.5 145l33 -164q-36 -43 -88.5 -90t-122 -80.5t-156.5 -33.5q-100 0 -165.5 44.5
t-98 112.5t-32.5 140zM928 99q-8 -30 -31 -63.5t-49 -50.5q-67 11 -108.5 46t-62 83.5t-24.5 101.5v447q0 90 -41.5 129.5t-117.5 39.5q-74 0 -153.5 -22t-158.5 -52q-26 27 -43 73t-19 88q57 25 129.5 45.5t148.5 33t143 12.5q97 0 171.5 -35.5t117 -109.5t42.5 -191v-409
q0 -55 11.5 -95.5t44.5 -70.5zM243 1310q0 -95 69 -163.5t179 -68.5t179 68.5t69 163.5q0 96 -69 163.5t-179 67.5t-179 -67.5t-69 -163.5zM391 1310q0 47 28 77.5t72 30.5q45 0 72.5 -30.5t27.5 -77.5q0 -46 -27.5 -77t-72.5 -31q-44 0 -72 31t-28 77z" />
    <glyph glyph-name="ae" unicode="&#xe6;" horiz-adv-x="1555" 
d="M83 271q0 115 51.5 188.5t138.5 108.5t195 35q60 0 127.5 -5t127.5 -18v-150q-54 11 -119 16.5t-121 5.5q-87 0 -133.5 -44t-46.5 -123q0 -58 33 -98.5t95 -40.5q50 0 104.5 22.5t104.5 68.5t85 117l49 -172q-38 -50 -96 -97.5t-133.5 -79.5t-165.5 -32
q-100 0 -165.5 44.5t-98 112.5t-32.5 141zM653 492v172q0 89 -41 128.5t-117 39.5q-74 0 -154 -21.5t-159 -52.5q-26 27 -43 73t-19 88q87 37 199.5 64t210.5 27q149 0 235 -86t86 -253v-179h-198zM787 424v159h466v24q0 66 -18 122t-59 90t-109 34q-98 0 -145 -83t-47 -234
v-62q0 -91 18 -164t66 -115.5t138 -42.5q74 0 142.5 21.5t131.5 53.5q28 -26 45 -66.5t22 -74.5q-72 -51 -171.5 -82t-203.5 -31q-199 0 -304.5 131.5t-107.5 387.5q0 92 25 184t76 169t129.5 124t185.5 47q130 0 219 -57t134 -153.5t45 -216.5q0 -51 -3.5 -86.5
t-12.5 -78.5h-662z" />
    <glyph glyph-name="ccedilla" unicode="&#xe7;" horiz-adv-x="943" 
d="M669 598q3 67 -10 123.5t-50 90.5t-107 34q-91 0 -140 -88.5t-49 -268.5q0 -176 57.5 -256t160.5 -80q68 0 128.5 31t111.5 68q29 -17 56.5 -55.5t35.5 -74.5q-68 -67 -163 -108t-202 -41q-108 0 -186.5 40.5t-128.5 111.5t-74.5 164.5t-24.5 199.5q0 187 61.5 303
t158.5 170t203 54q90 0 159 -27t115 -71.5t69 -98.5t23 -110t-27.5 -87.5t-84.5 -31.5q-27 0 -48 2t-44 6zM370 -149q12 33 33.5 81.5t38.5 79.5h133q-10 -14 -23.5 -40.5t-20.5 -43.5q76 -7 128.5 -54t52.5 -122q0 -88 -69.5 -144.5t-176.5 -56.5q-47 0 -90.5 12t-68.5 29
q2 30 13.5 59t28.5 50q19 -11 45.5 -19t53.5 -8q45 0 66 22t21 52q0 31 -21 53t-61 22q-12 0 -24 -2.5t-22 -7.5q-27 13 -37 38z" />
    <glyph glyph-name="egrave" unicode="&#xe8;" horiz-adv-x="1000" 
d="M223 424v159h471v26q0 66 -18.5 121.5t-60.5 89t-110 33.5q-98 0 -145.5 -82.5t-47.5 -228.5v-68q0 -91 18.5 -164t66.5 -115.5t138 -42.5q75 0 144 21.5t133 52.5q26 -26 43.5 -66t22.5 -74q-72 -51 -172 -82t-204 -31q-121 0 -202 42.5t-128 116t-67.5 166.5t-20.5 194
q0 150 46.5 268t140 187t235.5 69q130 0 219 -57t135 -153.5t46 -216.5q0 -51 -3.5 -86.5t-13.5 -78.5h-666zM393 1487q-48 -15 -92 -55.5t-60 -87.5l346 -268q30 9 57 34t39 55z" />
    <glyph glyph-name="eacute" unicode="&#xe9;" horiz-adv-x="1000" 
d="M223 424v159h471v26q0 66 -18.5 121.5t-60.5 89t-110 33.5q-98 0 -145.5 -82.5t-47.5 -228.5v-68q0 -91 18.5 -164t66.5 -115.5t138 -42.5q75 0 144 21.5t133 52.5q26 -26 43.5 -66t22.5 -74q-72 -51 -172 -82t-204 -31q-121 0 -202 42.5t-128 116t-67.5 166.5t-20.5 194
q0 150 46.5 268t140 187t235.5 69q130 0 219 -57t135 -153.5t46 -216.5q0 -51 -3.5 -86.5t-13.5 -78.5h-666zM646 1487q46 -15 90 -55.5t61 -87.5l-346 -268q-29 9 -56.5 34t-39.5 55z" />
    <glyph glyph-name="ecircumflex" unicode="&#xea;" horiz-adv-x="1000" 
d="M223 424v159h471v26q0 66 -18.5 121.5t-60.5 89t-110 33.5q-98 0 -145.5 -82.5t-47.5 -228.5v-68q0 -91 18.5 -164t66.5 -115.5t138 -42.5q75 0 144 21.5t133 52.5q26 -26 43.5 -66t22.5 -74q-72 -51 -172 -82t-204 -31q-121 0 -202 42.5t-128 116t-67.5 166.5t-20.5 194
q0 150 46.5 268t140 187t235.5 69q130 0 219 -57t135 -153.5t46 -216.5q0 -51 -3.5 -86.5t-13.5 -78.5h-666zM612 1441l193 -251q-15 -36 -47 -62t-57 -34l-187 181l-186 -181q-26 8 -57.5 34t-46.5 62l193 251q41 12 97 12q57 0 98 -12z" />
    <glyph glyph-name="edieresis" unicode="&#xeb;" horiz-adv-x="1000" 
d="M223 424v159h471v26q0 66 -18.5 121.5t-60.5 89t-110 33.5q-98 0 -145.5 -82.5t-47.5 -228.5v-68q0 -91 18.5 -164t66.5 -115.5t138 -42.5q75 0 144 21.5t133 52.5q26 -26 43.5 -66t22.5 -74q-72 -51 -172 -82t-204 -31q-121 0 -202 42.5t-128 116t-67.5 166.5t-20.5 194
q0 150 46.5 268t140 187t235.5 69q130 0 219 -57t135 -153.5t46 -216.5q0 -51 -3.5 -86.5t-13.5 -78.5h-666zM204 1233q0 19 4 42t11 40q19 12 48.5 18.5t53.5 6.5q26 0 55 -6.5t48 -18.5q8 -17 11.5 -40t3.5 -42t-3.5 -42.5t-11.5 -40.5q-19 -12 -48 -18t-55 -6
q-24 0 -53.5 6t-48.5 18q-7 17 -11 40.5t-4 42.5zM581 1233q0 19 3.5 42t11.5 40q19 12 48 18.5t55 6.5q25 0 54 -6.5t48 -18.5q7 -17 11 -40t4 -42t-4 -42.5t-11 -40.5q-19 -12 -48 -18t-54 -6q-26 0 -55 6t-48 18q-8 17 -11.5 40.5t-3.5 42.5z" />
    <glyph glyph-name="igrave" unicode="&#xec;" horiz-adv-x="550" 
d="M403 0q-48 -9 -111 -9t-111 9v723q0 52 -19 78.5t-69 26.5h-24q-9 38 -9 78q0 19 2 39.5t7 41.5q39 5 75 7t59 2h30q79 0 124.5 -50t45.5 -137v-809zM137 1487q-48 -15 -92 -55.5t-60 -87.5l346 -268q30 9 57 34t39 55z" />
    <glyph glyph-name="iacute" unicode="&#xed;" horiz-adv-x="550" 
d="M403 0q-48 -9 -111 -9t-111 9v723q0 52 -19 78.5t-69 26.5h-24q-9 38 -9 78q0 19 2 39.5t7 41.5q39 5 75 7t59 2h30q79 0 124.5 -50t45.5 -137v-809zM390 1487q46 -15 90 -55.5t61 -87.5l-346 -268q-29 9 -56.5 34t-39.5 55z" />
    <glyph glyph-name="icircumflex" unicode="&#xee;" horiz-adv-x="550" 
d="M403 0q-48 -9 -111 -9t-111 9v723q0 52 -19 78.5t-69 26.5h-24q-9 38 -9 78q0 19 2 39.5t7 41.5q39 5 75 7t59 2h30q79 0 124.5 -50t45.5 -137v-809zM356 1441l193 -251q-15 -36 -47 -62t-57 -34l-187 181l-186 -181q-26 8 -57.5 34t-46.5 62l193 251q41 12 97 12
q57 0 98 -12z" />
    <glyph glyph-name="idieresis" unicode="&#xef;" horiz-adv-x="550" 
d="M403 0q-48 -9 -111 -9t-111 9v723q0 52 -19 78.5t-69 26.5h-24q-9 38 -9 78q0 19 2 39.5t7 41.5q39 5 75 7t59 2h30q79 0 124.5 -50t45.5 -137v-809zM-52 1233q0 19 4 42t11 40q19 12 48.5 18.5t53.5 6.5q26 0 55 -6.5t48 -18.5q8 -17 11.5 -40t3.5 -42t-3.5 -42.5
t-11.5 -40.5q-19 -12 -48 -18t-55 -6q-24 0 -53.5 6t-48.5 18q-7 17 -11 40.5t-4 42.5zM325 1233q0 19 3.5 42t11.5 40q19 12 48 18.5t55 6.5q25 0 54 -6.5t48 -18.5q7 -17 11 -40t4 -42t-4 -42.5t-11 -40.5q-19 -12 -48 -18t-54 -6q-26 0 -55 6t-48 18q-8 17 -11.5 40.5
t-3.5 42.5z" />
    <glyph glyph-name="eth" unicode="&#xf0;" horiz-adv-x="1038" 
d="M955 491q0 -152 -50 -269t-147.5 -183t-239.5 -66t-239 66t-146.5 181t-49.5 263q0 144 50.5 254.5t145 173.5t227.5 63q84 0 159.5 -40t121.5 -89v-171q-45 57 -115 96.5t-151 39.5q-80 0 -126 -43.5t-65 -118.5t-19 -168q0 -86 17.5 -164t62.5 -127t128 -49
q82 0 127 50t63 130.5t18 170.5q0 128 -17 211t-47 154q-11 99 -75.5 194t-160 175t-198.5 132q7 41 32 82t57 58q204 -86 346.5 -232.5t216.5 -342.5t74 -431zM716 1487q25 -17 49.5 -49.5t30.5 -63.5l-500 -344q-26 17 -49.5 49.5t-29.5 63.5z" />
    <glyph glyph-name="ntilde" unicode="&#xf1;" horiz-adv-x="1092" 
d="M248 999q68 0 96.5 -42.5t28.5 -116.5v-840q-47 -9 -110 -9t-112 9v986l13 13h84zM949 217q0 -53 8 -100.5t28 -82.5q-25 -21 -62 -34.5t-77 -13.5q-66 0 -92.5 36t-26.5 105v497q0 96 -24 139.5t-95 43.5q-47 0 -103 -23t-106 -66t-82 -104v209q68 76 162.5 130
t202.5 54q93 0 152 -44t87 -119t28 -169v-458zM483 1191q-10 6 -27.5 13t-37.5 7q-29 0 -48 -17.5t-30 -31.5l-21 -29q-32 2 -63.5 20.5t-43.5 48.5l17 39q30 68 83.5 109t118.5 41q36 0 66.5 -10.5t49.5 -20.5l85 -45q11 -5 28.5 -13t37.5 -8q28 0 46 16.5t31 33.5l22 28
q31 -1 62.5 -20.5t43.5 -48.5l-17 -39q-31 -71 -84.5 -110.5t-118.5 -39.5q-34 0 -63 9.5t-52 22.5z" />
    <glyph glyph-name="ograve" unicode="&#xf2;" horiz-adv-x="1041" 
d="M957 494q0 -154 -49.5 -271.5t-147 -183.5t-240.5 -66q-144 0 -241 67t-146 184.5t-49 269.5q0 154 49.5 271.5t146.5 184t240 66.5q144 0 241.5 -67t146.5 -184.5t49 -270.5zM313 494q0 -91 17.5 -171.5t62.5 -130t128 -49.5q82 0 126.5 49.5t62.5 130t18 171.5t-18 172
t-62.5 131t-126.5 50q-83 0 -128 -50t-62.5 -131t-17.5 -172zM403 1487q-48 -15 -92 -55.5t-60 -87.5l346 -268q30 9 57 34t39 55z" />
    <glyph glyph-name="oacute" unicode="&#xf3;" horiz-adv-x="1041" 
d="M957 494q0 -154 -49.5 -271.5t-147 -183.5t-240.5 -66q-144 0 -241 67t-146 184.5t-49 269.5q0 154 49.5 271.5t146.5 184t240 66.5q144 0 241.5 -67t146.5 -184.5t49 -270.5zM313 494q0 -91 17.5 -171.5t62.5 -130t128 -49.5q82 0 126.5 49.5t62.5 130t18 171.5t-18 172
t-62.5 131t-126.5 50q-83 0 -128 -50t-62.5 -131t-17.5 -172zM656 1487q46 -15 90 -55.5t61 -87.5l-346 -268q-29 9 -56.5 34t-39.5 55z" />
    <glyph glyph-name="ocircumflex" unicode="&#xf4;" horiz-adv-x="1041" 
d="M957 494q0 -154 -49.5 -271.5t-147 -183.5t-240.5 -66q-144 0 -241 67t-146 184.5t-49 269.5q0 154 49.5 271.5t146.5 184t240 66.5q144 0 241.5 -67t146.5 -184.5t49 -270.5zM313 494q0 -91 17.5 -171.5t62.5 -130t128 -49.5q82 0 126.5 49.5t62.5 130t18 171.5t-18 172
t-62.5 131t-126.5 50q-83 0 -128 -50t-62.5 -131t-17.5 -172zM622 1441l193 -251q-15 -36 -47 -62t-57 -34l-187 181l-186 -181q-26 8 -57.5 34t-46.5 62l193 251q41 12 97 12q57 0 98 -12z" />
    <glyph glyph-name="otilde" unicode="&#xf5;" horiz-adv-x="1041" 
d="M957 494q0 -154 -49.5 -271.5t-147 -183.5t-240.5 -66q-144 0 -241 67t-146 184.5t-49 269.5q0 154 49.5 271.5t146.5 184t240 66.5q144 0 241.5 -67t146.5 -184.5t49 -270.5zM313 494q0 -91 17.5 -171.5t62.5 -130t128 -49.5q82 0 126.5 49.5t62.5 130t18 171.5t-18 172
t-62.5 131t-126.5 50q-83 0 -128 -50t-62.5 -131t-17.5 -172zM446 1191q-10 6 -27.5 13t-37.5 7q-29 0 -48 -17.5t-30 -31.5l-21 -29q-32 2 -63.5 20.5t-43.5 48.5l17 39q30 68 83.5 109t118.5 41q36 0 66.5 -10.5t49.5 -20.5l85 -45q11 -5 28.5 -13t37.5 -8q28 0 46 16.5
t31 33.5l22 28q31 -1 62.5 -20.5t43.5 -48.5l-17 -39q-31 -71 -84.5 -110.5t-118.5 -39.5q-34 0 -63 9.5t-52 22.5z" />
    <glyph glyph-name="odieresis" unicode="&#xf6;" horiz-adv-x="1041" 
d="M957 494q0 -154 -49.5 -271.5t-147 -183.5t-240.5 -66q-144 0 -241 67t-146 184.5t-49 269.5q0 154 49.5 271.5t146.5 184t240 66.5q144 0 241.5 -67t146.5 -184.5t49 -270.5zM313 494q0 -91 17.5 -171.5t62.5 -130t128 -49.5q82 0 126.5 49.5t62.5 130t18 171.5t-18 172
t-62.5 131t-126.5 50q-83 0 -128 -50t-62.5 -131t-17.5 -172zM214 1233q0 19 4 42t11 40q19 12 48.5 18.5t53.5 6.5q26 0 55 -6.5t48 -18.5q8 -17 11.5 -40t3.5 -42t-3.5 -42.5t-11.5 -40.5q-19 -12 -48 -18t-55 -6q-24 0 -53.5 6t-48.5 18q-7 17 -11 40.5t-4 42.5z
M591 1233q0 19 3.5 42t11.5 40q19 12 48 18.5t55 6.5q25 0 54 -6.5t48 -18.5q7 -17 11 -40t4 -42t-4 -42.5t-11 -40.5q-19 -12 -48 -18t-54 -6q-26 0 -55 6t-48 18q-8 17 -11.5 40.5t-3.5 42.5z" />
    <glyph glyph-name="divide" unicode="&#xf7;" horiz-adv-x="1080" 
d="M413 984q0 52 18 89q19 11 49 17.5t60 6.5q28 0 59.5 -6.5t48.5 -17.5q9 -17 14 -42t5 -47q0 -21 -5 -46t-14 -41q-15 -11 -47.5 -18t-60.5 -7q-30 0 -60 6.5t-49 18.5q-18 37 -18 87zM413 271q0 51 18 88q19 11 49 17.5t60 6.5q28 0 59.5 -6.5t48.5 -17.5q9 -17 14 -42
t5 -46q0 -22 -5 -47t-14 -41q-15 -11 -47.5 -18t-60.5 -7q-30 0 -60 7t-49 18q-18 37 -18 88zM122 536q-6 22 -8 47.5t-2 45.5q0 21 2 46.5t8 48.5h836q6 -23 8 -48.5t2 -46.5q0 -20 -2 -45.5t-8 -47.5h-836z" />
    <glyph glyph-name="oslash" unicode="&#xf8;" horiz-adv-x="1044" 
d="M959 495q0 -117 -31 -224t-110 -186q-57 -57 -131.5 -84.5t-164.5 -27.5t-164 27.5t-131 84.5q-79 79 -110 186t-31 224q0 118 31 224.5t110 184.5q57 57 131 84.5t164 27.5t164.5 -27.5t131.5 -84.5q79 -78 110 -184.5t31 -224.5zM296 495q0 -89 19.5 -171.5
t68.5 -135.5t139 -53q88 0 137.5 53t68.5 135.5t19 171.5q0 90 -19 172t-68.5 135t-137.5 53q-90 0 -139 -53t-68.5 -135t-19.5 -172zM656 907l114 197q33 -6 67.5 -24.5t56.5 -44.5l-134 -237l-373 -710l-117 -201q-33 6 -68.5 25t-56.5 44l136 237z" />
    <glyph glyph-name="ugrave" unicode="&#xf9;" horiz-adv-x="1095" 
d="M941 280q0 -56 12.5 -105.5t43.5 -76.5q-8 -30 -31 -63t-49 -50q-103 17 -150.5 93.5t-47.5 177.5v733q47 9 111 9q62 0 111 -9v-709zM142 772q0 53 -7 100.5t-28 82.5q24 21 61.5 34t78.5 13q65 0 91 -35.5t26 -104.5v-497q0 -95 25 -139t94 -44q48 0 103.5 23
t106.5 66.5t82 103.5v-209q-67 -76 -162 -130t-203 -54q-93 0 -152 44t-87.5 119.5t-28.5 168.5v458zM417 1487q-48 -15 -92 -55.5t-60 -87.5l346 -268q30 9 57 34t39 55z" />
    <glyph glyph-name="uacute" unicode="&#xfa;" horiz-adv-x="1095" 
d="M941 280q0 -56 12.5 -105.5t43.5 -76.5q-8 -30 -31 -63t-49 -50q-103 17 -150.5 93.5t-47.5 177.5v733q47 9 111 9q62 0 111 -9v-709zM142 772q0 53 -7 100.5t-28 82.5q24 21 61.5 34t78.5 13q65 0 91 -35.5t26 -104.5v-497q0 -95 25 -139t94 -44q48 0 103.5 23
t106.5 66.5t82 103.5v-209q-67 -76 -162 -130t-203 -54q-93 0 -152 44t-87.5 119.5t-28.5 168.5v458zM670 1487q46 -15 90 -55.5t61 -87.5l-346 -268q-29 9 -56.5 34t-39.5 55z" />
    <glyph glyph-name="ucircumflex" unicode="&#xfb;" horiz-adv-x="1095" 
d="M941 280q0 -56 12.5 -105.5t43.5 -76.5q-8 -30 -31 -63t-49 -50q-103 17 -150.5 93.5t-47.5 177.5v733q47 9 111 9q62 0 111 -9v-709zM142 772q0 53 -7 100.5t-28 82.5q24 21 61.5 34t78.5 13q65 0 91 -35.5t26 -104.5v-497q0 -95 25 -139t94 -44q48 0 103.5 23
t106.5 66.5t82 103.5v-209q-67 -76 -162 -130t-203 -54q-93 0 -152 44t-87.5 119.5t-28.5 168.5v458zM636 1441l193 -251q-15 -36 -47 -62t-57 -34l-187 181l-186 -181q-26 8 -57.5 34t-46.5 62l193 251q41 12 97 12q57 0 98 -12z" />
    <glyph glyph-name="udieresis" unicode="&#xfc;" horiz-adv-x="1095" 
d="M941 280q0 -56 12.5 -105.5t43.5 -76.5q-8 -30 -31 -63t-49 -50q-103 17 -150.5 93.5t-47.5 177.5v733q47 9 111 9q62 0 111 -9v-709zM142 772q0 53 -7 100.5t-28 82.5q24 21 61.5 34t78.5 13q65 0 91 -35.5t26 -104.5v-497q0 -95 25 -139t94 -44q48 0 103.5 23
t106.5 66.5t82 103.5v-209q-67 -76 -162 -130t-203 -54q-93 0 -152 44t-87.5 119.5t-28.5 168.5v458zM228 1233q0 19 4 42t11 40q19 12 48.5 18.5t53.5 6.5q26 0 55 -6.5t48 -18.5q8 -17 11.5 -40t3.5 -42t-3.5 -42.5t-11.5 -40.5q-19 -12 -48 -18t-55 -6q-24 0 -53.5 6
t-48.5 18q-7 17 -11 40.5t-4 42.5zM605 1233q0 19 3.5 42t11.5 40q19 12 48 18.5t55 6.5q25 0 54 -6.5t48 -18.5q7 -17 11 -40t4 -42t-4 -42.5t-11 -40.5q-19 -12 -48 -18t-54 -6q-26 0 -55 6t-48 18q-8 17 -11.5 40.5t-3.5 42.5z" />
    <glyph glyph-name="yacute" unicode="&#xfd;" horiz-adv-x="944" 
d="M661 30q-43 -149 -95.5 -253.5t-136.5 -159t-220 -54.5q-49 0 -107.5 11t-91.5 22q-3 39 11 86.5t36 72.5q26 -8 69 -16.5t83 -8.5q65 0 109 28.5t73.5 81.5t51.5 125l7 24q-65 2 -104 25.5t-58 85.5l-258 872q37 16 72.5 24t62.5 8q39 0 67 -20.5t44 -77.5l129 -449
q13 -44 26 -97.5t24.5 -104t19.5 -87.5q4 -14 18 -14l213 835q20 5 45.5 7t47.5 2q30 0 59.5 -3t56.5 -13l8 -13zM606 1487q46 -15 90 -55.5t61 -87.5l-346 -268q-29 9 -56.5 34t-39.5 55z" />
    <glyph glyph-name="thorn" unicode="&#xfe;" horiz-adv-x="1058" 
d="M365 -291q0 -74 -25 -107t-95 -33h-81l-13 13v1876l13 13h81q70 0 95 -33t25 -107v-1622zM973 515q0 -187 -57 -304.5t-144.5 -173t-179.5 -55.5q-94 0 -178 38.5t-154 91.5l28 171q57 -46 128 -86.5t139 -40.5q54 0 98 38t69 115.5t25 194.5q0 115 -23.5 185t-63 102.5
t-86.5 32.5t-100.5 -26t-99 -82.5t-71.5 -149.5l-46 156q17 70 69 135t129.5 107t171.5 42q111 0 188.5 -63t117.5 -174t40 -254z" />
    <glyph glyph-name="ydieresis" unicode="&#xff;" horiz-adv-x="944" 
d="M661 30q-43 -149 -95.5 -253.5t-136.5 -159t-220 -54.5q-49 0 -107.5 11t-91.5 22q-3 39 11 86.5t36 72.5q26 -8 69 -16.5t83 -8.5q65 0 109 28.5t73.5 81.5t51.5 125l7 24q-65 2 -104 25.5t-58 85.5l-258 872q37 16 72.5 24t62.5 8q39 0 67 -20.5t44 -77.5l129 -449
q13 -44 26 -97.5t24.5 -104t19.5 -87.5q4 -14 18 -14l213 835q20 5 45.5 7t47.5 2q30 0 59.5 -3t56.5 -13l8 -13zM164 1233q0 19 4 42t11 40q19 12 48.5 18.5t53.5 6.5q26 0 55 -6.5t48 -18.5q8 -17 11.5 -40t3.5 -42t-3.5 -42.5t-11.5 -40.5q-19 -12 -48 -18t-55 -6
q-24 0 -53.5 6t-48.5 18q-7 17 -11 40.5t-4 42.5zM541 1233q0 19 3.5 42t11.5 40q19 12 48 18.5t55 6.5q25 0 54 -6.5t48 -18.5q7 -17 11 -40t4 -42t-4 -42.5t-11 -40.5q-19 -12 -48 -18t-54 -6q-26 0 -55 6t-48 18q-8 17 -11.5 40.5t-3.5 42.5z" />
    <glyph glyph-name="Amacron" unicode="&#x100;" horiz-adv-x="1231" 
d="M486 1366q28 4 66.5 6.5t66.5 2.5q27 0 66 -2.5t63 -7.5l446 -1351q-24 -14 -60.5 -21.5t-72.5 -7.5q-54 0 -84 25t-52 97l-209 668q-27 87 -55.5 186.5t-50.5 182.5h-11q-15 -70 -39 -157t-42 -146l-265 -843q-21 -5 -46.5 -7t-51.5 -2q-29 0 -59 4t-52 12l-8 11z
M467 323q-10 0 -37 0.5t-54.5 1t-37.5 0.5h-109l71 185h96q10 0 34.5 0.5t48.5 1t33 0.5h192q10 0 34.5 -0.5t49.5 -1t35 -0.5h98l61 -185h-109q-10 0 -38 -0.5t-55 -1t-37 -0.5h-276zM318 1512q-6 22 -8.5 41.5t-2.5 44.5t2.5 45t8.5 43h601q6 -23 8 -41.5t2 -44.5
q0 -49 -10 -88h-601z" />
    <glyph glyph-name="amacron" unicode="&#x101;" horiz-adv-x="1016" 
d="M83 270q0 114 51.5 188t138.5 109.5t195 35.5q54 0 124.5 -4.5t130.5 -18.5v-147q-52 12 -118 15.5t-122 3.5q-87 0 -133.5 -45t-46.5 -122q0 -58 33 -98.5t95 -40.5q71 0 149.5 50t132.5 145l33 -164q-36 -43 -88.5 -90t-122 -80.5t-156.5 -33.5q-100 0 -165.5 44.5
t-98 112.5t-32.5 140zM928 99q-8 -30 -31 -63.5t-49 -50.5q-67 11 -108.5 46t-62 83.5t-24.5 101.5v447q0 90 -41.5 129.5t-117.5 39.5q-74 0 -153.5 -22t-158.5 -52q-26 27 -43 73t-19 88q57 25 129.5 45.5t148.5 33t143 12.5q97 0 171.5 -35.5t117 -109.5t42.5 -191v-409
q0 -55 11.5 -95.5t44.5 -70.5zM207 1150q-6 22 -8.5 41.5t-2.5 44.5t2.5 45t8.5 43h569q6 -23 8 -41.5t2 -45.5q0 -49 -10 -87h-569z" />
    <glyph glyph-name="Abreve" unicode="&#x102;" horiz-adv-x="1231" 
d="M486 1366q28 4 66.5 6.5t66.5 2.5q27 0 66 -2.5t63 -7.5l446 -1351q-24 -14 -60.5 -21.5t-72.5 -7.5q-54 0 -84 25t-52 97l-209 668q-27 87 -55.5 186.5t-50.5 182.5h-11q-15 -70 -39 -157t-42 -146l-265 -843q-21 -5 -46.5 -7t-51.5 -2q-29 0 -59 4t-52 12l-8 11z
M467 323q-10 0 -37 0.5t-54.5 1t-37.5 0.5h-109l71 185h96q10 0 34.5 0.5t48.5 1t33 0.5h192q10 0 34.5 -0.5t49.5 -1t35 -0.5h98l61 -185h-109q-10 0 -38 -0.5t-55 -1t-37 -0.5h-276zM956 1722q-31 -109 -122 -178.5t-216 -69.5q-126 0 -216 69.5t-122 178.5q22 25 57 38
t70 12q27 -59 84.5 -92.5t126.5 -33.5q70 0 127 33.5t84 92.5q36 1 71 -12t56 -38z" />
    <glyph glyph-name="abreve" unicode="&#x103;" horiz-adv-x="1016" 
d="M83 270q0 114 51.5 188t138.5 109.5t195 35.5q54 0 124.5 -4.5t130.5 -18.5v-147q-52 12 -118 15.5t-122 3.5q-87 0 -133.5 -45t-46.5 -122q0 -58 33 -98.5t95 -40.5q71 0 149.5 50t132.5 145l33 -164q-36 -43 -88.5 -90t-122 -80.5t-156.5 -33.5q-100 0 -165.5 44.5
t-98 112.5t-32.5 140zM928 99q-8 -30 -31 -63.5t-49 -50.5q-67 11 -108.5 46t-62 83.5t-24.5 101.5v447q0 90 -41.5 129.5t-117.5 39.5q-74 0 -153.5 -22t-158.5 -52q-26 27 -43 73t-19 88q57 25 129.5 45.5t148.5 33t143 12.5q97 0 171.5 -35.5t117 -109.5t42.5 -191v-409
q0 -55 11.5 -95.5t44.5 -70.5zM811 1358q-28 -112 -113.5 -183t-206.5 -71t-206 71t-114 183q20 25 53.5 37.5t67.5 12.5q24 -61 77.5 -94.5t121.5 -33.5q69 0 122 33.5t77 94.5q35 0 68.5 -12.5t52.5 -37.5z" />
    <glyph glyph-name="Aogonek" unicode="&#x104;" horiz-adv-x="1230" 
d="M1228 -256q19 -17 33.5 -45t16.5 -62q-36 -29 -94 -50.5t-121 -21.5q-95 0 -157 50t-62 139q0 65 33.5 122.5t83.5 103.5t100 74l133 -40q-77 -46 -126.5 -99.5t-49.5 -115.5q0 -43 27.5 -65.5t67.5 -22.5q32 0 62.5 10.5t52.5 22.5zM486 1366q28 4 66.5 6.5t66.5 2.5
q27 0 66 -2.5t63 -7.5l446 -1351q-24 -14 -60.5 -21.5t-72.5 -7.5q-54 0 -84 25t-52 97l-209 668q-27 87 -55.5 186.5t-50.5 182.5h-11q-15 -70 -39 -157t-42 -146l-265 -843q-21 -5 -46.5 -7t-51.5 -2q-29 0 -59 4t-52 12l-8 11zM467 323q-10 0 -37 0.5t-54.5 1t-37.5 0.5
h-109l71 185h96q10 0 34.5 0.5t48.5 1t33 0.5h192q10 0 34.5 -0.5t49.5 -1t35 -0.5h98l61 -185h-109q-10 0 -38 -0.5t-55 -1t-37 -0.5h-276z" />
    <glyph glyph-name="aogonek" unicode="&#x105;" horiz-adv-x="1026" 
d="M83 270q0 114 51.5 188t138.5 109.5t195 35.5q54 0 124.5 -4.5t130.5 -18.5v-147q-52 12 -118 15.5t-122 3.5q-87 0 -133.5 -45t-46.5 -122q0 -58 33 -98.5t95 -40.5q71 0 149.5 50t132.5 145l33 -164q-36 -43 -88.5 -90t-122 -80.5t-156.5 -33.5q-100 0 -165.5 44.5
t-98 112.5t-32.5 140zM779 10q-59 31 -90 87.5t-36 118.5v447q0 90 -41.5 129.5t-117.5 39.5q-74 0 -153.5 -21.5t-158.5 -52.5q-26 27 -43 73t-19 88q57 25 129.5 45.5t148.5 33t143 12.5q97 0 171.5 -35.5t117 -109.5t42.5 -191v-409q0 -55 16.5 -94.5t53.5 -69.5z
M936 -256q20 -17 34.5 -45t16.5 -62q-36 -29 -94 -50.5t-122 -21.5q-94 0 -156.5 49.5t-62.5 139.5q0 66 32.5 123.5t82 104t100.5 78.5l175 41q-14 -32 -40 -62.5t-59 -60.5q-50 -41 -83 -83.5t-33 -93.5q0 -46 27 -68t68 -22q32 0 62 10.5t52 22.5z" />
    <glyph glyph-name="Cacute" unicode="&#x106;" horiz-adv-x="1209" 
d="M913 883q1 77 -23 152t-83 124t-164 49q-154 0 -231 -135.5t-77 -396.5q0 -243 85.5 -373t237.5 -130q95 0 183 40.5t172 109.5q36 -24 69 -66t43 -82q-55 -55 -133.5 -101t-173.5 -73.5t-198 -27.5q-146 0 -246.5 59.5t-162 160t-89 226.5t-27.5 258q0 249 76 407.5
t202 234t275 75.5t258.5 -55.5t168.5 -145.5t59 -194q0 -60 -30.5 -94.5t-98.5 -34.5q-26 0 -46.5 3.5t-45.5 9.5zM846 1818q32 -23 61.5 -75t35.5 -105l-442 -180q-26 16 -44 50t-22 64z" />
    <glyph glyph-name="cacute" unicode="&#x107;" horiz-adv-x="943" 
d="M669 598q3 67 -10 123.5t-50 90.5t-107 34q-91 0 -140 -88.5t-49 -268.5q0 -176 57.5 -256t160.5 -80q68 0 128.5 31t111.5 68q29 -17 56.5 -55.5t35.5 -74.5q-68 -67 -163 -108t-202 -41q-108 0 -186.5 40.5t-128.5 111.5t-74.5 164.5t-24.5 199.5q0 187 61.5 303
t158.5 170t203 54q90 0 159 -27t115 -71.5t69 -98.5t23 -110t-27.5 -87.5t-84.5 -31.5q-27 0 -48 2t-44 6zM639 1487q46 -15 90 -55.5t61 -87.5l-346 -268q-29 9 -56.5 34t-39.5 55z" />
    <glyph glyph-name="Ccircumflex" unicode="&#x108;" horiz-adv-x="1209" 
d="M913 883q1 77 -23 152t-83 124t-164 49q-154 0 -231 -135.5t-77 -396.5q0 -243 85.5 -373t237.5 -130q95 0 183 40.5t172 109.5q36 -24 69 -66t43 -82q-55 -55 -133.5 -101t-173.5 -73.5t-198 -27.5q-146 0 -246.5 59.5t-162 160t-89 226.5t-27.5 258q0 249 76 407.5
t202 234t275 75.5t258.5 -55.5t168.5 -145.5t59 -194q0 -60 -30.5 -94.5t-98.5 -34.5q-26 0 -46.5 3.5t-45.5 9.5zM738 1785l225 -214q-11 -36 -40.5 -61.5t-54.5 -34.5l-227 149l-225 -149q-25 9 -54.5 34.5t-41.5 61.5l225 214q43 8 96 8q55 0 97 -8z" />
    <glyph glyph-name="ccircumflex" unicode="&#x109;" horiz-adv-x="943" 
d="M669 598q3 67 -10 123.5t-50 90.5t-107 34q-91 0 -140 -88.5t-49 -268.5q0 -176 57.5 -256t160.5 -80q68 0 128.5 31t111.5 68q29 -17 56.5 -55.5t35.5 -74.5q-68 -67 -163 -108t-202 -41q-108 0 -186.5 40.5t-128.5 111.5t-74.5 164.5t-24.5 199.5q0 187 61.5 303
t158.5 170t203 54q90 0 159 -27t115 -71.5t69 -98.5t23 -110t-27.5 -87.5t-84.5 -31.5q-27 0 -48 2t-44 6zM605 1441l193 -251q-15 -36 -47 -62t-57 -34l-187 181l-186 -181q-26 8 -57.5 34t-46.5 62l193 251q41 12 97 12q57 0 98 -12z" />
    <glyph glyph-name="Cdotaccent" unicode="&#x10a;" horiz-adv-x="1209" 
d="M913 883q1 77 -23 152t-83 124t-164 49q-154 0 -231 -135.5t-77 -396.5q0 -243 85.5 -373t237.5 -130q95 0 183 40.5t172 109.5q36 -24 69 -66t43 -82q-55 -55 -133.5 -101t-173.5 -73.5t-198 -27.5q-146 0 -246.5 59.5t-162 160t-89 226.5t-27.5 258q0 249 76 407.5
t202 234t275 75.5t258.5 -55.5t168.5 -145.5t59 -194q0 -60 -30.5 -94.5t-98.5 -34.5q-26 0 -46.5 3.5t-45.5 9.5zM509 1607q0 51 19 93q20 11 52.5 18t63.5 7q29 0 64 -7t52 -18q8 -19 13.5 -45t5.5 -48q0 -53 -19 -93q-16 -11 -51.5 -18.5t-64.5 -7.5q-31 0 -64.5 7
t-51.5 19q-19 40 -19 93z" />
    <glyph glyph-name="cdotaccent" unicode="&#x10b;" horiz-adv-x="943" 
d="M669 598q3 67 -10 123.5t-50 90.5t-107 34q-91 0 -140 -88.5t-49 -268.5q0 -176 57.5 -256t160.5 -80q68 0 128.5 31t111.5 68q29 -17 56.5 -55.5t35.5 -74.5q-68 -67 -163 -108t-202 -41q-108 0 -186.5 40.5t-128.5 111.5t-74.5 164.5t-24.5 199.5q0 187 61.5 303
t158.5 170t203 54q90 0 159 -27t115 -71.5t69 -98.5t23 -110t-27.5 -87.5t-84.5 -31.5q-27 0 -48 2t-44 6zM368 1258q0 52 19 93q20 11 52.5 18.5t63.5 7.5q29 0 64 -7.5t52 -18.5q8 -19 13.5 -45t5.5 -48q0 -52 -19 -94q-16 -11 -51.5 -18t-64.5 -7q-31 0 -64.5 7t-51.5 18
q-19 42 -19 94z" />
    <glyph glyph-name="Ccaron" unicode="&#x10c;" horiz-adv-x="1209" 
d="M913 883q1 77 -23 152t-83 124t-164 49q-154 0 -231 -135.5t-77 -396.5q0 -243 85.5 -373t237.5 -130q95 0 183 40.5t172 109.5q36 -24 69 -66t43 -82q-55 -55 -133.5 -101t-173.5 -73.5t-198 -27.5q-146 0 -246.5 59.5t-162 160t-89 226.5t-27.5 258q0 249 76 407.5
t202 234t275 75.5t258.5 -55.5t168.5 -145.5t59 -194q0 -60 -30.5 -94.5t-98.5 -34.5q-26 0 -46.5 3.5t-45.5 9.5zM870 1794q25 -8 54.5 -33.5t40.5 -61.5l-224 -214q-19 -3 -45 -5.5t-52 -2.5t-51.5 2.5t-45.5 5.5l-224 214q11 36 40.5 61.5t54.5 33.5l226 -149z" />
    <glyph glyph-name="ccaron" unicode="&#x10d;" horiz-adv-x="943" 
d="M669 598q3 67 -10 123.5t-50 90.5t-107 34q-91 0 -140 -88.5t-49 -268.5q0 -176 57.5 -256t160.5 -80q68 0 128.5 31t111.5 68q29 -17 56.5 -55.5t35.5 -74.5q-68 -67 -163 -108t-202 -41q-108 0 -186.5 40.5t-128.5 111.5t-74.5 164.5t-24.5 199.5q0 187 61.5 303
t158.5 170t203 54q90 0 159 -27t115 -71.5t69 -98.5t23 -110t-27.5 -87.5t-84.5 -31.5q-27 0 -48 2t-44 6zM406 1112l-193 252q15 35 46.5 61.5t57.5 34.5l186 -181l187 181q26 -8 57.5 -34.5t46.5 -61.5l-193 -252q-43 -11 -98 -11q-54 0 -97 11z" />
    <glyph glyph-name="Dcaron" unicode="&#x10e;" horiz-adv-x="1302" 
d="M1204 683q0 -117 -15.5 -224.5t-61 -200.5t-137.5 -167q-44 -36 -106 -58t-126.5 -32.5t-118.5 -10.5q-81 0 -150.5 1t-140.5 3t-158 4l-13 13v1344l13 13q86 3 157 4.5t141 2t151 0.5q54 0 119 -10.5t127 -32.5t105 -58q91 -74 136.5 -167.5t61.5 -200.5t16 -223z
M968 683q0 88 -11.5 177.5t-45.5 164.5t-99.5 121t-173.5 46q-60 0 -113.5 0.5t-119.5 1.5v-1020q66 0 119.5 -0.5t113.5 -0.5q108 0 173.5 46.5t99.5 121.5t45.5 165t11.5 177zM846 1792q25 -8 54.5 -33.5t40.5 -61.5l-224 -214q-19 -3 -45 -5.5t-52 -2.5t-51.5 2.5
t-45.5 5.5l-224 214q11 36 40.5 61.5t54.5 33.5l226 -149z" />
    <glyph glyph-name="dcaron" unicode="&#x10f;" horiz-adv-x="1187" 
d="M1040 1506q28 7 62 7q35 0 68.5 -8.5t58.5 -24.5l-76 -367q-22 -7 -52 -7q-21 0 -43 4t-35 12zM908 282q0 -56 12.5 -105.5t43.5 -77.5q-8 -30 -31 -63.5t-49 -50.5q-102 17 -147.5 93t-45.5 176v1204l13 13h84q70 0 95 -33t25 -107v-1049zM85 482q0 178 55.5 294.5
t144 173t186.5 56.5q97 0 177 -40t149 -89l-27 -171q-58 45 -127 85.5t-140 40.5q-55 0 -98.5 -38.5t-68.5 -116.5t-25 -195q0 -115 24 -186.5t63 -105t85 -33.5q48 0 101 26t99 82.5t72 149.5l46 -157q-17 -69 -69 -134.5t-129 -108t-172 -42.5q-115 0 -192 64.5
t-115.5 179.5t-38.5 265z" />
    <glyph glyph-name="Dcroat" unicode="&#x110;" horiz-adv-x="1333" 
d="M1235 684q0 -117 -15.5 -224.5t-61 -201t-137.5 -167.5q-43 -36 -105 -58t-127 -32.5t-118 -10.5q-81 0 -151 1t-141 3t-158 4l-13 13v1344l13 13q87 3 158 4.5t141 2t151 0.5q53 0 118 -10.5t127 -32.5t105 -58q91 -74 136.5 -167t61.5 -200t16 -223zM999 684
q0 88 -11.5 177.5t-45.5 164.5t-99 120.5t-173 45.5q-61 0 -116 0.5t-121 1.5v-1020q66 0 121 -0.5t116 -0.5q108 0 173 46.5t99 122t45.5 165.5t11.5 177zM57 598q-6 22 -8 44.5t-2 47.5t2 49.5t8 46.5h676q5 -22 7.5 -44.5t2.5 -49.5q0 -52 -10 -94h-676z" />
    <glyph glyph-name="dcroat" unicode="&#x111;" horiz-adv-x="1068" 
d="M377 1133q-9 40 -9 75q0 38 9 76l402 -5l272 5q9 -38 9 -76q0 -35 -9 -75l-275 5zM908 282q0 -56 12.5 -105.5t43.5 -77.5q-8 -30 -31 -63.5t-49 -50.5q-102 17 -147.5 93t-45.5 176v1204l13 13h84q70 0 95 -33t25 -107v-1049zM85 482q0 178 55.5 294.5t144 173
t186.5 56.5q97 0 177 -40t149 -89l-27 -171q-58 45 -127 85.5t-140 40.5q-55 0 -98.5 -38.5t-68.5 -116.5t-25 -195q0 -115 24 -186.5t63 -105t85 -33.5q48 0 101 26t99 82.5t72 149.5l46 -157q-17 -69 -69 -134.5t-129 -108t-172 -42.5q-115 0 -192 64.5t-115.5 179.5
t-38.5 265z" />
    <glyph glyph-name="Emacron" unicode="&#x112;" horiz-adv-x="1134" 
d="M176 1353l13 13h210v-188q0 -42 1 -69.5t1 -68.5v-746q0 -28 -1 -52.5t-1 -54.5v-190h-92q-61 0 -96 37.5t-35 102.5v1216zM892 784q6 -22 9 -49t3 -46t-3 -45t-9 -49h-365q-23 0 -60 0.5t-76 1t-69 0.5v184q30 1 69 1.5t76 1t60 0.5h365zM1002 1366q5 -25 6.5 -48
t1.5 -42q0 -20 -4.5 -48.5t-13.5 -54.5h-465h-60t-76 1t-69 2v190h680zM1043 191q0 -102 -31.5 -148t-119.5 -46h-570v185q50 3 99 6t112 3h510zM298 1512q-6 22 -8.5 41.5t-2.5 44.5t2.5 45t8.5 43h601q6 -23 8 -41.5t2 -44.5q0 -49 -10 -88h-601z" />
    <glyph glyph-name="emacron" unicode="&#x113;" horiz-adv-x="1000" 
d="M223 424v159h471v26q0 66 -18.5 121.5t-60.5 89t-110 33.5q-98 0 -145.5 -82.5t-47.5 -228.5v-68q0 -91 18.5 -164t66.5 -115.5t138 -42.5q75 0 144 21.5t133 52.5q26 -26 43.5 -66t22.5 -74q-72 -51 -172 -82t-204 -31q-121 0 -202 42.5t-128 116t-67.5 166.5t-20.5 194
q0 150 46.5 268t140 187t235.5 69q130 0 219 -57t135 -153.5t46 -216.5q0 -51 -3.5 -86.5t-13.5 -78.5h-666zM226 1150q-6 22 -8.5 41.5t-2.5 44.5t2.5 45t8.5 43h569q6 -23 8 -41.5t2 -45.5q0 -49 -10 -87h-569z" />
    <glyph glyph-name="Ebreve" unicode="&#x114;" horiz-adv-x="1134" 
d="M176 1353l13 13h210v-188q0 -42 1 -69.5t1 -68.5v-746q0 -28 -1 -52.5t-1 -54.5v-190h-92q-61 0 -96 37.5t-35 102.5v1216zM892 784q6 -22 9 -49t3 -46t-3 -45t-9 -49h-365q-23 0 -60 0.5t-76 1t-69 0.5v184q30 1 69 1.5t76 1t60 0.5h365zM1002 1366q5 -25 6.5 -48
t1.5 -42q0 -20 -4.5 -48.5t-13.5 -54.5h-465h-60t-76 1t-69 2v190h680zM1043 191q0 -102 -31.5 -148t-119.5 -46h-570v185q50 3 99 6t112 3h510zM936 1722q-31 -109 -122 -178.5t-216 -69.5q-126 0 -216 69.5t-122 178.5q22 25 57 38t70 12q27 -59 84.5 -92.5t126.5 -33.5
q70 0 127 33.5t84 92.5q36 1 71 -12t56 -38z" />
    <glyph glyph-name="ebreve" unicode="&#x115;" horiz-adv-x="1000" 
d="M223 424v159h471v26q0 66 -18.5 121.5t-60.5 89t-110 33.5q-98 0 -145.5 -82.5t-47.5 -228.5v-68q0 -91 18.5 -164t66.5 -115.5t138 -42.5q75 0 144 21.5t133 52.5q26 -26 43.5 -66t22.5 -74q-72 -51 -172 -82t-204 -31q-121 0 -202 42.5t-128 116t-67.5 166.5t-20.5 194
q0 150 46.5 268t140 187t235.5 69q130 0 219 -57t135 -153.5t46 -216.5q0 -51 -3.5 -86.5t-13.5 -78.5h-666zM830 1358q-28 -112 -113.5 -183t-206.5 -71t-206 71t-114 183q20 25 53.5 37.5t67.5 12.5q24 -61 77.5 -94.5t121.5 -33.5q69 0 122 33.5t77 94.5q35 0 68.5 -12.5
t52.5 -37.5z" />
    <glyph glyph-name="Edotaccent" unicode="&#x116;" horiz-adv-x="1134" 
d="M176 1353l13 13h210v-188q0 -42 1 -69.5t1 -68.5v-746q0 -28 -1 -52.5t-1 -54.5v-190h-92q-61 0 -96 37.5t-35 102.5v1216zM892 784q6 -22 9 -49t3 -46t-3 -45t-9 -49h-365q-23 0 -60 0.5t-76 1t-69 0.5v184q30 1 69 1.5t76 1t60 0.5h365zM1002 1366q5 -25 6.5 -48
t1.5 -42q0 -20 -4.5 -48.5t-13.5 -54.5h-465h-60t-76 1t-69 2v190h680zM1043 191q0 -102 -31.5 -148t-119.5 -46h-570v185q50 3 99 6t112 3h510zM463 1605q0 51 19 93q20 11 52.5 18t63.5 7q29 0 64 -7t52 -18q8 -19 13.5 -45t5.5 -48q0 -53 -19 -93q-16 -11 -51.5 -18.5
t-64.5 -7.5q-31 0 -64.5 7t-51.5 19q-19 40 -19 93z" />
    <glyph glyph-name="edotaccent" unicode="&#x117;" horiz-adv-x="1000" 
d="M223 424v159h471v26q0 66 -18.5 121.5t-60.5 89t-110 33.5q-98 0 -145.5 -82.5t-47.5 -228.5v-68q0 -91 18.5 -164t66.5 -115.5t138 -42.5q75 0 144 21.5t133 52.5q26 -26 43.5 -66t22.5 -74q-72 -51 -172 -82t-204 -31q-121 0 -202 42.5t-128 116t-67.5 166.5t-20.5 194
q0 150 46.5 268t140 187t235.5 69q130 0 219 -57t135 -153.5t46 -216.5q0 -51 -3.5 -86.5t-13.5 -78.5h-666zM375 1258q0 52 19 93q20 11 52.5 18.5t63.5 7.5q29 0 64 -7.5t52 -18.5q8 -19 13.5 -45t5.5 -48q0 -52 -19 -94q-16 -11 -51.5 -18t-64.5 -7q-31 0 -64.5 7
t-51.5 18q-19 42 -19 94z" />
    <glyph glyph-name="Eogonek" unicode="&#x118;" horiz-adv-x="1141" 
d="M987 -256q20 -17 34.5 -45t15.5 -62q-35 -29 -93 -50.5t-122 -21.5q-95 0 -157 50t-62 141q0 92 62.5 167.5t149.5 118.5q38 6 82.5 -3.5t65.5 -29.5q-89 -37 -137 -96t-48 -114q0 -43 27 -65.5t68 -22.5q31 0 61.5 10.5t52.5 22.5zM176 1353l13 13h210v-188
q0 -42 1 -69.5t1 -68.5v-746q0 -28 -1 -52.5t-1 -54.5v-190h-92q-61 0 -96 37.5t-35 102.5v1216zM892 784q6 -22 9 -49t3 -46t-3 -45t-9 -49h-365q-23 0 -60 0.5t-76 1t-69 0.5v184q30 1 69 1.5t76 1t60 0.5h365zM1002 1366q5 -25 6.5 -48t1.5 -42q0 -20 -4.5 -48.5
t-13.5 -54.5h-465h-60t-76 1t-69 2v190h680zM1043 191q0 -90 -19.5 -127.5t-60.5 -54.5q-29 -12 -71 -12h-570v185q50 3 99 6t112 3h510z" />
    <glyph glyph-name="eogonek" unicode="&#x119;" horiz-adv-x="1000" 
d="M814 -256q20 -17 34.5 -45t15.5 -62q-35 -29 -93 -50.5t-122 -21.5q-94 0 -156 50t-62 140q0 92 69 172t183 139l195 20q-28 -22 -55.5 -38.5t-60.5 -34.5q-78 -46 -117.5 -98t-39.5 -112q0 -44 27 -68t68 -24q32 0 62 10.5t52 22.5zM223 424v159h471v26
q0 66 -18.5 121.5t-60.5 89t-110 33.5q-98 0 -145.5 -82.5t-47.5 -228.5v-68q0 -91 18.5 -164t66.5 -115.5t138 -42.5q75 0 144 21.5t133 52.5q26 -26 43.5 -66t22.5 -74q-76 -42 -174 -77.5t-202 -35.5q-121 0 -202 42.5t-128 116t-67.5 166.5t-20.5 194q0 150 46.5 268
t140 187t235.5 69q130 0 219 -57t135 -153.5t46 -216.5q0 -51 -3.5 -86.5t-13.5 -78.5h-666z" />
    <glyph glyph-name="Ecaron" unicode="&#x11a;" horiz-adv-x="1134" 
d="M176 1353l13 13h210v-188q0 -42 1 -69.5t1 -68.5v-746q0 -28 -1 -52.5t-1 -54.5v-190h-92q-61 0 -96 37.5t-35 102.5v1216zM892 784q6 -22 9 -49t3 -46t-3 -45t-9 -49h-365q-23 0 -60 0.5t-76 1t-69 0.5v184q30 1 69 1.5t76 1t60 0.5h365zM1002 1366q5 -25 6.5 -48
t1.5 -42q0 -20 -4.5 -48.5t-13.5 -54.5h-465h-60t-76 1t-69 2v190h680zM1043 191q0 -102 -31.5 -148t-119.5 -46h-570v185q50 3 99 6t112 3h510zM824 1792q25 -8 54.5 -33.5t40.5 -61.5l-224 -214q-19 -3 -45 -5.5t-52 -2.5t-51.5 2.5t-45.5 5.5l-224 214q11 36 40.5 61.5
t54.5 33.5l226 -149z" />
    <glyph glyph-name="ecaron" unicode="&#x11b;" horiz-adv-x="1000" 
d="M223 424v159h471v26q0 66 -18.5 121.5t-60.5 89t-110 33.5q-98 0 -145.5 -82.5t-47.5 -228.5v-68q0 -91 18.5 -164t66.5 -115.5t138 -42.5q75 0 144 21.5t133 52.5q26 -26 43.5 -66t22.5 -74q-72 -51 -172 -82t-204 -31q-121 0 -202 42.5t-128 116t-67.5 166.5t-20.5 194
q0 150 46.5 268t140 187t235.5 69q130 0 219 -57t135 -153.5t46 -216.5q0 -51 -3.5 -86.5t-13.5 -78.5h-666zM413 1112l-193 252q15 35 46.5 61.5t57.5 34.5l186 -181l187 181q26 -8 57.5 -34.5t46.5 -61.5l-193 -252q-43 -11 -98 -11q-54 0 -97 11z" />
    <glyph glyph-name="Gcircumflex" unicode="&#x11c;" horiz-adv-x="1290" 
d="M1163 1246q-7 -51 -40 -98t-69 -70q-71 53 -163.5 86.5t-186.5 33.5q-107 0 -191.5 -51.5t-133 -167t-48.5 -308.5q0 -261 97 -385.5t290 -124.5q104 0 193 22.5t137 41.5l118 -167q-59 -22 -139 -41.5t-169.5 -31.5t-179.5 -12q-161 0 -272 55t-179.5 151.5t-100 223.5
t-31.5 271q0 189 51 325t137 223t193.5 129t221.5 42q126 0 250 -40t215 -107zM948 403q0 70 4.5 132.5t17.5 111.5l196 -67v-522l-218 -3v348zM1006 727q90 0 125 -38.5t35 -108.5v-48h-374q-30 0 -55.5 7.5t-41 28.5t-15.5 62q0 24 5 50t12 47h309zM785 1783l225 -214
q-11 -36 -40.5 -61.5t-54.5 -34.5l-227 149l-225 -149q-25 9 -54.5 34.5t-41.5 61.5l225 214q43 8 96 8q55 0 97 -8z" />
    <glyph glyph-name="gcircumflex" unicode="&#x11d;" horiz-adv-x="1059" 
d="M966 890q-31 -28 -43.5 -77t-12.5 -106v-583q0 -119 -10.5 -200t-32 -136t-53.5 -94q-49 -62 -136 -98.5t-201 -36.5q-93 0 -187 19.5t-164 47.5q1 42 17 89.5t41 76.5q63 -29 137.5 -46t134.5 -17q97 0 149 36t71 96.5t19 134.5v739q0 100 44.5 176t146.5 93
q26 -16 50 -50t30 -64zM85 492q0 177 56 293t144 173.5t185 57.5q89 0 153.5 -27t110.5 -68t79 -84l-32 -188q-53 86 -128.5 139t-147.5 53q-57 0 -100.5 -38.5t-68.5 -116t-25 -194.5q0 -173 50 -249.5t120 -76.5q78 0 149 50.5t112 131.5l33 -168q-28 -47 -78.5 -92
t-117.5 -75.5t-145 -30.5q-117 0 -194.5 64.5t-116 179t-38.5 266.5zM639 1441l193 -251q-15 -36 -47 -62t-57 -34l-187 181l-186 -181q-26 8 -57.5 34t-46.5 62l193 251q41 12 97 12q57 0 98 -12z" />
    <glyph glyph-name="Gbreve" unicode="&#x11e;" horiz-adv-x="1290" 
d="M1163 1246q-7 -51 -40 -98t-69 -70q-71 53 -163.5 86.5t-186.5 33.5q-107 0 -191.5 -51.5t-133 -167t-48.5 -308.5q0 -261 97 -385.5t290 -124.5q104 0 193 22.5t137 41.5l118 -167q-59 -22 -139 -41.5t-169.5 -31.5t-179.5 -12q-161 0 -272 55t-179.5 151.5t-100 223.5
t-31.5 271q0 189 51 325t137 223t193.5 129t221.5 42q126 0 250 -40t215 -107zM948 403q0 70 4.5 132.5t17.5 111.5l196 -67v-522l-218 -3v348zM1006 727q90 0 125 -38.5t35 -108.5v-48h-374q-30 0 -55.5 7.5t-41 28.5t-15.5 62q0 24 5 50t12 47h309zM1029 1722
q-31 -109 -122 -178.5t-216 -69.5q-126 0 -216 69.5t-122 178.5q22 25 57 38t70 12q27 -59 84.5 -92.5t126.5 -33.5q70 0 127 33.5t84 92.5q36 1 71 -12t56 -38z" />
    <glyph glyph-name="gbreve" unicode="&#x11f;" horiz-adv-x="1059" 
d="M966 890q-31 -28 -43.5 -77t-12.5 -106v-583q0 -119 -10.5 -200t-32 -136t-53.5 -94q-49 -62 -136 -98.5t-201 -36.5q-93 0 -187 19.5t-164 47.5q1 42 17 89.5t41 76.5q63 -29 137.5 -46t134.5 -17q97 0 149 36t71 96.5t19 134.5v739q0 100 44.5 176t146.5 93
q26 -16 50 -50t30 -64zM85 492q0 177 56 293t144 173.5t185 57.5q89 0 153.5 -27t110.5 -68t79 -84l-32 -188q-53 86 -128.5 139t-147.5 53q-57 0 -100.5 -38.5t-68.5 -116t-25 -194.5q0 -173 50 -249.5t120 -76.5q78 0 149 50.5t112 131.5l33 -168q-28 -47 -78.5 -92
t-117.5 -75.5t-145 -30.5q-117 0 -194.5 64.5t-116 179t-38.5 266.5zM857 1358q-28 -112 -113.5 -183t-206.5 -71t-206 71t-114 183q20 25 53.5 37.5t67.5 12.5q24 -61 77.5 -94.5t121.5 -33.5q69 0 122 33.5t77 94.5q35 0 68.5 -12.5t52.5 -37.5z" />
    <glyph glyph-name="Gdotaccent" unicode="&#x120;" horiz-adv-x="1290" 
d="M1163 1246q-7 -51 -40 -98t-69 -70q-71 53 -163.5 86.5t-186.5 33.5q-107 0 -191.5 -51.5t-133 -167t-48.5 -308.5q0 -261 97 -385.5t290 -124.5q104 0 193 22.5t137 41.5l118 -167q-59 -22 -139 -41.5t-169.5 -31.5t-179.5 -12q-161 0 -272 55t-179.5 151.5t-100 223.5
t-31.5 271q0 189 51 325t137 223t193.5 129t221.5 42q126 0 250 -40t215 -107zM948 403q0 70 4.5 132.5t17.5 111.5l196 -67v-522l-218 -3v348zM1006 727q90 0 125 -38.5t35 -108.5v-48h-374q-30 0 -55.5 7.5t-41 28.5t-15.5 62q0 24 5 50t12 47h309zM556 1605q0 51 19 93
q20 11 52.5 18t63.5 7q29 0 64 -7t52 -18q8 -19 13.5 -45t5.5 -48q0 -53 -19 -93q-16 -11 -51.5 -18.5t-64.5 -7.5q-31 0 -64.5 7t-51.5 19q-19 40 -19 93z" />
    <glyph glyph-name="gdotaccent" unicode="&#x121;" horiz-adv-x="1059" 
d="M966 890q-31 -28 -43.5 -77t-12.5 -106v-583q0 -119 -10.5 -200t-32 -136t-53.5 -94q-49 -62 -136 -98.5t-201 -36.5q-93 0 -187 19.5t-164 47.5q1 42 17 89.5t41 76.5q63 -29 137.5 -46t134.5 -17q97 0 149 36t71 96.5t19 134.5v739q0 100 44.5 176t146.5 93
q26 -16 50 -50t30 -64zM85 492q0 177 56 293t144 173.5t185 57.5q89 0 153.5 -27t110.5 -68t79 -84l-32 -188q-53 86 -128.5 139t-147.5 53q-57 0 -100.5 -38.5t-68.5 -116t-25 -194.5q0 -173 50 -249.5t120 -76.5q78 0 149 50.5t112 131.5l33 -168q-28 -47 -78.5 -92
t-117.5 -75.5t-145 -30.5q-117 0 -194.5 64.5t-116 179t-38.5 266.5zM402 1258q0 52 19 93q20 11 52.5 18.5t63.5 7.5q29 0 64 -7.5t52 -18.5q8 -19 13.5 -45t5.5 -48q0 -52 -19 -94q-16 -11 -51.5 -18t-64.5 -7q-31 0 -64.5 7t-51.5 18q-19 42 -19 94z" />
    <glyph glyph-name="uni0122" unicode="&#x122;" horiz-adv-x="1290" 
d="M1163 1246q-7 -51 -40 -98t-69 -70q-71 53 -163.5 86.5t-186.5 33.5q-107 0 -191.5 -51.5t-133 -167t-48.5 -308.5q0 -261 97 -385.5t290 -124.5q104 0 193 22.5t137 41.5l118 -167q-59 -22 -139 -41.5t-169.5 -31.5t-179.5 -12q-161 0 -272 55t-179.5 151.5t-100 223.5
t-31.5 271q0 189 51 325t137 223t193.5 129t221.5 42q126 0 250 -40t215 -107zM948 403q0 70 4.5 132.5t17.5 111.5l196 -67v-522l-218 -3v348zM1006 727q90 0 125 -38.5t35 -108.5v-48h-374q-30 0 -55.5 7.5t-41 28.5t-15.5 62q0 24 5 50t12 47h309zM788 -123
q8 -17 13.5 -47t5.5 -58q0 -105 -69 -187t-186 -125q-28 9 -46.5 35t-25.5 58q122 79 122 194q0 26 -7 53.5t-19 50.5q56 38 136 38q40 0 76 -12z" />
    <glyph glyph-name="uni0123" unicode="&#x123;" horiz-adv-x="1059" 
d="M966 890q-31 -28 -43.5 -77t-12.5 -106v-583q0 -119 -10.5 -200t-32 -136t-53.5 -94q-49 -62 -136 -98.5t-201 -36.5q-93 0 -187 19.5t-164 47.5q1 42 17 89.5t41 76.5q63 -29 137.5 -46t134.5 -17q97 0 149 36t71 96.5t19 134.5v739q0 100 44.5 176t146.5 93
q26 -16 50 -50t30 -64zM85 492q0 177 56 293t144 173.5t185 57.5q89 0 153.5 -27t110.5 -68t79 -84l-32 -188q-53 86 -128.5 139t-147.5 53q-57 0 -100.5 -38.5t-68.5 -116t-25 -194.5q0 -173 50 -249.5t120 -76.5q78 0 149 50.5t112 131.5l33 -168q-28 -47 -78.5 -92
t-117.5 -75.5t-145 -30.5q-117 0 -194.5 64.5t-116 179t-38.5 266.5zM444 1114q-8 17 -13.5 46.5t-5.5 56.5q0 101 68 181t184 122q27 -9 45.5 -34.5t24.5 -56.5q-120 -76 -120 -187q0 -26 7 -53t18 -49q-26 -18 -61.5 -27t-72.5 -9q-40 0 -74 10z" />
    <glyph glyph-name="Hcircumflex" unicode="&#x124;" horiz-adv-x="1352" 
d="M515 607q-9 0 -32 0.5l-46 1t-33 0.5q-34 0 -68 -1t-68 -1v195q34 0 68 -1t68 -1q10 0 33 0.5l46 1t32 0.5h323q10 0 32.5 -0.5l45 -1t33.5 -0.5q33 0 67.5 1t68.5 1v-195q-34 0 -68.5 1t-67.5 1q-11 0 -33.5 -0.5l-45 -1t-32.5 -0.5h-323zM406 0q-27 -5 -58 -7t-58 -2
q-23 0 -55 2t-58 7v1366q26 5 58 7t55 2q27 0 58 -2t58 -7v-418q0 -42 -1 -74.5t-1 -73.5v-191q0 -40 1 -73t1 -75v-461zM947 461q0 42 1 75t1 73v191q0 41 -1 73.5t-1 74.5v418q26 5 57 7t56 2t57 -2t58 -7v-1366q-27 -5 -56.5 -7t-56.5 -2q-26 0 -57 2t-58 7v461z
M770 1784l225 -214q-11 -36 -40.5 -61.5t-54.5 -34.5l-227 149l-225 -149q-25 9 -54.5 34.5t-41.5 61.5l225 214q43 8 96 8q55 0 97 -8z" />
    <glyph glyph-name="hcircumflex" unicode="&#x125;" horiz-adv-x="1087" 
d="M368 0q-47 -9 -110 -9q-57 0 -107 9v1458l13 13h84q70 0 95 -33t25 -107v-1331zM945 217q0 -53 7.5 -100.5t27.5 -82.5q-24 -21 -61 -34.5t-78 -13.5q-66 0 -92 36t-26 105v495q0 97 -24.5 140.5t-94.5 43.5q-48 0 -103.5 -23.5t-106 -66.5t-81.5 -103v209q67 76 162 130
t202 54q94 0 153 -44t87 -119.5t28 -169.5v-456zM642 1839l225 -214q-11 -36 -40.5 -61.5t-54.5 -34.5l-227 149l-225 -149q-25 9 -54.5 34.5t-41.5 61.5l225 214q43 8 96 8q55 0 97 -8z" />
    <glyph glyph-name="Hbar" unicode="&#x126;" horiz-adv-x="1371" 
d="M46 986q-6 22 -8 41.5t-2 45.5q0 25 2 45t8 43h1280q5 -23 7 -41t2 -46q0 -48 -9 -88h-1280zM524 605q-9 0 -32 0.5l-46 1t-33 0.5q-34 0 -68.5 -1t-67.5 -1v193q33 0 67.5 -1t68.5 -1q10 0 33 0.5l46 1t32 0.5h323q10 0 32.5 -0.5l45 -1t33.5 -0.5q34 0 68 1t68 1v-193
q-34 0 -68 1t-68 1q-11 0 -33.5 -0.5l-45 -1t-32.5 -0.5h-323zM415 0q-27 -5 -58 -7t-58 -2q-23 0 -55 2t-58 7v1366q26 5 58 7t55 2q27 0 58 -2t58 -7v-420q0 -42 -1 -75.5t-1 -74.5v-189q0 -40 1 -73t1 -75v-459zM956 459q0 42 1 75t1 73v189q0 41 -1 74.5t-1 75.5v420
q27 5 57.5 7t55.5 2t57 -2t59 -7v-1366q-28 -5 -57.5 -7t-56.5 -2q-26 0 -57 2t-58 7v459z" />
    <glyph glyph-name="hbar" unicode="&#x127;" horiz-adv-x="1093" 
d="M688 1284q5 -22 7.5 -38t2.5 -37q0 -22 -2.5 -38.5t-7.5 -37.5l-402 5l-271 -5q-5 21 -7.5 37.5t-2.5 38.5q0 21 2.5 37t7.5 38l275 -5zM374 0q-47 -9 -110 -9q-57 0 -107 9v1458l13 13h84q70 0 95 -33t25 -107v-1331zM951 217q0 -53 7.5 -100.5t27.5 -82.5
q-24 -21 -61 -34.5t-78 -13.5q-66 0 -92 36t-26 105v495q0 97 -24.5 140.5t-94.5 43.5q-48 0 -103.5 -23.5t-106 -66.5t-81.5 -103v209q67 76 162 130t202 54q94 0 153 -44t87 -119.5t28 -169.5v-456z" />
    <glyph glyph-name="Itilde" unicode="&#x128;" horiz-adv-x="593" 
d="M182 1366q26 5 58 7t56 2q26 0 57.5 -2t57.5 -7v-1366q-26 -5 -57.5 -7t-57.5 -2q-24 0 -56 2t-58 7v1366zM207 1566q-16 8 -31.5 13t-33.5 5q-21 0 -41.5 -12.5t-37.5 -36.5l-22 -28q-33 1 -65.5 19.5t-45.5 48.5l15 32q32 73 86 115t126 42q35 0 65.5 -10t55.5 -22
l104 -50q18 -9 36 -14.5t34 -5.5q21 0 41 12.5t38 36.5l22 29q33 -1 66 -20t45 -48l-15 -33q-31 -72 -85.5 -114t-126.5 -42q-35 0 -66 10t-55 22z" />
    <glyph glyph-name="itilde" unicode="&#x129;" horiz-adv-x="550" 
d="M403 0q-48 -9 -111 -9t-111 9v723q0 52 -19 78.5t-69 26.5h-24q-9 38 -9 78q0 19 2 39.5t7 41.5q39 5 75 7t59 2h30q79 0 124.5 -50t45.5 -137v-809zM179 1191q-10 6 -27.5 13t-37.5 7q-29 0 -48 -17.5t-30 -31.5l-21 -29q-32 2 -63.5 20.5t-43.5 48.5l17 39
q30 68 83.5 109t118.5 41q36 0 66.5 -10.5t49.5 -20.5l85 -45q11 -5 28.5 -13t37.5 -8q28 0 46 16.5t31 33.5l22 28q31 -1 62.5 -20.5t43.5 -48.5l-17 -39q-31 -71 -84.5 -110.5t-118.5 -39.5q-34 0 -63 9.5t-52 22.5z" />
    <glyph glyph-name="Imacron" unicode="&#x12a;" horiz-adv-x="593" 
d="M182 1366q26 5 58 7t56 2q26 0 57.5 -2t57.5 -7v-1366q-26 -5 -57.5 -7t-57.5 -2q-24 0 -56 2t-58 7v1366zM-3 1513q-6 22 -8.5 41.5t-2.5 44.5t2.5 45t8.5 43h601q6 -23 8 -41.5t2 -44.5q0 -49 -10 -88h-601z" />
    <glyph glyph-name="imacron" unicode="&#x12b;" horiz-adv-x="550" 
d="M403 0q-48 -9 -111 -9t-111 9v723q0 52 -19 78.5t-69 26.5h-24q-9 38 -9 78q0 19 2 39.5t7 41.5q39 5 75 7t59 2h30q79 0 124.5 -50t45.5 -137v-809zM-30 1150q-6 22 -8.5 41.5t-2.5 44.5t2.5 45t8.5 43h569q6 -23 8 -41.5t2 -45.5q0 -49 -10 -87h-569z" />
    <glyph glyph-name="Ibreve" unicode="&#x12c;" horiz-adv-x="593" 
d="M182 1366q26 5 58 7t56 2q26 0 57.5 -2t57.5 -7v-1366q-26 -5 -57.5 -7t-57.5 -2q-24 0 -56 2t-58 7v1366zM635 1723q-31 -109 -122 -178.5t-216 -69.5q-126 0 -216 69.5t-122 178.5q22 25 57 38t70 12q27 -59 84.5 -92.5t126.5 -33.5q70 0 127 33.5t84 92.5q36 1 71 -12
t56 -38z" />
    <glyph glyph-name="ibreve" unicode="&#x12d;" horiz-adv-x="550" 
d="M403 0q-48 -9 -111 -9t-111 9v723q0 52 -19 78.5t-69 26.5h-24q-9 38 -9 78q0 19 2 39.5t7 41.5q39 5 75 7t59 2h30q79 0 124.5 -50t45.5 -137v-809zM574 1358q-28 -112 -113.5 -183t-206.5 -71t-206 71t-114 183q20 25 53.5 37.5t67.5 12.5q24 -61 77.5 -94.5
t121.5 -33.5q69 0 122 33.5t77 94.5q35 0 68.5 -12.5t52.5 -37.5z" />
    <glyph glyph-name="Iogonek" unicode="&#x12e;" horiz-adv-x="593" 
d="M182 1366q26 5 58 7t56 2q26 0 57.5 -2t57.5 -7v-1366q-26 -5 -57.5 -7t-57.5 -2q-24 0 -56 2t-58 7v1366zM293 -435q-95 0 -156.5 50t-61.5 138q0 65 36 122t91.5 105t115.5 83q25 -6 51.5 -23t41.5 -40q-66 -43 -114 -94t-48 -107q0 -43 27.5 -65.5t67.5 -22.5
q32 0 62 10.5t53 22.5q20 -17 34.5 -45t15.5 -62q-36 -29 -94 -50.5t-122 -21.5z" />
    <glyph glyph-name="iogonek" unicode="&#x12f;" horiz-adv-x="550" 
d="M292 -9q-63 0 -111 9v723q0 52 -19 78.5t-69 26.5h-24q-9 38 -9 78q0 19 2 39.5t7 41.5q39 5 75 7t59 2h30q79 0 124.5 -50t45.5 -137v-809q-48 -9 -111 -9zM289 -435q-95 0 -156.5 50t-61.5 138q0 65 34.5 121t85.5 101.5t101 75.5q32 0 61.5 -14t49.5 -37
q-68 -43 -112.5 -94t-44.5 -107q0 -43 27 -65.5t67 -22.5q32 0 61 10.5t52 22.5q19 -17 34 -45t16 -62q-35 -29 -92.5 -50.5t-121.5 -21.5zM254 1147q-31 0 -64 7t-52 18q-19 42 -19 94t19 93q20 11 52.5 18t63.5 7q29 0 64 -7t52 -18q8 -19 13.5 -45t5.5 -48q0 -52 -19 -94
q-16 -11 -51.5 -18t-64.5 -7z" />
    <glyph glyph-name="Idotaccent" unicode="&#x130;" horiz-adv-x="593" 
d="M182 1366q26 5 58 7t56 2q26 0 57.5 -2t57.5 -7v-1366q-26 -5 -57.5 -7t-57.5 -2q-24 0 -56 2t-58 7v1366zM162 1606q0 51 19 93q20 11 52.5 18t63.5 7q29 0 64 -7t52 -18q8 -19 13.5 -45t5.5 -48q0 -53 -19 -93q-16 -11 -51.5 -18.5t-64.5 -7.5q-31 0 -64.5 7t-51.5 19
q-19 40 -19 93z" />
    <glyph glyph-name="dotlessi" unicode="&#x131;" horiz-adv-x="550" 
d="M403 0q-48 -9 -111 -9t-111 9v723q0 52 -19 78.5t-69 26.5h-24q-9 38 -9 78q0 19 2 39.5t7 41.5q39 5 75 7t59 2h30q79 0 124.5 -50t45.5 -137v-809z" />
    <glyph glyph-name="IJ" unicode="&#x132;" horiz-adv-x="1497" 
d="M182 1366q26 5 58 7t56 2q26 0 57.5 -2t57.5 -7v-1366q-26 -5 -57.5 -7t-57.5 -2q-24 0 -56 2t-58 7v1366zM697 235q44 -26 99.5 -45t109.5 -19q121 0 165 73t44 227v895q26 5 58.5 7t57.5 2t56 -2t57 -7v-865q0 -111 -16.5 -206t-60.5 -165.5t-126.5 -110t-213.5 -39.5
q-78 0 -162.5 22t-151.5 63q9 46 30.5 91t53.5 79z" />
    <glyph glyph-name="ij" unicode="&#x133;" horiz-adv-x="1114" 
d="M403 0q-48 -9 -111 -9t-111 9v723q0 52 -19 78.5t-69 26.5h-24q-9 38 -9 78q0 19 2 39.5t7 41.5q39 5 75 7t59 2h30q79 0 124.5 -50t45.5 -137v-809zM119 1258q0 52 19 93q20 11 52.5 18.5t63.5 7.5q29 0 64 -7.5t52 -18.5q8 -19 13.5 -45t5.5 -48q0 -52 -19 -94
q-16 -11 -51.5 -18t-64.5 -7q-31 0 -64.5 7t-51.5 18q-19 42 -19 94zM966 -26q0 -123 -26.5 -204.5t-92 -131t-185.5 -77.5q-22 21 -40 58t-23 79q57 27 89 56t45 73t13 117v779q0 52 -19 78.5t-69 26.5h-41q-10 38 -10 78q0 19 2.5 39.5t7.5 41.5q42 5 85 7t69 2h29
q77 0 121.5 -50t44.5 -137v-835zM680 1258q0 52 19 93q20 11 52.5 18.5t63.5 7.5q29 0 64 -7.5t52 -18.5q8 -19 13.5 -45t5.5 -48q0 -52 -19 -94q-16 -11 -51.5 -18t-64.5 -7q-31 0 -64.5 7t-51.5 18q-19 42 -19 94z" />
    <glyph glyph-name="Jcircumflex" unicode="&#x134;" horiz-adv-x="903" 
d="M104 235q44 -26 99.5 -45t109.5 -19q121 0 165 73t44 227v895q26 5 58.5 7t57.5 2t56 -2t57 -7v-865q0 -111 -16.5 -206t-60.5 -165.5t-126.5 -110t-213.5 -39.5q-78 0 -162.5 22t-151.5 63q9 46 30.5 91t53.5 79zM732 1783l225 -214q-11 -36 -40.5 -61.5t-54.5 -34.5
l-227 149l-225 -149q-25 9 -54.5 34.5t-41.5 61.5l225 214q43 8 96 8q55 0 97 -8z" />
    <glyph glyph-name="jcircumflex" unicode="&#x135;" horiz-adv-x="563" 
d="M416 -26q0 -123 -26.5 -204.5t-92 -131t-185.5 -77.5q-22 21 -40 58t-23 79q57 27 89 56t45 73t13 117v779q0 52 -19 78.5t-69 26.5h-41q-10 38 -10 78q0 19 2.5 39.5t7.5 41.5q42 5 85 7t69 2h29q77 0 121.5 -50t44.5 -137v-835zM366 1441l193 -251q-15 -36 -47 -62
t-57 -34l-187 181l-186 -181q-26 8 -57.5 34t-46.5 62l193 251q41 12 97 12q57 0 98 -12z" />
    <glyph glyph-name="uni0136" unicode="&#x136;" horiz-adv-x="1200" 
d="M177 1366q26 5 58 7t55 2q27 0 58 -2t58 -7v-1366q-27 -5 -58 -7t-58 -2q-23 0 -55 2t-58 7v1366zM1170 58q-23 -34 -67 -53t-87 -19q-66 0 -95.5 35t-52.5 103l-104 284q-40 111 -91.5 155.5t-138.5 44.5q-33 0 -95 -2.5t-151 -8.5v148h351q105 0 167.5 -29.5t100 -86
t66.5 -136.5l105 -283q25 -67 44.5 -97t47.5 -55zM834 1283q25 45 51 68t82 23q29 0 63.5 -2t68.5 -5l14 -19l-294 -505q-46 -82 -116 -129.5t-177 -47.5h-238v131q52 3 111.5 4t108.5 2q32 0 46.5 12.5t32.5 44.5zM740 -123q8 -17 13.5 -47t5.5 -58q0 -105 -69 -187
t-186 -125q-28 9 -46.5 35t-25.5 58q122 79 122 194q0 26 -7 53.5t-19 50.5q56 38 136 38q40 0 76 -12z" />
    <glyph glyph-name="uni0137" unicode="&#x137;" horiz-adv-x="1009" 
d="M368 0q-47 -9 -110 -9q-58 0 -107 9v1458l13 13h84q70 0 95 -33t25 -107v-1331zM883 213q23 -63 45.5 -100.5t50.5 -57.5q-24 -28 -65 -48.5t-84 -20.5q-57 0 -84.5 30t-50.5 90l-77 192q-30 76 -64 102t-99 26q-30 0 -60.5 -2.5t-65.5 -6.5l-73 -7v159h274
q109 0 178 -45t109 -148zM708 638q-41 -71 -105.5 -103.5t-156.5 -32.5h-167v102l151 5q18 0 29 7t21 24l164 264q26 45 57 68.5t84 23.5q34 0 61.5 -0.5t58.5 -2.5l12 -16zM656 -123q8 -17 13.5 -47t5.5 -58q0 -105 -69 -187t-186 -125q-28 9 -46.5 35t-25.5 58
q122 79 122 194q0 26 -7 53.5t-19 50.5q56 38 136 38q40 0 76 -12z" />
    <glyph glyph-name="kgreenlandic" unicode="&#x138;" horiz-adv-x="1009" 
d="M368 0q-47 -9 -110 -9q-58 0 -107 9v986l13 13h84q70 0 95 -33t25 -108v-858zM883 213q25 -69 47 -104t49 -54q-24 -28 -65 -48.5t-84 -20.5q-57 0 -84.5 30t-50.5 90l-77 192q-30 76 -64 102t-99 26q-30 0 -60.5 -2.5t-65.5 -6.5l-73 -7v159h274q109 0 178 -45t109 -148
zM708 638q-41 -71 -105.5 -103.5t-156.5 -32.5h-167v102l151 5q18 0 29 7t21 24l164 264q26 45 57 68.5t84 23.5q34 0 61.5 -0.5t58.5 -2.5l12 -16z" />
    <glyph glyph-name="Lacute" unicode="&#x139;" horiz-adv-x="1027" 
d="M405 -3h-96q-59 0 -96 36.5t-37 104.5v1225l13 13h86q70 0 100 -35.5t30 -111.5v-1232zM974 196q0 -114 -35.5 -156.5t-118.5 -42.5h-511l-119 168q98 16 203 23.5t191 7.5h390zM490 1812q32 -23 61.5 -75t35.5 -105l-442 -180q-26 16 -44 50t-22 64z" />
    <glyph glyph-name="lacute" unicode="&#x13a;" horiz-adv-x="593" 
d="M516 166q18 -50 18 -111q0 -12 -0.5 -25t-3.5 -23q-36 -6 -85 -11t-92 -5q-103 0 -154 54t-51 162v1251l13 13h84q69 0 94.5 -33t25.5 -107v-1076q0 -44 19.5 -66.5t60.5 -22.5h71zM386 1957q46 -15 90 -55.5t61 -87.5l-346 -268q-29 9 -56.5 34t-39.5 55z" />
    <glyph glyph-name="uni013B" unicode="&#x13b;" horiz-adv-x="1027" 
d="M405 -3h-96q-59 0 -96 36.5t-37 104.5v1225l13 13h86q70 0 100 -35.5t30 -111.5v-1232zM974 196q0 -114 -35.5 -156.5t-118.5 -42.5h-511l-119 168q98 16 203 23.5t191 7.5h390zM683 -123q8 -17 13.5 -47t5.5 -58q0 -105 -69 -187t-186 -125q-28 9 -46.5 35t-25.5 58
q122 79 122 194q0 26 -7 53.5t-19 50.5q56 38 136 38q40 0 76 -12z" />
    <glyph glyph-name="uni013C" unicode="&#x13c;" horiz-adv-x="593" 
d="M516 166q18 -50 18 -111q0 -12 -0.5 -25t-3.5 -23q-36 -6 -85 -11t-92 -5q-103 0 -154 54t-51 162v1251l13 13h84q69 0 94.5 -33t25.5 -107v-1076q0 -44 19.5 -66.5t60.5 -22.5h71zM451 -123q8 -17 13.5 -47t5.5 -58q0 -105 -69 -187t-186 -125q-28 9 -46.5 35t-25.5 58
q122 79 122 194q0 26 -7 53.5t-19 50.5q56 38 136 38q40 0 76 -12z" />
    <glyph glyph-name="Lcaron" unicode="&#x13d;" horiz-adv-x="1027" 
d="M405 -3h-96q-59 0 -96 36.5t-37 104.5v1225l13 13h86q70 0 100 -35.5t30 -111.5v-1232zM974 196q0 -114 -35.5 -156.5t-118.5 -42.5h-511l-119 168q98 16 203 23.5t191 7.5h390zM624 1394q27 7 61 7q36 0 69.5 -8.5t58.5 -24.5l-77 -367q-20 -7 -51 -7q-21 0 -43 4
t-35 12z" />
    <glyph glyph-name="lcaron" unicode="&#x13e;" horiz-adv-x="648" 
d="M497 1506q27 7 61 7q36 0 69 -8.5t59 -24.5l-77 -367q-20 -7 -51 -7q-22 0 -43.5 4t-34.5 12zM516 166q18 -50 18 -111q0 -12 -0.5 -25t-3.5 -23q-36 -6 -85 -11t-92 -5q-103 0 -154 54t-51 162v1251l13 13h84q69 0 94.5 -33t25.5 -107v-1076q0 -44 19.5 -66.5
t60.5 -22.5h71z" />
    <glyph glyph-name="Ldot" unicode="&#x13f;" horiz-adv-x="1027" 
d="M405 -3h-96q-59 0 -96 36.5t-37 104.5v1225l13 13h86q70 0 100 -35.5t30 -111.5v-1232zM974 196q0 -114 -35.5 -156.5t-118.5 -42.5h-511l-119 168q98 16 203 23.5t191 7.5h390zM678 718q0 23 4 51t12 47q19 12 49 19.5t60 7.5q29 0 59 -7.5t49 -19.5q9 -19 13.5 -47
t4.5 -51q0 -20 -4.5 -49.5t-13.5 -47.5q-19 -13 -49 -20t-59 -7q-30 0 -60 7t-49 20q-8 18 -12 47.5t-4 49.5z" />
    <glyph glyph-name="ldot" unicode="&#x140;" horiz-adv-x="593" 
d="M516 166q18 -50 18 -111q0 -12 -0.5 -25t-3.5 -23q-36 -6 -85 -11t-92 -5q-103 0 -154 54t-51 162v1251l13 13h84q69 0 94.5 -33t25.5 -107v-1076q0 -44 19.5 -66.5t60.5 -22.5h71zM494 719q0 22 4 50.5t13 47.5q18 12 48.5 19.5t60.5 7.5q29 0 58.5 -7.5t48.5 -19.5
q9 -19 13.5 -47.5t4.5 -50.5q0 -21 -4.5 -50t-13.5 -47q-19 -13 -48.5 -20.5t-58.5 -7.5q-30 0 -60.5 7.5t-48.5 20.5q-9 18 -13 47t-4 50z" />
    <glyph glyph-name="Lslash" unicode="&#x141;" horiz-adv-x="1041" 
d="M383 621l-143 -39l-187 -66l-17 9q-10 33 -11 81.5t8 90.5l207 70l143 39l381 130l17 -9q11 -34 11.5 -82t-7.5 -91zM419 -3h-96q-59 0 -96 36.5t-37 104.5v1225l13 13h87q69 0 99 -35.5t30 -111.5v-1232zM989 196q0 -114 -36 -156.5t-119 -42.5h-511l-119 168
q99 16 203.5 23.5t190.5 7.5h391z" />
    <glyph glyph-name="lslash" unicode="&#x142;" horiz-adv-x="677" 
d="M74 527l-16 9q-11 34 -11.5 78.5t7.5 86.5l531 274l16 -8q11 -34 11.5 -78.5t-7.5 -86.5zM580 166q18 -50 18 -111q0 -12 -0.5 -25t-4.5 -23q-35 -6 -84.5 -11t-92.5 -5q-102 0 -152.5 54t-50.5 162v1251l13 13h82q70 0 95 -33t25 -107v-1076q0 -89 81 -89h71z" />
    <glyph glyph-name="Nacute" unicode="&#x143;" horiz-adv-x="1365" 
d="M177 1363q27 6 69 9t67 3q26 0 63.5 -2t71.5 -7l-59 -265l-18 -3q5 -72 9 -161t6.5 -179.5t2.5 -165.5v-592q-28 -5 -55 -7t-50 -2q-21 0 -50.5 2t-56.5 7v1363zM504 821q-37 75 -68 145.5t-58 132.5l-106 128l176 139l406 -820q39 -80 72.5 -155.5t60.5 -136.5l114 -120
l-188 -134zM1188 1364v-1361q-28 -6 -68.5 -9t-70.5 -3q-29 0 -65 2t-71 7l63 253l18 3q-6 82 -10 175.5t-6 182.5t-2 158v462q0 76 27.5 109t96.5 33h75zM890 1816q32 -23 61.5 -75t35.5 -105l-442 -180q-26 16 -44 50t-22 64z" />
    <glyph glyph-name="nacute" unicode="&#x144;" horiz-adv-x="1092" 
d="M248 999q68 0 96.5 -42.5t28.5 -116.5v-840q-47 -9 -110 -9t-112 9v986l13 13h84zM949 217q0 -53 8 -100.5t28 -82.5q-25 -21 -62 -34.5t-77 -13.5q-66 0 -92.5 36t-26.5 105v497q0 96 -24 139.5t-95 43.5q-47 0 -103 -23t-106 -66t-82 -104v209q68 76 162.5 130
t202.5 54q93 0 152 -44t87 -119t28 -169v-458zM694 1487q46 -15 90 -55.5t61 -87.5l-346 -268q-29 9 -56.5 34t-39.5 55z" />
    <glyph glyph-name="uni0145" unicode="&#x145;" horiz-adv-x="1365" 
d="M177 1363q27 6 69 9t67 3q26 0 63.5 -2t71.5 -7l-59 -265l-18 -3q5 -72 9 -161t6.5 -179.5t2.5 -165.5v-592q-28 -5 -55 -7t-50 -2q-21 0 -50.5 2t-56.5 7v1363zM504 821q-37 75 -68 145.5t-58 132.5l-106 128l176 139l406 -820q39 -80 72.5 -155.5t60.5 -136.5l114 -120
l-188 -134zM1188 1364v-1361q-28 -6 -68.5 -9t-70.5 -3q-29 0 -65 2t-71 7l63 253l18 3q-6 82 -10 175.5t-6 182.5t-2 158v462q0 76 27.5 109t96.5 33h75zM792 -123q8 -17 13.5 -47t5.5 -58q0 -105 -69 -187t-186 -125q-28 9 -46.5 35t-25.5 58q122 79 122 194q0 26 -7 53.5
t-19 50.5q56 38 136 38q40 0 76 -12z" />
    <glyph glyph-name="uni0146" unicode="&#x146;" horiz-adv-x="1092" 
d="M248 999q68 0 96.5 -42.5t28.5 -116.5v-840q-47 -9 -110 -9t-112 9v986l13 13h84zM949 217q0 -53 8 -100.5t28 -82.5q-25 -21 -62 -34.5t-77 -13.5q-66 0 -92.5 36t-26.5 105v497q0 96 -24 139.5t-95 43.5q-47 0 -103 -23t-106 -66t-82 -104v209q68 76 162.5 130
t202.5 54q93 0 152 -44t87 -119t28 -169v-458zM666 -123q8 -17 13.5 -47t5.5 -58q0 -105 -69 -187t-186 -125q-28 9 -46.5 35t-25.5 58q122 79 122 194q0 26 -7 53.5t-19 50.5q56 38 136 38q40 0 76 -12z" />
    <glyph glyph-name="Ncaron" unicode="&#x147;" horiz-adv-x="1365" 
d="M177 1363q27 6 69 9t67 3q26 0 63.5 -2t71.5 -7l-59 -265l-18 -3q5 -72 9 -161t6.5 -179.5t2.5 -165.5v-592q-28 -5 -55 -7t-50 -2q-21 0 -50.5 2t-56.5 7v1363zM504 821q-37 75 -68 145.5t-58 132.5l-106 128l176 139l406 -820q39 -80 72.5 -155.5t60.5 -136.5l114 -120
l-188 -134zM1188 1364v-1361q-28 -6 -68.5 -9t-70.5 -3q-29 0 -65 2t-71 7l63 253l18 3q-6 82 -10 175.5t-6 182.5t-2 158v462q0 76 27.5 109t96.5 33h75zM914 1792q25 -8 54.5 -33.5t40.5 -61.5l-224 -214q-19 -3 -45 -5.5t-52 -2.5t-51.5 2.5t-45.5 5.5l-224 214
q11 36 40.5 61.5t54.5 33.5l226 -149z" />
    <glyph glyph-name="ncaron" unicode="&#x148;" horiz-adv-x="1092" 
d="M248 999q68 0 96.5 -42.5t28.5 -116.5v-840q-47 -9 -110 -9t-112 9v986l13 13h84zM949 217q0 -53 8 -100.5t28 -82.5q-25 -21 -62 -34.5t-77 -13.5q-66 0 -92.5 36t-26.5 105v497q0 96 -24 139.5t-95 43.5q-47 0 -103 -23t-106 -66t-82 -104v209q68 76 162.5 130
t202.5 54q93 0 152 -44t87 -119t28 -169v-458zM461 1112l-193 252q15 35 46.5 61.5t57.5 34.5l186 -181l187 181q26 -8 57.5 -34.5t46.5 -61.5l-193 -252q-43 -11 -98 -11q-54 0 -97 11z" />
    <glyph glyph-name="napostrophe" unicode="&#x149;" horiz-adv-x="1118" 
d="M274 999q68 0 96.5 -42.5t28.5 -116.5v-840q-22 -4 -51.5 -6.5t-58.5 -2.5q-63 0 -112 9v986l13 13h84zM976 217q0 -53 7.5 -100.5t27.5 -82.5q-24 -21 -61.5 -34.5t-77.5 -13.5q-65 0 -91.5 36t-26.5 105v497q0 96 -24.5 139.5t-94.5 43.5q-47 0 -103 -23t-106.5 -66
t-82.5 -104v209q68 76 162.5 130t202.5 54q94 0 153 -44t87 -119t28 -169v-458zM290 1474q11 -26 15 -56t4 -62q0 -109 -61.5 -196.5t-184.5 -128.5q-27 14 -40 42.5t-11 55.5q28 12 57 32.5t49 49t22 63.5q-18 4 -40 8.5t-34 11.5q-6 15 -11.5 40.5t-5.5 47.5q0 23 5 51.5
t12 40.5q20 11 52 18t61 7q28 0 60.5 -6.5t50.5 -18.5z" />
    <glyph glyph-name="Eng" unicode="&#x14a;" horiz-adv-x="1365" 
d="M668 -236q74 -32 139 -32q91 0 135 64t44 182v59h202v-34q0 -140 -39.5 -240.5t-122.5 -155.5t-214 -55q-41 0 -102 12.5t-108 35.5q6 47 23 87.5t43 76.5zM177 1363q27 6 69 9t67 3q26 0 63.5 -2t71.5 -7l-59 -265l-18 -3q5 -72 9 -161t6.5 -179.5t2.5 -165.5v-592
q-27 -5 -54 -7t-51 -2q-22 0 -51.5 2t-55.5 7v1363zM504 821q-37 75 -68 145.5t-58 132.5l-110 130l180 137l406 -820q39 -80 72.5 -155.5t60.5 -136.5l88 -92l-162 -162zM1188 1364v-1361q-28 -6 -70.5 -9t-68.5 -3q-25 0 -63 2t-73 7l63 253l18 3q-6 82 -10 175.5
t-6 182.5t-2 158v462q0 76 27.5 109t96.5 33h75z" />
    <glyph glyph-name="eng" unicode="&#x14b;" horiz-adv-x="1089" 
d="M248 999q68 0 96.5 -42.5t28.5 -116.5v-840q-47 -9 -110 -9t-112 9v986l13 13h84zM947 -18q0 -131 -27 -214t-93 -131t-184 -76q-22 21 -40 58t-23 79q85 41 116 92t31 154v680q0 96 -24 139.5t-95 43.5q-47 0 -103 -23t-106 -66t-82 -104v209q68 76 162.5 130t202.5 54
q93 0 151.5 -44t86 -119t27.5 -169v-693z" />
    <glyph glyph-name="Omacron" unicode="&#x14c;" horiz-adv-x="1318" 
d="M334 684q0 -89 13 -182t47.5 -172t98.5 -127t166 -48t166 48t98 127t47 172t13 182t-13 181.5t-47 171t-98 126.5t-166 48t-166 -48t-98.5 -126.5t-47.5 -171t-13 -181.5zM95 684q0 204 61 364t186 252.5t317 92.5q193 0 318 -93t185.5 -253.5t60.5 -362.5
q0 -204 -61 -364.5t-186 -253.5t-317 -93q-145 0 -251 53.5t-175.5 150t-103.5 226t-34 281.5zM359 1512q-6 22 -8.5 41.5t-2.5 44.5t2.5 45t8.5 43h601q6 -23 8 -41.5t2 -44.5q0 -49 -10 -88h-601z" />
    <glyph glyph-name="omacron" unicode="&#x14d;" horiz-adv-x="1041" 
d="M957 494q0 -154 -49.5 -271.5t-147 -183.5t-240.5 -66q-144 0 -241 67t-146 184.5t-49 269.5q0 154 49.5 271.5t146.5 184t240 66.5q144 0 241.5 -67t146.5 -184.5t49 -270.5zM313 494q0 -91 17.5 -171.5t62.5 -130t128 -49.5q82 0 126.5 49.5t62.5 130t18 171.5t-18 172
t-62.5 131t-126.5 50q-83 0 -128 -50t-62.5 -131t-17.5 -172zM236 1150q-6 22 -8.5 41.5t-2.5 44.5t2.5 45t8.5 43h569q6 -23 8 -41.5t2 -45.5q0 -49 -10 -87h-569z" />
    <glyph glyph-name="Obreve" unicode="&#x14e;" horiz-adv-x="1318" 
d="M334 684q0 -89 13 -182t47.5 -172t98.5 -127t166 -48t166 48t98 127t47 172t13 182t-13 181.5t-47 171t-98 126.5t-166 48t-166 -48t-98.5 -126.5t-47.5 -171t-13 -181.5zM95 684q0 204 61 364t186 252.5t317 92.5q193 0 318 -93t185.5 -253.5t60.5 -362.5
q0 -204 -61 -364.5t-186 -253.5t-317 -93q-145 0 -251 53.5t-175.5 150t-103.5 226t-34 281.5zM997 1722q-31 -109 -122 -178.5t-216 -69.5q-126 0 -216 69.5t-122 178.5q22 25 57 38t70 12q27 -59 84.5 -92.5t126.5 -33.5q70 0 127 33.5t84 92.5q36 1 71 -12t56 -38z" />
    <glyph glyph-name="obreve" unicode="&#x14f;" horiz-adv-x="1041" 
d="M957 494q0 -154 -49.5 -271.5t-147 -183.5t-240.5 -66q-144 0 -241 67t-146 184.5t-49 269.5q0 154 49.5 271.5t146.5 184t240 66.5q144 0 241.5 -67t146.5 -184.5t49 -270.5zM313 494q0 -91 17.5 -171.5t62.5 -130t128 -49.5q82 0 126.5 49.5t62.5 130t18 171.5t-18 172
t-62.5 131t-126.5 50q-83 0 -128 -50t-62.5 -131t-17.5 -172zM840 1358q-28 -112 -113.5 -183t-206.5 -71t-206 71t-114 183q20 25 53.5 37.5t67.5 12.5q24 -61 77.5 -94.5t121.5 -33.5q69 0 122 33.5t77 94.5q35 0 68.5 -12.5t52.5 -37.5z" />
    <glyph glyph-name="Ohungarumlaut" unicode="&#x150;" horiz-adv-x="1318" 
d="M334 684q0 -89 13 -182t47.5 -172t98.5 -127t166 -48t166 48t98 127t47 172t13 182t-13 181.5t-47 171t-98 126.5t-166 48t-166 -48t-98.5 -126.5t-47.5 -171t-13 -181.5zM95 684q0 204 61 364t186 252.5t317 92.5q193 0 318 -93t185.5 -253.5t60.5 -362.5
q0 -204 -61 -364.5t-186 -253.5t-317 -93q-145 0 -251 53.5t-175.5 150t-103.5 226t-34 281.5zM962 1819q55 -14 93 -53t55 -85l-327 -227q-27 12 -51 38t-32 55zM593 1819q55 -14 93 -53t55 -85l-328 -227q-27 12 -50.5 38.5t-31.5 54.5z" />
    <glyph glyph-name="ohungarumlaut" unicode="&#x151;" horiz-adv-x="1041" 
d="M957 494q0 -154 -49.5 -271.5t-147 -183.5t-240.5 -66q-144 0 -241 67t-146 184.5t-49 269.5q0 154 49.5 271.5t146.5 184t240 66.5q144 0 241.5 -67t146.5 -184.5t49 -270.5zM313 494q0 -91 17.5 -171.5t62.5 -130t128 -49.5q82 0 126.5 49.5t62.5 130t18 171.5t-18 172
t-62.5 131t-126.5 50q-83 0 -128 -50t-62.5 -131t-17.5 -172zM745 1488q61 1 110 -27.5t78 -67.5l-260 -306q-28 5 -58 24t-45 46zM414 1489q62 4 111.5 -21.5t81.5 -62.5l-240 -318q-29 3 -60 20.5t-46 42.5z" />
    <glyph glyph-name="OE" unicode="&#x152;" horiz-adv-x="1798" 
d="M996 9q-41 -5 -96.5 -13.5t-116.5 -15.5t-121 -7q-194 0 -319.5 94t-186.5 255t-61 362q0 203 62 363t187.5 253t317.5 93q59 0 120.5 -7t117 -16t96.5 -15v-218q-36 16 -92 33t-119 29t-123 12q-103 0 -168 -48t-100 -126.5t-49 -171t-14 -181.5t14 -182t49 -172
t100 -127t167 -48q61 0 124.5 11.5t119 29t91.5 32.5v-219zM852 1366h220v-188q0 -42 1 -69.5t1 -68.5v-744q0 -29 -1 -53.5t-1 -54.5v-190h-220v1368zM1566 784q6 -22 9 -49t3 -46t-3 -45t-9 -49h-366q-23 0 -59.5 0.5t-75.5 1t-70 0.5v184q31 1 70 1.5t75.5 1t59.5 0.5
h366zM1676 1366q5 -25 6.5 -48t1.5 -42q0 -20 -4.5 -48.5t-14.5 -54.5h-465h-59.5t-75 1t-69.5 2v190h680zM1717 192q0 -112 -36 -153t-115 -41h-570v185q51 3 99.5 6t111.5 3h510z" />
    <glyph glyph-name="oe" unicode="&#x153;" horiz-adv-x="1653" 
d="M934 494q0 -100 -20.5 -193t-68 -167t-127 -117.5t-198.5 -43.5q-89 0 -163 27.5t-131 84.5q-79 79 -110.5 182t-31.5 227q0 125 31.5 228.5t110.5 181.5q57 57 131 84.5t163 27.5q152 0 243 -71t131 -189.5t40 -261.5zM313 494q0 -90 17.5 -170.5t62.5 -130.5t128 -50
q82 0 126.5 50t62.5 130.5t18 170.5q0 91 -18 172t-62.5 131t-126.5 50q-83 0 -128 -50t-62.5 -131t-17.5 -172zM881 424v159h465v24q0 67 -18 122.5t-58.5 89.5t-108.5 34q-99 0 -145.5 -83t-46.5 -233v-63q0 -91 17.5 -164t66 -115.5t138.5 -42.5q74 0 142.5 21.5
t131.5 52.5q27 -26 44.5 -66t22.5 -73q-72 -52 -171.5 -83t-203.5 -31q-121 0 -198.5 43t-120.5 116.5t-59.5 167t-16.5 193.5q0 149 40.5 267t128.5 187t230 69q130 0 218.5 -57t134 -153.5t45.5 -216.5q0 -51 -3.5 -86.5t-13.5 -78.5h-661z" />
    <glyph glyph-name="Racute" unicode="&#x154;" horiz-adv-x="1205" 
d="M1086 961q0 -93 -34 -166.5t-92 -124t-128 -74.5q51 -17 86.5 -64.5t57.5 -106.5l84 -225q21 -58 42 -90t49 -55q-22 -32 -66.5 -51t-87.5 -19q-64 0 -93.5 35.5t-54.5 103.5l-96 261q-24 66 -65 111.5t-133 45.5h-244v177q43 2 100.5 4t112 3t91.5 1q94 0 145.5 34.5
t71 88.5t19.5 111q0 60 -19.5 113.5t-71 87t-145.5 33.5h-64.5t-75 0.5t-71.5 1.5v-1197q-27 -5 -57.5 -7t-57.5 -2q-23 0 -54.5 2t-57.5 7v1355l13 13q116 2 225 4.5t213 2.5q139 0 242 -47t159.5 -139t56.5 -228zM799 1816q32 -23 61.5 -75t35.5 -105l-442 -180
q-26 16 -44 50t-22 64z" />
    <glyph glyph-name="racute" unicode="&#x155;" horiz-adv-x="745" 
d="M736 990q0 -43 -13 -103t-41 -105q-21 5 -42 7t-43 4q-54 0 -95 -22.5t-70.5 -58.5t-50 -80.5t-35.5 -88.5l-31 39q3 72 20 146t52.5 136.5t94 100.5t144.5 38q30 0 55.5 -3t54.5 -10zM94 886q8 31 31 66t47 52q106 -20 158 -101t60 -204v-699q-48 -9 -110 -9
q-63 0 -112 9v680q0 81 -24 132t-50 74zM542 1487q46 -15 90 -55.5t61 -87.5l-346 -268q-29 9 -56.5 34t-39.5 55z" />
    <glyph glyph-name="uni0156" unicode="&#x156;" horiz-adv-x="1205" 
d="M1086 961q0 -93 -34 -166.5t-92 -124t-128 -74.5q51 -17 86.5 -64.5t57.5 -106.5l84 -225q21 -58 42 -90t49 -55q-22 -32 -66.5 -51t-87.5 -19q-64 0 -93.5 35.5t-54.5 103.5l-96 261q-24 66 -65 111.5t-133 45.5h-244v177q43 2 100.5 4t112 3t91.5 1q94 0 145.5 34.5
t71 88.5t19.5 111q0 60 -19.5 113.5t-71 87t-145.5 33.5h-64.5t-75 0.5t-71.5 1.5v-1197q-27 -5 -57.5 -7t-57.5 -2q-23 0 -54.5 2t-57.5 7v1355l13 13q116 2 225 4.5t213 2.5q139 0 242 -47t159.5 -139t56.5 -228zM736 -123q8 -17 13.5 -47t5.5 -58q0 -105 -69 -187
t-186 -125q-28 9 -46.5 35t-25.5 58q122 79 122 194q0 26 -7 53.5t-19 50.5q56 38 136 38q40 0 76 -12z" />
    <glyph glyph-name="uni0157" unicode="&#x157;" horiz-adv-x="745" 
d="M736 990q0 -43 -13 -103t-41 -105q-21 5 -42 7t-43 4q-54 0 -95 -22.5t-70.5 -58.5t-50 -80.5t-35.5 -88.5l-31 39q3 72 20 146t52.5 136.5t94 100.5t144.5 38q30 0 55.5 -3t54.5 -10zM94 886q8 31 31 66t47 52q106 -20 158 -101t60 -204v-699q-48 -9 -110 -9
q-63 0 -112 9v680q0 81 -24 132t-50 74zM389 -123q8 -17 13.5 -47t5.5 -58q0 -105 -69 -187t-186 -125q-28 9 -46.5 35t-25.5 58q122 79 122 194q0 26 -7 53.5t-19 50.5q56 38 136 38q40 0 76 -12z" />
    <glyph glyph-name="Rcaron" unicode="&#x158;" horiz-adv-x="1205" 
d="M1086 961q0 -93 -34 -166.5t-92 -124t-128 -74.5q51 -17 86.5 -64.5t57.5 -106.5l84 -225q21 -58 42 -90t49 -55q-22 -32 -66.5 -51t-87.5 -19q-64 0 -93.5 35.5t-54.5 103.5l-96 261q-24 66 -65 111.5t-133 45.5h-244v177q43 2 100.5 4t112 3t91.5 1q94 0 145.5 34.5
t71 88.5t19.5 111q0 60 -19.5 113.5t-71 87t-145.5 33.5h-64.5t-75 0.5t-71.5 1.5v-1197q-27 -5 -57.5 -7t-57.5 -2q-23 0 -54.5 2t-57.5 7v1355l13 13q116 2 225 4.5t213 2.5q139 0 242 -47t159.5 -139t56.5 -228zM823 1792q25 -8 54.5 -33.5t40.5 -61.5l-224 -214
q-19 -3 -45 -5.5t-52 -2.5t-51.5 2.5t-45.5 5.5l-224 214q11 36 40.5 61.5t54.5 33.5l226 -149z" />
    <glyph glyph-name="rcaron" unicode="&#x159;" horiz-adv-x="745" 
d="M736 990q0 -43 -13 -103t-41 -105q-21 5 -42 7t-43 4q-54 0 -95 -22.5t-70.5 -58.5t-50 -80.5t-35.5 -88.5l-31 39q3 72 20 146t52.5 136.5t94 100.5t144.5 38q30 0 55.5 -3t54.5 -10zM94 886q8 31 31 66t47 52q106 -20 158 -101t60 -204v-699q-48 -9 -110 -9
q-63 0 -112 9v680q0 81 -24 132t-50 74zM309 1112l-193 252q15 35 46.5 61.5t57.5 34.5l186 -181l187 181q26 -8 57.5 -34.5t46.5 -61.5l-193 -252q-43 -11 -98 -11q-54 0 -97 11z" />
    <glyph glyph-name="Sacute" unicode="&#x15a;" horiz-adv-x="1112" 
d="M56 122q4 50 32 98.5t63 76.5q87 -55 193 -94.5t209 -39.5q117 0 179.5 51t62.5 129q0 65 -43.5 117t-130.5 89l-242 101q-125 53 -200.5 137t-75.5 214q0 112 58 200.5t161.5 140t237.5 51.5q127 0 239.5 -33t190.5 -72q-2 -49 -24 -97.5t-58 -79.5q-78 39 -172.5 66.5
t-172.5 27.5q-107 0 -167 -52t-60 -125q0 -62 43.5 -102t115.5 -71l240 -100q87 -36 154.5 -90t106.5 -125.5t39 -161.5q0 -115 -54.5 -206.5t-164.5 -145t-277 -53.5q-124 0 -252.5 40t-230.5 109zM767 1816q32 -23 61.5 -75t35.5 -105l-442 -180q-26 16 -44 50t-22 64z
" />
    <glyph glyph-name="sacute" unicode="&#x15b;" horiz-adv-x="877" 
d="M58 72q2 38 23 83.5t48 71.5q64 -34 136 -61t145 -27q78 0 123.5 33t45.5 84q0 40 -30 73.5t-90 55.5l-116 43q-69 25 -126.5 63t-92 93t-34.5 131q0 93 46.5 160.5t128 104t184.5 36.5q83 0 176.5 -22.5t155.5 -51.5q2 -41 -16.5 -89t-47.5 -72q-54 24 -124.5 45.5
t-144.5 21.5q-61 0 -98 -30t-37 -79q0 -39 29 -65.5t88 -48.5l123 -46q113 -40 184.5 -113t71.5 -191q0 -140 -109 -221t-289 -81q-106 0 -196.5 30t-156.5 69zM574 1487q46 -15 90 -55.5t61 -87.5l-346 -268q-29 9 -56.5 34t-39.5 55z" />
    <glyph glyph-name="Scircumflex" unicode="&#x15c;" horiz-adv-x="1112" 
d="M56 122q4 50 32 98.5t63 76.5q87 -55 193 -94.5t209 -39.5q117 0 179.5 51t62.5 129q0 65 -43.5 117t-130.5 89l-242 101q-125 53 -200.5 137t-75.5 214q0 112 58 200.5t161.5 140t237.5 51.5q127 0 239.5 -33t190.5 -72q-2 -49 -24 -97.5t-58 -79.5q-78 39 -172.5 66.5
t-172.5 27.5q-107 0 -167 -52t-60 -125q0 -62 43.5 -102t115.5 -71l240 -100q87 -36 154.5 -90t106.5 -125.5t39 -161.5q0 -115 -54.5 -206.5t-164.5 -145t-277 -53.5q-124 0 -252.5 40t-230.5 109zM659 1783l225 -214q-11 -36 -40.5 -61.5t-54.5 -34.5l-227 149l-225 -149
q-25 9 -54.5 34.5t-41.5 61.5l225 214q43 8 96 8q55 0 97 -8z" />
    <glyph glyph-name="scircumflex" unicode="&#x15d;" horiz-adv-x="877" 
d="M58 72q2 38 23 83.5t48 71.5q64 -34 136 -61t145 -27q78 0 123.5 33t45.5 84q0 40 -30 73.5t-90 55.5l-116 43q-69 25 -126.5 63t-92 93t-34.5 131q0 93 46.5 160.5t128 104t184.5 36.5q83 0 176.5 -22.5t155.5 -51.5q2 -41 -16.5 -89t-47.5 -72q-54 24 -124.5 45.5
t-144.5 21.5q-61 0 -98 -30t-37 -79q0 -39 29 -65.5t88 -48.5l123 -46q113 -40 184.5 -113t71.5 -191q0 -140 -109 -221t-289 -81q-106 0 -196.5 30t-156.5 69zM540 1441l193 -251q-15 -36 -47 -62t-57 -34l-187 181l-186 -181q-26 8 -57.5 34t-46.5 62l193 251q41 12 97 12
q57 0 98 -12z" />
    <glyph glyph-name="Scedilla" unicode="&#x15e;" horiz-adv-x="1112" 
d="M56 122q4 50 32 98.5t63 76.5q87 -55 193 -94.5t209 -39.5q117 0 179.5 51t62.5 129q0 65 -43.5 117t-130.5 89l-242 101q-125 53 -200.5 137t-75.5 214q0 112 58 200.5t161.5 140t237.5 51.5q127 0 239.5 -33t190.5 -72q-2 -49 -24 -97.5t-58 -79.5q-78 39 -172.5 66.5
t-172.5 27.5q-107 0 -167 -52t-60 -125q0 -62 43.5 -102t115.5 -71l240 -100q87 -36 154.5 -90t106.5 -125.5t39 -161.5q0 -115 -54.5 -206.5t-164.5 -145t-277 -53.5q-124 0 -252.5 40t-230.5 109zM413 -149q12 33 33.5 81.5t38.5 79.5h133q-10 -14 -23.5 -40.5
t-20.5 -43.5q76 -7 128.5 -54t52.5 -122q0 -88 -69.5 -144.5t-176.5 -56.5q-47 0 -90.5 12t-68.5 29q2 30 13.5 59t28.5 50q19 -11 45.5 -19t53.5 -8q45 0 66 22t21 52q0 31 -21 53t-61 22q-12 0 -24 -2.5t-22 -7.5q-27 13 -37 38z" />
    <glyph glyph-name="scedilla" unicode="&#x15f;" horiz-adv-x="877" 
d="M58 72q2 38 23 83.5t48 71.5q64 -34 136 -61t145 -27q78 0 123.5 33t45.5 84q0 40 -30 73.5t-90 55.5l-116 43q-69 25 -126.5 63t-92 93t-34.5 131q0 93 46.5 160.5t128 104t184.5 36.5q83 0 176.5 -22.5t155.5 -51.5q2 -41 -16.5 -89t-47.5 -72q-54 24 -124.5 45.5
t-144.5 21.5q-61 0 -98 -30t-37 -79q0 -39 29 -65.5t88 -48.5l123 -46q113 -40 184.5 -113t71.5 -191q0 -140 -109 -221t-289 -81q-106 0 -196.5 30t-156.5 69zM307 -149q12 33 33.5 81.5t38.5 79.5h133q-10 -14 -23.5 -40.5t-20.5 -43.5q76 -7 128.5 -54t52.5 -122
q0 -88 -69.5 -144.5t-176.5 -56.5q-47 0 -90.5 12t-68.5 29q2 30 13.5 59t28.5 50q19 -11 45.5 -19t53.5 -8q45 0 66 22t21 52q0 31 -21 53t-61 22q-12 0 -24 -2.5t-22 -7.5q-27 13 -37 38z" />
    <glyph glyph-name="Scaron" unicode="&#x160;" horiz-adv-x="1112" 
d="M56 122q4 50 32 98.5t63 76.5q87 -55 193 -94.5t209 -39.5q117 0 179.5 51t62.5 129q0 65 -43.5 117t-130.5 89l-242 101q-125 53 -200.5 137t-75.5 214q0 112 58 200.5t161.5 140t237.5 51.5q127 0 239.5 -33t190.5 -72q-2 -49 -24 -97.5t-58 -79.5q-78 39 -172.5 66.5
t-172.5 27.5q-107 0 -167 -52t-60 -125q0 -62 43.5 -102t115.5 -71l240 -100q87 -36 154.5 -90t106.5 -125.5t39 -161.5q0 -115 -54.5 -206.5t-164.5 -145t-277 -53.5q-124 0 -252.5 40t-230.5 109zM791 1792q25 -8 54.5 -33.5t40.5 -61.5l-224 -214q-19 -3 -45 -5.5
t-52 -2.5t-51.5 2.5t-45.5 5.5l-224 214q11 36 40.5 61.5t54.5 33.5l226 -149z" />
    <glyph glyph-name="scaron" unicode="&#x161;" horiz-adv-x="877" 
d="M58 72q2 38 23 83.5t48 71.5q64 -34 136 -61t145 -27q78 0 123.5 33t45.5 84q0 40 -30 73.5t-90 55.5l-116 43q-69 25 -126.5 63t-92 93t-34.5 131q0 93 46.5 160.5t128 104t184.5 36.5q83 0 176.5 -22.5t155.5 -51.5q2 -41 -16.5 -89t-47.5 -72q-54 24 -124.5 45.5
t-144.5 21.5q-61 0 -98 -30t-37 -79q0 -39 29 -65.5t88 -48.5l123 -46q113 -40 184.5 -113t71.5 -191q0 -140 -109 -221t-289 -81q-106 0 -196.5 30t-156.5 69zM341 1112l-193 252q15 35 46.5 61.5t57.5 34.5l186 -181l187 181q26 -8 57.5 -34.5t46.5 -61.5l-193 -252
q-43 -11 -98 -11q-54 0 -97 11z" />
    <glyph glyph-name="uni0162" unicode="&#x162;" horiz-adv-x="989" 
d="M32 1174q-5 25 -7 50t-2 45q0 21 2 46.5t7 50.5h930q13 -42 13 -90q0 -55 -31 -78.5t-96 -23.5h-120q-20 0 -58 1t-59 1h-229q-20 0 -57.5 -1t-59.5 -1h-233zM382 1028q0 41 0.5 73.5t0.5 74.5v95h227v-95q0 -42 0.5 -74.5t0.5 -73.5v-1028q-28 -5 -58.5 -7t-55.5 -2
t-56 2t-59 7v1028zM369 -149q12 33 33.5 81.5t38.5 79.5h133q-10 -14 -23.5 -40.5t-20.5 -43.5q76 -7 128.5 -54t52.5 -122q0 -88 -69.5 -144.5t-176.5 -56.5q-47 0 -90.5 12t-68.5 29q2 30 13.5 59t28.5 50q19 -11 45.5 -19t53.5 -8q45 0 66 22t21 52q0 31 -21 53t-61 22
q-12 0 -24 -2.5t-22 -7.5q-27 13 -37 38z" />
    <glyph glyph-name="uni0163" unicode="&#x163;" horiz-adv-x="708" 
d="M188 1154q0 75 25.5 107.5t94.5 32.5h85l12 -12v-1029q0 -40 19.5 -63.5t64.5 -23.5h134q18 -51 18 -111q0 -12 -0.5 -25t-4.5 -23q-50 -7 -109.5 -11.5t-118.5 -4.5q-107 0 -163.5 54t-56.5 162v947zM652 991q9 -42 9 -81q0 -42 -9 -82l-334 5l-277 -5q-10 40 -10 82
q0 39 10 81l280 -5zM274 -149q12 33 33.5 81.5t38.5 79.5h133q-10 -14 -23.5 -40.5t-20.5 -43.5q76 -7 128.5 -54t52.5 -122q0 -88 -69.5 -144.5t-176.5 -56.5q-47 0 -90.5 12t-68.5 29q2 30 13.5 59t28.5 50q19 -11 45.5 -19t53.5 -8q45 0 66 22t21 52q0 31 -21 53t-61 22
q-12 0 -24 -2.5t-22 -7.5q-27 13 -37 38z" />
    <glyph glyph-name="Tcaron" unicode="&#x164;" horiz-adv-x="989" 
d="M32 1174q-5 25 -7 50t-2 45q0 21 2 46.5t7 50.5h930q13 -42 13 -90q0 -55 -31 -78.5t-96 -23.5h-120q-20 0 -58 1t-59 1h-229q-20 0 -57.5 -1t-59.5 -1h-233zM382 1028q0 41 0.5 73.5t0.5 74.5v95h227v-95q0 -42 0.5 -74.5t0.5 -73.5v-1028q-28 -5 -58.5 -7t-55.5 -2
t-56 2t-59 7v1028zM722 1792q25 -8 54.5 -33.5t40.5 -61.5l-224 -214q-19 -3 -45 -5.5t-52 -2.5t-51.5 2.5t-45.5 5.5l-224 214q11 36 40.5 61.5t54.5 33.5l226 -149z" />
    <glyph glyph-name="tcaron" unicode="&#x165;" horiz-adv-x="743" 
d="M539 1506q25 7 58 7q37 1 71 -7.5t59 -25.5l-76 -365q-22 -7 -48 -7q-22 -1 -45 4t-37 12zM188 1154q0 75 25.5 107.5t94.5 32.5h85l12 -12v-1029q0 -40 19.5 -63.5t64.5 -23.5h134q18 -51 18 -111q0 -12 -0.5 -25t-4.5 -23q-50 -7 -109.5 -11.5t-118.5 -4.5
q-107 0 -163.5 54t-56.5 162v947zM652 991q9 -42 9 -81q0 -42 -9 -82l-334 5l-277 -5q-10 40 -10 82q0 39 10 81l280 -5z" />
    <glyph glyph-name="Tbar" unicode="&#x166;" horiz-adv-x="989" 
d="M137 571q-11 40 -11 87q0 25 2.5 45t8.5 43h719q5 -23 7 -41.5t2 -45.5q0 -46 -9 -88h-719zM31 1174q-5 25 -6.5 50t-1.5 45q0 21 1.5 46.5t6.5 50.5h930q13 -42 13 -90q0 -55 -30.5 -78.5t-95.5 -23.5h-121q-20 0 -57.5 1t-58.5 1h-229q-21 0 -58.5 -1t-58.5 -1h-234z
M382 1028q0 41 0.5 73.5t0.5 74.5v95h226v-95q0 -42 1 -74.5t1 -73.5v-1028q-28 -5 -59 -7t-56 -2t-56 2t-58 7v1028z" />
    <glyph glyph-name="tbar" unicode="&#x167;" horiz-adv-x="747" 
d="M619 627q5 -22 7.5 -37.5t2.5 -35.5q0 -22 -2.5 -38t-7.5 -36l-282 4l-264 -4q-5 20 -7.5 36t-2.5 38q0 20 2.5 35.5t7.5 37.5l267 -5zM199 1154q0 75 25.5 107.5t94.5 32.5h84l13 -12v-1029q0 -40 19 -63.5t64 -23.5h134q18 -50 18 -111q0 -12 -0.5 -25t-3.5 -23
q-51 -7 -110.5 -11.5t-118.5 -4.5q-107 0 -163 54t-56 162v947zM662 991q5 -22 7 -41t2 -40q0 -22 -2 -42t-7 -40l-334 5l-277 -5q-5 20 -7 40t-2 42q0 21 2 40t7 41l280 -5z" />
    <glyph glyph-name="Utilde" unicode="&#x168;" horiz-adv-x="1339" 
d="M1180 483q0 -166 -62.5 -279.5t-177.5 -172t-272 -58.5q-155 0 -269.5 58.5t-177 172t-62.5 279.5v880l13 13h86q70 0 100 -35.5t30 -111.5v-746q0 -160 70.5 -242.5t211.5 -82.5q140 0 210.5 82.5t70.5 242.5v883q27 5 56.5 7t54.5 2q26 0 58.5 -2t59.5 -7v-883z
M577 1565q-16 8 -31.5 13t-33.5 5q-21 0 -41.5 -12.5t-37.5 -36.5l-22 -28q-33 1 -65.5 19.5t-45.5 48.5l15 32q32 73 86 115t126 42q35 0 65.5 -10t55.5 -22l104 -50q18 -9 36 -14.5t34 -5.5q21 0 41 12.5t38 36.5l22 29q33 -1 66 -20t45 -48l-15 -33q-31 -72 -85.5 -114
t-126.5 -42q-35 0 -66 10t-55 22z" />
    <glyph glyph-name="utilde" unicode="&#x169;" horiz-adv-x="1095" 
d="M941 280q0 -56 12.5 -105.5t43.5 -76.5q-8 -30 -31 -63t-49 -50q-103 17 -150.5 93.5t-47.5 177.5v733q47 9 111 9q62 0 111 -9v-709zM142 772q0 53 -7 100.5t-28 82.5q24 21 61.5 34t78.5 13q65 0 91 -35.5t26 -104.5v-497q0 -95 25 -139t94 -44q48 0 103.5 23
t106.5 66.5t82 103.5v-209q-67 -76 -162 -130t-203 -54q-93 0 -152 44t-87.5 119.5t-28.5 168.5v458zM460 1191q-10 6 -27.5 13t-37.5 7q-29 0 -48 -17.5t-30 -31.5l-21 -29q-32 2 -63.5 20.5t-43.5 48.5l17 39q30 68 83.5 109t118.5 41q36 0 66.5 -10.5t49.5 -20.5l85 -45
q11 -5 28.5 -13t37.5 -8q28 0 46 16.5t31 33.5l22 28q31 -1 62.5 -20.5t43.5 -48.5l-17 -39q-31 -71 -84.5 -110.5t-118.5 -39.5q-34 0 -63 9.5t-52 22.5z" />
    <glyph glyph-name="Umacron" unicode="&#x16a;" horiz-adv-x="1339" 
d="M1180 483q0 -166 -62.5 -279.5t-177.5 -172t-272 -58.5q-155 0 -269.5 58.5t-177 172t-62.5 279.5v880l13 13h86q70 0 100 -35.5t30 -111.5v-746q0 -160 70.5 -242.5t211.5 -82.5q140 0 210.5 82.5t70.5 242.5v883q27 5 56.5 7t54.5 2q26 0 58.5 -2t59.5 -7v-883z
M367 1512q-6 22 -8.5 41.5t-2.5 44.5t2.5 45t8.5 43h601q6 -23 8 -41.5t2 -44.5q0 -49 -10 -88h-601z" />
    <glyph glyph-name="umacron" unicode="&#x16b;" horiz-adv-x="1095" 
d="M941 280q0 -56 12.5 -105.5t43.5 -76.5q-8 -30 -31 -63t-49 -50q-103 17 -150.5 93.5t-47.5 177.5v733q47 9 111 9q62 0 111 -9v-709zM142 772q0 53 -7 100.5t-28 82.5q24 21 61.5 34t78.5 13q65 0 91 -35.5t26 -104.5v-497q0 -95 25 -139t94 -44q48 0 103.5 23
t106.5 66.5t82 103.5v-209q-67 -76 -162 -130t-203 -54q-93 0 -152 44t-87.5 119.5t-28.5 168.5v458zM250 1150q-6 22 -8.5 41.5t-2.5 44.5t2.5 45t8.5 43h569q6 -23 8 -41.5t2 -45.5q0 -49 -10 -87h-569z" />
    <glyph glyph-name="Ubreve" unicode="&#x16c;" horiz-adv-x="1339" 
d="M1180 483q0 -166 -62.5 -279.5t-177.5 -172t-272 -58.5q-155 0 -269.5 58.5t-177 172t-62.5 279.5v880l13 13h86q70 0 100 -35.5t30 -111.5v-746q0 -160 70.5 -242.5t211.5 -82.5q140 0 210.5 82.5t70.5 242.5v883q27 5 56.5 7t54.5 2q26 0 58.5 -2t59.5 -7v-883z
M1005 1722q-31 -109 -122 -178.5t-216 -69.5q-126 0 -216 69.5t-122 178.5q22 25 57 38t70 12q27 -59 84.5 -92.5t126.5 -33.5q70 0 127 33.5t84 92.5q36 1 71 -12t56 -38z" />
    <glyph glyph-name="ubreve" unicode="&#x16d;" horiz-adv-x="1095" 
d="M941 280q0 -56 12.5 -105.5t43.5 -76.5q-8 -30 -31 -63t-49 -50q-103 17 -150.5 93.5t-47.5 177.5v733q47 9 111 9q62 0 111 -9v-709zM142 772q0 53 -7 100.5t-28 82.5q24 21 61.5 34t78.5 13q65 0 91 -35.5t26 -104.5v-497q0 -95 25 -139t94 -44q48 0 103.5 23
t106.5 66.5t82 103.5v-209q-67 -76 -162 -130t-203 -54q-93 0 -152 44t-87.5 119.5t-28.5 168.5v458zM854 1358q-28 -112 -113.5 -183t-206.5 -71t-206 71t-114 183q20 25 53.5 37.5t67.5 12.5q24 -61 77.5 -94.5t121.5 -33.5q69 0 122 33.5t77 94.5q35 0 68.5 -12.5
t52.5 -37.5z" />
    <glyph glyph-name="Uring" unicode="&#x16e;" horiz-adv-x="1339" 
d="M1180 483q0 -166 -62.5 -279.5t-177.5 -172t-272 -58.5q-155 0 -269.5 58.5t-177 172t-62.5 279.5v880l13 13h86q70 0 100 -35.5t30 -111.5v-746q0 -160 70.5 -242.5t211.5 -82.5q140 0 210.5 82.5t70.5 242.5v883q27 5 56.5 7t54.5 2q26 0 58.5 -2t59.5 -7v-883z
M419 1564q0 95 69 163t179 68t179 -68t69 -163t-69 -163.5t-179 -68.5t-179 68.5t-69 163.5zM567 1564q0 -46 28 -77t72 -31q45 0 72.5 31t27.5 77t-27.5 76.5t-72.5 30.5q-44 0 -72 -30.5t-28 -76.5z" />
    <glyph glyph-name="uring" unicode="&#x16f;" horiz-adv-x="1095" 
d="M941 280q0 -56 12.5 -105.5t43.5 -76.5q-8 -30 -31 -63t-49 -50q-103 17 -150.5 93.5t-47.5 177.5v733q47 9 111 9q62 0 111 -9v-709zM142 772q0 53 -7 100.5t-28 82.5q24 21 61.5 34t78.5 13q65 0 91 -35.5t26 -104.5v-497q0 -95 25 -139t94 -44q48 0 103.5 23
t106.5 66.5t82 103.5v-209q-67 -76 -162 -130t-203 -54q-93 0 -152 44t-87.5 119.5t-28.5 168.5v458zM286 1310q0 -95 69 -163.5t179 -68.5t179 68.5t69 163.5q0 96 -69 163.5t-179 67.5t-179 -67.5t-69 -163.5zM434 1310q0 47 28 77.5t72 30.5q45 0 72.5 -30.5t27.5 -77.5
q0 -46 -27.5 -77t-72.5 -31q-44 0 -72 31t-28 77z" />
    <glyph glyph-name="Uhungarumlaut" unicode="&#x170;" horiz-adv-x="1339" 
d="M1180 483q0 -166 -62.5 -279.5t-177.5 -172t-272 -58.5q-155 0 -269.5 58.5t-177 172t-62.5 279.5v880l13 13h86q70 0 100 -35.5t30 -111.5v-746q0 -160 70.5 -242.5t211.5 -82.5q140 0 210.5 82.5t70.5 242.5v883q27 5 56.5 7t54.5 2q26 0 58.5 -2t59.5 -7v-883z
M970 1819q55 -14 93 -53t55 -85l-327 -227q-27 12 -51 38t-32 55zM601 1819q55 -14 93 -53t55 -85l-328 -227q-27 12 -50.5 38.5t-31.5 54.5z" />
    <glyph glyph-name="uhungarumlaut" unicode="&#x171;" horiz-adv-x="1095" 
d="M941 280q0 -56 12.5 -105.5t43.5 -76.5q-8 -30 -31 -63t-49 -50q-103 17 -150.5 93.5t-47.5 177.5v733q47 9 111 9q62 0 111 -9v-709zM142 772q0 53 -7 100.5t-28 82.5q24 21 61.5 34t78.5 13q65 0 91 -35.5t26 -104.5v-497q0 -95 25 -139t94 -44q48 0 103.5 23
t106.5 66.5t82 103.5v-209q-67 -76 -162 -130t-203 -54q-93 0 -152 44t-87.5 119.5t-28.5 168.5v458zM759 1488q61 1 110 -27.5t78 -67.5l-260 -306q-28 5 -58 24t-45 46zM428 1489q62 4 111.5 -21.5t81.5 -62.5l-240 -318q-29 3 -60 20.5t-46 42.5z" />
    <glyph glyph-name="Uogonek" unicode="&#x172;" horiz-adv-x="1339" 
d="M159 483v880l13 13h86q70 0 100 -35.5t30 -111.5v-746q0 -160 70.5 -242.5t211.5 -82.5q140 0 210.5 82.5t70.5 242.5v883q27 5 56.5 7t54.5 2q26 0 58.5 -2t59.5 -7v-870q0 -149 -45 -254.5t-167 -189.5q-44 -30 -92.5 -66.5t-82 -82t-33.5 -101.5q0 -47 27.5 -69
t67.5 -22q32 0 62 10.5t52 22.5q20 -17 34.5 -45t16.5 -62q-36 -29 -94 -50.5t-122 -21.5q-94 0 -156.5 49.5t-62.5 139.5q0 81 50 149.5t121 114.5l25 -36q-29 -5 -59.5 -7t-55.5 -2q-154 0 -267.5 58.5t-176.5 172t-63 279.5z" />
    <glyph glyph-name="uogonek" unicode="&#x173;" horiz-adv-x="1095" 
d="M941 280q0 -56 15.5 -102.5t51.5 -76.5l-166 -88q-64 36 -93.5 100.5t-29.5 142.5v733q47 9 111 9q62 0 111 -9v-709zM142 772q0 53 -7 100.5t-28 82.5q24 21 61.5 34t78.5 13q65 0 91 -35.5t26 -104.5v-497q0 -95 25 -139t94 -44q48 0 103.5 23t106.5 66.5t82 103.5
v-209q-67 -76 -162 -130t-203 -54q-93 0 -152 44t-87.5 119.5t-28.5 168.5v458zM1005 -256q19 -17 34 -45t16 -62q-36 -29 -94 -50.5t-121 -21.5q-95 0 -157 49.5t-62 139.5q0 66 32.5 123.5t82 104t99.5 78.5l173 41q-13 -33 -37 -62t-59 -61q-48 -41 -82.5 -83.5
t-34.5 -95.5q0 -43 27.5 -65.5t67.5 -22.5q32 0 62 10.5t53 22.5z" />
    <glyph glyph-name="Wcircumflex" unicode="&#x174;" horiz-adv-x="1716" 
d="M56 1354q31 13 62.5 20t62.5 7q57 0 84.5 -26.5t38.5 -97.5l119 -655q10 -53 22 -126t23.5 -144t18.5 -119q2 -17 5.5 -20t11.5 -3l211 1148q33 5 74.5 7.5t73.5 2.5q34 0 75.5 -2.5t71.5 -7.5l193 -1125q3 -16 7 -19.5t12 -3.5q8 60 20.5 135.5t25.5 149.5t23 129
l148 762q24 5 51.5 7t51.5 2q26 0 55.5 -3.5t53.5 -11.5l11 -14l-283 -1344q-41 -6 -99.5 -9t-102.5 -3q-52 0 -90.5 19t-50.5 91l-92 521q-17 101 -38 233t-39 256h-14q-19 -124 -41.5 -255t-42.5 -234l-119 -620q-42 -5 -96 -8t-99 -3q-54 0 -94.5 19t-55.5 92zM957 1783
l225 -214q-11 -36 -40.5 -61.5t-54.5 -34.5l-227 149l-225 -149q-25 9 -54.5 34.5t-41.5 61.5l225 214q43 8 96 8q55 0 97 -8z" />
    <glyph glyph-name="wcircumflex" unicode="&#x175;" horiz-adv-x="1455" 
d="M40 976q37 15 68.5 21.5t59.5 6.5q46 0 70.5 -21.5t34.5 -69.5l85 -402q21 -94 38 -183t26 -146q4 -17 16 -17l160 819q25 5 67 7.5t64 2.5q24 0 66.5 -2.5t66.5 -7.5l155 -802q4 -17 16 -17q17 84 33.5 170t36.5 176l106 478q19 5 44 7t49 2q25 0 57.5 -3.5t54.5 -13.5
l7 -13l-242 -969q-33 -5 -80 -7t-86 -2q-64 0 -101 20t-51 96l-53 269q-10 52 -22.5 120.5t-25.5 143.5t-26 145h-10q-12 -70 -26 -144.5t-27.5 -142.5t-23.5 -121l-78 -376q-36 -5 -85 -7.5t-90 -2.5q-58 0 -94.5 21.5t-54.5 96.5zM832 1441l193 -251q-15 -36 -47 -62
t-57 -34l-187 181l-186 -181q-26 8 -57.5 34t-46.5 62l193 251q41 12 97 12q57 0 98 -12z" />
    <glyph glyph-name="Ycircumflex" unicode="&#x176;" horiz-adv-x="1018" 
d="M395 573h229v-573q-26 -5 -57 -7t-57 -2q-24 0 -56.5 2t-58.5 7v573zM789 1366q24 6 48.5 8t46.5 2q30 0 59 -4t53 -12l9 -15l-398 -951h-192l-401 946q37 20 73 30.5t70 10.5q48 0 75 -23.5t47 -74.5l149 -363q22 -54 45 -122.5t40 -132.5h11q11 42 27.5 90.5t33 94
t29.5 76.5zM610 1783l225 -214q-11 -36 -40.5 -61.5t-54.5 -34.5l-227 149l-225 -149q-25 9 -54.5 34.5t-41.5 61.5l225 214q43 8 96 8q55 0 97 -8z" />
    <glyph glyph-name="ycircumflex" unicode="&#x177;" horiz-adv-x="944" 
d="M661 30q-43 -149 -95.5 -253.5t-136.5 -159t-220 -54.5q-49 0 -107.5 11t-91.5 22q-3 39 11 86.5t36 72.5q26 -8 69 -16.5t83 -8.5q65 0 109 28.5t73.5 81.5t51.5 125l7 24q-65 2 -104 25.5t-58 85.5l-258 872q37 16 72.5 24t62.5 8q39 0 67 -20.5t44 -77.5l129 -449
q13 -44 26 -97.5t24.5 -104t19.5 -87.5q4 -14 18 -14l213 835q20 5 45.5 7t47.5 2q30 0 59.5 -3t56.5 -13l8 -13zM572 1441l193 -251q-15 -36 -47 -62t-57 -34l-187 181l-186 -181q-26 8 -57.5 34t-46.5 62l193 251q41 12 97 12q57 0 98 -12z" />
    <glyph glyph-name="Ydieresis" unicode="&#x178;" horiz-adv-x="1018" 
d="M395 573h229v-573q-26 -5 -57 -7t-57 -2q-24 0 -56.5 2t-58.5 7v573zM789 1366q24 6 48.5 8t46.5 2q30 0 59 -4t53 -12l9 -15l-398 -951h-192l-401 946q37 20 73 30.5t70 10.5q48 0 75 -23.5t47 -74.5l149 -363q22 -54 45 -122.5t40 -132.5h11q11 42 27.5 90.5t33 94
t29.5 76.5zM728 1486q-28 0 -56.5 6.5t-48.5 18.5q-9 21 -12 44t-3 41q0 19 3 41.5t12 44.5q20 11 48.5 17.5t56.5 6.5q26 0 55 -6.5t49 -17.5q9 -22 12 -44.5t3 -41.5q0 -18 -3 -41t-12 -44q-20 -12 -49 -18.5t-55 -6.5zM303 1486q-27 0 -56 6.5t-49 18.5q-8 21 -11.5 44
t-3.5 41q0 19 3.5 41.5t11.5 44.5q20 11 49 17.5t56 6.5q26 0 55.5 -6.5t49.5 -17.5q8 -22 11.5 -44.5t3.5 -41.5q0 -18 -3.5 -41t-11.5 -44q-20 -12 -49.5 -18.5t-55.5 -6.5z" />
    <glyph glyph-name="Zacute" unicode="&#x179;" horiz-adv-x="1129" 
d="M619 975q30 46 72.5 101t84.5 108l-6 6q-26 -4 -68 -7t-89.5 -4.5t-88.5 -2.5t-65 -1h-317q-5 20 -7 39t-2 38q0 30 4 57.5t13 56.5h833q15 -51 22 -79t9 -42t2 -25q0 -21 -6.5 -42.5t-23.5 -46.5l-493 -731q-32 -47 -75.5 -104.5t-82.5 -106.5l6 -6q64 6 132.5 9
t118.5 3h194q78 0 136 10.5t98 28.5q7 -23 12 -51.5t5 -56.5q0 -62 -40 -94t-116 -32h-761q-13 50 -18.5 77t-7.5 41t-2 25q0 23 7 48t23 47zM771 1816q32 -23 61.5 -75t35.5 -105l-442 -180q-26 16 -44 50t-22 64z" />
    <glyph glyph-name="zacute" unicode="&#x17a;" horiz-adv-x="893" 
d="M415 631q34 46 78 97.5t80 94.5l-6 8q-30 -4 -76 -7t-96 -4.5t-91 -1.5h-202q-4 18 -5.5 37.5t-1.5 33.5q0 22 3.5 48.5t8.5 51.5h673q17 -46 24.5 -75.5t7.5 -53.5q0 -17 -6.5 -36t-19.5 -38l-314 -422q-34 -46 -76 -98t-79 -95l6 -7q49 4 97 6.5t85 2.5h91
q65 0 119.5 6t91.5 22q22 -51 22 -97q0 -48 -29 -76t-106 -28h-598q-16 46 -22.5 72t-6.5 47q0 19 7.5 40t26.5 47zM585 1487q46 -15 90 -55.5t61 -87.5l-346 -268q-29 9 -56.5 34t-39.5 55z" />
    <glyph glyph-name="Zdotaccent" unicode="&#x17b;" horiz-adv-x="1129" 
d="M619 975q30 46 72.5 101t84.5 108l-6 6q-26 -4 -68 -7t-89.5 -4.5t-88.5 -2.5t-65 -1h-317q-5 20 -7 39t-2 38q0 30 4 57.5t13 56.5h833q15 -51 22 -79t9 -42t2 -25q0 -21 -6.5 -42.5t-23.5 -46.5l-493 -731q-32 -47 -75.5 -104.5t-82.5 -106.5l6 -6q64 6 132.5 9
t118.5 3h194q78 0 136 10.5t98 28.5q7 -23 12 -51.5t5 -56.5q0 -62 -40 -94t-116 -32h-761q-13 50 -18.5 77t-7.5 41t-2 25q0 23 7 48t23 47zM434 1605q0 51 19 93q20 11 52.5 18t63.5 7q29 0 64 -7t52 -18q8 -19 13.5 -45t5.5 -48q0 -53 -19 -93q-16 -11 -51.5 -18.5
t-64.5 -7.5q-31 0 -64.5 7t-51.5 19q-19 40 -19 93z" />
    <glyph glyph-name="zdotaccent" unicode="&#x17c;" horiz-adv-x="893" 
d="M415 631q34 46 78 97.5t80 94.5l-6 8q-30 -4 -76 -7t-96 -4.5t-91 -1.5h-202q-4 18 -5.5 37.5t-1.5 33.5q0 22 3.5 48.5t8.5 51.5h673q17 -46 24.5 -75.5t7.5 -53.5q0 -17 -6.5 -36t-19.5 -38l-314 -422q-34 -46 -76 -98t-79 -95l6 -7q49 4 97 6.5t85 2.5h91
q65 0 119.5 6t91.5 22q22 -51 22 -97q0 -48 -29 -76t-106 -28h-598q-16 46 -22.5 72t-6.5 47q0 19 7.5 40t26.5 47zM314 1258q0 52 19 93q20 11 52.5 18.5t63.5 7.5q29 0 64 -7.5t52 -18.5q8 -19 13.5 -45t5.5 -48q0 -52 -19 -94q-16 -11 -51.5 -18t-64.5 -7q-31 0 -64.5 7
t-51.5 18q-19 42 -19 94z" />
    <glyph glyph-name="Zcaron" unicode="&#x17d;" horiz-adv-x="1129" 
d="M619 975q30 46 72.5 101t84.5 108l-6 6q-26 -4 -68 -7t-89.5 -4.5t-88.5 -2.5t-65 -1h-317q-5 20 -7 39t-2 38q0 30 4 57.5t13 56.5h833q15 -51 22 -79t9 -42t2 -25q0 -21 -6.5 -42.5t-23.5 -46.5l-493 -731q-32 -47 -75.5 -104.5t-82.5 -106.5l6 -6q64 6 132.5 9
t118.5 3h194q78 0 136 10.5t98 28.5q7 -23 12 -51.5t5 -56.5q0 -62 -40 -94t-116 -32h-761q-13 50 -18.5 77t-7.5 41t-2 25q0 23 7 48t23 47zM795 1792q25 -8 54.5 -33.5t40.5 -61.5l-224 -214q-19 -3 -45 -5.5t-52 -2.5t-51.5 2.5t-45.5 5.5l-224 214q11 36 40.5 61.5
t54.5 33.5l226 -149z" />
    <glyph glyph-name="zcaron" unicode="&#x17e;" horiz-adv-x="893" 
d="M415 631q34 46 78 97.5t80 94.5l-6 8q-30 -4 -76 -7t-96 -4.5t-91 -1.5h-202q-4 18 -5.5 37.5t-1.5 33.5q0 22 3.5 48.5t8.5 51.5h673q17 -46 24.5 -75.5t7.5 -53.5q0 -17 -6.5 -36t-19.5 -38l-314 -422q-34 -46 -76 -98t-79 -95l6 -7q49 4 97 6.5t85 2.5h91
q65 0 119.5 6t91.5 22q22 -51 22 -97q0 -48 -29 -76t-106 -28h-598q-16 46 -22.5 72t-6.5 47q0 19 7.5 40t26.5 47zM352 1112l-193 252q15 35 46.5 61.5t57.5 34.5l186 -181l187 181q26 -8 57.5 -34.5t46.5 -61.5l-193 -252q-43 -11 -98 -11q-54 0 -97 11z" />
    <glyph glyph-name="longs" unicode="&#x17f;" horiz-adv-x="721" 
d="M316 987l-2 -162l-276 -5q-9 40 -9 86q0 43 9 85zM210 1108q0 108 39.5 191.5t118 131t194.5 47.5q59 0 123.5 -14t110.5 -36q1 -38 -13 -81.5t-37 -67.5q-36 13 -76 21.5t-72 8.5q-96 0 -132.5 -63t-36.5 -157v-1089q-25 -4 -54 -6.5t-57 -2.5q-26 0 -54.5 2.5
t-53.5 6.5v1108z" />
    <glyph glyph-name="uni018F" unicode="&#x18f;" horiz-adv-x="1270" 
d="M1005 771v-188h-669v-77q0 -159 71 -255.5t208 -96.5q149 0 234.5 120.5t85.5 333.5v130q0 222 -103 341.5t-286 119.5q-83 0 -167.5 -25t-166.5 -70q-38 31 -59 81t-19 95q98 52 209.5 82t226.5 30q283 0 444 -184.5t161 -535.5q0 -221 -67.5 -377.5t-194.5 -239
t-305 -82.5q-248 0 -379 161t-131 441q0 50 5 102.5t13 93.5h889z" />
    <glyph glyph-name="florin" unicode="&#x192;" horiz-adv-x="1080" 
d="M508 734l388 4q8 -42 8 -81q0 -42 -8 -82l-389 5l-297 -5q-4 20 -6 41t-2 41t2 40.5t6 40.5zM461 930q33 173 116.5 265.5t238.5 92.5q59 0 124.5 -16t114.5 -46q-5 -37 -24.5 -81t-45.5 -69q-69 38 -139 38q-74 0 -111.5 -50.5t-60.5 -173.5l-140 -736
q-29 -159 -87 -254t-139.5 -136.5t-183.5 -41.5q-59 0 -119 13.5t-106 39.5q1 40 20.5 85.5t45.5 68.5q30 -14 65.5 -23.5t73.5 -9.5q48 0 88.5 25t72 88t53.5 178z" />
    <glyph glyph-name="Ohorn" unicode="&#x1a0;" horiz-adv-x="1322" 
d="M95 684q0 209 62.5 368.5t189 250t316.5 90.5q71 0 120 -10t88.5 -20t81.5 -10q65 0 95.5 28t30.5 67q0 28 -11 59.5t-23 51.5q31 29 79.5 46.5t102.5 14.5q18 -27 34.5 -76t16.5 -101q0 -85 -54.5 -144.5t-160.5 -81.5q81 -93 120.5 -231t39.5 -302q0 -204 -61 -364.5
t-186 -253.5t-317 -93q-145 0 -251 53.5t-175.5 150t-103.5 226t-34 281.5zM334 684q0 -89 13 -182t47.5 -172t98.5 -127t166 -48t166 48t98 127t47 172t13 182t-13 181.5t-47 171t-98 126.5t-166 48t-166 -48t-98.5 -126.5t-47.5 -171t-13 -181.5z" />
    <glyph glyph-name="ohorn" unicode="&#x1a1;" horiz-adv-x="1045" 
d="M84 494q0 158 51 275t148 182t235 65q56 0 94 -9t68.5 -18t62.5 -9q46 0 73 23.5t27 63.5q0 26 -10.5 53t-22.5 48q24 28 69 45t97 14q18 -23 35.5 -69t17.5 -96q0 -69 -42.5 -125.5t-132.5 -81.5q51 -67 77 -159t26 -202q0 -154 -49.5 -271.5t-147 -183.5t-240.5 -66
q-144 0 -241 67t-146 184.5t-49 269.5zM313 494q0 -91 17.5 -171.5t62.5 -130t128 -49.5q82 0 126.5 49.5t62.5 130t18 171.5t-18 172t-62.5 131t-126.5 50q-83 0 -128 -50t-62.5 -131t-17.5 -172z" />
    <glyph glyph-name="Uhorn" unicode="&#x1af;" horiz-adv-x="1367" 
d="M159 483v880l13 13h86q70 0 100 -35.5t30 -111.5v-746q0 -160 70.5 -242.5t211.5 -82.5q140 0 210.5 82.5t70.5 242.5v883q27 5 56.5 7t54.5 2h23q72 0 99.5 29t27.5 70q0 26 -11 58t-23 51q31 30 79 47t103 14q18 -27 34 -76t16 -100q0 -87 -56.5 -148t-173.5 -79v-758
q0 -166 -62.5 -279.5t-177.5 -172t-272 -58.5q-155 0 -269.5 58.5t-177 172t-62.5 279.5z" />
    <glyph glyph-name="uhorn" unicode="&#x1b0;" horiz-adv-x="1129" 
d="M142 772q0 53 -7 100.5t-28 82.5q24 21 61.5 34t78.5 13q65 0 91 -35.5t26 -104.5v-497q0 -95 25 -139t94 -44q48 0 103.5 23t106.5 66.5t82 103.5v-209q-67 -76 -162 -130t-203 -54q-93 0 -152 44t-87.5 119.5t-28.5 168.5v458zM719 256v733q47 9 111 9h21
q69 0 97.5 25.5t28.5 67.5q0 26 -10.5 53t-22.5 48q25 28 69.5 45t96.5 14q18 -23 35.5 -69t17.5 -95q0 -77 -57 -138.5t-165 -77.5v-591q0 -56 12.5 -105.5t43.5 -76.5q-8 -30 -31 -63t-49 -50q-103 17 -150.5 93.5t-47.5 177.5z" />
    <glyph glyph-name="uni01C4" unicode="&#x1c4;" horiz-adv-x="2400" 
d="M1204 683q0 -117 -15.5 -224.5t-61 -200.5t-137.5 -167q-44 -36 -106 -58t-126.5 -32.5t-118.5 -10.5q-81 0 -150.5 1t-140.5 3t-158 4l-13 13v1344l13 13q86 3 157 4.5t141 2t151 0.5q54 0 119 -10.5t127 -32.5t105 -58q91 -74 136.5 -167.5t61.5 -200.5t16 -223z
M968 683q0 88 -11.5 177.5t-45.5 164.5t-99.5 121t-173.5 46q-60 0 -113.5 0.5t-119.5 1.5v-1020q66 0 119.5 -0.5t113.5 -0.5q108 0 173.5 46.5t99.5 121.5t45.5 165t11.5 177zM1889 975q30 46 72.5 101t84.5 108l-6 6q-26 -4 -68 -7t-89.5 -4.5t-88.5 -2.5t-65 -1h-317
q-5 20 -7 39t-2 38q0 30 4 57.5t13 56.5h833q15 -51 22 -79t9 -42t2 -25q0 -21 -6.5 -42.5t-23.5 -46.5l-493 -731q-32 -47 -75.5 -104.5t-82.5 -106.5l6 -6q64 6 132.5 9t118.5 3h194q78 0 136 10.5t98 28.5q7 -23 12 -51.5t5 -56.5q0 -62 -40 -94t-116 -32h-761
q-13 50 -18.5 77t-7.5 41t-2 25q0 23 7 48t23 47zM2065 1792q25 -8 54.5 -33.5t40.5 -61.5l-224 -214q-19 -3 -45 -5.5t-52 -2.5t-51.5 2.5t-45.5 5.5l-224 214q11 36 40.5 61.5t54.5 33.5l226 -149z" />
    <glyph glyph-name="uni01C5" unicode="&#x1c5;" horiz-adv-x="2169" 
d="M1204 683q0 -117 -15.5 -224.5t-61 -200.5t-137.5 -167q-44 -36 -106 -58t-126.5 -32.5t-118.5 -10.5q-81 0 -150.5 1t-140.5 3t-158 4l-13 13v1344l13 13q86 3 157 4.5t141 2t151 0.5q54 0 119 -10.5t127 -32.5t105 -58q91 -74 136.5 -167.5t61.5 -200.5t16 -223z
M968 683q0 88 -11.5 177.5t-45.5 164.5t-99.5 121t-173.5 46q-60 0 -113.5 0.5t-119.5 1.5v-1020q66 0 119.5 -0.5t113.5 -0.5q108 0 173.5 46.5t99.5 121.5t45.5 165t11.5 177zM1690 631q34 46 78 97.5t80 94.5l-6 8q-30 -4 -76 -7t-96 -4.5t-91 -1.5h-202q-4 18 -5.5 37.5
t-1.5 33.5q0 22 3.5 48.5t8.5 51.5h673q17 -46 24.5 -75.5t7.5 -53.5q0 -17 -6.5 -36t-19.5 -38l-314 -422q-34 -46 -76 -98t-79 -95l6 -7q49 4 97 6.5t85 2.5h91q65 0 119.5 6t91.5 22q22 -51 22 -97q0 -48 -29 -76t-106 -28h-598q-16 46 -22.5 72t-6.5 47q0 19 7.5 40
t26.5 47zM1627 1112l-193 252q15 35 46.5 61.5t57.5 34.5l186 -181l187 181q26 -8 57.5 -34.5t46.5 -61.5l-193 -252q-43 -11 -98 -11q-54 0 -97 11z" />
    <glyph glyph-name="uni01C6" unicode="&#x1c6;" horiz-adv-x="1955" 
d="M908 282q0 -56 12.5 -105.5t43.5 -77.5q-8 -30 -31 -63.5t-49 -50.5q-102 17 -147.5 93t-45.5 176v1204l13 13h84q70 0 95 -33t25 -107v-1049zM85 482q0 178 55.5 294.5t144 173t186.5 56.5q97 0 177 -40t149 -89l-27 -171q-58 45 -127 85.5t-140 40.5q-55 0 -98.5 -38.5
t-68.5 -116.5t-25 -195q0 -115 24 -186.5t63 -105t85 -33.5q48 0 101 26t99 82.5t72 149.5l46 -157q-17 -69 -69 -134.5t-129 -108t-172 -42.5q-115 0 -192 64.5t-115.5 179.5t-38.5 265zM1477 631q34 46 78 97.5t80 94.5l-6 8q-30 -4 -76 -7t-96 -4.5t-91 -1.5h-202
q-4 18 -5.5 37.5t-1.5 33.5q0 22 3.5 48.5t8.5 51.5h673q17 -46 24.5 -75.5t7.5 -53.5q0 -17 -6.5 -36t-19.5 -38l-314 -422q-34 -46 -76 -98t-79 -95l6 -7q49 4 97 6.5t85 2.5h91q65 0 119.5 6t91.5 22q22 -51 22 -97q0 -48 -29 -76t-106 -28h-598q-16 46 -22.5 72t-6.5 47
q0 19 7.5 40t26.5 47zM1414 1112l-193 252q15 35 46.5 61.5t57.5 34.5l186 -181l187 181q26 -8 57.5 -34.5t46.5 -61.5l-193 -252q-43 -11 -98 -11q-54 0 -97 11z" />
    <glyph glyph-name="uni01C7" unicode="&#x1c7;" horiz-adv-x="1930" 
d="M405 -3h-96q-59 0 -96 36.5t-37 104.5v1225l13 13h86q70 0 100 -35.5t30 -111.5v-1232zM974 196q0 -114 -35.5 -156.5t-118.5 -42.5h-511l-119 168q98 16 203 23.5t191 7.5h390zM1131 235q44 -26 99.5 -45t109.5 -19q121 0 165 73t44 227v895q26 5 58.5 7t57.5 2t56 -2
t57 -7v-865q0 -111 -16.5 -206t-60.5 -165.5t-126.5 -110t-213.5 -39.5q-78 0 -162.5 22t-151.5 63q9 46 30.5 91t53.5 79z" />
    <glyph glyph-name="uni01C8" unicode="&#x1c8;" horiz-adv-x="1571" 
d="M405 -3h-96q-59 0 -96 36.5t-37 104.5v1225l13 13h86q70 0 100 -35.5t30 -111.5v-1232zM974 196q0 -114 -35.5 -156.5t-118.5 -42.5h-511l-119 168q98 16 203 23.5t191 7.5h390zM1424 -26q0 -123 -26.5 -204.5t-92 -131t-185.5 -77.5q-22 21 -40 58t-23 79q57 27 89 56
t45 73t13 117v779q0 52 -19 78.5t-69 26.5h-41q-10 38 -10 78q0 19 2.5 39.5t7.5 41.5q42 5 85 7t69 2h29q77 0 121.5 -50t44.5 -137v-835zM1137 1258q0 52 19 93q20 11 52.5 18.5t63.5 7.5q29 0 64 -7.5t52 -18.5q8 -19 13.5 -45t5.5 -48q0 -52 -19 -94q-16 -11 -51.5 -18
t-64.5 -7q-31 0 -64.5 7t-51.5 18q-19 42 -19 94z" />
    <glyph glyph-name="uni01C9" unicode="&#x1c9;" horiz-adv-x="1144" 
d="M516 166q18 -50 18 -111q0 -12 -0.5 -25t-3.5 -23q-36 -6 -85 -11t-92 -5q-103 0 -154 54t-51 162v1251l13 13h84q69 0 94.5 -33t25.5 -107v-1076q0 -44 19.5 -66.5t60.5 -22.5h71zM997 -26q0 -123 -26.5 -204.5t-92 -131t-185.5 -77.5q-22 21 -40 58t-23 79q57 27 89 56
t45 73t13 117v779q0 52 -19 78.5t-69 26.5h-41q-10 38 -10 78q0 19 2.5 39.5t7.5 41.5q42 5 85 7t69 2h29q77 0 121.5 -50t44.5 -137v-835zM710 1258q0 52 19 93q20 11 52.5 18.5t63.5 7.5q29 0 64 -7.5t52 -18.5q8 -19 13.5 -45t5.5 -48q0 -52 -19 -94q-16 -11 -51.5 -18
t-64.5 -7q-31 0 -64.5 7t-51.5 18q-19 42 -19 94z" />
    <glyph glyph-name="uni01CA" unicode="&#x1ca;" horiz-adv-x="2268" 
d="M177 1363q27 6 69 9t67 3q26 0 63.5 -2t71.5 -7l-59 -265l-18 -3q5 -72 9 -161t6.5 -179.5t2.5 -165.5v-592q-28 -5 -55 -7t-50 -2q-21 0 -50.5 2t-56.5 7v1363zM504 821q-37 75 -68 145.5t-58 132.5l-106 128l176 139l406 -820q39 -80 72.5 -155.5t60.5 -136.5l114 -120
l-188 -134zM1188 1364v-1361q-28 -6 -68.5 -9t-70.5 -3q-29 0 -65 2t-71 7l63 253l18 3q-6 82 -10 175.5t-6 182.5t-2 158v462q0 76 27.5 109t96.5 33h75zM1469 235q44 -26 99.5 -45t109.5 -19q121 0 165 73t44 227v895q26 5 58.5 7t57.5 2t56 -2t57 -7v-865
q0 -111 -16.5 -206t-60.5 -165.5t-126.5 -110t-213.5 -39.5q-78 0 -162.5 22t-151.5 63q9 46 30.5 91t53.5 79z" />
    <glyph glyph-name="uni01CB" unicode="&#x1cb;" horiz-adv-x="1928" 
d="M177 1363q27 6 69 9t67 3q26 0 63.5 -2t71.5 -7l-59 -265l-18 -3q5 -72 9 -161t6.5 -179.5t2.5 -165.5v-592q-28 -5 -55 -7t-50 -2q-21 0 -50.5 2t-56.5 7v1363zM504 821q-37 75 -68 145.5t-58 132.5l-106 128l176 139l406 -820q39 -80 72.5 -155.5t60.5 -136.5l114 -120
l-188 -134zM1188 1364v-1361q-28 -6 -68.5 -9t-70.5 -3q-29 0 -65 2t-71 7l63 253l18 3q-6 82 -10 175.5t-6 182.5t-2 158v462q0 76 27.5 109t96.5 33h75zM1781 -26q0 -123 -26.5 -204.5t-92 -131t-185.5 -77.5q-22 21 -40 58t-23 79q57 27 89 56t45 73t13 117v779
q0 52 -19 78.5t-69 26.5h-41q-10 38 -10 78q0 19 2.5 39.5t7.5 41.5q42 5 85 7t69 2h29q77 0 121.5 -50t44.5 -137v-835zM1494 1258q0 52 19 93q20 11 52.5 18.5t63.5 7.5q29 0 64 -7.5t52 -18.5q8 -19 13.5 -45t5.5 -48q0 -52 -19 -94q-16 -11 -51.5 -18t-64.5 -7
q-31 0 -64.5 7t-51.5 18q-19 42 -19 94z" />
    <glyph glyph-name="uni01CC" unicode="&#x1cc;" horiz-adv-x="1655" 
d="M248 999q68 0 96.5 -42.5t28.5 -116.5v-840q-47 -9 -110 -9t-112 9v986l13 13h84zM949 217q0 -53 8 -100.5t28 -82.5q-25 -21 -62 -34.5t-77 -13.5q-66 0 -92.5 36t-26.5 105v497q0 96 -24 139.5t-95 43.5q-47 0 -103 -23t-106 -66t-82 -104v209q68 76 162.5 130
t202.5 54q93 0 152 -44t87 -119t28 -169v-458zM1508 -26q0 -123 -26.5 -204.5t-92 -131t-185.5 -77.5q-22 21 -40 58t-23 79q57 27 89 56t45 73t13 117v779q0 52 -19 78.5t-69 26.5h-41q-10 38 -10 78q0 19 2.5 39.5t7.5 41.5q42 5 85 7t69 2h29q77 0 121.5 -50t44.5 -137
v-835zM1221 1258q0 52 19 93q20 11 52.5 18.5t63.5 7.5q29 0 64 -7.5t52 -18.5q8 -19 13.5 -45t5.5 -48q0 -52 -19 -94q-16 -11 -51.5 -18t-64.5 -7q-31 0 -64.5 7t-51.5 18q-19 42 -19 94z" />
    <glyph glyph-name="Gcaron" unicode="&#x1e6;" horiz-adv-x="1290" 
d="M1163 1246q-7 -51 -40 -98t-69 -70q-71 53 -163.5 86.5t-186.5 33.5q-107 0 -191.5 -51.5t-133 -167t-48.5 -308.5q0 -261 97 -385.5t290 -124.5q104 0 193 22.5t137 41.5l118 -167q-59 -22 -139 -41.5t-169.5 -31.5t-179.5 -12q-161 0 -272 55t-179.5 151.5t-100 223.5
t-31.5 271q0 189 51 325t137 223t193.5 129t221.5 42q126 0 250 -40t215 -107zM948 403q0 70 4.5 132.5t17.5 111.5l196 -67v-522l-218 -3v348zM1006 727q90 0 125 -38.5t35 -108.5v-48h-374q-30 0 -55.5 7.5t-41 28.5t-15.5 62q0 24 5 50t12 47h309zM917 1792
q25 -8 54.5 -33.5t40.5 -61.5l-224 -214q-19 -3 -45 -5.5t-52 -2.5t-51.5 2.5t-45.5 5.5l-224 214q11 36 40.5 61.5t54.5 33.5l226 -149z" />
    <glyph glyph-name="gcaron" unicode="&#x1e7;" horiz-adv-x="1059" 
d="M966 890q-31 -28 -43.5 -77t-12.5 -106v-583q0 -119 -10.5 -200t-32 -136t-53.5 -94q-49 -62 -136 -98.5t-201 -36.5q-93 0 -187 19.5t-164 47.5q1 42 17 89.5t41 76.5q63 -29 137.5 -46t134.5 -17q97 0 149 36t71 96.5t19 134.5v739q0 100 44.5 176t146.5 93
q26 -16 50 -50t30 -64zM85 492q0 177 56 293t144 173.5t185 57.5q89 0 153.5 -27t110.5 -68t79 -84l-32 -188q-53 86 -128.5 139t-147.5 53q-57 0 -100.5 -38.5t-68.5 -116t-25 -194.5q0 -173 50 -249.5t120 -76.5q78 0 149 50.5t112 131.5l33 -168q-28 -47 -78.5 -92
t-117.5 -75.5t-145 -30.5q-117 0 -194.5 64.5t-116 179t-38.5 266.5zM440 1112l-193 252q15 35 46.5 61.5t57.5 34.5l186 -181l187 181q26 -8 57.5 -34.5t46.5 -61.5l-193 -252q-43 -11 -98 -11q-54 0 -97 11z" />
    <glyph glyph-name="uni01EA" unicode="&#x1ea;" horiz-adv-x="1318" 
d="M95 683q0 208 62 368t187.5 251t314.5 91q186 0 311 -88.5t189 -248.5t64 -378q0 -191 -44 -317t-118.5 -206.5t-168.5 -133.5q-44 -26 -92.5 -56.5t-82 -70.5t-33.5 -92q0 -47 27 -69t68 -22q32 0 61.5 10.5t52.5 22.5q20 -17 34.5 -45t15.5 -62q-35 -29 -93.5 -50.5
t-121.5 -21.5q-96 0 -157.5 50t-61.5 138q0 80 53 148t133 118l29 -44q-16 -1 -35 -1.5t-28 -0.5q-146 0 -252.5 53.5t-176 150t-103.5 226t-34 280.5zM334 684q0 -89 13 -182t47.5 -172t98.5 -127t166 -48t166 48t98 127t47 172t13 182t-13 181.5t-47 171t-98 126.5
t-166 48t-166 -48t-98.5 -126.5t-47.5 -171t-13 -181.5z" />
    <glyph glyph-name="uni01EB" unicode="&#x1eb;" horiz-adv-x="1041" 
d="M84 493q0 155 49.5 272.5t147 184t240.5 66.5q211 0 323.5 -142.5t112.5 -383.5q0 -140 -34.5 -232t-91.5 -150.5t-125 -97.5q-64 -38 -114 -90t-50 -116q0 -49 27.5 -71t67.5 -22q32 0 62 10.5t52 22.5q20 -17 34.5 -45t15.5 -62q-35 -29 -93.5 -50.5t-121.5 -21.5
q-96 0 -157 50t-61 138q0 81 53 149.5t125 116.5l19 -44q-9 0 -20 -1t-22 -1q-141 0 -239 64t-149 180.5t-51 275.5zM313 494q0 -91 17.5 -171.5t62.5 -130t128 -49.5q82 0 126.5 49.5t62.5 130t18 171.5t-18 172t-62.5 131t-126.5 50q-83 0 -128 -50t-62.5 -131t-17.5 -172
z" />
    <glyph glyph-name="Aringacute" unicode="&#x1fa;" horiz-adv-x="1231" 
d="M488 1373h258l448 -1359q-24 -14 -60.5 -21.5t-72.5 -7.5q-54 0 -84 25t-52 97l-209 668q-27 87 -55.5 186.5t-50.5 182.5h-11q-15 -70 -39 -157t-42 -146l-265 -843q-21 -5 -46.5 -7t-51.5 -2q-29 0 -59 4t-52 12l-8 11zM467 323q-10 0 -37 0.5t-54.5 1t-37.5 0.5h-109
l71 185h96q10 0 34.5 0.5t48.5 1t33 0.5h192q10 0 34.5 -0.5t49.5 -1t35 -0.5h98l61 -185h-109q-10 0 -38 -0.5t-55 -1t-37 -0.5h-276zM370 1564q0 95 69 163t179 68t178.5 -68t68.5 -163t-68.5 -163.5t-178.5 -68.5t-179 68.5t-69 163.5zM518 1564q0 -46 28 -77t72 -31
t72 31t28 77t-28 76.5t-72 30.5t-72 -30.5t-28 -76.5zM820 2183q32 -23 61.5 -75t35.5 -105l-442 -180q-26 16 -44 50t-22 64z" />
    <glyph glyph-name="aringacute" unicode="&#x1fb;" horiz-adv-x="1016" 
d="M83 270q0 114 51.5 188t138.5 109.5t195 35.5q54 0 124.5 -4.5t130.5 -18.5v-147q-52 12 -118 15.5t-122 3.5q-87 0 -133.5 -45t-46.5 -122q0 -58 33 -98.5t95 -40.5q71 0 149.5 50t132.5 145l33 -164q-36 -43 -88.5 -90t-122 -80.5t-156.5 -33.5q-100 0 -165.5 44.5
t-98 112.5t-32.5 140zM928 99q-8 -30 -31 -63.5t-49 -50.5q-67 11 -108.5 46t-62 83.5t-24.5 101.5v447q0 90 -41.5 129.5t-117.5 39.5q-74 0 -153.5 -22t-158.5 -52q-26 27 -43 73t-19 88q57 25 129.5 45.5t148.5 33t143 12.5q97 0 171.5 -35.5t117 -109.5t42.5 -191v-409
q0 -55 11.5 -95.5t44.5 -70.5zM243 1310q0 -95 69 -163.5t179 -68.5t179 68.5t69 163.5q0 96 -69 163.5t-179 67.5t-179 -67.5t-69 -163.5zM391 1310q0 47 28 77.5t72 30.5q45 0 72.5 -30.5t27.5 -77.5q0 -46 -27.5 -77t-72.5 -31q-44 0 -72 31t-28 77zM627 1979
q46 -15 90 -55.5t61 -87.5l-346 -268q-29 9 -56.5 34t-39.5 55z" />
    <glyph glyph-name="AEacute" unicode="&#x1fc;" horiz-adv-x="1756" 
d="M674 1345q26 12 66 16.5t71 4.5h157l-169 -222h-11q-27 -73 -62 -154.5t-66 -149.5l-401 -841q-25 -6 -54.5 -7.5t-56.5 -1.5q-30 0 -60 4t-53 12l-8 11zM517 323q-15 0 -39.5 0.5t-48 1t-37.5 0.5h-90l85 183h84q20 0 52 1t56 1h117q15 0 39 -0.5l48 -1t37 -0.5h82v-183
h-82q-13 0 -36.5 -0.5t-48 -1t-40.5 -0.5h-178zM798 1353l13 13h206v-188q0 -42 1 -69.5t1 -68.5v-743q0 -29 -1 -54.5t-1 -55.5v-190h-89q-61 0 -95.5 37.5t-34.5 102.5v1216zM1513 784q7 -22 10 -49t3 -46t-3 -45t-10 -49h-367q-23 0 -59.5 0.5t-74.5 1t-69 0.5v184
q31 1 69 1.5t74.5 1t59.5 0.5h367zM1623 1366q5 -25 6.5 -48t1.5 -42q0 -20 -4.5 -48.5t-13.5 -54.5h-467h-59.5t-74.5 1t-69 2v190h680zM1664 191q0 -111 -34.5 -152.5t-115.5 -41.5h-571v185q51 3 98 6t111 3h512zM1128 1816q32 -23 61.5 -75t35.5 -105l-442 -180
q-26 16 -44 50t-22 64z" />
    <glyph glyph-name="aeacute" unicode="&#x1fd;" horiz-adv-x="1555" 
d="M83 271q0 115 51.5 188.5t138.5 108.5t195 35q60 0 127.5 -5t127.5 -18v-150q-54 11 -119 16.5t-121 5.5q-87 0 -133.5 -44t-46.5 -123q0 -58 33 -98.5t95 -40.5q50 0 104.5 22.5t104.5 68.5t85 117l49 -172q-38 -50 -96 -97.5t-133.5 -79.5t-165.5 -32
q-100 0 -165.5 44.5t-98 112.5t-32.5 141zM653 492v172q0 89 -41 128.5t-117 39.5q-74 0 -154 -21.5t-159 -52.5q-26 27 -43 73t-19 88q87 37 199.5 64t210.5 27q149 0 235 -86t86 -253v-179h-198zM787 424v159h466v24q0 66 -18 122t-59 90t-109 34q-98 0 -145 -83t-47 -234
v-62q0 -91 18 -164t66 -115.5t138 -42.5q74 0 142.5 21.5t131.5 53.5q28 -26 45 -66.5t22 -74.5q-72 -51 -171.5 -82t-203.5 -31q-199 0 -304.5 131.5t-107.5 387.5q0 92 25 184t76 169t129.5 124t185.5 47q130 0 219 -57t134 -153.5t45 -216.5q0 -51 -3.5 -86.5
t-12.5 -78.5h-662zM937 1487q46 -15 90 -55.5t61 -87.5l-346 -268q-29 9 -56.5 34t-39.5 55z" />
    <glyph glyph-name="Oslashacute" unicode="&#x1fe;" horiz-adv-x="1322" 
d="M877 1280l114 201q40 -6 82.5 -29t65.5 -52l-135 -241l-558 -1071l-115 -200q-39 6 -81.5 29t-66.5 52l136 241zM327 684q0 -90 14 -183.5t50 -173.5t102 -128.5t168 -48.5q103 0 168 48.5t101 128.5t49.5 173.5t13.5 183.5t-13.5 183t-49.5 172.5t-101 128t-168 48.5
q-102 0 -168 -48.5t-102 -128t-50 -172.5t-14 -183zM95 684q0 202 61.5 362.5t187 253.5t317.5 93q193 0 318.5 -94t186.5 -254t61 -361q0 -202 -61.5 -363t-186.5 -254.5t-318 -93.5q-145 0 -251.5 54t-176.5 151t-104 226t-34 280zM861 1816q32 -23 61.5 -75t35.5 -105
l-442 -180q-26 16 -44 50t-22 64z" />
    <glyph glyph-name="oslashacute" unicode="&#x1ff;" horiz-adv-x="1044" 
d="M959 495q0 -117 -31 -224t-110 -186q-57 -57 -131.5 -84.5t-164.5 -27.5t-164 27.5t-131 84.5q-79 79 -110 186t-31 224q0 118 31 224.5t110 184.5q57 57 131 84.5t164 27.5t164.5 -27.5t131.5 -84.5q79 -78 110 -184.5t31 -224.5zM296 495q0 -89 19.5 -171.5
t68.5 -135.5t139 -53q88 0 137.5 53t68.5 135.5t19 171.5q0 90 -19 172t-68.5 135t-137.5 53q-90 0 -139 -53t-68.5 -135t-19.5 -172zM656 907l114 197q33 -6 67.5 -24.5t56.5 -44.5l-134 -237l-373 -710l-117 -201q-33 6 -68.5 25t-56.5 44l136 237zM656 1487
q46 -15 90 -55.5t61 -87.5l-346 -268q-29 9 -56.5 34t-39.5 55z" />
    <glyph glyph-name="uni0200" unicode="&#x200;" horiz-adv-x="1231" 
d="M486 1366q28 4 66.5 6.5t66.5 2.5q27 0 66 -2.5t63 -7.5l446 -1351q-24 -14 -60.5 -21.5t-72.5 -7.5q-54 0 -84 25t-52 97l-209 668q-27 87 -55.5 186.5t-50.5 182.5h-11q-15 -70 -39 -157t-42 -146l-265 -843q-21 -5 -46.5 -7t-51.5 -2q-29 0 -59 4t-52 12l-8 11z
M467 323q-10 0 -37 0.5t-54.5 1t-37.5 0.5h-109l71 185h96q10 0 34.5 0.5t48.5 1t33 0.5h192q10 0 34.5 -0.5t49.5 -1t35 -0.5h98l61 -185h-109q-10 0 -38 -0.5t-55 -1t-37 -0.5h-276zM314 1819l262 -272q-8 -29 -31.5 -55t-50.5 -38l-328 227q18 46 55.5 85t92.5 53z
M683 1819l263 -272q-9 -28 -32.5 -54.5t-50.5 -38.5l-328 227q18 46 56 85t92 53z" />
    <glyph glyph-name="uni0201" unicode="&#x201;" horiz-adv-x="1016" 
d="M83 270q0 114 51.5 188t138.5 109.5t195 35.5q54 0 124.5 -4.5t130.5 -18.5v-147q-52 12 -118 15.5t-122 3.5q-87 0 -133.5 -45t-46.5 -122q0 -58 33 -98.5t95 -40.5q71 0 149.5 50t132.5 145l33 -164q-36 -43 -88.5 -90t-122 -80.5t-156.5 -33.5q-100 0 -165.5 44.5
t-98 112.5t-32.5 140zM928 99q-8 -30 -31 -63.5t-49 -50.5q-67 11 -108.5 46t-62 83.5t-24.5 101.5v447q0 90 -41.5 129.5t-117.5 39.5q-74 0 -153.5 -22t-158.5 -52q-26 27 -43 73t-19 88q57 25 129.5 45.5t148.5 33t143 12.5q97 0 171.5 -35.5t117 -109.5t42.5 -191v-409
q0 -55 11.5 -95.5t44.5 -70.5zM276 1488l175 -331q-14 -27 -44 -46t-59 -24l-260 306q30 39 78.5 67.5t109.5 27.5zM607 1489l153 -339q-15 -25 -46 -42.5t-60 -20.5l-240 318q32 37 82 62.5t111 21.5z" />
    <glyph glyph-name="uni0202" unicode="&#x202;" horiz-adv-x="1231" 
d="M486 1366q28 4 66.5 6.5t66.5 2.5q27 0 66 -2.5t63 -7.5l446 -1351q-24 -14 -60.5 -21.5t-72.5 -7.5q-54 0 -84 25t-52 97l-209 668q-27 87 -55.5 186.5t-50.5 182.5h-11q-15 -70 -39 -157t-42 -146l-265 -843q-21 -5 -46.5 -7t-51.5 -2q-29 0 -59 4t-52 12l-8 11z
M467 323q-10 0 -37 0.5t-54.5 1t-37.5 0.5h-109l71 185h96q10 0 34.5 0.5t48.5 1t33 0.5h192q10 0 34.5 -0.5t49.5 -1t35 -0.5h98l61 -185h-109q-10 0 -38 -0.5t-55 -1t-37 -0.5h-276zM956 1541q-21 -24 -56 -37t-71 -13q-27 59 -84 92.5t-127 33.5q-69 0 -126.5 -33.5
t-84.5 -92.5q-35 0 -70 13t-57 37q32 109 122 178.5t216 69.5q125 0 216 -69.5t122 -178.5z" />
    <glyph glyph-name="uni0203" unicode="&#x203;" horiz-adv-x="1016" 
d="M83 270q0 114 51.5 188t138.5 109.5t195 35.5q54 0 124.5 -4.5t130.5 -18.5v-147q-52 12 -118 15.5t-122 3.5q-87 0 -133.5 -45t-46.5 -122q0 -58 33 -98.5t95 -40.5q71 0 149.5 50t132.5 145l33 -164q-36 -43 -88.5 -90t-122 -80.5t-156.5 -33.5q-100 0 -165.5 44.5
t-98 112.5t-32.5 140zM928 99q-8 -30 -31 -63.5t-49 -50.5q-67 11 -108.5 46t-62 83.5t-24.5 101.5v447q0 90 -41.5 129.5t-117.5 39.5q-74 0 -153.5 -22t-158.5 -52q-26 27 -43 73t-19 88q57 25 129.5 45.5t148.5 33t143 12.5q97 0 171.5 -35.5t117 -109.5t42.5 -191v-409
q0 -55 11.5 -95.5t44.5 -70.5zM811 1154q-19 -25 -52.5 -38t-68.5 -12q-24 60 -77 93.5t-122 33.5q-68 0 -121.5 -33.5t-77.5 -93.5q-34 -1 -67.5 12t-53.5 38q29 113 114 183.5t206 70.5t206.5 -70.5t113.5 -183.5z" />
    <glyph glyph-name="uni0204" unicode="&#x204;" horiz-adv-x="1134" 
d="M176 1353l13 13h210v-188q0 -42 1 -69.5t1 -68.5v-746q0 -28 -1 -52.5t-1 -54.5v-190h-92q-61 0 -96 37.5t-35 102.5v1216zM892 784q6 -22 9 -49t3 -46t-3 -45t-9 -49h-365q-23 0 -60 0.5t-76 1t-69 0.5v184q30 1 69 1.5t76 1t60 0.5h365zM1002 1366q5 -25 6.5 -48
t1.5 -42q0 -20 -4.5 -48.5t-13.5 -54.5h-465h-60t-76 1t-69 2v190h680zM1043 191q0 -102 -31.5 -148t-119.5 -46h-570v185q50 3 99 6t112 3h510zM295 1819l262 -272q-8 -29 -31.5 -55t-50.5 -38l-328 227q18 46 55.5 85t92.5 53zM664 1819l263 -272q-9 -28 -32.5 -54.5
t-50.5 -38.5l-328 227q18 46 56 85t92 53z" />
    <glyph glyph-name="uni0205" unicode="&#x205;" horiz-adv-x="1000" 
d="M223 424v159h471v26q0 66 -18.5 121.5t-60.5 89t-110 33.5q-98 0 -145.5 -82.5t-47.5 -228.5v-68q0 -91 18.5 -164t66.5 -115.5t138 -42.5q75 0 144 21.5t133 52.5q26 -26 43.5 -66t22.5 -74q-72 -51 -172 -82t-204 -31q-121 0 -202 42.5t-128 116t-67.5 166.5t-20.5 194
q0 150 46.5 268t140 187t235.5 69q130 0 219 -57t135 -153.5t46 -216.5q0 -51 -3.5 -86.5t-13.5 -78.5h-666zM295 1488l175 -331q-14 -27 -44 -46t-59 -24l-260 306q30 39 78.5 67.5t109.5 27.5zM626 1489l153 -339q-15 -25 -46 -42.5t-60 -20.5l-240 318q32 37 82 62.5
t111 21.5z" />
    <glyph glyph-name="uni0206" unicode="&#x206;" horiz-adv-x="1134" 
d="M176 1353l13 13h210v-188q0 -42 1 -69.5t1 -68.5v-746q0 -28 -1 -52.5t-1 -54.5v-190h-92q-61 0 -96 37.5t-35 102.5v1216zM892 784q6 -22 9 -49t3 -46t-3 -45t-9 -49h-365q-23 0 -60 0.5t-76 1t-69 0.5v184q30 1 69 1.5t76 1t60 0.5h365zM1002 1366q5 -25 6.5 -48
t1.5 -42q0 -20 -4.5 -48.5t-13.5 -54.5h-465h-60t-76 1t-69 2v190h680zM1043 191q0 -102 -31.5 -148t-119.5 -46h-570v185q50 3 99 6t112 3h510zM936 1541q-21 -24 -56 -37t-71 -13q-27 59 -84 92.5t-127 33.5q-69 0 -126.5 -33.5t-84.5 -92.5q-35 0 -70 13t-57 37
q32 109 122 178.5t216 69.5q125 0 216 -69.5t122 -178.5z" />
    <glyph glyph-name="uni0207" unicode="&#x207;" horiz-adv-x="1000" 
d="M223 424v159h471v26q0 66 -18.5 121.5t-60.5 89t-110 33.5q-98 0 -145.5 -82.5t-47.5 -228.5v-68q0 -91 18.5 -164t66.5 -115.5t138 -42.5q75 0 144 21.5t133 52.5q26 -26 43.5 -66t22.5 -74q-72 -51 -172 -82t-204 -31q-121 0 -202 42.5t-128 116t-67.5 166.5t-20.5 194
q0 150 46.5 268t140 187t235.5 69q130 0 219 -57t135 -153.5t46 -216.5q0 -51 -3.5 -86.5t-13.5 -78.5h-666zM830 1154q-19 -25 -52.5 -38t-68.5 -12q-24 60 -77 93.5t-122 33.5q-68 0 -121.5 -33.5t-77.5 -93.5q-34 -1 -67.5 12t-53.5 38q29 113 114 183.5t206 70.5
t206.5 -70.5t113.5 -183.5z" />
    <glyph glyph-name="uni0208" unicode="&#x208;" horiz-adv-x="593" 
d="M182 1366q26 5 58 7t56 2q26 0 57.5 -2t57.5 -7v-1366q-26 -5 -57.5 -7t-57.5 -2q-24 0 -56 2t-58 7v1366zM-7 1820l262 -272q-8 -29 -31.5 -55t-50.5 -38l-328 227q18 46 55.5 85t92.5 53zM362 1820l263 -272q-9 -28 -32.5 -54.5t-50.5 -38.5l-328 227q18 46 56 85
t92 53z" />
    <glyph glyph-name="uni0209" unicode="&#x209;" horiz-adv-x="550" 
d="M403 0q-48 -9 -111 -9t-111 9v723q0 52 -19 78.5t-69 26.5h-24q-9 38 -9 78q0 19 2 39.5t7 41.5q39 5 75 7t59 2h30q79 0 124.5 -50t45.5 -137v-809zM39 1488l175 -331q-14 -27 -44 -46t-59 -24l-260 306q30 39 78.5 67.5t109.5 27.5zM370 1489l153 -339
q-15 -25 -46 -42.5t-60 -20.5l-240 318q32 37 82 62.5t111 21.5z" />
    <glyph glyph-name="uni020A" unicode="&#x20a;" horiz-adv-x="593" 
d="M182 1366q26 5 58 7t56 2q26 0 57.5 -2t57.5 -7v-1366q-26 -5 -57.5 -7t-57.5 -2q-24 0 -56 2t-58 7v1366zM635 1542q-21 -24 -56 -37t-71 -13q-27 59 -84 92.5t-127 33.5q-69 0 -126.5 -33.5t-84.5 -92.5q-35 0 -70 13t-57 37q32 109 122 178.5t216 69.5
q125 0 216 -69.5t122 -178.5z" />
    <glyph glyph-name="uni020B" unicode="&#x20b;" horiz-adv-x="550" 
d="M403 0q-48 -9 -111 -9t-111 9v723q0 52 -19 78.5t-69 26.5h-24q-9 38 -9 78q0 19 2 39.5t7 41.5q39 5 75 7t59 2h30q79 0 124.5 -50t45.5 -137v-809zM574 1154q-19 -25 -52.5 -38t-68.5 -12q-24 60 -77 93.5t-122 33.5q-68 0 -121.5 -33.5t-77.5 -93.5q-34 -1 -67.5 12
t-53.5 38q29 113 114 183.5t206 70.5t206.5 -70.5t113.5 -183.5z" />
    <glyph glyph-name="uni020C" unicode="&#x20c;" horiz-adv-x="1318" 
d="M334 684q0 -89 13 -182t47.5 -172t98.5 -127t166 -48t166 48t98 127t47 172t13 182t-13 181.5t-47 171t-98 126.5t-166 48t-166 -48t-98.5 -126.5t-47.5 -171t-13 -181.5zM95 684q0 204 61 364t186 252.5t317 92.5q193 0 318 -93t185.5 -253.5t60.5 -362.5
q0 -204 -61 -364.5t-186 -253.5t-317 -93q-145 0 -251 53.5t-175.5 150t-103.5 226t-34 281.5zM355 1819l262 -272q-8 -29 -31.5 -55t-50.5 -38l-328 227q18 46 55.5 85t92.5 53zM724 1819l263 -272q-9 -28 -32.5 -54.5t-50.5 -38.5l-328 227q18 46 56 85t92 53z" />
    <glyph glyph-name="uni020D" unicode="&#x20d;" horiz-adv-x="1041" 
d="M957 494q0 -154 -49.5 -271.5t-147 -183.5t-240.5 -66q-144 0 -241 67t-146 184.5t-49 269.5q0 154 49.5 271.5t146.5 184t240 66.5q144 0 241.5 -67t146.5 -184.5t49 -270.5zM313 494q0 -91 17.5 -171.5t62.5 -130t128 -49.5q82 0 126.5 49.5t62.5 130t18 171.5t-18 172
t-62.5 131t-126.5 50q-83 0 -128 -50t-62.5 -131t-17.5 -172zM305 1488l175 -331q-14 -27 -44 -46t-59 -24l-260 306q30 39 78.5 67.5t109.5 27.5zM636 1489l153 -339q-15 -25 -46 -42.5t-60 -20.5l-240 318q32 37 82 62.5t111 21.5z" />
    <glyph glyph-name="uni020E" unicode="&#x20e;" horiz-adv-x="1318" 
d="M334 684q0 -89 13 -182t47.5 -172t98.5 -127t166 -48t166 48t98 127t47 172t13 182t-13 181.5t-47 171t-98 126.5t-166 48t-166 -48t-98.5 -126.5t-47.5 -171t-13 -181.5zM95 684q0 204 61 364t186 252.5t317 92.5q193 0 318 -93t185.5 -253.5t60.5 -362.5
q0 -204 -61 -364.5t-186 -253.5t-317 -93q-145 0 -251 53.5t-175.5 150t-103.5 226t-34 281.5zM997 1541q-21 -24 -56 -37t-71 -13q-27 59 -84 92.5t-127 33.5q-69 0 -126.5 -33.5t-84.5 -92.5q-35 0 -70 13t-57 37q32 109 122 178.5t216 69.5q125 0 216 -69.5t122 -178.5z
" />
    </font>
</defs>
</svg>
