<svg xmlns="http://www.w3.org/2000/svg" width="111.847" height="26" viewBox="0 0 111.847 26">
  <g id="f13" transform="translate(-1521.153 -6075)">
    <path id="Icon_awesome-recycle" data-name="Icon awesome-recycle" d="M8.362,11.765a.724.724,0,0,1-1.09.771L5.426,11.393l-2.3,3.657a1.44,1.44,0,0,0,1.229,2.2H6.705a.541.541,0,0,1,.544.539v1.8a.541.541,0,0,1-.544.539H4.355a4.315,4.315,0,0,1-3.688-6.6l2.3-3.656L1.124,8.728a.717.717,0,0,1,.221-1.31L6.339,6.274a.725.725,0,0,1,.869.539l1.153,4.952Zm4.465-8.217L14.7,6.517,12.852,7.66a.717.717,0,0,0,.221,1.31l4.995,1.143a.725.725,0,0,0,.869-.539L20.09,4.623A.724.724,0,0,0,19,3.851L17.156,4.993,15.287,2.025a4.372,4.372,0,0,0-7.377,0L7.1,3.317a.536.536,0,0,0,.173.743l1.537.952a.546.546,0,0,0,.749-.171l.814-1.291A1.458,1.458,0,0,1,12.827,3.548Zm9.7,9.979-1.247-1.979a.546.546,0,0,0-.749-.172L19,12.326a.536.536,0,0,0-.173.743l1.249,1.982a1.44,1.44,0,0,1-1.229,2.2H14.5V15.095a.726.726,0,0,0-1.237-.508L9.636,18.179a.714.714,0,0,0,0,1.016l3.625,3.593a.726.726,0,0,0,1.237-.508V20.125h4.344A4.315,4.315,0,0,0,22.531,13.527Z" transform="translate(1521.153 6077)" fill="#6c9930"/>
    <text id="WIR_RECYCLEN_VERPACKUNGEN" data-name="WIR RECYCLEN
VERPACKUNGEN" transform="translate(1551 6087)" fill="#3e4148" font-size="11" font-family="SegoeUI, Segoe UI"><tspan x="0" y="0">WIR </tspan><tspan y="0" fill="#6c9930">RECYCLEN</tspan><tspan x="0" y="11">VERPACKUNGEN</tspan></text>
  </g>
</svg>
