<svg xmlns="http://www.w3.org/2000/svg" width="16.508" height="18.322" viewBox="0 0 16.508 18.322">
  <g id="icon4" transform="translate(-4 -2.48)">
    <path id="Path_60" data-name="Path 60" d="M19,10.787,11.25,6.315" transform="translate(-2.873 -1.41)" fill="none" stroke="#fff" stroke-linecap="round" stroke-linejoin="round" stroke-width="1"/>
    <path id="Path_61" data-name="Path 61" d="M20.008,15.063V8.171a1.723,1.723,0,0,0-.862-1.491L13.116,3.234a1.723,1.723,0,0,0-1.723,0L5.362,6.68A1.723,1.723,0,0,0,4.5,8.171v6.893a1.723,1.723,0,0,0,.862,1.491L11.393,20a1.723,1.723,0,0,0,1.723,0l6.031-3.446A1.723,1.723,0,0,0,20.008,15.063Z" transform="translate(0 0)" fill="none" stroke="#fff" stroke-linecap="round" stroke-linejoin="round" stroke-width="1"/>
    <path id="Path_62" data-name="Path 62" d="M4.905,10.44l7.522,4.351,7.522-4.351" transform="translate(-0.172 -3.165)" fill="none" stroke="#fff" stroke-linecap="round" stroke-linejoin="round" stroke-width="1"/>
    <path id="Path_63" data-name="Path 63" d="M18,26.685V18" transform="translate(-5.746 -6.383)" fill="none" stroke="#fff" stroke-linecap="round" stroke-linejoin="round" stroke-width="1"/>
  </g>
</svg>
