<svg xmlns="http://www.w3.org/2000/svg" width="27.123" height="27.123" viewBox="0 0 27.123 27.123">
  <g id="instagram_white" transform="translate(-2 -2)">
    <path id="Path_313" data-name="Path 313" d="M9.281,3H21.842a6.281,6.281,0,0,1,6.281,6.281V21.842a6.281,6.281,0,0,1-6.281,6.281H9.281A6.281,6.281,0,0,1,3,21.842V9.281A6.281,6.281,0,0,1,9.281,3Z" fill="none" stroke="#fff" stroke-linecap="round" stroke-linejoin="round" stroke-width="2"/>
    <path id="Path_314" data-name="Path 314" d="M22.06,16.223a5.025,5.025,0,1,1-4.233-4.233,5.025,5.025,0,0,1,4.233,4.233Z" transform="translate(-1.474 -1.452)" fill="none" stroke="#fff" stroke-linecap="round" stroke-linejoin="round" stroke-width="2"/>
    <path id="Path_315" data-name="Path 315" d="M26.25,9.75h0" transform="translate(-3.78 -1.097)" fill="none" stroke="#fff" stroke-linecap="round" stroke-linejoin="round" stroke-width="2"/>
  </g>
</svg>
