<svg xmlns="http://www.w3.org/2000/svg" width="24.225" height="26.219" viewBox="0 0 24.225 26.219">
  <path id="ios" d="M28.245,22.157,26.2,20.972a5.487,5.487,0,0,1,1.652-1.154.976.976,0,0,0,.561-1.2.894.894,0,0,0-.851-.618.945.945,0,0,0-.347.069,7.368,7.368,0,0,0-2.643,1.968L18.5,16.5l6.074-3.532a7.313,7.313,0,0,0,2.643,1.968.945.945,0,0,0,.347.069.9.9,0,0,0,.851-.618.976.976,0,0,0-.561-1.2A5.658,5.658,0,0,1,26.2,12.028l2.043-1.186a.954.954,0,0,0-.479-1.779.989.989,0,0,0-.479.126l-2.031,1.186a5.673,5.673,0,0,1-.164-2.018.975.975,0,0,0-.757-1.091.963.963,0,0,0-.189-.019.9.9,0,0,0-.889.782,7.337,7.337,0,0,0,.385,3.292l-6.055,3.532V8.6a7.4,7.4,0,0,0,3.008-1.318.9.9,0,0,0,.114-1.312.97.97,0,0,0-.719-.322.987.987,0,0,0-.6.208,5.473,5.473,0,0,1-1.8.858V4.327a.978.978,0,0,0-1.955,0V6.693a5.638,5.638,0,0,1-1.8-.858.965.965,0,0,0-1.318.114.9.9,0,0,0,.114,1.312,7.4,7.4,0,0,0,3.008,1.318v6.257L9.576,11.3a7.381,7.381,0,0,0,.378-3.292.891.891,0,0,0-.883-.782.958.958,0,0,0-.946,1.11,5.653,5.653,0,0,1-.164,2.012L5.925,9.178a.971.971,0,0,0-.479-.126.954.954,0,0,0-.479,1.779L7.01,12.016A5.571,5.571,0,0,1,5.357,13.17a.976.976,0,0,0-.561,1.2.894.894,0,0,0,.851.618.945.945,0,0,0,.347-.069,7.368,7.368,0,0,0,2.643-1.968l6.074,3.532L8.637,20.019a7.313,7.313,0,0,0-2.643-1.968.945.945,0,0,0-.347-.069A.9.9,0,0,0,4.8,18.6a.978.978,0,0,0,.561,1.2A5.571,5.571,0,0,1,7.01,20.959L4.966,22.145a.954.954,0,0,0,.479,1.779.989.989,0,0,0,.479-.126l2.037-1.186a5.689,5.689,0,0,1,.164,2.018.958.958,0,0,0,.946,1.11.9.9,0,0,0,.889-.782,7.337,7.337,0,0,0-.385-3.292l6.055-3.532V24.39a7.4,7.4,0,0,0-3.008,1.318.9.9,0,0,0-.114,1.312.97.97,0,0,0,.719.322.987.987,0,0,0,.6-.208,5.555,5.555,0,0,1,1.8-.858v2.365a.978.978,0,0,0,1.955,0V26.276a5.639,5.639,0,0,1,1.8.858.987.987,0,0,0,.6.208.97.97,0,0,0,.719-.322.9.9,0,0,0-.114-1.312,7.4,7.4,0,0,0-3.008-1.318V18.134l6.055,3.532a7.381,7.381,0,0,0-.378,3.292.891.891,0,0,0,.883.782.958.958,0,0,0,.946-1.11,5.678,5.678,0,0,1,.164-2.018L27.287,23.8a.971.971,0,0,0,.479.126.947.947,0,0,0,.479-1.766Z" transform="translate(-4.493 -3.375)" fill="#7aa4c2"/>
</svg>
