<svg xmlns="http://www.w3.org/2000/svg" width="19.989" height="19.992" viewBox="0 0 19.989 19.992">
  <g id="m1" transform="translate(0.001 0.001)">
    <g id="Group_589" data-name="Group 589" transform="translate(-0.001 -0.001)">
      <g id="Group_588" data-name="Group 588" transform="translate(0 0)">
        <path id="Path_416" data-name="Path 416" d="M19.359,14.947a2.164,2.164,0,0,0-2.284-.522l-2.209-2.209a3.108,3.108,0,0,0-.851-2.625l-.159-.16A6.189,6.189,0,0,0,12.242,3.4L9.61.773C9.6.767,9.6.76,9.6.753,8.107-.734,5,.044,2.528,2.522S-.726,8.1.76,9.589c.009.009.019.014.027.022l2.624,2.624a6.273,6.273,0,0,0,6.026,1.616l.157.157a3.123,3.123,0,0,0,2.2.908,3.049,3.049,0,0,0,.424-.056L14.43,17.07a2.193,2.193,0,0,0,2.058,2.922,2.221,2.221,0,0,0,2.06-1.447,2.073,2.073,0,0,0,.8-.515,2.171,2.171,0,0,0,.01-3.083ZM1.66,8.716,1.645,8.7l-.007,0c-.825-.842-.3-3.215,1.774-5.292A6.517,6.517,0,0,1,7.587,1.257,1.562,1.562,0,0,1,8.7,1.632l0,.006.014.014c.817.849.295,3.215-1.777,5.287S2.508,9.536,1.66,8.716ZM12.289,13.6a1.882,1.882,0,0,1-1.811-.477l-.425-.425a.63.63,0,0,0-.647-.149,5.009,5.009,0,0,1-5.112-1.2L3.251,10.309A8.15,8.15,0,0,0,7.828,7.823,8.1,8.1,0,0,0,10.3,3.235l1.053,1.053a4.947,4.947,0,0,1,1.2,5.119.624.624,0,0,0,.15.642l.425.425A1.883,1.883,0,0,1,13.6,12.3,1.8,1.8,0,0,1,12.289,13.6Zm6.17,3.549a.892.892,0,0,1-.516.262.623.623,0,0,0-.522.522.922.922,0,0,1-.28.532.936.936,0,0,1-1.316-.01.917.917,0,0,1-.119-1.166.625.625,0,0,0-.076-.791l-2.113-2.113a2.977,2.977,0,0,0,.5-.38,3.047,3.047,0,0,0,.381-.5l2.113,2.113a.624.624,0,0,0,.791.076.92.92,0,0,1,1.176.129.91.91,0,0,1,.271.654A.923.923,0,0,1,18.459,17.152Z" transform="translate(-0.007 0)" fill="#414141"/>
      </g>
    </g>
    <g id="Group_591" data-name="Group 591" transform="translate(4.105 4.106)">
      <g id="Group_590" data-name="Group 590">
        <path id="Path_417" data-name="Path 417" d="M107.092,105.332a.625.625,0,0,0-.883,0l-.883.883a.625.625,0,0,0,.883.883l.883-.883A.625.625,0,0,0,107.092,105.332Z" transform="translate(-105.142 -105.149)" fill="#414141"/>
      </g>
    </g>
  </g>
</svg>
