<svg xmlns="http://www.w3.org/2000/svg" width="18.751" height="20.001" viewBox="0 0 18.751 20.001">
  <g id="m10" transform="translate(-0.001 -0.001)">
    <g id="Group_617" data-name="Group 617" transform="translate(0.001 0.001)">
      <path id="Path_432" data-name="Path 432" d="M34.3.471a.622.622,0,0,0-.449-.446A.629.629,0,0,0,33.244.2c-.01.011-1.07,1.084-4.611,2.442A4.169,4.169,0,0,0,26.09,5.174a5.312,5.312,0,0,0,.794,4.576c.014.024.045.031.061.053a27.093,27.093,0,0,0-1.706,5.586C22.415,2.722,17.092.167,16.847.056a.625.625,0,1,0-.518,1.138c.06.028,6.01,2.892,8.405,18.279a.626.626,0,0,0,.618.529h.035a.626.626,0,0,0,.59-.6,29.22,29.22,0,0,1,2.146-9.176A5.692,5.692,0,0,0,29,10.3a5.81,5.81,0,0,0,4.99-2.913c.011-.019.023-.036.033-.056C35.368,4.715,34.348.642,34.3.471ZM32.922,6.725a4.567,4.567,0,0,1-4.234,2.327,13.406,13.406,0,0,1,2.1-3,.625.625,0,1,0-.906-.861,14.691,14.691,0,0,0-2.274,3.233,3.824,3.824,0,0,1-.339-2.848A2.952,2.952,0,0,1,29.079,3.8a21.224,21.224,0,0,0,4.2-2.059A8.973,8.973,0,0,1,32.922,6.725Z" transform="translate(-15.963 0)" fill="#414141"/>
    </g>
  </g>
</svg>
