<svg xmlns="http://www.w3.org/2000/svg" width="19.844" height="19.846" viewBox="0 0 19.844 19.846">
  <g id="m11" transform="translate(0 0.001)">
    <g id="Group_619" data-name="Group 619" transform="translate(0 -0.001)">
      <path id="Path_434" data-name="Path 434" d="M14.576,2.512a5.566,5.566,0,0,0-9.307,0A5.555,5.555,0,0,0,3.721,13.3v5.924a.62.62,0,0,0,.62.62H15.5a.62.62,0,0,0,.62-.62V13.3a5.555,5.555,0,0,0-1.548-10.79Zm.308,16.094H4.961v-1.24h9.922Zm.466-6.343c-.015,0-.026.015-.041.02a.582.582,0,0,0-.115.056.613.613,0,0,0-.093.063.592.592,0,0,0-.079.088.577.577,0,0,0-.066.1.657.657,0,0,0-.038.108.6.6,0,0,0-.025.123c0,.016-.009.03-.009.046v3.262h-1.86V14.265a.62.62,0,1,0-1.24,0v1.861h-1.24v-3.1a.62.62,0,1,0-1.24,0v3.1H8.062V14.265a.62.62,0,1,0-1.24,0v1.861H4.961V12.863c0-.016-.009-.03-.01-.046a.567.567,0,0,0-.025-.123.657.657,0,0,0-.038-.108.512.512,0,0,0-.066-.1.537.537,0,0,0-.079-.088.431.431,0,0,0-.092-.063.582.582,0,0,0-.115-.056c-.015,0-.026-.016-.041-.02a4.33,4.33,0,0,1,.153-8.425,5.5,5.5,0,0,0-.306,1.744V8.063a.62.62,0,1,0,1.24,0V5.582a4.341,4.341,0,1,1,8.682,0V8.063a.62.62,0,1,0,1.24,0V5.582a5.5,5.5,0,0,0-.31-1.755,4.337,4.337,0,0,1,.156,8.436Z" transform="translate(0 0)" fill="#414141"/>
    </g>
  </g>
</svg>
