<svg xmlns="http://www.w3.org/2000/svg" width="20.036" height="18.785" viewBox="0 0 20.036 18.785">
  <g id="m2" transform="translate(0 0)">
    <g id="Group_592" data-name="Group 592" transform="translate(0 0)">
      <path id="Path_418" data-name="Path 418" d="M19.536,17.005a2.511,2.511,0,0,0-3.508-.5,10.068,10.068,0,0,1-12.023,0A2.5,2.5,0,0,0,1,20.512a14.974,14.974,0,0,0,5.26,2.5v3.006a2.507,2.507,0,0,0,2.5,2.5h.626v5.636a.627.627,0,0,0,1.254,0V28.528h.626a2.507,2.507,0,0,0,2.5-2.5V23.017a14.985,14.985,0,0,0,5.26-2.5A2.508,2.508,0,0,0,19.536,17.005ZM9.392,27.276H8.766a1.254,1.254,0,0,1-1.252-1.252V23.285a15.169,15.169,0,0,0,1.879.188Zm3.131-1.252a1.254,1.254,0,0,1-1.252,1.252h-.626v-3.8a15.172,15.172,0,0,0,1.879-.188Zm5.762-6.513a13.854,13.854,0,0,1-16.534,0,1.253,1.253,0,0,1,1.505-2,11.123,11.123,0,0,0,3,1.584V19.9a.626.626,0,1,0,1.252,0v-.466a11.213,11.213,0,0,0,1.879.264v.678a.626.626,0,1,0,1.252,0V19.7a11.478,11.478,0,0,0,1.879-.264V19.9a.626.626,0,1,0,1.252,0v-.807a11.1,11.1,0,0,0,3-1.584,1.253,1.253,0,1,1,1.507,2Z" transform="translate(0 -16.005)" fill="#414141"/>
    </g>
  </g>
</svg>
