<svg xmlns="http://www.w3.org/2000/svg" width="19.195" height="17.997" viewBox="0 0 19.195 17.997">
  <g id="m3" transform="translate(0 -0.001)">
    <g id="Group_594" data-name="Group 594" transform="translate(0 0.001)">
      <g id="Group_593" data-name="Group 593">
        <path id="Path_419" data-name="Path 419" d="M19.186,22.611c0-.018.008-.034.007-.052s-.006-.017-.007-.026V22.5C19.175,22.438,18.025,16,9,16a.593.593,0,0,0-.39.145l-8.4,7.2a.282.282,0,0,0-.023.03.619.619,0,0,0-.09.119.469.469,0,0,0-.048.082.612.612,0,0,0-.032.148A.586.586,0,0,0,0,23.8v9.6a.6.6,0,0,0,.6.6h.04l17.995-1.2a.6.6,0,0,0,.56-.6ZM9.218,17.2c6.295.078,8.129,3.487,8.616,4.847L2.36,23.08ZM1.2,26.987a1.146,1.146,0,0,1,.6-.188,1.2,1.2,0,0,1,0,2.4,1.146,1.146,0,0,1-.6-.188Zm16.8,4.65L1.2,32.755V30.311a2.337,2.337,0,0,0,.6.086,2.4,2.4,0,0,0,0-4.8,2.337,2.337,0,0,0-.6.086V24.36l16.8-1.119Z" transform="translate(0 -16)" fill="#414141"/>
      </g>
    </g>
    <g id="Group_596" data-name="Group 596" transform="translate(13.197 8.399)">
      <g id="Group_595" data-name="Group 595">
        <path id="Path_420" data-name="Path 420" d="M353.8,240a1.8,1.8,0,1,0,1.8,1.8A1.8,1.8,0,0,0,353.8,240Zm0,2.4a.6.6,0,1,1,.6-.6A.6.6,0,0,1,353.8,242.4Z" transform="translate(-352 -240)" fill="#414141"/>
      </g>
    </g>
    <g id="Group_598" data-name="Group 598" transform="translate(6.599 11.999)">
      <g id="Group_597" data-name="Group 597">
        <path id="Path_421" data-name="Path 421" d="M177.8,336a1.8,1.8,0,1,0,1.8,1.8A1.8,1.8,0,0,0,177.8,336Zm0,2.4a.6.6,0,1,1,.6-.6A.6.6,0,0,1,177.8,338.4Z" transform="translate(-176 -336)" fill="#414141"/>
      </g>
    </g>
  </g>
</svg>
