<svg xmlns="http://www.w3.org/2000/svg" width="19.894" height="13.679" viewBox="0 0 19.894 13.679">
  <g id="m4" transform="translate(0 0.001)">
    <g id="Group_599" data-name="Group 599" transform="translate(0 -0.001)">
      <path id="Path_422" data-name="Path 422" d="M19.894,85.6c0-3.137-1.639-5.6-3.73-5.6a3.606,3.606,0,0,0-3.108,2.466A3.606,3.606,0,0,0,9.947,80a3.606,3.606,0,0,0-3.108,2.466A3.606,3.606,0,0,0,3.73,80C1.639,80,0,82.458,0,85.6a8.393,8.393,0,0,0,.078.975.61.61,0,0,0-.066.39l1.243,6.218a.622.622,0,0,0,.609.5H5.6a.623.623,0,0,0,.556-.343l.688-1.375.688,1.374a.622.622,0,0,0,.556.344h3.73a.623.623,0,0,0,.556-.343l.688-1.374.688,1.374a.623.623,0,0,0,.556.343h3.73a.622.622,0,0,0,.609-.5l1.243-6.218a.61.61,0,0,0-.066-.39A8.393,8.393,0,0,0,19.894,85.6ZM9.947,81.244c1.348,0,2.487,1.993,2.487,4.352,0,.205-.032.415-.05.622H7.51c-.017-.206-.05-.417-.05-.622C7.46,83.237,8.6,81.244,9.947,81.244ZM1.243,85.6c0-2.359,1.139-4.352,2.487-4.352S6.217,83.237,6.217,85.6c0,.205-.032.415-.05.622H1.293C1.276,86.011,1.243,85.8,1.243,85.6Zm16.276,6.839H14.683l-1.072-2.144a.649.649,0,0,0-1.113,0l-1.071,2.144H8.466L7.394,90.291a.649.649,0,0,0-1.113,0L5.211,92.435H2.375L1.38,87.461H18.514ZM18.6,86.218H13.727c-.017-.206-.05-.417-.05-.622,0-2.359,1.139-4.352,2.487-4.352s2.487,1.993,2.487,4.352C18.651,85.8,18.618,86.011,18.6,86.218Z" transform="translate(0 -80)" fill="#414141"/>
    </g>
  </g>
</svg>
