<svg xmlns="http://www.w3.org/2000/svg" width="19.798" height="19.801" viewBox="0 0 19.798 19.801">
  <g id="m5" transform="translate(0 -0.001)">
    <g id="Group_601" data-name="Group 601" transform="translate(0 11.156)">
      <g id="Group_600" data-name="Group 600" transform="translate(0)">
        <path id="Path_423" data-name="Path 423" d="M3.611,288.7a.643.643,0,0,0-1.018,0c-.432.625-2.585,3.818-2.585,5.3a3.093,3.093,0,1,0,6.187,0C6.195,292.516,4.042,289.324,3.611,288.7Zm-.51,7.158A1.858,1.858,0,0,1,1.245,294,12.022,12.022,0,0,1,3.1,290.169,12.01,12.01,0,0,1,4.958,294,1.858,1.858,0,0,1,3.1,295.857Z" transform="translate(-0.008 -288.448)" fill="#414141"/>
      </g>
    </g>
    <g id="Group_603" data-name="Group 603" transform="translate(0 0.001)">
      <g id="Group_602" data-name="Group 602" transform="translate(0 0)">
        <path id="Path_424" data-name="Path 424" d="M19.271,16.626,11.062,8.417a1.856,1.856,0,0,0-.61-3.027,1.833,1.833,0,0,0-.267-2.221A1.842,1.842,0,0,0,8.963,2.66,1.81,1.81,0,0,0,6.213,1.153,1.853,1.853,0,0,0,3.183.544L.559,3.17A1.854,1.854,0,0,0,1.166,6.2,1.8,1.8,0,0,0,2.649,8.943,1.842,1.842,0,0,0,4.5,10.713a1.839,1.839,0,0,0,.909-.275,1.854,1.854,0,0,0,3.023.61l8.209,8.209a1.861,1.861,0,0,0,2.632-2.631ZM1.435,4.92a.62.62,0,0,1,0-.875L4.058,1.42a.619.619,0,1,1,.876.874L2.31,4.92A.619.619,0,0,1,1.435,4.92ZM2.31,7.546a.619.619,0,0,1,0-.876L4.5,4.482,5.81,3.169a0,0,0,0,0,0,0l.872-.872a.619.619,0,0,1,.876.875L3.185,7.546A.624.624,0,0,1,2.31,7.546ZM4.934,9.3a.619.619,0,0,1-.875,0,.621.621,0,0,1,0-.876L8.435,4.044a.621.621,0,0,1,.876,0,.619.619,0,0,1,0,.875l-.876.875h0L7.122,7.108Zm3.076.423C8,9.725,8,9.726,7.989,9.733s-.009.015-.015.022l-.416.416A.619.619,0,0,1,6.684,9.3L8,7.983,9.31,6.67a.619.619,0,1,1,.874.876l-.416.416c-.006.006-.015.007-.021.014S9.738,7.99,9.732,8ZM18.4,18.383a.641.641,0,0,1-.881,0L9.3,10.174l.882-.882L18.395,17.5a.613.613,0,0,1,.182.441A.622.622,0,0,1,18.4,18.383Z" transform="translate(-0.016 0)" fill="#414141"/>
      </g>
    </g>
  </g>
</svg>
