<svg xmlns="http://www.w3.org/2000/svg" width="20.006" height="20.008" viewBox="0 0 20.006 20.008">
  <g id="m6" transform="translate(0 -0.001)">
    <g id="Group_618" data-name="Group 618" transform="translate(0 0.001)">
      <path id="Path_433" data-name="Path 433" d="M17.314,7.547A7.8,7.8,0,0,0,11.678,2.7a1.858,1.858,0,0,0,.2-.827,1.876,1.876,0,1,0-3.751,0,1.858,1.858,0,0,0,.2.827A7.8,7.8,0,0,0,2.692,7.547,3.114,3.114,0,0,0,2.6,13.7l1.16,5.8a.625.625,0,0,0,.613.5H15.63a.625.625,0,0,0,.613-.5l1.16-5.8a3.114,3.114,0,0,0-.089-6.156ZM10,1.251a.625.625,0,1,1-.625.625A.626.626,0,0,1,10,1.251ZM4.889,18.758l-1-5H6.937l.5,5Zm6.424,0H8.693l-.5-5h3.621Zm3.8,0H12.569l.5-5h3.048Zm1.763-6.253H3.126a1.876,1.876,0,0,1,0-3.752c.01,0,.018-.005.028-.005a.672.672,0,0,0,.133-.026.692.692,0,0,0,.1-.03A.624.624,0,0,0,3.5,8.62a.723.723,0,0,0,.084-.066.722.722,0,0,0,.065-.1.65.65,0,0,0,.063-.111.217.217,0,0,0,.013-.024,6.6,6.6,0,0,1,12.565,0c0,.006.009.009.011.016a.614.614,0,0,0,.2.273.463.463,0,0,0,.058.039.6.6,0,0,0,.326.105,1.876,1.876,0,0,1,0,3.752Z" fill="#414141"/>
    </g>
  </g>
</svg>
