<svg xmlns="http://www.w3.org/2000/svg" width="12.306" height="23.076" viewBox="0 0 12.306 23.076">
  <g id="m7" transform="translate(-0.001 0)">
    <g id="Group_623" data-name="Group 623" transform="translate(0.001 0)">
      <g id="Group_622" data-name="Group 622" transform="translate(0 0)">
        <path id="Path_436" data-name="Path 436" d="M268.1,20.866a.771.771,0,0,0-.568-.249h-4.476l.514-3.077h3.962a.769.769,0,0,0,0-1.538h-4.615a.77.77,0,0,0-.758.643l-.663,3.972h-4.732a.77.77,0,0,0-.766.838l.428,4.712a.792.792,0,0,0,.835.7.769.769,0,0,0,.7-.835l-.351-3.874h9.082l-1.4,15.384h-3.143a.769.769,0,0,0,0,1.538h3.846a.768.768,0,0,0,.766-.7L268.3,21.456A.769.769,0,0,0,268.1,20.866Z" transform="translate(-255.996 -16.002)" fill="#414141"/>
      </g>
    </g>
  </g>
</svg>
