<svg xmlns="http://www.w3.org/2000/svg" width="20.591" height="18.019" viewBox="0 0 20.591 18.019">
  <g id="m8" transform="translate(0 0.001)">
    <g id="Group_605" data-name="Group 605" transform="translate(0 -0.001)">
      <g id="Group_604" data-name="Group 604" transform="translate(0 0)">
        <path id="Path_425" data-name="Path 425" d="M17.373,33.284h-1.93v-.644A.644.644,0,0,0,14.8,32H.643a.645.645,0,0,0-.535,1l2.466,3.7V47.442a2.577,2.577,0,0,0,2.574,2.574h7.722a2.577,2.577,0,0,0,2.574-2.574V34.571h1.93A1.933,1.933,0,0,1,19.3,36.5v5.792a.643.643,0,1,0,1.287,0V36.5A3.22,3.22,0,0,0,17.373,33.284ZM14.156,47.442a1.287,1.287,0,0,1-1.287,1.287H5.147A1.287,1.287,0,0,1,3.86,47.442V36.5a.638.638,0,0,0-.108-.357L1.846,33.284h12.31Z" transform="translate(0 -31.997)" fill="#414141"/>
      </g>
    </g>
    <g id="Group_607" data-name="Group 607" transform="translate(7.721 14.157)">
      <g id="Group_606" data-name="Group 606" transform="translate(0 0)">
        <path id="Path_426" data-name="Path 426" d="M193.924,384h-1.287a.644.644,0,0,0,0,1.287h1.287a.644.644,0,0,0,0-1.287Z" transform="translate(-191.994 -383.997)" fill="#414141"/>
      </g>
    </g>
    <g id="Group_609" data-name="Group 609" transform="translate(7.721 11.583)">
      <g id="Group_608" data-name="Group 608" transform="translate(0 0)">
        <path id="Path_427" data-name="Path 427" d="M193.924,320h-1.287a.644.644,0,0,0,0,1.287h1.287a.644.644,0,0,0,0-1.287Z" transform="translate(-191.994 -319.997)" fill="#414141"/>
      </g>
    </g>
    <g id="Group_611" data-name="Group 611" transform="translate(6.434 9.009)">
      <g id="Group_610" data-name="Group 610" transform="translate(0 0)">
        <path id="Path_428" data-name="Path 428" d="M164.5,256h-3.861a.644.644,0,0,0,0,1.287H164.5a.644.644,0,0,0,0-1.287Z" transform="translate(-159.994 -255.997)" fill="#414141"/>
      </g>
    </g>
    <g id="Group_613" data-name="Group 613" transform="translate(7.721 6.435)">
      <g id="Group_612" data-name="Group 612" transform="translate(0 0)">
        <path id="Path_429" data-name="Path 429" d="M193.924,192h-1.287a.644.644,0,0,0,0,1.287h1.287a.644.644,0,0,0,0-1.287Z" transform="translate(-191.994 -191.997)" fill="#414141"/>
      </g>
    </g>
    <g id="Group_615" data-name="Group 615" transform="translate(6.434 3.861)">
      <g id="Group_614" data-name="Group 614">
        <path id="Path_430" data-name="Path 430" d="M164.5,128h-3.861a.644.644,0,0,0,0,1.287H164.5a.644.644,0,0,0,0-1.287Z" transform="translate(-159.994 -127.997)" fill="#414141"/>
      </g>
    </g>
  </g>
</svg>
