<svg xmlns="http://www.w3.org/2000/svg" width="19.662" height="18.435" viewBox="0 0 19.662 18.435">
  <g id="m9" transform="translate(0 0.001)">
    <g id="Group_616" data-name="Group 616" transform="translate(0 -0.001)">
      <path id="Path_431" data-name="Path 431" d="M19.048,19.687a.615.615,0,0,0,0-1.229H9.831V17.229h9.217a.615.615,0,0,0,0-1.229H4.3a.615.615,0,0,0-.614.615v6.76H.614A.615.615,0,0,0,0,23.989a9.253,9.253,0,0,0,6.144,8.545v1.287a.615.615,0,0,0,.614.615H12.9a.615.615,0,0,0,.614-.615V32.534a9.254,9.254,0,0,0,6.144-8.545.615.615,0,0,0-.614-.615H9.831V19.687ZM7.373,17.229H8.6v1.229H7.373Zm0,2.458H8.6v3.687H7.373ZM4.916,17.229H6.144v1.229H4.916Zm0,2.458H6.144v3.687H4.916ZM18.409,24.6a8.123,8.123,0,0,1-5.7,6.913.614.614,0,0,0-.423.584v1.106H7.373V32.1a.616.616,0,0,0-.423-.584,8.12,8.12,0,0,1-5.7-6.913Z" transform="translate(0 -16)" fill="#414141"/>
    </g>
  </g>
</svg>
