<svg xmlns="http://www.w3.org/2000/svg" width="23.774" height="26.38" viewBox="0 0 23.774 26.38">
  <g id="package" transform="translate(-3.75 -2.219)">
    <path id="Path_296" data-name="Path 296" d="M22.387,12.737,11.25,6.315" transform="translate(-1.181 -0.58)" fill="none" stroke="#fff" stroke-linecap="round" stroke-linejoin="round" stroke-width="1.5"/>
    <path id="Path_297" data-name="Path 297" d="M26.774,20.325v-9.9a2.475,2.475,0,0,0-1.237-2.141l-8.662-4.95a2.475,2.475,0,0,0-2.475,0L5.737,8.285A2.475,2.475,0,0,0,4.5,10.425v9.9a2.475,2.475,0,0,0,1.237,2.141l8.662,4.95a2.475,2.475,0,0,0,2.475,0l8.662-4.95a2.475,2.475,0,0,0,1.237-2.141Z" fill="none" stroke="#fff" stroke-linecap="round" stroke-linejoin="round" stroke-width="1.5"/>
    <path id="Path_298" data-name="Path 298" d="M4.905,10.44l10.8,6.249,10.8-6.249" transform="translate(-0.071 -1.302)" fill="none" stroke="#fff" stroke-linecap="round" stroke-linejoin="round" stroke-width="1.5"/>
    <path id="Path_299" data-name="Path 299" d="M18,30.474V18" transform="translate(-2.363 -2.625)" fill="none" stroke="#fff" stroke-linecap="round" stroke-linejoin="round" stroke-width="1.5"/>
  </g>
</svg>
